<svg width="500" height="500" viewBox="0 0 500 500" fill="none" xmlns="http://www.w3.org/2000/svg">
<g opacity="0.04">
<path d="M256.49 479.97C385.178 479.97 489.5 419.739 489.5 345.44C489.5 271.141 385.178 210.91 256.49 210.91C127.803 210.91 23.4805 271.141 23.4805 345.44C23.4805 419.739 127.803 479.97 256.49 479.97Z" fill="white"/>
</g>
<g opacity="0.05">
<path d="M254.66 292.82C282.627 292.82 305.3 279.729 305.3 263.58C305.3 247.431 282.627 234.34 254.66 234.34C226.692 234.34 204.02 247.431 204.02 263.58C204.02 279.729 226.692 292.82 254.66 292.82Z" fill="white"/>
<path d="M377.113 439.499C410.477 439.499 437.523 423.058 437.523 402.779C437.523 382.499 410.477 366.059 377.113 366.059C343.75 366.059 316.703 382.499 316.703 402.779C316.703 423.058 343.75 439.499 377.113 439.499Z" fill="white"/>
<path d="M107.911 408.219C138.359 408.219 163.041 393.968 163.041 376.389C163.041 358.809 138.359 344.559 107.911 344.559C77.4638 344.559 52.7812 358.809 52.7812 376.389C52.7812 393.968 77.4638 408.219 107.911 408.219Z" fill="white"/>
</g>
<path d="M364.279 154.509L348.199 137.859L339.199 138.549L364.279 154.509Z" fill="white"/>
<path d="M364.279 154.512L351.129 136.942L355.779 133.602L364.279 154.512Z" fill="white"/>
<path d="M351.129 136.941L350.379 140.121L364.279 154.511L351.129 136.941Z" fill="white"/>
<path opacity="0.3" d="M351.129 136.941L350.379 140.121L364.279 154.511L351.129 136.941Z" fill="black"/>
<path d="M135.031 181.32L154.311 163.5L164.441 164.86L135.031 181.32Z" fill="white"/>
<path d="M135.031 181.319L151.041 162.279L146.001 158.199L135.031 181.319Z" fill="white"/>
<path d="M151.041 162.281L151.691 165.921L135.031 181.321L151.041 162.281Z" fill="white"/>
<path opacity="0.3" d="M151.041 162.281L151.691 165.921L135.031 181.321L151.041 162.281Z" fill="black"/>
<path d="M317.469 243.133L338.029 229.973L347.079 232.883L317.469 243.133Z" fill="white"/>
<path d="M317.469 243.132L335.239 228.322L331.289 223.762L317.469 243.132Z" fill="white"/>
<path d="M335.239 228.32V231.76L317.469 243.13L335.239 228.32Z" fill="white"/>
<path opacity="0.3" d="M335.239 228.32V231.76L317.469 243.13L335.239 228.32Z" fill="black"/>
<path d="M185.849 296.731L161.969 281.441L151.449 284.811L185.849 296.731Z" fill="white"/>
<path d="M185.851 296.733L165.211 279.523L169.801 274.223L185.851 296.733Z" fill="white"/>
<path d="M165.211 279.52V283.51L185.851 296.73L165.211 279.52Z" fill="white"/>
<path opacity="0.3" d="M165.211 279.52V283.51L185.851 296.73L165.211 279.52Z" fill="black"/>
<path d="M131.49 239.081C131.384 239.079 131.282 239.041 131.2 238.974C131.119 238.907 131.062 238.814 131.04 238.711L130.77 237.341C130.747 237.22 130.773 237.095 130.843 236.994C130.912 236.893 131.019 236.823 131.14 236.801C131.26 236.778 131.385 236.805 131.486 236.874C131.587 236.943 131.657 237.05 131.68 237.171C131.77 237.621 131.85 238.071 131.95 238.521C131.973 238.641 131.949 238.766 131.882 238.869C131.814 238.972 131.71 239.044 131.59 239.071L131.49 239.081Z" fill="#E0E0E0"/>
<path d="M155.888 276.29C155.796 276.288 155.706 276.26 155.628 276.21C154.835 275.67 154.055 275.11 153.288 274.53C153.24 274.493 153.199 274.447 153.169 274.394C153.139 274.341 153.119 274.283 153.112 274.222C153.105 274.162 153.109 274.1 153.126 274.042C153.142 273.983 153.17 273.928 153.208 273.88C153.283 273.784 153.393 273.72 153.515 273.703C153.636 273.686 153.759 273.718 153.858 273.79C154.598 274.36 155.368 274.92 156.148 275.44C156.227 275.498 156.286 275.579 156.317 275.671C156.348 275.764 156.35 275.864 156.321 275.958C156.293 276.052 156.235 276.134 156.158 276.194C156.08 276.253 155.986 276.287 155.888 276.29ZM151.358 272.84C151.248 272.839 151.142 272.8 151.058 272.73C150.338 272.12 149.618 271.47 148.918 270.81C148.865 270.771 148.821 270.72 148.788 270.662C148.756 270.605 148.736 270.541 148.731 270.475C148.725 270.409 148.733 270.342 148.755 270.279C148.776 270.217 148.811 270.16 148.856 270.111C148.902 270.063 148.957 270.025 149.018 269.999C149.079 269.974 149.145 269.962 149.211 269.964C149.278 269.965 149.343 269.981 149.403 270.01C149.462 270.039 149.515 270.08 149.558 270.13C150.248 270.79 150.958 271.42 151.658 272.02C151.704 272.06 151.742 272.108 151.769 272.162C151.797 272.216 151.813 272.275 151.818 272.335C151.823 272.395 151.815 272.456 151.796 272.514C151.778 272.571 151.747 272.624 151.708 272.67C151.666 272.723 151.612 272.765 151.552 272.794C151.491 272.824 151.425 272.839 151.358 272.84ZM147.218 268.93C147.155 268.93 147.094 268.917 147.037 268.891C146.98 268.865 146.929 268.827 146.888 268.78C146.238 268.11 145.588 267.39 144.948 266.66C144.868 266.566 144.828 266.444 144.837 266.32C144.846 266.196 144.904 266.081 144.998 266C145.043 265.96 145.096 265.928 145.154 265.909C145.212 265.889 145.273 265.881 145.334 265.886C145.394 265.891 145.454 265.908 145.508 265.936C145.562 265.964 145.609 266.003 145.648 266.05C146.278 266.76 146.918 267.47 147.558 268.13C147.645 268.218 147.693 268.337 147.693 268.46C147.693 268.584 147.645 268.702 147.558 268.79C147.513 268.835 147.46 268.87 147.402 268.894C147.344 268.918 147.281 268.93 147.218 268.93ZM143.488 264.63C143.417 264.631 143.346 264.615 143.282 264.584C143.217 264.553 143.161 264.507 143.118 264.45C142.538 263.71 141.958 262.94 141.398 262.16C141.361 262.112 141.335 262.057 141.32 261.998C141.305 261.94 141.303 261.879 141.312 261.819C141.321 261.759 141.343 261.702 141.375 261.651C141.407 261.599 141.448 261.555 141.498 261.52C141.547 261.484 141.603 261.457 141.662 261.442C141.722 261.427 141.783 261.424 141.844 261.434C141.905 261.443 141.963 261.464 142.015 261.496C142.067 261.528 142.112 261.571 142.148 261.62C142.698 262.39 143.268 263.15 143.848 263.88C143.886 263.928 143.914 263.983 143.93 264.042C143.947 264.1 143.951 264.162 143.944 264.222C143.936 264.283 143.917 264.341 143.887 264.394C143.857 264.447 143.816 264.493 143.768 264.53C143.69 264.597 143.59 264.632 143.488 264.63ZM140.158 260C140.082 260.001 140.007 259.982 139.94 259.945C139.874 259.909 139.818 259.855 139.778 259.79C139.258 259 138.778 258.18 138.268 257.35C138.206 257.246 138.188 257.12 138.218 257.002C138.248 256.884 138.323 256.783 138.428 256.72C138.481 256.688 138.54 256.667 138.601 256.659C138.662 256.65 138.724 256.653 138.784 256.669C138.844 256.685 138.9 256.713 138.948 256.751C138.997 256.789 139.038 256.836 139.068 256.89C139.548 257.7 140.068 258.5 140.548 259.29C140.613 259.393 140.637 259.517 140.612 259.637C140.588 259.756 140.518 259.861 140.418 259.93C140.34 259.978 140.25 260.002 140.158 260ZM137.278 255.1C137.193 255.1 137.11 255.077 137.038 255.033C136.965 254.989 136.907 254.926 136.868 254.85C136.428 254 135.988 253.14 135.588 252.28C135.561 252.226 135.546 252.167 135.542 252.106C135.539 252.046 135.548 251.985 135.568 251.929C135.589 251.872 135.621 251.819 135.662 251.775C135.703 251.731 135.753 251.695 135.808 251.67C135.92 251.619 136.047 251.613 136.163 251.654C136.279 251.695 136.374 251.78 136.428 251.89C136.828 252.73 137.248 253.58 137.688 254.42C137.745 254.528 137.756 254.653 137.721 254.769C137.685 254.886 137.605 254.983 137.498 255.04C137.431 255.078 137.355 255.099 137.278 255.1ZM134.858 249.94C134.767 249.942 134.677 249.916 134.6 249.866C134.524 249.816 134.464 249.744 134.428 249.66C134.068 248.79 133.718 247.89 133.428 246.98C133.407 246.923 133.398 246.863 133.401 246.802C133.404 246.741 133.419 246.682 133.445 246.627C133.471 246.572 133.508 246.523 133.553 246.482C133.598 246.442 133.651 246.41 133.708 246.39C133.823 246.351 133.949 246.359 134.06 246.411C134.17 246.463 134.255 246.556 134.298 246.67C134.618 247.56 134.968 248.45 135.298 249.3C135.345 249.413 135.347 249.54 135.302 249.654C135.257 249.768 135.17 249.86 135.058 249.91C134.994 249.932 134.926 249.942 134.858 249.94ZM132.918 244.59C132.819 244.59 132.722 244.558 132.643 244.498C132.564 244.439 132.506 244.355 132.478 244.26C132.198 243.35 131.928 242.42 131.688 241.51C131.66 241.39 131.68 241.263 131.744 241.157C131.807 241.051 131.909 240.973 132.028 240.94C132.146 240.91 132.271 240.928 132.376 240.989C132.481 241.051 132.557 241.152 132.588 241.27C132.818 242.18 133.078 243.09 133.358 243.99C133.377 244.048 133.384 244.109 133.379 244.169C133.374 244.23 133.357 244.289 133.329 244.343C133.301 244.397 133.263 244.445 133.216 244.484C133.17 244.523 133.116 244.552 133.058 244.57L132.918 244.59Z" fill="#E0E0E0"/>
<path d="M159.508 278.491C159.43 278.491 159.354 278.47 159.288 278.431C158.878 278.211 158.468 277.981 158.068 277.741C158.014 277.712 157.967 277.672 157.929 277.624C157.891 277.576 157.863 277.521 157.848 277.462C157.832 277.403 157.828 277.342 157.837 277.281C157.845 277.221 157.866 277.163 157.898 277.111C157.928 277.058 157.968 277.012 158.016 276.975C158.064 276.938 158.119 276.911 158.177 276.895C158.236 276.879 158.297 276.875 158.357 276.883C158.417 276.891 158.475 276.91 158.528 276.941C158.928 277.181 159.328 277.401 159.728 277.611C159.818 277.661 159.889 277.74 159.93 277.835C159.971 277.929 159.979 278.035 159.954 278.135C159.929 278.235 159.872 278.324 159.791 278.388C159.711 278.453 159.611 278.489 159.508 278.491Z" fill="#E0E0E0"/>
<path d="M199.601 144.76C199.479 144.76 199.362 144.712 199.275 144.625C199.189 144.539 199.141 144.422 199.141 144.3C199.141 144.178 199.189 144.061 199.275 143.975C199.362 143.889 199.479 143.84 199.601 143.84C200.071 143.84 200.531 143.77 201.001 143.75C201.122 143.747 201.24 143.792 201.329 143.874C201.419 143.956 201.473 144.069 201.481 144.19C201.485 144.25 201.477 144.31 201.457 144.367C201.438 144.424 201.407 144.476 201.367 144.521C201.327 144.566 201.278 144.602 201.224 144.627C201.17 144.653 201.111 144.668 201.051 144.67L199.671 144.76H199.601Z" fill="#E0E0E0"/>
<path d="M159.328 158.82C159.254 158.821 159.181 158.804 159.115 158.771C159.049 158.738 158.992 158.69 158.948 158.63C158.877 158.529 158.849 158.404 158.87 158.283C158.89 158.161 158.958 158.053 159.058 157.98C159.798 157.46 160.548 156.98 161.308 156.46C161.411 156.395 161.535 156.372 161.654 156.396C161.774 156.42 161.879 156.49 161.948 156.59C161.981 156.641 162.004 156.699 162.015 156.759C162.026 156.818 162.025 156.88 162.012 156.94C161.999 156.999 161.974 157.056 161.939 157.105C161.904 157.155 161.859 157.198 161.808 157.23C161.058 157.72 160.318 158.23 159.588 158.74C159.51 158.79 159.42 158.818 159.328 158.82ZM163.848 155.88C163.745 155.883 163.645 155.852 163.562 155.791C163.479 155.73 163.419 155.643 163.392 155.544C163.364 155.445 163.37 155.34 163.41 155.245C163.449 155.15 163.519 155.071 163.608 155.02C164.388 154.55 165.168 154.1 165.958 153.66C166.066 153.602 166.192 153.589 166.309 153.622C166.427 153.656 166.527 153.734 166.588 153.84C166.619 153.893 166.64 153.952 166.648 154.012C166.655 154.073 166.651 154.135 166.634 154.194C166.617 154.253 166.588 154.308 166.549 154.356C166.511 154.403 166.462 154.442 166.408 154.47C165.628 154.91 164.848 155.35 164.088 155.81C164.016 155.856 163.933 155.881 163.848 155.88ZM168.568 153.27C168.482 153.271 168.398 153.246 168.325 153.2C168.252 153.154 168.194 153.088 168.158 153.01C168.105 152.901 168.096 152.776 168.133 152.66C168.17 152.544 168.251 152.448 168.358 152.39C169.168 151.98 169.978 151.59 170.808 151.21C170.918 151.159 171.044 151.153 171.158 151.195C171.273 151.236 171.366 151.321 171.418 151.43C171.47 151.542 171.476 151.669 171.434 151.785C171.393 151.901 171.308 151.996 171.198 152.05C170.388 152.42 169.578 152.81 168.778 153.22C168.712 153.252 168.641 153.269 168.568 153.27ZM173.468 151C173.376 150.998 173.287 150.97 173.21 150.918C173.134 150.867 173.074 150.795 173.038 150.71C172.992 150.598 172.992 150.471 173.039 150.359C173.086 150.246 173.175 150.157 173.288 150.11C174.121 149.75 174.961 149.417 175.808 149.11C175.922 149.068 176.048 149.073 176.159 149.124C176.269 149.174 176.355 149.266 176.398 149.38C176.422 149.436 176.434 149.496 176.434 149.556C176.434 149.617 176.421 149.677 176.397 149.732C176.372 149.787 176.337 149.837 176.292 149.878C176.248 149.919 176.195 149.95 176.138 149.97C175.298 150.3 174.468 150.63 173.648 150.97C173.59 150.99 173.529 151 173.468 151ZM178.468 149.06C178.372 149.06 178.278 149.03 178.199 148.975C178.12 148.919 178.061 148.841 178.028 148.75C178.008 148.693 177.999 148.631 178.003 148.57C178.006 148.509 178.022 148.449 178.049 148.394C178.076 148.339 178.114 148.29 178.16 148.25C178.206 148.21 178.26 148.179 178.318 148.16C179.165 147.86 180.025 147.58 180.898 147.32C180.956 147.302 181.017 147.295 181.077 147.3C181.138 147.305 181.196 147.322 181.25 147.35C181.304 147.377 181.352 147.416 181.391 147.462C181.43 147.509 181.46 147.562 181.478 147.62C181.512 147.738 181.499 147.865 181.441 147.974C181.383 148.082 181.285 148.163 181.168 148.2C180.308 148.47 179.458 148.74 178.618 149.04L178.468 149.06ZM183.618 147.47C183.518 147.469 183.42 147.436 183.341 147.374C183.261 147.313 183.204 147.227 183.178 147.13C183.161 147.072 183.156 147.011 183.163 146.95C183.17 146.89 183.189 146.832 183.219 146.779C183.249 146.726 183.289 146.679 183.337 146.642C183.385 146.604 183.439 146.576 183.498 146.56C184.368 146.32 185.248 146.1 186.128 145.89C186.247 145.863 186.372 145.883 186.477 145.947C186.582 146.01 186.657 146.112 186.688 146.23C186.703 146.289 186.706 146.351 186.697 146.411C186.688 146.471 186.667 146.529 186.635 146.581C186.603 146.634 186.562 146.679 186.512 146.715C186.463 146.751 186.407 146.776 186.348 146.79C185.478 147 184.608 147.22 183.748 147.45L183.618 147.47ZM188.868 146.22C188.762 146.218 188.66 146.181 188.579 146.113C188.497 146.046 188.44 145.954 188.418 145.85C188.394 145.731 188.419 145.607 188.486 145.506C188.554 145.405 188.659 145.334 188.778 145.31C189.668 145.13 190.558 144.96 191.448 144.81C191.568 144.793 191.691 144.823 191.79 144.893C191.888 144.964 191.956 145.071 191.978 145.19C191.989 145.249 191.989 145.31 191.976 145.369C191.964 145.428 191.94 145.484 191.905 145.534C191.871 145.583 191.827 145.625 191.775 145.657C191.724 145.689 191.667 145.711 191.608 145.72C190.718 145.87 189.838 146.04 188.968 146.21L188.868 146.22ZM194.198 145.32C194.086 145.321 193.977 145.281 193.892 145.207C193.807 145.134 193.753 145.032 193.738 144.92C193.721 144.8 193.752 144.677 193.825 144.58C193.898 144.482 194.007 144.418 194.128 144.4C195.028 144.28 195.928 144.17 196.828 144.07C196.944 144.072 197.055 144.116 197.14 144.194C197.225 144.273 197.278 144.38 197.29 144.495C197.301 144.61 197.269 144.725 197.2 144.819C197.132 144.912 197.031 144.977 196.918 145C196.028 145.09 195.138 145.19 194.258 145.32H194.198Z" fill="#E0E0E0"/>
<path d="M155.999 161.27C155.93 161.269 155.862 161.254 155.8 161.224C155.738 161.195 155.683 161.153 155.639 161.1C155.6 161.053 155.571 160.998 155.553 160.939C155.536 160.88 155.531 160.819 155.539 160.758C155.546 160.697 155.566 160.638 155.597 160.585C155.628 160.532 155.669 160.486 155.719 160.45L156.819 159.59C156.917 159.516 157.041 159.484 157.162 159.5C157.284 159.517 157.395 159.582 157.469 159.68C157.543 159.778 157.575 159.902 157.558 160.024C157.542 160.146 157.477 160.256 157.379 160.33L156.289 161.17C156.206 161.236 156.104 161.271 155.999 161.27Z" fill="#E0E0E0"/>
<path d="M340.821 225.599C340.749 225.598 340.678 225.58 340.614 225.547C340.55 225.515 340.494 225.467 340.451 225.409C340.415 225.36 340.388 225.304 340.373 225.245C340.358 225.186 340.355 225.124 340.365 225.063C340.374 225.003 340.395 224.945 340.427 224.892C340.459 224.84 340.502 224.795 340.551 224.759L341.211 224.269C341.26 224.233 341.315 224.206 341.374 224.19C341.433 224.175 341.495 224.171 341.555 224.18C341.615 224.188 341.674 224.208 341.726 224.239C341.779 224.27 341.825 224.311 341.861 224.359C341.898 224.408 341.925 224.463 341.94 224.522C341.956 224.581 341.959 224.643 341.951 224.703C341.943 224.763 341.923 224.821 341.892 224.874C341.861 224.927 341.82 224.973 341.771 225.009L341.101 225.509C341.02 225.568 340.922 225.6 340.821 225.599ZM343.691 223.409C343.622 223.409 343.553 223.393 343.49 223.362C343.428 223.331 343.373 223.285 343.331 223.229C343.256 223.133 343.222 223.011 343.235 222.89C343.248 222.769 343.308 222.657 343.401 222.579C344.121 222.009 344.841 221.429 345.541 220.829C345.588 220.79 345.642 220.76 345.7 220.742C345.758 220.723 345.819 220.716 345.88 220.721C345.941 220.726 346 220.743 346.055 220.771C346.109 220.799 346.157 220.838 346.196 220.884C346.236 220.931 346.266 220.985 346.284 221.043C346.303 221.101 346.31 221.162 346.305 221.223C346.299 221.284 346.282 221.343 346.254 221.397C346.226 221.452 346.188 221.5 346.141 221.539C345.435 222.139 344.715 222.729 343.981 223.309C343.897 223.372 343.796 223.407 343.691 223.409ZM347.941 219.819C347.875 219.818 347.81 219.803 347.75 219.776C347.689 219.748 347.636 219.709 347.591 219.659C347.505 219.573 347.457 219.456 347.457 219.334C347.457 219.212 347.505 219.096 347.591 219.009C348.271 218.389 348.941 217.769 349.591 217.129C349.634 217.085 349.686 217.049 349.742 217.025C349.799 217 349.86 216.987 349.922 216.987C349.984 216.987 350.045 216.999 350.102 217.023C350.159 217.047 350.211 217.083 350.254 217.127C350.297 217.171 350.331 217.224 350.353 217.282C350.375 217.34 350.386 217.401 350.384 217.463C350.381 217.525 350.367 217.586 350.341 217.642C350.315 217.698 350.277 217.748 350.231 217.789C349.561 218.439 348.881 219.079 348.231 219.699C348.151 219.771 348.049 219.814 347.941 219.819ZM351.941 215.959C351.882 215.96 351.823 215.949 351.768 215.926C351.714 215.904 351.664 215.871 351.621 215.829C351.535 215.743 351.487 215.626 351.487 215.504C351.487 215.382 351.535 215.266 351.621 215.179C352.261 214.519 352.901 213.839 353.521 213.179C353.604 213.089 353.718 213.035 353.84 213.03C353.962 213.024 354.081 213.067 354.171 213.149C354.262 213.232 354.315 213.346 354.321 213.468C354.327 213.59 354.284 213.709 354.201 213.799C353.571 214.489 352.931 215.169 352.291 215.799C352.251 215.856 352.198 215.902 352.138 215.937C352.078 215.971 352.011 215.993 351.941 215.999V215.959ZM355.681 211.839C355.627 211.842 355.572 211.834 355.52 211.815C355.469 211.796 355.422 211.767 355.381 211.729C355.335 211.691 355.296 211.643 355.268 211.59C355.239 211.536 355.222 211.477 355.216 211.417C355.211 211.356 355.217 211.295 355.235 211.238C355.253 211.18 355.283 211.126 355.321 211.079C355.921 210.379 356.501 209.659 357.061 208.939C357.137 208.843 357.248 208.78 357.37 208.765C357.492 208.75 357.615 208.784 357.711 208.859C357.808 208.935 357.871 209.046 357.886 209.168C357.901 209.29 357.867 209.413 357.791 209.509C357.221 210.239 356.631 210.969 356.031 211.679C355.989 211.731 355.935 211.772 355.875 211.8C355.814 211.827 355.748 211.841 355.681 211.839ZM359.091 207.459C358.994 207.457 358.9 207.426 358.821 207.369C358.724 207.297 358.658 207.19 358.64 207.07C358.621 206.95 358.65 206.828 358.721 206.729C359.261 205.983 359.781 205.223 360.281 204.449C360.352 204.348 360.459 204.278 360.58 204.254C360.701 204.23 360.827 204.253 360.931 204.319C361.032 204.388 361.102 204.494 361.126 204.613C361.15 204.732 361.127 204.857 361.061 204.959C360.541 205.739 360.011 206.509 359.471 207.269C359.427 207.329 359.37 207.377 359.304 207.41C359.238 207.443 359.165 207.46 359.091 207.459ZM362.151 202.819C362.066 202.82 361.983 202.795 361.911 202.749C361.807 202.687 361.731 202.586 361.701 202.467C361.671 202.349 361.689 202.224 361.751 202.119C362.221 201.329 362.681 200.529 363.121 199.719C363.15 199.666 363.189 199.619 363.236 199.581C363.284 199.543 363.338 199.515 363.396 199.497C363.454 199.48 363.515 199.475 363.575 199.481C363.635 199.487 363.693 199.505 363.746 199.534C363.8 199.563 363.847 199.602 363.885 199.649C363.923 199.696 363.951 199.75 363.968 199.809C363.986 199.867 363.991 199.927 363.985 199.988C363.978 200.048 363.96 200.106 363.931 200.159C363.491 200.979 363.031 201.789 362.551 202.589C362.511 202.659 362.453 202.718 362.382 202.758C362.312 202.798 362.232 202.82 362.151 202.819ZM364.791 197.929C364.714 197.928 364.638 197.907 364.571 197.869C364.503 197.831 364.446 197.777 364.405 197.712C364.363 197.646 364.338 197.572 364.333 197.495C364.327 197.418 364.34 197.34 364.371 197.269C364.771 196.439 365.161 195.589 365.511 194.749C365.562 194.638 365.654 194.55 365.768 194.505C365.882 194.461 366.009 194.462 366.121 194.509C366.178 194.532 366.23 194.566 366.274 194.61C366.317 194.653 366.352 194.705 366.375 194.762C366.398 194.818 366.41 194.879 366.41 194.941C366.409 195.002 366.396 195.063 366.371 195.119C366.001 195.969 365.611 196.829 365.211 197.669C365.172 197.747 365.111 197.812 365.037 197.857C364.963 197.903 364.878 197.928 364.791 197.929ZM366.961 192.819H366.801C366.687 192.775 366.594 192.687 366.544 192.574C366.493 192.462 366.489 192.335 366.531 192.219C366.851 191.349 367.151 190.479 367.421 189.609C367.459 189.493 367.541 189.395 367.649 189.339C367.703 189.311 367.762 189.294 367.822 189.289C367.883 189.284 367.944 189.291 368.001 189.309C368.059 189.328 368.113 189.357 368.159 189.396C368.206 189.435 368.244 189.483 368.272 189.537C368.299 189.591 368.316 189.65 368.322 189.71C368.327 189.771 368.32 189.832 368.301 189.889C368.031 190.769 367.721 191.659 367.401 192.539C367.367 192.618 367.311 192.686 367.241 192.735C367.17 192.785 367.087 192.814 367.001 192.819H366.961ZM368.621 187.509H368.501C368.384 187.474 368.285 187.396 368.223 187.29C368.162 187.184 368.143 187.058 368.171 186.939C368.401 186.049 368.601 185.149 368.781 184.259C368.805 184.139 368.876 184.032 368.978 183.964C369.081 183.895 369.206 183.87 369.326 183.894C369.447 183.918 369.553 183.989 369.622 184.091C369.69 184.193 369.715 184.319 369.691 184.439C369.511 185.349 369.301 186.259 369.071 187.169C369.042 187.266 368.982 187.351 368.902 187.412C368.821 187.473 368.723 187.507 368.621 187.509ZM369.711 182.069H369.651C369.591 182.062 369.533 182.043 369.48 182.012C369.428 181.982 369.382 181.941 369.345 181.893C369.309 181.844 369.283 181.789 369.268 181.73C369.254 181.671 369.252 181.609 369.261 181.549C369.391 180.639 369.501 179.719 369.581 178.819C369.599 178.698 369.661 178.588 369.755 178.51C369.849 178.433 369.969 178.393 370.091 178.399C370.213 178.412 370.324 178.471 370.402 178.564C370.481 178.658 370.52 178.778 370.511 178.899C370.421 179.819 370.311 180.759 370.171 181.679C370.155 181.789 370.099 181.889 370.014 181.96C369.93 182.032 369.822 182.071 369.711 182.069ZM370.231 176.539C370.171 176.537 370.112 176.522 370.057 176.497C370.002 176.471 369.953 176.435 369.912 176.391C369.871 176.346 369.839 176.294 369.819 176.237C369.798 176.18 369.789 176.12 369.791 176.059C369.791 175.349 369.791 174.639 369.791 173.919V173.309C369.789 173.249 369.798 173.188 369.82 173.131C369.841 173.074 369.874 173.022 369.916 172.978C369.958 172.934 370.009 172.899 370.064 172.875C370.12 172.852 370.181 172.839 370.241 172.839C370.363 172.842 370.478 172.891 370.564 172.977C370.65 173.063 370.699 173.178 370.701 173.299V173.909C370.701 174.649 370.701 175.379 370.651 176.099C370.649 176.212 370.605 176.32 370.527 176.401C370.449 176.482 370.344 176.532 370.231 176.539ZM370.171 170.989C370.053 170.99 369.94 170.946 369.852 170.866C369.765 170.786 369.711 170.677 369.701 170.559C369.651 169.649 369.571 168.719 369.461 167.809C369.453 167.688 369.49 167.568 369.566 167.474C369.642 167.379 369.751 167.317 369.871 167.299C369.932 167.292 369.993 167.298 370.052 167.314C370.11 167.331 370.165 167.36 370.212 167.398C370.26 167.436 370.299 167.483 370.328 167.537C370.357 167.59 370.375 167.649 370.381 167.709C370.491 168.629 370.571 169.569 370.631 170.499C370.637 170.621 370.595 170.74 370.515 170.831C370.435 170.922 370.323 170.979 370.201 170.989H370.171ZM369.551 165.469C369.441 165.471 369.333 165.432 369.249 165.36C369.164 165.289 369.108 165.189 369.091 165.079C368.951 164.189 368.771 163.279 368.581 162.369C368.558 162.249 368.582 162.124 368.649 162.021C368.717 161.918 368.821 161.846 368.941 161.819C369.001 161.806 369.063 161.805 369.123 161.816C369.183 161.827 369.241 161.85 369.292 161.884C369.343 161.917 369.387 161.961 369.422 162.011C369.456 162.062 369.48 162.119 369.491 162.179C369.681 163.099 369.861 164.029 370.001 164.929C370.011 164.989 370.01 165.05 369.996 165.109C369.982 165.168 369.957 165.224 369.922 165.273C369.886 165.323 369.842 165.364 369.79 165.396C369.739 165.428 369.681 165.45 369.621 165.459L369.551 165.469Z" fill="#E0E0E0"/>
<path d="M342.21 132.171C342.121 132.173 342.034 132.148 341.96 132.101C341.18 131.611 340.39 131.101 339.6 130.681C339.546 130.652 339.499 130.612 339.461 130.565C339.423 130.517 339.395 130.462 339.378 130.404C339.361 130.345 339.356 130.284 339.363 130.223C339.371 130.163 339.39 130.104 339.42 130.051C339.482 129.944 339.585 129.866 339.705 129.834C339.825 129.802 339.952 129.819 340.06 129.881C340.86 130.341 341.66 130.821 342.45 131.321C342.553 131.387 342.627 131.491 342.655 131.61C342.683 131.73 342.663 131.856 342.6 131.961C342.558 132.026 342.5 132.079 342.432 132.116C342.364 132.153 342.287 132.172 342.21 132.171ZM337.39 129.411C337.317 129.425 337.242 129.425 337.17 129.411C336.36 128.981 335.53 128.571 334.7 128.181C334.59 128.129 334.505 128.036 334.464 127.921C334.423 127.807 334.428 127.681 334.48 127.571C334.534 127.46 334.628 127.375 334.744 127.332C334.859 127.289 334.987 127.293 335.1 127.341C335.94 127.741 336.77 128.161 337.6 128.591C337.692 128.638 337.766 128.715 337.809 128.809C337.852 128.903 337.863 129.008 337.838 129.109C337.814 129.21 337.757 129.299 337.675 129.363C337.594 129.427 337.493 129.461 337.39 129.461V129.411ZM332.39 127.041C332.33 127.051 332.269 127.051 332.21 127.041C331.36 126.681 330.51 126.331 329.65 126.041C329.584 126.026 329.522 125.998 329.469 125.957C329.415 125.916 329.371 125.864 329.339 125.805C329.307 125.746 329.288 125.68 329.283 125.613C329.279 125.546 329.289 125.479 329.313 125.416C329.337 125.353 329.374 125.296 329.422 125.248C329.47 125.201 329.527 125.164 329.591 125.141C329.654 125.118 329.721 125.109 329.788 125.114C329.856 125.119 329.921 125.138 329.98 125.171C330.85 125.501 331.72 125.851 332.57 126.171C332.672 126.21 332.757 126.283 332.81 126.379C332.863 126.474 332.88 126.585 332.858 126.693C332.836 126.8 332.777 126.895 332.692 126.963C332.606 127.03 332.499 127.065 332.39 127.061V127.041ZM327.2 125.041H327.05C326.18 124.741 325.3 124.471 324.42 124.211C324.361 124.194 324.306 124.165 324.259 124.127C324.211 124.088 324.172 124.04 324.143 123.986C324.114 123.932 324.096 123.873 324.09 123.812C324.085 123.751 324.091 123.689 324.11 123.631C324.126 123.573 324.153 123.518 324.191 123.47C324.229 123.423 324.276 123.384 324.329 123.355C324.382 123.326 324.441 123.308 324.501 123.302C324.561 123.296 324.622 123.303 324.68 123.321C325.58 123.581 326.46 123.861 327.35 124.161C327.466 124.202 327.561 124.287 327.615 124.397C327.669 124.507 327.678 124.634 327.64 124.751C327.607 124.848 327.544 124.932 327.459 124.99C327.374 125.048 327.272 125.076 327.17 125.071L327.2 125.041ZM321.87 123.471H321.76C320.87 123.241 319.97 123.031 319.07 122.841C318.95 122.812 318.845 122.738 318.78 122.633C318.714 122.528 318.693 122.402 318.72 122.281C318.733 122.222 318.757 122.166 318.792 122.116C318.827 122.067 318.871 122.024 318.922 121.992C318.973 121.959 319.03 121.937 319.09 121.927C319.15 121.916 319.211 121.918 319.27 121.931C320.18 122.131 321.08 122.341 321.99 122.571C322.107 122.606 322.207 122.684 322.268 122.79C322.329 122.896 322.348 123.022 322.32 123.141C322.296 123.248 322.235 123.344 322.147 123.41C322.058 123.476 321.95 123.508 321.84 123.501L321.87 123.471ZM316.45 122.281H316.36C315.46 122.111 314.55 121.971 313.64 121.841C313.579 121.832 313.521 121.812 313.469 121.781C313.416 121.75 313.37 121.709 313.334 121.66C313.297 121.612 313.27 121.556 313.255 121.497C313.24 121.438 313.236 121.376 313.245 121.316C313.253 121.256 313.274 121.197 313.305 121.145C313.336 121.092 313.377 121.046 313.425 121.01C313.474 120.973 313.53 120.946 313.589 120.931C313.648 120.916 313.709 120.912 313.77 120.921C314.69 121.048 315.61 121.198 316.53 121.371C316.589 121.381 316.646 121.402 316.697 121.434C316.748 121.466 316.793 121.508 316.827 121.558C316.862 121.607 316.886 121.663 316.898 121.722C316.911 121.781 316.911 121.842 316.9 121.901C316.887 122.018 316.83 122.125 316.741 122.201C316.652 122.278 316.537 122.317 316.42 122.311L316.45 122.281ZM310.95 121.501H310.9C309.98 121.401 309.06 121.321 308.15 121.251C308.089 121.247 308.03 121.231 307.976 121.205C307.922 121.178 307.873 121.141 307.833 121.095C307.793 121.05 307.762 120.997 307.743 120.939C307.724 120.882 307.716 120.821 307.72 120.761C307.721 120.7 307.735 120.639 307.76 120.583C307.786 120.528 307.823 120.478 307.87 120.437C307.916 120.397 307.97 120.367 308.028 120.348C308.087 120.33 308.149 120.324 308.21 120.331C309.143 120.391 310.073 120.471 311 120.571C311.111 120.592 311.211 120.653 311.281 120.743C311.351 120.833 311.387 120.944 311.381 121.058C311.374 121.171 311.327 121.279 311.248 121.36C311.169 121.442 311.063 121.492 310.95 121.501Z" fill="#E0E0E0"/>
<path d="M384 142.084L391.86 137.544C392.018 137.48 392.148 137.363 392.23 137.214L393.67 134.694L389 132.004L389.14 132.414L384 142.084Z" fill="#D23E30"/>
<g opacity="0.1">
<path opacity="0.1" d="M384 142.084L391.86 137.544C392.018 137.48 392.148 137.363 392.23 137.214L393.67 134.694L389 132.004L389.14 132.414L384 142.084Z" fill="black"/>
</g>
<path d="M389.67 132.38L384.23 141.8C384.153 141.936 384.038 142.046 383.9 142.118C383.761 142.189 383.605 142.22 383.45 142.205C383.295 142.19 383.147 142.131 383.025 142.034C382.902 141.938 382.81 141.808 382.76 141.66L377 125.07L389.67 132.38Z" fill="#D23E30"/>
<path d="M333.82 65.0031C333.892 63.6859 334.272 62.404 334.93 61.261C335.589 60.1179 336.507 59.1458 337.61 58.4231C338.788 57.8265 340.09 57.5156 341.41 57.5156C342.731 57.5156 344.032 57.8265 345.21 58.4231L406.73 93.9031C407.836 94.6247 408.756 95.5963 409.416 96.7395C410.076 97.8826 410.458 99.165 410.53 100.483V131.643C410.459 132.961 410.077 134.244 409.417 135.387C408.757 136.531 407.836 137.502 406.73 138.223C405.552 138.82 404.251 139.131 402.93 139.131C401.61 139.131 400.308 138.82 399.13 138.223L337.26 102.483C333.85 100.533 333.82 98.5831 333.82 96.1631V65.0031Z" fill="#D23E30"/>
<path d="M390.08 110.764L346.14 85.2639C344.87 84.5339 343.84 84.8739 343.84 86.0139C343.932 86.7218 344.188 87.3984 344.587 87.9903C344.987 88.5822 345.518 89.073 346.14 89.4239L390.08 114.914C391.35 115.654 392.38 115.314 392.38 114.174C392.287 113.466 392.031 112.789 391.632 112.198C391.233 111.606 390.702 111.115 390.08 110.764Z" fill="#E0E0E0"/>
<path d="M376.77 111.934L346.14 94.1741C344.87 93.4441 343.84 93.7841 343.84 94.9241C343.932 95.632 344.188 96.3086 344.587 96.9005C344.987 97.4923 345.518 97.9831 346.14 98.3341L376.77 116.084C378.04 116.824 379.07 116.484 379.07 115.344C378.977 114.636 378.721 113.96 378.322 113.368C377.923 112.776 377.392 112.285 376.77 111.934Z" fill="#E0E0E0"/>
<path d="M390.08 101.773L346.14 76.2825C344.87 75.5425 343.84 75.8825 343.84 77.0325C343.934 77.7399 344.19 78.416 344.589 79.0076C344.988 79.5992 345.519 80.0904 346.14 80.4425L390.08 105.933C391.35 106.663 392.38 106.333 392.38 105.183C392.286 104.475 392.029 103.799 391.63 103.207C391.231 102.616 390.701 102.125 390.08 101.773Z" fill="#E0E0E0"/>
<path opacity="0.1" d="M410.53 131.63C410.459 132.949 410.077 134.231 409.417 135.375C408.757 136.518 407.836 137.489 406.73 138.21C405.654 138.761 404.473 139.075 403.265 139.13C402.058 139.185 400.852 138.981 399.73 138.53C401.52 139.21 402.88 138.19 402.88 136.02V104.85C402.837 103.529 402.455 102.242 401.77 101.11L409.37 96.7305C410.05 97.8635 410.432 99.1501 410.48 100.47L410.53 131.63Z" fill="black"/>
<path opacity="0.3" d="M333.941 63.9021C334.381 62.2921 335.851 61.7821 337.611 62.7921L399.141 98.2821C400.264 98.9753 401.185 99.9512 401.811 101.112L409.401 96.7421C408.772 95.5805 407.852 94.602 406.731 93.9021L345.221 58.4121C344.04 57.82 342.738 57.5117 341.416 57.5117C340.095 57.5117 338.792 57.82 337.611 58.4121C336.659 59.0305 335.843 59.8361 335.212 60.7799C334.581 61.7237 334.149 62.786 333.941 63.9021Z" fill="white"/>
<path d="M100.26 118.242L92.74 113.902C92.5917 113.841 92.4683 113.731 92.39 113.592L91 111.172L95.46 108.602L95.32 108.992L100.26 118.242Z" fill="#0C6DFF"/>
<g opacity="0.55">
<path opacity="0.55" d="M100.26 118.242L92.74 113.902C92.5917 113.841 92.4683 113.731 92.39 113.592L91 111.172L95.46 108.602L95.32 108.992L100.26 118.242Z" fill="white"/>
</g>
<path d="M94.793 109.004L99.993 118.004C100.066 118.133 100.175 118.239 100.307 118.308C100.438 118.377 100.587 118.407 100.735 118.393C100.883 118.379 101.024 118.323 101.141 118.231C101.258 118.139 101.345 118.015 101.393 117.874L106.893 102.004L94.793 109.004Z" fill="#0C6DFF"/>
<path opacity="0.7" d="M94.793 109.004L99.993 118.004C100.066 118.133 100.175 118.239 100.307 118.308C100.438 118.377 100.587 118.407 100.735 118.393C100.883 118.379 101.024 118.323 101.141 118.231C101.258 118.139 101.345 118.015 101.393 117.874L106.893 102.004L94.793 109.004Z" fill="white"/>
<path d="M114.561 63.6632C114.497 62.401 114.134 61.172 113.503 60.0769C112.873 58.9819 111.991 58.0519 110.931 57.3632C109.807 56.7906 108.563 56.4922 107.301 56.4922C106.04 56.4922 104.796 56.7906 103.671 57.3632L44.8314 91.3132C43.7712 91.9998 42.8886 92.9277 42.256 94.021C41.6233 95.1143 41.2585 96.3418 41.1914 97.6032V127.403C41.2585 128.665 41.6233 129.892 42.256 130.985C42.8886 132.079 43.7712 133.007 44.8314 133.693C45.9558 134.266 47.1997 134.564 48.4614 134.564C49.7232 134.564 50.967 134.266 52.0914 133.693L111.271 99.5032C114.531 97.6432 114.561 95.7732 114.561 93.5032V63.6632Z" fill="#0C6DFF"/>
<path opacity="0.7" d="M114.571 63.6642V93.4542C114.571 95.7742 114.571 97.6442 111.271 99.4542L52.0909 133.694C51.8903 133.806 51.6833 133.906 51.4709 133.994H51.3909H51.2909L51.1509 134.044H51.2109C49.6309 134.494 48.4609 133.514 48.4609 131.554V101.754C48.5068 100.491 48.8715 99.2591 49.5209 98.1742C50.119 97.0573 51.0023 96.1188 52.0809 95.4542L110.931 61.5142C112.611 60.5142 114.011 61.0442 114.441 62.5742C114.327 61.9714 114.142 61.3841 113.891 60.8242C114.323 61.7095 114.556 62.6791 114.571 63.6642Z" fill="white"/>
<path opacity="0.55" d="M41.2031 127.404C41.2691 128.664 41.6324 129.891 42.2633 130.985C42.8942 132.078 43.7748 133.006 44.8331 133.694C45.8554 134.211 46.9755 134.506 48.1199 134.559C49.2644 134.613 50.4071 134.424 51.4731 134.004C49.7631 134.654 48.4731 133.674 48.4731 131.604V101.804C48.519 100.54 48.8837 99.3088 49.5331 98.2239L42.2631 94.0039C41.6059 95.0927 41.2408 96.3327 41.2031 97.6039V127.404Z" fill="white"/>
<path opacity="0.85" d="M114.44 62.6231C114.02 61.0831 112.61 60.6231 110.94 61.5631L52.0895 95.5031C51.0157 96.1693 50.1336 97.1032 49.5295 98.2131L42.2695 94.0031C42.8733 92.8903 43.7553 91.9531 44.8295 91.2831L103.66 57.3431C104.787 56.7759 106.032 56.4805 107.295 56.4805C108.557 56.4805 109.802 56.7759 110.93 57.3431C111.844 57.9376 112.626 58.7126 113.23 59.6205C113.834 60.5285 114.245 61.5503 114.44 62.6231Z" fill="white"/>
<path d="M58.2195 108.901L100.22 84.5113C101.44 83.8113 102.42 84.1313 102.42 85.2313C102.332 85.9083 102.087 86.5555 101.705 87.1214C101.323 87.6873 100.814 88.1564 100.22 88.4913L58.2195 112.871C57.0095 113.571 56.0195 113.251 56.0195 112.161C56.1097 111.485 56.3553 110.839 56.737 110.273C57.1186 109.708 57.6261 109.238 58.2195 108.901Z" fill="#455A64"/>
<path d="M58.2195 117.523L87.5195 100.523C88.7295 99.823 89.7195 100.143 89.7195 101.243C89.6271 101.919 89.3807 102.564 88.9992 103.129C88.6178 103.694 88.1115 104.164 87.5195 104.503L58.2195 121.503C57.0095 122.213 56.0195 121.893 56.0195 120.793C56.1083 120.115 56.3531 119.467 56.7349 118.899C57.1166 118.332 57.6248 117.861 58.2195 117.523Z" fill="#455A64"/>
<path d="M58.2195 100.301L100.22 75.9214C101.44 75.2214 102.42 75.5414 102.42 76.6414C102.33 77.318 102.085 77.9645 101.703 78.5302C101.321 79.0959 100.813 79.5653 100.22 79.9014L58.2195 104.281C57.0095 104.981 56.0195 104.661 56.0195 103.561C56.1097 102.885 56.3553 102.239 56.737 101.673C57.1186 101.108 57.6261 100.638 58.2195 100.301Z" fill="#455A64"/>
<path d="M223.28 50.0011C223.127 49.9172 222.955 49.8725 222.78 49.8711H213.67L209.91 52.0011V65.0011L213.67 62.8311L216.92 59.0711V69.0711L220.68 66.9011L230.54 55.5111C230.635 55.4003 230.704 55.27 230.743 55.1296C230.783 54.9891 230.79 54.8418 230.767 54.6979C230.743 54.554 230.688 54.4171 230.606 54.2967C230.523 54.1764 230.416 54.0755 230.29 54.0011L223.28 50.0011Z" fill="#455A64"/>
<path d="M216.922 69.1023L220.682 66.9323L230.542 55.5423C230.663 55.3975 230.74 55.2215 230.765 55.0347C230.79 54.8478 230.761 54.6577 230.683 54.4863C230.605 54.3148 230.479 54.1691 230.322 54.0657C230.164 53.9624 229.98 53.9058 229.792 53.9023H220.682L216.922 56.0723V69.1023Z" fill="#37474F"/>
<path d="M220.681 46.2418C220.618 45.0784 220.282 43.9461 219.7 42.9367C219.118 41.9274 218.306 41.0692 217.331 40.4318C216.293 39.904 215.145 39.6289 213.981 39.6289C212.816 39.6289 211.669 39.904 210.631 40.4318L156.401 71.7218C155.426 72.3577 154.615 73.2141 154.033 74.2217C153.451 75.2294 153.115 76.3599 153.051 77.5218V105.002C153.114 106.164 153.45 107.295 154.032 108.303C154.614 109.31 155.426 110.167 156.401 110.802C157.44 111.324 158.587 111.596 159.751 111.596C160.914 111.596 162.061 111.324 163.101 110.802L217.651 79.2918C220.651 77.5718 220.651 75.8518 220.651 73.7118L220.681 46.2418Z" fill="#37474F"/>
<path d="M153.05 105.003C153.113 106.165 153.449 107.296 154.031 108.303C154.613 109.311 155.425 110.167 156.4 110.803C157.344 111.278 158.379 111.549 159.435 111.597C160.491 111.646 161.546 111.47 162.53 111.083C160.95 111.673 159.75 110.773 159.75 108.863V81.3927C159.794 80.2249 160.138 79.0883 160.75 78.0927L154 74.2227C153.394 75.2208 153.05 76.356 153 77.5227L153.05 105.003Z" fill="#263238"/>
<path d="M220.57 45.2831C220.18 43.8631 218.89 43.4131 217.34 44.2831L163.1 75.593C162.105 76.2018 161.29 77.0647 160.74 78.093L154 74.2331C154.559 73.2111 155.372 72.3501 156.36 71.7331L210.59 40.4431C211.631 39.9205 212.78 39.6484 213.945 39.6484C215.11 39.6484 216.259 39.9205 217.3 40.4431C218.147 40.9839 218.873 41.6924 219.436 42.5248C219.998 43.3572 220.384 44.2958 220.57 45.2831Z" fill="#455A64"/>
<path d="M170.68 86.9999L209.43 64.5299C210.55 63.8799 211.43 64.1699 211.43 65.1899C211.349 65.81 211.127 66.4032 210.78 66.9235C210.433 67.4437 209.971 67.8771 209.43 68.1899L170.68 90.6899C169.56 91.3299 168.68 91.0399 168.68 90.0299C168.756 89.4045 168.976 88.8054 169.323 88.2796C169.67 87.7538 170.135 87.3157 170.68 86.9999Z" fill="#D7D7D7"/>
<path d="M182.422 88.1618L209.422 72.5118C210.542 71.8618 211.422 72.1618 211.422 73.1718C211.343 73.7924 211.121 74.3862 210.774 74.9067C210.427 75.4271 209.964 75.8602 209.422 76.1718L182.422 91.8218C181.302 92.4718 180.422 92.1818 180.422 91.1618C180.502 90.5417 180.725 89.9485 181.072 89.4283C181.418 88.908 181.88 88.4746 182.422 88.1618Z" fill="#D7D7D7"/>
<path d="M170.68 79.1007L209.43 56.6207C210.55 55.9807 211.43 56.2707 211.43 57.2807C211.349 57.9008 211.127 58.4939 210.78 59.0142C210.433 59.5345 209.971 59.9679 209.43 60.2807L170.68 82.7607C169.56 83.4107 168.68 83.1207 168.68 82.1007C168.76 81.4806 168.983 80.8874 169.329 80.3671C169.676 79.8468 170.138 79.4135 170.68 79.1007Z" fill="#D7D7D7"/>
<path d="M398.09 197.74C403.24 196.59 409.09 198.74 412.98 207C416.74 214.88 427.62 238.07 427.87 243.63C428.13 249.4 404.64 267.37 405.3 267.06C405.5 266.96 400.05 255.95 400.05 255.95L412 241.1L405.24 227.79L398.09 197.74Z" fill="#D23E30"/>
<g opacity="0.35">
<path opacity="0.35" d="M398.09 197.74C403.24 196.59 409.09 198.74 412.98 207C416.74 214.88 427.62 238.07 427.87 243.63C428.13 249.4 404.64 267.37 405.3 267.06C405.5 266.96 400.05 255.95 400.05 255.95L412 241.1L405.24 227.79L398.09 197.74Z" fill="black"/>
</g>
<path d="M407.079 384.728C407.759 384.988 408.149 386.278 408.459 389.428C408.639 391.428 409.309 393.968 406.329 395.548C405.244 396.107 404.04 396.393 402.82 396.381C401.6 396.369 400.402 396.059 399.329 395.478C396.749 393.878 395.439 390.918 392.419 388.548C389.759 386.468 386.419 384.928 384.279 381.138C382.139 377.348 382.479 374.828 386.879 374.828C393.959 374.828 396.079 378.728 399.719 378.828C401.709 378.848 406.389 384.478 407.079 384.728Z" fill="#263238"/>
<path d="M407.07 383.178V386.358C407.07 387.908 400.46 390.228 398.61 386.678C398.47 386.368 397.75 382.008 397.75 382.008L407.07 383.178Z" fill="#FFA8A7"/>
<path d="M376.409 403.25C376.409 403.25 377.669 403.25 378.159 408.38C378.349 410.38 378.819 414.38 378.159 415.8C377.499 417.22 373.879 417.89 369.819 418.25C366.819 418.52 364.059 419.99 361.259 421.57C358.604 423.065 355.624 423.889 352.579 423.97C348.739 423.97 345.489 423.58 342.759 421.42C341.309 420.27 339.459 417.85 340.809 416.02C341.371 415.466 342.084 415.09 342.859 414.94C344.569 414.3 346.289 413.72 348.029 413.17C350.63 412.398 353.168 411.425 355.619 410.26C359.199 408.49 363.189 406.52 365.899 403.5L376.409 403.25Z" fill="#263238"/>
<path d="M376.389 400.598C376.389 400.598 376.389 402.958 376.389 404.308C376.389 405.658 374.829 407.668 370.699 407.548C367.809 407.458 365.779 406.688 365.879 404.298V400.868L376.389 400.598Z" fill="#FFA8A7"/>
<path d="M408.921 340.997C408.187 335.372 406.9 329.831 405.081 324.457C405.081 324.457 406.141 310.157 406.621 296.597C407.037 282.707 406.65 268.803 405.461 254.957C405.461 254.957 359.401 250.597 358.641 267.517C357.881 284.437 358.981 327.517 359.581 334.937C360.181 342.357 360.771 349.327 362.351 363.157C363.701 375.067 365.891 400.917 365.891 400.917C367.528 401.74 369.343 402.146 371.175 402.099C373.007 402.052 374.799 401.553 376.391 400.647C376.391 400.647 379.861 365.937 380.261 357.367C380.781 346.247 378.191 340.117 378.191 340.117C378.191 340.117 379.191 333.117 380.881 318.737C382.091 308.587 383.701 297.017 383.701 297.017C383.701 297.017 385.281 311.337 386.231 319.317C387.121 326.717 388.621 332.567 390.841 346.367C392.771 358.367 398.031 383.667 398.031 383.667C403.441 386.557 407.031 383.227 407.031 383.227C407.031 383.227 410.431 351.337 408.921 340.997Z" fill="#37474F"/>
<path d="M383.699 296.998L385.879 282.858C385.879 282.858 394.879 279.998 399.399 274.668C399.399 274.668 396.969 280.878 388.619 284.218L385.269 296.128L384.699 305.948L383.699 296.998Z" fill="black"/>
<path d="M376.141 193.618L378.291 208.728L391.891 208.258L390.581 190.598L376.141 193.618Z" fill="#FFA8A7"/>
<path d="M366.378 175C366.378 175 362.728 180.35 363.128 180.89C363.528 181.43 366.128 181.94 366.128 181.94L366.378 175Z" fill="#F28F8F"/>
<path d="M367.57 178.45C366.693 178.434 365.84 178.158 365.119 177.657C364.398 177.157 363.841 176.454 363.52 175.637C363.198 174.821 363.126 173.927 363.312 173.069C363.498 172.212 363.934 171.428 364.565 170.818C365.196 170.208 365.993 169.799 366.857 169.642C367.72 169.485 368.611 169.587 369.416 169.936C370.222 170.285 370.906 170.865 371.381 171.603C371.857 172.34 372.104 173.202 372.09 174.08C372.069 175.258 371.582 176.38 370.734 177.199C369.887 178.019 368.749 178.468 367.57 178.45ZM367.7 170.56C367.018 170.55 366.348 170.742 365.776 171.113C365.203 171.484 364.753 172.017 364.483 172.643C364.213 173.27 364.134 173.962 364.258 174.633C364.381 175.304 364.701 175.924 365.176 176.413C365.652 176.903 366.261 177.24 366.929 177.383C367.596 177.526 368.29 177.467 368.925 177.215C369.559 176.964 370.104 176.529 370.491 175.968C370.878 175.406 371.09 174.742 371.1 174.06C371.107 173.607 371.024 173.157 370.857 172.735C370.69 172.314 370.441 171.93 370.125 171.605C369.81 171.28 369.433 171.021 369.017 170.841C368.601 170.662 368.153 170.566 367.7 170.56Z" fill="#263238"/>
<path d="M376.51 160.16C369.27 161.57 367.14 164.7 366.28 176.16C365.38 188.11 366.54 191.89 368.09 193.53C369.14 194.63 375.03 194.92 378.02 194.15C381.76 193.15 390.22 190.33 394.26 184.38C399.01 177.38 400.38 167.79 395.47 163.77C388.58 158.11 379.45 159.59 376.51 160.16Z" fill="#FFA8A7"/>
<path d="M376.25 194.44C373.14 194.79 368.96 194.44 368.09 193.52C370.742 193.497 373.366 192.981 375.83 192L376.25 194.44Z" fill="#F28F8F"/>
<path d="M363.681 162.999C363.66 164.045 364.015 165.063 364.681 165.869C365.296 166.526 366.076 167.006 366.939 167.261C367.802 167.516 368.717 167.536 369.591 167.319C369.384 167.878 369.33 168.483 369.436 169.07C369.541 169.657 369.802 170.204 370.191 170.657C370.58 171.109 371.082 171.448 371.647 171.64C372.211 171.833 372.817 171.87 373.401 171.749C373.051 171.829 373.971 174.499 374.061 174.749C374.199 175.245 374.439 175.707 374.766 176.105C375.093 176.503 375.5 176.828 375.961 177.059C375.961 177.059 377.231 172.449 381.121 173.059C385.011 173.669 385.491 178.719 382.971 181.719C380.451 184.719 378.161 183.519 378.161 183.519C378.161 183.519 378.161 190.139 381.041 193.929C381.041 193.929 384.361 195.069 390.521 193.849C394.301 193.109 399.711 188.479 402.031 183.529C406.941 173.039 407.421 163.529 400.721 160.589C400.461 160.469 400.361 159.169 400.281 158.889C400.096 158.147 399.803 157.436 399.411 156.779C398.502 155.357 397.204 154.226 395.671 153.519C393.413 152.562 390.993 152.046 388.541 151.999C386.098 151.949 383.664 151.701 381.261 151.259C379.111 150.759 377.091 149.839 374.991 149.159C372.921 148.364 370.677 148.139 368.491 148.509C367.405 148.716 366.4 149.224 365.59 149.975C364.779 150.727 364.198 151.692 363.911 152.759C363.441 155.189 364.851 157.209 366.321 158.989C365.524 159.309 364.841 159.862 364.363 160.575C363.885 161.289 363.633 162.13 363.641 162.989L363.681 162.999Z" fill="#263238"/>
<path d="M399.801 162.998L404.151 160.518C403.988 160.232 403.771 159.981 403.511 159.78C403.251 159.578 402.955 159.43 402.637 159.343C402.32 159.256 401.989 159.232 401.663 159.274C401.337 159.315 401.022 159.42 400.736 159.583C400.451 159.745 400.2 159.963 399.998 160.223C399.797 160.482 399.648 160.779 399.562 161.096C399.475 161.414 399.451 161.745 399.492 162.071C399.533 162.397 399.638 162.712 399.801 162.998Z" fill="#263238"/>
<path d="M375.931 179.639L376.141 174.639C375.797 174.598 375.448 174.628 375.117 174.727C374.785 174.827 374.477 174.994 374.213 175.218C373.95 175.442 373.735 175.718 373.583 176.029C373.431 176.341 373.345 176.68 373.33 177.026C373.316 177.372 373.373 177.717 373.498 178.04C373.624 178.363 373.815 178.656 374.059 178.901C374.303 179.147 374.595 179.339 374.917 179.466C375.24 179.593 375.585 179.652 375.931 179.639Z" fill="#263238"/>
<path d="M363.631 173.02L377.021 174.97L376.461 175.9L363.621 174.03L363.631 173.02Z" fill="#263238"/>
<path d="M406.899 206.108C405.309 199.908 403.069 197.878 397.669 197.738C394.883 197.921 392.111 198.275 389.369 198.798C388.799 201.418 382.029 203.198 375.169 201.798C373.169 202.388 367.739 203.858 366.039 204.468C361.189 206.228 358.839 211.268 358.519 227.268C358.519 227.268 357.589 265.188 358.519 271.738C370.749 276.508 383.449 276.298 390.459 274.738C405.049 271.468 406.779 265.398 406.779 265.398C406.779 265.398 406.019 250.178 405.519 238.598C406.249 231.228 407.349 225.688 407.749 219.808C408.104 215.224 407.818 210.613 406.899 206.108Z" fill="#D23E30"/>
<g opacity="0.2">
<path opacity="0.2" d="M406.899 206.108C405.309 199.908 403.069 197.878 397.669 197.738C394.883 197.921 392.111 198.275 389.369 198.798C388.799 201.418 382.029 203.198 375.169 201.798C373.169 202.388 367.739 203.858 366.039 204.468C361.189 206.228 358.839 211.268 358.519 227.268C358.519 227.268 357.589 265.188 358.519 271.738C370.749 276.508 383.449 276.298 390.459 274.738C405.049 271.468 406.779 265.398 406.779 265.398C406.779 265.398 406.019 250.178 405.519 238.598C406.249 231.228 407.349 225.688 407.749 219.808C408.104 215.224 407.818 210.613 406.899 206.108Z" fill="black"/>
</g>
<path d="M390.899 194.868L390.999 196.328C390.999 196.328 390.289 198.328 386.159 199.148C379.229 200.438 376.799 198.278 376.799 198.278L376.629 197.028C376.629 197.028 375.959 196.758 374.829 197.628C373.12 199.403 371.52 201.279 370.039 203.248C370.039 203.248 371.359 202.858 375.689 204.698C380.013 206.388 384.78 206.568 389.219 205.208C390.457 204.799 391.565 204.072 392.434 203.1C393.303 202.127 393.901 200.944 394.169 199.668C394.339 198.398 392.089 194.358 390.899 194.868Z" fill="#D23E30"/>
<path opacity="0.35" d="M390.899 194.868L390.999 196.328C390.999 196.328 390.289 198.328 386.159 199.148C379.229 200.438 376.799 198.278 376.799 198.278L376.629 197.028C376.629 197.028 375.959 196.758 374.829 197.628C373.12 199.403 371.52 201.279 370.039 203.248C370.039 203.248 371.359 202.858 375.689 204.698C380.013 206.388 384.78 206.568 389.219 205.208C390.457 204.799 391.565 204.072 392.434 203.1C393.303 202.127 393.901 200.944 394.169 199.668C394.339 198.398 392.089 194.358 390.899 194.868Z" fill="black"/>
<path d="M364.509 205.078C358.719 206.198 353.639 208.838 353.739 215.698C353.774 224.461 352.316 233.165 349.429 241.438C347.629 247.128 332.799 264.148 329.139 265.208C325.479 266.268 320.229 263.978 318.959 265.818C317.689 267.658 322.729 269.908 322.959 270.818C323.189 271.728 316.769 274.248 312.879 273.578C308.989 272.908 309.939 277.668 315.799 280.288C321.659 282.908 328.909 279.898 335.859 274.698C342.809 269.498 356.719 258.398 360.309 250.698C364.659 241.418 367.089 232.698 367.619 225.998C368.539 212.268 364.509 205.078 364.509 205.078Z" fill="#FFA8A7"/>
<path d="M365.2 204.73C365.2 204.73 359.2 204.73 355.62 208.3C352.56 211.3 352.16 216.22 351.31 225.86C350.885 230.939 349.961 235.963 348.55 240.86C347.83 243.31 337.66 257.43 337.66 257.43C337.66 257.43 341.8 263.59 345.95 266.88C345.95 266.88 355.28 259.19 360.03 252.74C364.78 246.29 368 228 368 228C368 228 370.43 214 365.2 204.73Z" fill="#D23E30"/>
<path opacity="0.35" d="M365.2 204.73C365.2 204.73 359.2 204.73 355.62 208.3C352.56 211.3 352.16 216.22 351.31 225.86C350.885 230.939 349.961 235.963 348.55 240.86C347.83 243.31 337.66 257.43 337.66 257.43C337.66 257.43 341.8 263.59 345.95 266.88C345.95 266.88 355.28 259.19 360.03 252.74C364.78 246.29 368 228 368 228C368 228 370.43 214 365.2 204.73Z" fill="black"/>
<path d="M338.14 256.789C340.206 260.583 343.139 263.835 346.7 266.279C346.7 266.279 343.4 269.079 341.62 270.199C341.62 270.199 336.71 268.449 333.73 261.709L338.14 256.789Z" fill="#D23E30"/>
<path opacity="0.5" d="M338.14 256.789C340.206 260.583 343.139 263.835 346.7 266.279C346.7 266.279 343.4 269.079 341.62 270.199C341.62 270.199 336.71 268.449 333.73 261.709L338.14 256.789Z" fill="black"/>
<path d="M336.351 261.349C336.446 261.504 336.596 261.62 336.771 261.672C336.946 261.724 337.134 261.71 337.299 261.631C337.464 261.553 337.594 261.417 337.665 261.248C337.735 261.08 337.741 260.891 337.681 260.719C337.647 260.621 337.592 260.531 337.521 260.455C337.45 260.38 337.363 260.32 337.268 260.28C337.172 260.24 337.069 260.22 336.965 260.223C336.861 260.225 336.759 260.249 336.665 260.294C336.572 260.338 336.488 260.402 336.421 260.481C336.353 260.56 336.303 260.652 336.273 260.751C336.243 260.851 336.235 260.955 336.248 261.058C336.262 261.161 336.297 261.26 336.351 261.349Z" fill="#263238"/>
<path d="M238.938 78.8717H254.247C260.17 78.8717 265.85 76.5191 270.037 72.3314C274.225 68.1437 276.577 62.464 276.577 56.5417C276.577 51.8262 274.704 47.3038 271.37 43.9694C268.035 40.635 263.513 38.7617 258.797 38.7617H256.717C252.002 38.7617 247.48 40.635 244.145 43.9694C240.811 47.3038 238.938 51.8262 238.938 56.5417V78.8717Z" fill="#263238"/>
<path d="M237.179 91.1434C233.409 98.3234 229.839 107.083 227.049 109.983C221.749 112.453 209.649 117.053 204.789 117.693C203.929 117.798 203.06 117.592 202.339 117.113C200.429 115.863 198.949 115.653 196.929 114.963C195.349 114.413 194.679 113.653 194.389 113.963C194.08 114.317 193.924 114.778 193.954 115.246C193.984 115.714 194.198 116.152 194.549 116.463C195.303 117.188 196.143 117.82 197.049 118.343C194.888 118.871 192.636 118.908 190.459 118.453C186.249 117.343 184.259 119.373 187.109 123.943C188.109 125.583 192.109 128.203 200.289 127.503C203.189 127.344 206.078 127.01 208.939 126.503C216.749 124.843 225.089 122.403 230.429 120.813C232.408 120.026 234.181 118.795 235.609 117.213C244.609 106.983 248.999 97.9134 252.929 91.2834L250.069 81.3934C243.709 81.1534 240.419 85.0034 237.179 91.1434Z" fill="#EC8B8D"/>
<path d="M250.067 81.3416C245.167 80.9816 243.307 81.9016 241.067 84.0916C235.717 89.3516 227.557 109.372 227.427 109.532C227.297 109.692 221.367 112.392 221.367 112.392C221.367 112.392 224.527 117.682 223.797 122.692C223.797 122.692 229.587 121.412 231.657 120.622C233.727 119.832 234.467 119.282 236.417 117.022C238.367 114.762 249.267 101.842 249.267 101.842L250.067 81.3416Z" fill="#263238"/>
<path d="M239.547 103.73C240.279 107.234 240.561 110.816 240.387 114.39C240.067 119.09 236.727 127.7 236.727 127.7C236.727 127.7 239.357 130.09 246.517 128.97C252.347 128.06 250.287 110.48 246.937 107.07C244.989 105.057 242.345 103.862 239.547 103.73Z" fill="#37474F"/>
<path d="M279.899 253.711C280.31 256.022 280.531 258.363 280.559 260.711C280.649 264.981 281.429 266.491 281.559 269.991C281.679 273.991 280.989 275.491 279.369 277.741C277.749 279.991 273.479 282.031 271.679 278.221C269.879 274.411 270.109 271.931 270.679 268.011C271.249 264.091 271.349 261.711 271.679 258.621C271.979 255.891 272.339 253.821 272.339 253.821L279.899 253.711Z" fill="#263238"/>
<path d="M267.789 220.172L281.789 219.922C281.579 229.302 280.089 244.922 279.849 253.712C279.849 255.372 279.849 266.592 279.259 270.002C278.319 275.122 272.259 274.432 271.919 271.362C271.579 268.292 272.309 255.202 272.289 253.852C272.349 248.212 269.699 233.482 268.289 223.342C268.299 222.852 267.849 220.662 267.789 220.172Z" fill="#EC8B8D"/>
<path d="M247.128 246.414C247.128 246.414 247.858 246.464 247.978 247.054C248.098 247.644 248.138 248.864 248.438 250.054C248.908 251.868 249.077 253.746 248.938 255.614C248.688 256.924 245.698 258.884 243.658 259.224C241.618 259.564 238.728 261.584 237.118 263.094C234.55 265.222 231.368 266.473 228.038 266.664C224.628 266.664 222.248 265.534 221.118 263.664C219.988 261.794 222.118 261.614 226.048 259.084L229.048 257.084C235.228 253.084 237.488 250.884 239.238 246.844L247.128 246.414Z" fill="#263238"/>
<path d="M239.217 244.222C239.317 241.312 237.837 219.922 237.837 219.922L249.917 221.282C247.067 238.332 246.827 244.152 247.157 246.632C247.217 246.864 247.244 247.103 247.237 247.342C247.237 250.662 243.477 252.442 240.567 254.652C239.407 255.522 236.447 258.212 232.977 259.402C230.737 260.162 226.577 260.452 226.047 259.092C229.597 256.382 234.427 252.832 237.257 249.742C238.597 248.262 239.117 247.122 239.217 244.222Z" fill="#EC8B8D"/>
<path d="M271.779 118.922C275.907 124.347 278.913 130.541 280.619 137.142C284.619 153.252 278.339 187.722 278.339 187.722C278.539 190.052 281.209 194.652 282.209 204.942C283.379 217.092 280.039 249.632 280.039 249.632C280.039 249.632 276.819 252.032 272.169 249.792C272.169 249.792 263.659 201.992 262.169 189.912C260.839 179.362 258.169 157.452 258.169 157.452L251.999 189.852C251.999 189.852 252.849 195.762 253.279 200.262C253.969 207.362 247.049 243.042 247.049 243.042C245.802 243.559 244.462 243.811 243.112 243.784C241.763 243.756 240.434 243.449 239.209 242.882C239.209 242.882 236.149 196.802 235.499 188.242C234.839 179.432 237.129 158.892 238.819 142.542C239.329 137.612 241.669 124.542 242.539 120.282L271.779 118.922Z" fill="#455A64"/>
<path opacity="0.6" d="M258.098 157.454L256.648 147.454C252.475 147.202 248.433 145.898 244.898 143.664C247.339 146.707 250.868 148.68 254.738 149.164L255.648 158.084L252.748 185.914L258.098 157.454Z" fill="#263238"/>
<path d="M241.997 108.282C242.147 111.212 242.567 120.282 242.567 120.282C254.567 128.382 271.797 118.922 271.797 118.922L274.287 101.922C274.287 101.922 268.037 93.1823 273.897 83.9223L264.547 82.0723L253.397 81.1523L250.087 81.3023C246.427 83.9923 240.817 89.8723 239.637 92.8823C238.457 95.8923 236.657 102.002 241.997 108.282Z" fill="#700000"/>
<g opacity="0.6">
<path opacity="0.6" d="M241.997 108.282C242.147 111.212 242.567 120.282 242.567 120.282C254.567 128.382 271.797 118.922 271.797 118.922L274.287 101.922C274.287 101.922 268.037 93.1823 273.897 83.9223L264.547 82.0723L253.397 81.1523L250.087 81.3023C246.427 83.9923 240.817 89.8723 239.637 92.8823C238.457 95.8923 236.657 102.002 241.997 108.282Z" fill="white"/>
</g>
<path d="M265.137 82.2305C265.137 82.2305 275.727 82.7005 277.737 83.6605C279.747 84.6205 283.097 90.4005 280.097 98.8205C277.097 107.24 274.387 117.11 274.697 119.1C275.007 121.09 282.147 131.36 282.147 131.36C280.173 132.819 277.94 133.891 275.567 134.52L271.907 126.52L272.767 135.03C272.767 135.03 266.167 136.63 261.457 136.22C261.457 136.21 257.657 104 265.137 82.2305Z" fill="#37474F"/>
<path d="M271.318 38.7617L270.098 43.4217C270.401 43.5224 270.723 43.5596 271.041 43.5312C271.36 43.5028 271.67 43.4093 271.951 43.2566C272.232 43.1038 272.479 42.895 272.676 42.643C272.873 42.3911 273.017 42.1013 273.098 41.7917C273.249 41.1546 273.148 40.4838 272.816 39.9192C272.485 39.3547 271.948 38.94 271.318 38.7617Z" fill="#263238"/>
<path d="M275.318 43L270.508 43.17C270.503 43.4862 270.561 43.8002 270.681 44.0929C270.801 44.3856 270.979 44.6509 271.204 44.8727C271.43 45.0944 271.698 45.2679 271.992 45.3826C272.287 45.4974 272.602 45.5509 272.918 45.54C273.568 45.5066 274.18 45.224 274.627 44.7509C275.074 44.2779 275.322 43.6508 275.318 43Z" fill="#263238"/>
<path d="M245.92 47.2109C243.92 48.3809 241.48 53.3809 241.72 63.8609C241.93 72.7409 244.8 74.9409 246.25 75.5709C247.7 76.2009 250.48 75.8209 253.19 75.3609V80.6909C253.19 80.6909 249.45 85.0409 249.68 87.4909C249.91 89.9409 255.09 90.4909 258.6 88.1209C260.87 86.4929 262.82 84.4586 264.35 82.1209V68.2909C264.35 68.2909 265.83 69.8609 268.46 68.0609C269.02 67.6992 269.5 67.2257 269.87 66.67C270.239 66.1143 270.49 65.4884 270.606 64.8314C270.722 64.1743 270.702 63.5004 270.546 62.8516C270.39 62.2028 270.102 61.5932 269.7 61.0609C269.318 60.7042 268.864 60.4352 268.368 60.2726C267.872 60.11 267.347 60.0579 266.828 60.1198C266.31 60.1817 265.812 60.3562 265.368 60.6311C264.924 60.9059 264.546 61.2745 264.26 61.7109C264.26 61.7109 260.62 61.3909 254.86 58.2309C250.538 55.8859 247.323 51.9229 245.92 47.2109Z" fill="#EC8B8D"/>
<path d="M252.629 61.6299C252.627 61.8497 252.69 62.0651 252.81 62.2493C252.93 62.4336 253.101 62.5785 253.303 62.6661C253.504 62.7536 253.727 62.78 253.944 62.7418C254.16 62.7036 254.36 62.6026 254.52 62.4513C254.679 62.3001 254.791 62.1053 254.84 61.8912C254.89 61.677 254.875 61.4531 254.798 61.2472C254.721 61.0413 254.586 60.8626 254.408 60.7333C254.23 60.6039 254.018 60.5298 253.799 60.5199C253.649 60.5159 253.5 60.5415 253.36 60.5951C253.22 60.6488 253.093 60.7294 252.984 60.8325C252.875 60.9356 252.788 61.0591 252.727 61.1959C252.666 61.3327 252.633 61.4802 252.629 61.6299Z" fill="#263238"/>
<path d="M251.338 69.1602L248.738 69.9802C248.785 70.1541 248.867 70.3169 248.978 70.4588C249.089 70.6007 249.227 70.719 249.385 70.8066C249.543 70.8942 249.716 70.9494 249.895 70.9689C250.074 70.9884 250.256 70.9718 250.428 70.9202C250.778 70.8011 251.068 70.5514 251.237 70.2233C251.407 69.8952 251.443 69.5143 251.338 69.1602Z" fill="#9A4A4D"/>
<path d="M242.728 58.2024L244.998 56.6324C244.902 56.4812 244.776 56.351 244.629 56.2495C244.481 56.1481 244.314 56.0775 244.139 56.042C243.963 56.0065 243.782 56.0068 243.607 56.043C243.431 56.0791 243.265 56.1504 243.118 56.2524C242.817 56.4665 242.608 56.7875 242.536 57.15C242.463 57.5124 242.532 57.8889 242.728 58.2024Z" fill="#263238"/>
<path d="M243.25 60.8231C243.246 61.0432 243.308 61.2596 243.426 61.4451C243.545 61.6306 243.715 61.7771 243.917 61.8662C244.118 61.9553 244.341 61.983 244.558 61.946C244.775 61.9089 244.977 61.8088 245.137 61.6579C245.298 61.5071 245.41 61.3124 245.46 61.098C245.511 60.8837 245.497 60.6592 245.42 60.4528C245.344 60.2463 245.208 60.067 245.03 59.9372C244.852 59.8074 244.64 59.7329 244.42 59.7231C244.119 59.715 243.828 59.826 243.609 60.0321C243.389 60.2381 243.261 60.5224 243.25 60.8231Z" fill="#263238"/>
<path d="M249.447 60.1836L249.267 66.9136L245.727 65.8136L249.447 60.1836Z" fill="#9A4A4D"/>
<path d="M253.188 75.3605C256.047 74.9905 261.927 73.3005 262.837 70.9805C262.478 72.1696 261.758 73.2178 260.777 73.9805C259.027 75.4905 253.188 77.1805 253.188 77.1805V75.3605Z" fill="#9A4A4D"/>
<path d="M296.997 120.612C295.147 113.402 287.307 97.612 285.077 91.832C282.537 85.212 278.157 82.832 273.427 82.832C271.687 85.072 270.957 96.342 276.317 102.832C278.597 107.642 285.437 121.082 285.437 121.082C285.267 122.382 280.487 139.082 278.437 143.522C278.07 144.298 277.429 144.911 276.637 145.242C274.527 146.162 272.047 148.472 270.367 149.782C269.047 150.782 268.037 150.952 268.127 151.362C268.286 151.812 268.609 152.186 269.031 152.41C269.453 152.634 269.944 152.692 270.407 152.572C271.839 152.111 273.236 151.546 274.587 150.882C273.328 152.884 271.931 154.795 270.407 156.602C267.567 159.882 267.667 162.682 273.197 162.772C277.377 162.832 279.587 160.482 283.297 153.312C284.357 151.252 285.537 148.142 286.817 145.492C290.047 138.782 292.087 135.992 293.817 131.702C296.657 124.872 297.717 123.392 296.997 120.612Z" fill="#EC8B8D"/>
<path d="M271.32 82.6406C276.56 82.6406 280.43 83.0606 283.45 87.4906C286.47 91.9206 295.81 115.231 296.85 118.251C297.89 121.271 298.57 123.741 294.22 130.811C290.502 130.46 286.927 129.199 283.81 127.141L284.86 121.081L275.71 103.351C271.934 97.1474 270.386 89.8423 271.32 82.6406Z" fill="#263238"/>
<path d="M110.098 172.77C116.098 174.77 117.508 175.18 121.628 181.59C125.628 187.74 129.628 199.12 133.198 208.24C139.748 206.38 153.638 203.15 158.198 200.49C162.758 197.83 162.328 195.98 164.198 194.28C166.358 192.28 168.618 187.54 170.378 190.15C171.558 191.91 169.108 193.09 169.258 195.32C169.408 197.55 176.148 192.32 178.978 190.32C180.848 189.01 185.188 193.12 183.448 197.57C181.908 201.57 179.448 204.02 175.008 205.89C170.338 207.89 167.898 208.89 162.008 211.49C155.878 214.25 130.608 225.43 128.108 223.87C122.418 221.06 117.208 203.45 113.758 195.87C110.308 188.29 112.598 180.37 110.098 172.77Z" fill="#FFA8A7"/>
<path d="M108.668 171.999C111.218 175.349 110.168 173.999 110.948 179.179C111.588 183.349 120.358 223.539 128.308 225.179C131.788 225.909 156.938 214.399 163.038 211.039C160.735 207.858 159.096 204.246 158.218 200.419C150.908 203.269 138.308 206.089 133.788 207.499C131.688 201.659 129.128 195.659 126.728 189.769C122.158 178.619 119.568 170.639 108.668 171.999Z" fill="#37474F"/>
<path d="M74.5594 370.91H84.3594V354.14H74.5594V370.91Z" fill="#FFA8A7"/>
<path d="M110.968 360.488L121.658 360.858L122.188 341.478L110.078 341.078L110.968 360.488Z" fill="#FFA8A7"/>
<path d="M75.7588 240C75.7588 248.92 75.1388 300.77 75.1388 300.77C74.9288 303.34 72.4588 307.9 72.2588 317.14C71.9888 330.55 74.0488 362.14 74.0488 362.14C75.6618 362.933 77.4294 363.362 79.2265 363.396C81.0237 363.431 82.8064 363.07 84.4488 362.34C84.4488 362.34 91.7788 317.68 93.4488 304.42C94.9088 292.84 99.0888 262.54 99.0888 262.54L105.389 301.9C104.703 306.614 104.528 311.388 104.869 316.14C105.309 322.27 109.949 352.78 109.949 352.78C113.993 354.11 118.351 354.148 122.419 352.89C122.419 352.89 123.419 305.36 123.499 299.73C123.619 293.31 120.819 238.09 120.819 238.09L75.7588 240Z" fill="#263238"/>
<path d="M84.3481 366.08V364.68C84.8781 364.68 85.1981 365.19 85.3981 366.45C85.5481 367.36 85.6781 368.04 85.9781 369.23C86.411 370.94 86.9829 372.612 87.6881 374.23C89.0681 377.64 90.2381 378.92 93.4081 382.9C94.4773 384.009 95.4791 385.181 96.4081 386.41C96.9981 387.46 97.2081 390.41 96.1981 391.07C92.5081 393.53 86.8881 393.6 82.9081 392.44C81.4379 392.025 80.117 391.199 79.1016 390.057C78.0862 388.916 77.4187 387.508 77.1781 386C77.0381 385.09 77.0881 384.17 76.9881 383.26C76.6393 381.194 75.799 379.243 74.5381 377.57C73.7993 376.607 73.1657 375.568 72.6481 374.47C71.8281 372.47 72.4881 370.19 73.0181 368.19C73.4681 366.45 73.9581 364.55 74.5481 364.71C74.5481 364.92 74.5481 365.78 74.5481 365.78C75.9437 366.876 77.6738 367.458 79.4481 367.43C80.8881 367.46 84.3581 367.18 84.3481 366.08Z" fill="#263238"/>
<path d="M121.768 357.558C122.328 357.558 122.768 358.358 123.998 359.688C125.833 361.533 127.962 363.061 130.298 364.208C134.298 366.208 142.088 369.298 145.618 370.888C147.818 371.888 147.708 374.538 145.438 376.058C143.168 377.578 137.668 378.658 131.068 377.188C127.468 376.378 122.798 373.058 119.828 373.238C116.858 373.418 111.328 373.378 109.138 371.868C106.948 370.358 107.828 367.138 108.448 364.378C109.118 361.378 109.798 356.658 110.798 356.858V357.988C112.088 359.928 118.798 360.638 121.668 359.208L121.768 357.558Z" fill="#263238"/>
<path d="M99.0898 262.539C99.0898 262.539 107.42 259.819 112.96 254.469C112.96 254.469 110.45 259.169 102.96 263.539L104.78 297.999L99.0898 262.539Z" fill="black"/>
<path d="M91.8595 171.879C89.8595 172.359 85.0895 172.939 81.5795 173.949C78.9995 174.689 77.9095 177.839 77.3695 180.219C75.6395 187.819 75.3695 203.769 75.3695 203.769L75.2695 240.909C81.7095 245.589 108.14 247.969 121.67 238.089C121.67 238.089 120.02 193.849 120.02 186.969C120.02 180.089 116.19 171.809 105.63 171.199L91.8595 171.879Z" fill="#455A64"/>
<path d="M63.6384 224.098C63.6384 224.098 71.8384 236.548 73.2484 238.168C74.6584 239.788 75.6184 239.258 77.1384 238.538C78.9846 237.735 80.8862 237.067 82.8284 236.538C85.3384 235.868 85.8284 238.348 83.3984 240.108C81.5984 241.378 79.5484 241.938 80.3984 242.988C82.1332 244.661 84.169 245.991 86.3984 246.908C92.3984 249.458 92.6584 251.008 91.5384 253.108C90.5384 254.928 86.9684 259.908 76.1484 255.268C71.6884 253.348 65.4984 246.578 62.5384 243.068C58.2584 237.998 52.3984 228.138 52.3984 228.138L63.6384 224.098Z" fill="#FFA8A7"/>
<path d="M81.5787 173.997C71.7187 173.147 69.1787 178.217 62.1787 190.637C55.9987 201.477 47.9987 214.997 47.7387 220.637C47.6687 222.457 55.5787 235.097 61.2387 241.517C66.1387 241.287 69.6887 239.397 72.0087 236.517C70.6587 234.267 63.3787 221.087 63.3787 221.087L76.3787 201.027C78.9244 197.94 80.7366 194.316 81.6787 190.427C83.3587 182.997 82.6987 175.657 81.5787 173.997Z" fill="#37474F"/>
<path d="M94.1172 142.249C94.1152 144.702 94.8408 147.101 96.2021 149.141C97.5634 151.182 99.4994 152.773 101.765 153.713C104.031 154.653 106.524 154.9 108.93 154.422C111.336 153.945 113.547 152.765 115.282 151.031C117.017 149.297 118.199 147.088 118.678 144.682C119.157 142.277 118.912 139.783 117.974 137.516C117.036 135.25 115.447 133.313 113.407 131.95C111.368 130.587 108.97 129.859 106.517 129.859C103.23 129.859 100.078 131.164 97.7526 133.488C95.4274 135.811 94.1198 138.962 94.1172 142.249Z" fill="#263238"/>
<path d="M85.0898 151.059C85.0898 151.059 87.0898 160.499 87.8998 162.059C88.436 163.018 89.3203 163.734 90.3699 164.059L90.2299 157.419L85.0898 151.059Z" fill="#263238"/>
<path d="M87.4896 136.18C86.7998 136.183 86.1179 136.327 85.4853 136.602C84.8527 136.877 84.2826 137.278 83.8096 137.78C82.1596 139.47 83.0296 145.88 85.0896 151.06L88.8696 151.5L87.4896 136.18Z" fill="#263238"/>
<path d="M90.0007 151.5C89.2407 151.96 88.1607 150.5 87.2207 149.5C86.2807 148.5 83.2207 147.18 81.7107 150.39C80.2007 153.6 83.0507 157.99 85.4607 158.74C89.6007 160.04 90.2207 157.38 90.2207 157.38L90.5307 172.79C93.3906 176.46 99.8307 180.79 103.301 180.16C106.061 179.67 106.671 175 104.021 171.94V167.39C105.868 167.685 107.743 167.779 109.611 167.67C112.611 167.2 114.611 164.8 115.501 161.5C116.981 156.2 117.501 151.92 116.281 141.5C114.901 130.08 101.621 129.96 94.4506 134.5C87.2806 139.04 90.0007 151.5 90.0007 151.5Z" fill="#FFA8A7"/>
<path d="M117.618 136.878C117.019 137.935 116.131 138.799 115.058 139.368C112.385 140.83 109.327 141.438 106.298 141.108C103.148 140.758 100.298 139.238 97.4782 137.828C97.3069 138.998 96.8115 140.096 96.0482 140.998C95.0893 141.979 93.9294 142.739 92.6482 143.228C92.3882 145.278 92.3982 147.918 92.2682 149.988C92.2682 150.688 92.2682 154.318 90.5782 153.278C90.0287 152.805 89.5444 152.26 89.1382 151.658C88.5415 150.92 87.9038 150.216 87.2282 149.548C86.7382 149.098 86.7682 148.068 86.7482 147.478C86.7081 146.24 86.7482 145.001 86.8682 143.768C86.9782 142.488 87.1882 141.218 87.2982 139.948C87.2645 139.216 87.0914 138.496 86.7882 137.828C86.5519 137.044 86.4438 136.227 86.4682 135.408C86.6082 132.848 88.5682 130.678 90.8682 129.548C94.2059 128.104 97.8667 127.569 101.478 127.998C104.618 128.258 107.858 128.618 110.848 127.638C111.998 127.258 113.088 126.638 114.258 126.358C114.834 126.16 115.443 126.077 116.05 126.114C116.658 126.152 117.252 126.31 117.798 126.578C120.058 127.888 120.198 131.918 117.968 133.288C117.818 133.378 117.638 133.478 117.588 133.648C117.554 133.847 117.597 134.051 117.708 134.218C117.899 134.639 117.99 135.098 117.974 135.559C117.959 136.02 117.837 136.472 117.618 136.878Z" fill="#263238"/>
<path d="M86.7384 137.507L82.1484 135.047C82.296 134.738 82.5045 134.462 82.7614 134.236C83.0183 134.009 83.3183 133.837 83.6433 133.73C83.9684 133.622 84.3118 133.582 84.6529 133.61C84.994 133.639 85.3259 133.736 85.6284 133.897C86.2412 134.241 86.6982 134.808 86.9048 135.48C87.1114 136.152 87.0518 136.877 86.7384 137.507Z" fill="#263238"/>
<path d="M103.997 167.41C103.997 167.41 97.1973 166.04 94.8173 164.77C93.4192 164.041 92.2728 162.909 91.5273 161.52C91.8888 162.911 92.5246 164.217 93.3973 165.36C95.1373 167.58 103.997 169.22 103.997 169.22V167.41Z" fill="#F28F8F"/>
<path d="M103.329 149.09C103.317 149.376 103.222 149.652 103.054 149.884C102.887 150.117 102.655 150.294 102.387 150.396C102.12 150.497 101.828 150.517 101.549 150.455C101.27 150.392 101.015 150.248 100.817 150.042C100.619 149.835 100.486 149.575 100.434 149.294C100.382 149.012 100.415 148.722 100.527 148.459C100.639 148.195 100.826 147.971 101.064 147.813C101.303 147.655 101.583 147.571 101.869 147.57C102.065 147.573 102.259 147.614 102.439 147.692C102.618 147.77 102.781 147.884 102.917 148.025C103.053 148.166 103.159 148.333 103.23 148.516C103.301 148.699 103.334 148.894 103.329 149.09Z" fill="#263238"/>
<path d="M101.867 144.138L98.8674 145.808C98.653 145.395 98.6061 144.915 98.7365 144.468C98.8668 144.021 99.1644 143.641 99.5674 143.408C99.7659 143.303 99.9834 143.238 100.207 143.218C100.431 143.198 100.656 143.222 100.871 143.29C101.085 143.358 101.283 143.468 101.454 143.614C101.626 143.759 101.766 143.938 101.867 144.138Z" fill="#263238"/>
<path d="M103.449 159L106.819 160.26C106.746 160.486 106.628 160.696 106.472 160.876C106.316 161.056 106.126 161.202 105.912 161.307C105.698 161.411 105.466 161.472 105.228 161.484C104.99 161.497 104.753 161.461 104.529 161.38C104.076 161.201 103.709 160.852 103.508 160.408C103.306 159.964 103.285 159.459 103.449 159Z" fill="#F28F8F"/>
<path d="M115.367 145.36L112.617 143.24C112.746 143.055 112.912 142.897 113.104 142.777C113.295 142.657 113.509 142.578 113.733 142.543C113.956 142.509 114.185 142.52 114.404 142.576C114.623 142.632 114.828 142.732 115.007 142.87C115.376 143.159 115.62 143.579 115.687 144.043C115.754 144.507 115.639 144.979 115.367 145.36Z" fill="#263238"/>
<path d="M114.748 148.81C114.737 149.086 114.644 149.352 114.482 149.576C114.32 149.8 114.096 149.971 113.838 150.069C113.579 150.167 113.298 150.186 113.028 150.125C112.759 150.064 112.513 149.925 112.322 149.726C112.131 149.527 112.002 149.275 111.953 149.004C111.903 148.732 111.934 148.451 112.042 148.197C112.151 147.943 112.331 147.726 112.562 147.574C112.792 147.422 113.062 147.34 113.338 147.34C113.528 147.344 113.714 147.385 113.887 147.461C114.06 147.537 114.217 147.646 114.348 147.783C114.479 147.919 114.582 148.08 114.65 148.256C114.719 148.433 114.752 148.621 114.748 148.81Z" fill="#263238"/>
<path d="M107.188 147.648L107.677 156.538L112.317 154.958L107.188 147.648Z" fill="#F28F8F"/>
<path d="M108.868 179.21C107.998 181.21 106.398 182.1 103.508 182.43C102.055 182.531 100.597 182.336 99.2214 181.857C97.8461 181.377 96.5827 180.623 95.5078 179.64L99.1078 176.05L103.678 179.5L104.068 175.66L108.868 179.21Z" fill="#0C6DFF"/>
<path opacity="0.2" d="M108.868 179.21C107.998 181.21 106.398 182.1 103.508 182.43C102.055 182.531 100.597 182.336 99.2214 181.857C97.8461 181.377 96.5827 180.623 95.5078 179.64L99.1078 176.05L103.678 179.5L104.068 175.66L108.868 179.21Z" fill="black"/>
<path d="M106.598 178.078C107.016 179.319 107.176 180.633 107.068 181.938C106.936 183.103 106.494 184.212 105.788 185.148C105.328 185.439 104.808 185.622 104.267 185.68C103.727 185.739 103.179 185.674 102.668 185.488C101.733 184.693 100.98 183.704 100.463 182.591C99.9448 181.478 99.6737 180.266 99.668 179.038L103.668 179.498L106.598 178.078Z" fill="#0C6DFF"/>
<path d="M105.787 185.148C105.787 185.148 110.477 211.018 110.667 213.148C110.857 215.278 107.967 222.648 106.187 222.718C104.407 222.788 100.887 216.068 100.837 214.168C100.787 212.268 102.667 185.528 102.667 185.528L105.787 185.148Z" fill="#0C6DFF"/>
<path d="M102.667 185.488C103.171 185.71 103.725 185.796 104.273 185.736C104.82 185.677 105.343 185.474 105.787 185.148L105.857 185.558C105.409 185.919 104.88 186.165 104.316 186.277C103.752 186.388 103.169 186.361 102.617 186.198L102.667 185.488Z" fill="#37474F"/>
<path d="M103.667 179.497L90.4675 169.427V166.797C90.4675 166.797 87.3775 167.617 86.6875 173.027C88.8082 177.733 92.431 181.602 96.9875 184.027L99.7575 179.027L103.667 179.497Z" fill="#37474F"/>
<path d="M103.998 168.059C105.752 168.885 107.273 170.132 108.428 171.689C109.748 173.869 109.738 180.949 109.738 180.949L106.578 178.079L103.648 179.499C103.928 176.719 104.008 171.959 104.008 171.959L103.998 168.059Z" fill="#37474F"/>
</svg>
