<svg width="73" height="40" viewBox="0 0 73 40" fill="none" xmlns="http://www.w3.org/2000/svg">
<g opacity="0.7" clip-path="url(#clip0)">
<path d="M69.355 1.9998L36.0066 20.5155L2.65824 1.9998C2.0361 1.66614 1.04452 1.67576 0.44353 2.02116C-0.142635 2.35815 -0.142635 2.89234 0.44353 3.22934L34.9008 22.359C35.5124 22.6984 36.5038 22.6984 37.1155 22.359L71.5728 3.22934C72.1949 2.89568 72.2121 2.34527 71.6113 1.9998C71.0103 1.6544 70.0189 1.64487 69.3966 1.97844C69.3835 1.98545 69.3707 1.99254 69.3581 1.9998H69.355Z" fill="white"/>
<path d="M36.0059 34.4761C35.5902 34.4765 35.1912 34.3852 34.897 34.2222L0.439678 15.0925C-0.161316 14.7471 -0.14399 14.1966 0.478149 13.863C1.08516 13.5376 2.04737 13.5376 2.65424 13.863L36.0057 32.377L69.3541 13.8613C69.9762 13.5276 70.9678 13.5372 71.5688 13.8826C72.1551 14.2196 72.1551 14.7538 71.5688 15.0908L37.1117 34.2205C36.8186 34.3836 36.421 34.4755 36.0059 34.4761Z" fill="white"/>
<path d="M36.0059 22.6146C35.5902 22.615 35.1912 22.5237 34.897 22.3607L0.439678 3.23105C-0.161316 2.88566 -0.14399 2.33516 0.478149 2.00151C1.08516 1.67609 2.04737 1.67609 2.65439 2.00151L36.0059 20.5155L69.3542 1.9998C69.9552 1.6544 70.9467 1.64487 71.5689 1.97844C72.1912 2.31201 72.2083 2.8625 71.6074 3.20798C71.5948 3.21523 71.582 3.22233 71.5689 3.22934L37.1117 22.359C36.8186 22.5221 36.421 22.614 36.0059 22.6146Z" fill="white"/>
</g>
<defs>
<clipPath id="clip0">
<rect width="72.0501" height="40" fill="white"/>
</clipPath>
</defs>
</svg>
