<svg width="31" height="30" viewBox="0 0 31 30" fill="none" xmlns="http://www.w3.org/2000/svg">
<g clip-path="url(#clip0)">
<path d="M19.1272 29.9998C20.1303 29.9998 21.005 29.125 21.005 28.122V23.7365H22.2589C23.0113 23.7365 23.5127 23.2348 23.5127 22.4826V9.95703H8.47852V22.4827C8.47852 23.235 8.98005 23.7366 9.73236 23.7366H10.9863V28.1221C10.9863 29.1251 11.8608 29.9999 12.8641 29.9999C13.8671 29.9999 14.7417 29.1251 14.7417 28.1221V23.7366H17.2495V28.1221C17.2494 29.125 18.1241 29.9998 19.1272 29.9998Z" fill="white"/>
<path d="M26.6434 22.4827C27.6465 22.4827 28.521 21.6081 28.521 20.6049V11.834C28.521 10.8363 27.6465 9.95703 26.6434 9.95703C25.6403 9.95703 24.7656 10.8363 24.7656 11.834V20.6049C24.7656 21.608 25.6402 22.4827 26.6434 22.4827Z" fill="white"/>
<path d="M5.34636 22.4827C6.34953 22.4827 7.22417 21.6081 7.22417 20.6049V11.834C7.22417 10.8363 6.34963 9.95703 5.34636 9.95703C4.34329 9.95703 3.46875 10.8363 3.46875 11.834V20.6049C3.46875 21.608 4.34329 22.4827 5.34636 22.4827Z" fill="white"/>
<path d="M22.008 0.189202C21.7573 -0.0630675 21.3841 -0.0630675 21.1335 0.189202L19.4518 1.8653L19.3742 1.94278C18.377 1.44344 17.259 1.19408 16.014 1.19168C16.0079 1.19168 16.0019 1.19147 15.9958 1.19147H15.9956C15.9893 1.19147 15.9834 1.19168 15.9771 1.19168C14.7322 1.19408 13.6142 1.44344 12.6171 1.94278L12.5394 1.8653L10.8578 0.189202C10.6069 -0.0630675 10.2339 -0.0630675 9.98323 0.189202C9.73236 0.440071 9.73236 0.812369 9.98323 1.06304L11.61 2.69008C11.0858 3.04005 10.6105 3.46831 10.1972 3.95814C9.2076 5.13109 8.57642 6.65762 8.48963 8.31159C8.48883 8.32881 8.48713 8.34583 8.48632 8.36305C8.48102 8.47567 8.47852 8.58889 8.47852 8.70251H23.5127C23.5127 8.58889 23.51 8.47567 23.5049 8.36305C23.5041 8.34583 23.5024 8.32881 23.5014 8.31159C23.4148 6.65762 22.7834 5.13099 21.7939 3.95824C21.3807 3.46841 20.9052 3.04015 20.3811 2.69018L22.008 1.06314C22.2589 0.812369 22.2589 0.440071 22.008 0.189202ZM12.8617 6.51327C12.343 6.51327 11.9224 6.09272 11.9224 5.57396C11.9224 5.05521 12.343 4.63466 12.8617 4.63466C13.3805 4.63466 13.801 5.05521 13.801 5.57396C13.801 6.09272 13.3805 6.51327 12.8617 6.51327ZM19.1295 6.51327C18.6108 6.51327 18.1902 6.09272 18.1902 5.57396C18.1902 5.05521 18.6108 4.63466 19.1295 4.63466C19.6483 4.63466 20.0688 5.05521 20.0688 5.57396C20.0688 6.09272 19.6483 6.51327 19.1295 6.51327Z" fill="white"/>
</g>
<defs>
<clipPath id="clip0">
<rect width="30" height="30" fill="white" transform="translate(0.996094)"/>
</clipPath>
</defs>
</svg>
