<svg width="30" height="30" viewBox="0 0 30 30" fill="none" xmlns="http://www.w3.org/2000/svg">
<path d="M17.8691 15C17.8691 16.5857 16.5837 17.8711 14.998 17.8711C13.4124 17.8711 12.127 16.5857 12.127 15C12.127 13.4143 13.4124 12.1289 14.998 12.1289C16.5837 12.1289 17.8691 13.4143 17.8691 15Z" fill="white"/>
<path d="M21.7154 9.91893C21.5774 9.54494 21.3572 9.20642 21.0711 8.92856C20.7932 8.64246 20.4549 8.42227 20.0807 8.28426C19.7772 8.16638 19.3213 8.02608 18.4815 7.98785C17.5731 7.94643 17.3007 7.9375 15.0009 7.9375C12.7009 7.9375 12.4285 7.9462 11.5203 7.98763C10.6805 8.02608 10.2244 8.16638 9.92111 8.28426C9.54689 8.42227 9.20837 8.64246 8.93074 8.92856C8.64464 9.20642 8.42445 9.54471 8.28621 9.91893C8.16833 10.2224 8.02803 10.6786 7.98981 11.5184C7.94838 12.4266 7.93945 12.6989 7.93945 14.999C7.93945 17.2988 7.94838 17.5711 7.98981 18.4796C8.02803 19.3193 8.16833 19.7753 8.28621 20.0788C8.42445 20.453 8.64441 20.7913 8.93051 21.0691C9.20837 21.3552 9.54666 21.5754 9.92088 21.7134C10.2244 21.8315 10.6805 21.9718 11.5203 22.0101C12.4285 22.0515 12.7007 22.0602 15.0007 22.0602C17.3009 22.0602 17.5733 22.0515 18.4813 22.0101C19.3211 21.9718 19.7772 21.8315 20.0807 21.7134C20.8319 21.4237 21.4256 20.83 21.7154 20.0788C21.8333 19.7753 21.9736 19.3193 22.012 18.4796C22.0534 17.5711 22.0621 17.2988 22.0621 14.999C22.0621 12.6989 22.0534 12.4266 22.012 11.5184C21.9738 10.6786 21.8335 10.2224 21.7154 9.91893ZM15.0009 19.4216C12.5581 19.4216 10.5778 17.4416 10.5778 14.9987C10.5778 12.5559 12.5581 10.5758 15.0009 10.5758C17.4435 10.5758 19.4238 12.5559 19.4238 14.9987C19.4238 17.4416 17.4435 19.4216 15.0009 19.4216ZM19.5987 11.4346C19.0279 11.4346 18.5651 10.9718 18.5651 10.401C18.5651 9.83012 19.0279 9.36732 19.5987 9.36732C20.1695 9.36732 20.6323 9.83012 20.6323 10.401C20.6321 10.9718 20.1695 11.4346 19.5987 11.4346Z" fill="white"/>
<path d="M15 0C6.717 0 0 6.717 0 15C0 23.283 6.717 30 15 30C23.283 30 30 23.283 30 15C30 6.717 23.283 0 15 0ZM23.5613 18.5511C23.5197 19.468 23.3739 20.094 23.161 20.6419C22.7135 21.7989 21.7989 22.7135 20.6419 23.161C20.0942 23.3739 19.468 23.5194 18.5513 23.5613C17.6328 23.6032 17.3394 23.6133 15.0002 23.6133C12.6608 23.6133 12.3676 23.6032 11.4489 23.5613C10.5322 23.5194 9.90601 23.3739 9.35829 23.161C8.78334 22.9447 8.26286 22.6057 7.83257 22.1674C7.39449 21.7374 7.05551 21.2167 6.83922 20.6419C6.62636 20.0942 6.48056 19.468 6.4389 18.5513C6.39656 17.6326 6.38672 17.3392 6.38672 15C6.38672 12.6608 6.39656 12.3674 6.43867 11.4489C6.48033 10.532 6.6259 9.90601 6.83876 9.35806C7.05505 8.78334 7.39426 8.26263 7.83257 7.83257C8.26263 7.39426 8.78334 7.05528 9.35806 6.83899C9.90601 6.62613 10.532 6.48056 11.4489 6.43867C12.3674 6.39679 12.6608 6.38672 15 6.38672C17.3392 6.38672 17.6326 6.39679 18.5511 6.4389C19.468 6.48056 20.094 6.62613 20.6419 6.83876C21.2167 7.05505 21.7374 7.39426 22.1677 7.83257C22.6057 8.26286 22.9449 8.78334 23.161 9.35806C23.3741 9.90601 23.5197 10.532 23.5616 11.4489C23.6034 12.3674 23.6133 12.6608 23.6133 15C23.6133 17.3392 23.6034 17.6326 23.5613 18.5511Z" fill="white"/>
</svg>
