<svg width="40" height="24" viewBox="0 0 40 24" fill="none" xmlns="http://www.w3.org/2000/svg">
<rect width="40" height="24" rx="2" fill="white"/>
<path d="M29.8294 9.39844H27.8865C27.7722 9.39844 27.6579 9.51272 27.6008 9.62701L26.8008 14.6556C26.8008 14.7699 26.8579 14.827 26.9722 14.827H28.0008C28.1151 14.827 28.1722 14.7699 28.1722 14.6556L28.4008 13.227C28.4008 13.1127 28.5151 12.9984 28.6865 12.9984H29.3151C30.6294 12.9984 31.3722 12.3699 31.5436 11.1127C31.6579 10.5984 31.5436 10.1413 31.3151 9.85558C30.9722 9.56987 30.4579 9.39844 29.8294 9.39844ZM30.0579 11.2842C29.9436 11.9699 29.4294 11.9699 28.9151 11.9699H28.5722L28.8008 10.6556C28.8008 10.5984 28.8579 10.5413 28.9722 10.5413H29.0865C29.4294 10.5413 29.7722 10.5413 29.9436 10.7699C30.0579 10.827 30.0579 10.9984 30.0579 11.2842Z" fill="#139AD6"/>
<path d="M15.8274 9.40234H13.8845C13.7703 9.40234 13.656 9.51663 13.5988 9.63092L12.7988 14.6595C12.7988 14.7738 12.856 14.8309 12.9703 14.8309H13.8845C13.9988 14.8309 14.1131 14.7166 14.1703 14.6024L14.3988 13.2309C14.3988 13.1166 14.5131 13.0024 14.6845 13.0024H15.3131C16.6274 13.0024 17.3703 12.3738 17.5417 11.1166C17.656 10.6023 17.5417 10.1452 17.3131 9.85949C16.9703 9.57377 16.5131 9.40234 15.8274 9.40234ZM16.056 11.2881C15.9417 11.9738 15.4274 11.9738 14.9131 11.9738H14.6274L14.856 10.6595C14.856 10.6023 14.9131 10.5452 15.0274 10.5452H15.1417C15.4845 10.5452 15.8274 10.5452 15.9988 10.7738C16.056 10.8309 16.1131 11.0023 16.056 11.2881Z" fill="#263B80"/>
<path d="M21.7131 11.2315H20.7989C20.7417 11.2315 20.6274 11.2886 20.6274 11.3458L20.5703 11.6315L20.5131 11.5172C20.2846 11.2315 19.8846 11.1172 19.4274 11.1172C18.3989 11.1172 17.4846 11.9172 17.3131 13.0029C17.1989 13.5743 17.3703 14.0886 17.656 14.4315C17.9417 14.7743 18.3417 14.8886 18.856 14.8886C19.7131 14.8886 20.1703 14.3743 20.1703 14.3743L20.1131 14.66C20.1131 14.7743 20.1703 14.8315 20.2846 14.8315H21.1417C21.256 14.8315 21.3703 14.7172 21.4274 14.6029L21.9417 11.4029C21.8846 11.3458 21.7703 11.2315 21.7131 11.2315ZM20.3989 13.06C20.2846 13.5743 19.8846 13.9743 19.3131 13.9743C19.0274 13.9743 18.7989 13.86 18.6846 13.7458C18.5703 13.5743 18.5131 13.3458 18.5131 13.06C18.5703 12.5458 19.0274 12.1458 19.5417 12.1458C19.8274 12.1458 19.9989 12.26 20.1703 12.3743C20.3417 12.5458 20.3989 12.8315 20.3989 13.06Z" fill="#263B80"/>
<path d="M35.6565 11.2276H34.7422C34.6851 11.2276 34.5708 11.2847 34.5708 11.3419L34.5136 11.6276L34.4565 11.5133C34.2279 11.2276 33.8279 11.1133 33.3708 11.1133C32.3422 11.1133 31.4279 11.9133 31.2565 12.999C31.1422 13.5704 31.3136 14.0847 31.5994 14.4276C31.8851 14.7704 32.2851 14.8847 32.7994 14.8847C33.6565 14.8847 34.1136 14.3704 34.1136 14.3704L34.0565 14.6561C34.0565 14.7704 34.1136 14.8276 34.2279 14.8276H35.0851C35.1994 14.8276 35.3137 14.7133 35.3708 14.599L35.8851 11.399C35.8279 11.3419 35.7708 11.2276 35.6565 11.2276ZM34.3422 13.0561C34.2279 13.5704 33.8279 13.9704 33.2565 13.9704C32.9708 13.9704 32.7422 13.8561 32.6279 13.7419C32.5136 13.5704 32.4565 13.3419 32.4565 13.0561C32.5136 12.5419 32.9708 12.1419 33.4851 12.1419C33.7708 12.1419 33.9422 12.2561 34.1136 12.3704C34.3422 12.5419 34.3994 12.8276 34.3422 13.0561Z" fill="#139AD6"/>
<path d="M26.6852 11.2305H25.7137C25.5994 11.2305 25.5423 11.2876 25.4852 11.3448L24.228 13.2876L23.6566 11.459C23.5994 11.3448 23.5423 11.2876 23.3709 11.2876H22.4566C22.3423 11.2876 22.2852 11.4019 22.2852 11.5162L23.3137 14.5448L22.3423 15.9162C22.2852 16.0305 22.3423 16.2019 22.4566 16.2019H23.3709C23.4852 16.2019 23.5423 16.1448 23.5994 16.0876L26.7423 11.5733C26.9137 11.4019 26.7994 11.2305 26.6852 11.2305Z" fill="#263B80"/>
<path d="M36.7434 9.5703L35.9434 14.7132C35.9434 14.8274 36.0005 14.8846 36.1148 14.8846H36.9148C37.0291 14.8846 37.1434 14.7703 37.2005 14.656L38.0005 9.62744C38.0005 9.51315 37.9434 9.45601 37.8291 9.45601H36.9148C36.8576 9.39887 36.8005 9.45601 36.7434 9.5703Z" fill="#139AD6"/>
<path d="M8.57144 7.68571C8.17144 7.22857 7.42858 7 6.40001 7H3.54286C3.37143 7 3.2 7.17143 3.14286 7.34286L2 14.8286C2 15 2.11429 15.1143 2.22857 15.1143H4L4.45715 12.3143V12.4286C4.51429 12.2572 4.68572 12.0857 4.85715 12.0857H5.71429C7.37144 12.0857 8.62858 11.4 9.02858 9.51429C9.02858 9.45715 9.02858 9.4 9.02858 9.34286C8.97144 9.34286 8.97144 9.34286 9.02858 9.34286C9.08573 8.6 8.97144 8.14286 8.57144 7.68571Z" fill="#263B80"/>
<path d="M8.97099 9.34375C8.97099 9.40089 8.97099 9.45804 8.97099 9.51518C8.57099 11.458 7.31384 12.0866 5.6567 12.0866H4.79956C4.62813 12.0866 4.4567 12.258 4.39955 12.4295L3.82812 15.9152C3.82812 16.0295 3.88527 16.1438 4.0567 16.1438H5.54241C5.71384 16.1438 5.88527 16.0295 5.88527 15.858V15.8009L6.17099 14.0295V13.9152C6.17099 13.7438 6.34241 13.6295 6.51384 13.6295H6.74242C8.17099 13.6295 9.31385 13.058 9.59956 11.3438C9.71385 10.658 9.65671 10.0295 9.31385 9.62946C9.25671 9.51518 9.14242 9.40089 8.97099 9.34375Z" fill="#139AD6"/>
<path d="M8.57132 9.17143C8.51418 9.17143 8.45704 9.11429 8.39989 9.11429C8.34275 9.11429 8.28561 9.11429 8.22847 9.05714C7.99989 9 7.77132 9 7.48561 9H5.25703C5.19989 9 5.14275 9 5.0856 9.05714C4.97132 9.11429 4.91417 9.22857 4.91417 9.34286L4.45703 12.3143V12.4286C4.51417 12.2571 4.6856 12.0857 4.85703 12.0857H5.71418C7.37132 12.0857 8.62847 11.4 9.02847 9.51429C9.02847 9.45714 9.02847 9.4 9.08561 9.34286C8.97132 9.28571 8.91418 9.22857 8.79989 9.22857C8.62847 9.17143 8.62847 9.17143 8.57132 9.17143Z" fill="#232C65"/>
</svg>
