<svg width="31" height="30" viewBox="0 0 31 30" fill="none" xmlns="http://www.w3.org/2000/svg">
<path d="M21.6206 0C20.0212 0.110624 18.1518 1.13437 17.0625 2.46749C16.0687 3.67685 15.2512 5.47309 15.57 7.21871C17.3175 7.27308 19.1231 6.22496 20.1693 4.86935C21.1481 3.60748 21.8887 1.82249 21.6206 0Z" fill="white"/>
<path d="M27.9422 10.0626C26.4066 8.13703 24.2485 7.01953 22.2104 7.01953C19.5198 7.01953 18.3816 8.30765 16.5123 8.30765C14.5848 8.30765 13.1204 7.02328 10.7936 7.02328C8.50794 7.02328 6.0742 8.42015 4.53109 10.8089C2.36172 14.1726 2.73297 20.497 6.24858 25.8838C7.50669 27.8113 9.18668 29.9788 11.3842 29.9975C13.3398 30.0163 13.891 28.7432 16.5404 28.7301C19.1898 28.7151 19.6922 30.0144 21.6441 29.9938C23.8435 29.9769 25.6153 27.5751 26.8735 25.6476C27.7753 24.2657 28.111 23.5701 28.8103 22.0101C23.7235 20.0732 22.9079 12.8395 27.9422 10.0626Z" fill="white"/>
</svg>
