<svg width="40" height="24" viewBox="0 0 40 24" fill="none" xmlns="http://www.w3.org/2000/svg">
<rect width="40" height="24" rx="2" fill="white"/>
<path d="M35.9986 11.5999C35.9986 16.8824 31.732 21.1998 26.3987 21.1998C21.1162 21.1998 16.7988 16.8824 16.7988 11.5999C16.7988 6.31741 21.0654 2 26.3479 2C31.732 2 35.9986 6.31741 35.9986 11.5999Z" fill="#FFB600"/>
<path d="M26.3987 2C31.6812 2 35.9986 6.31741 35.9986 11.5999C35.9986 16.8824 31.732 21.1998 26.3987 21.1998C21.1162 21.1998 16.7988 16.8824 16.7988 11.5999" fill="#F7981D"/>
<path d="M26.3984 2C31.6809 2 35.9983 6.31741 35.9983 11.5999C35.9983 16.8824 31.7317 21.1998 26.3984 21.1998" fill="#FF8500"/>
<path d="M13.4983 2C8.26662 2.05079 4 6.31741 4 11.5999C4 16.8824 8.26662 21.1998 13.5999 21.1998C16.0888 21.1998 18.3236 20.2347 20.0506 18.7109C20.4062 18.4062 20.7109 18.0506 21.0157 17.6951H19.0347C18.7808 17.3903 18.5268 17.0347 18.3236 16.73H21.7268C21.93 16.4252 22.1331 16.0697 22.2855 15.7141H17.7649C17.6125 15.4094 17.4602 15.0538 17.3586 14.6983H22.6411C22.9458 13.7332 23.149 12.7173 23.149 11.6507C23.149 10.9396 23.0474 10.2793 22.9458 9.61896H17.0538C17.1046 9.26341 17.2062 8.95865 17.3078 8.6031H22.5903C22.4887 8.24755 22.3363 7.892 22.1839 7.58724H17.7141C17.8665 7.23169 18.0697 6.92693 18.2729 6.57138H21.676C21.4728 6.21582 21.2189 5.86027 20.9141 5.55551H19.0347C19.3395 5.19996 19.6443 4.89521 19.9998 4.59045C18.3236 3.01586 16.038 2.10159 13.5491 2.10159C13.5491 2 13.5491 2 13.4983 2Z" fill="#FF5050"/>
<path d="M4 11.596C4 16.8784 8.26662 21.1958 13.5999 21.1958C16.0888 21.1958 18.3236 20.2308 20.0506 18.707C20.4062 18.4022 20.7109 18.0467 21.0157 17.6911H19.0347C18.7808 17.3864 18.5268 17.0308 18.3236 16.7261H21.7268C21.93 16.4213 22.1331 16.0657 22.2855 15.7102H17.7649C17.6125 15.4054 17.4602 15.0499 17.3586 14.6943H22.6411C22.9458 13.7293 23.149 12.7134 23.149 11.6468C23.149 10.9356 23.0474 10.2753 22.9458 9.61503H17.0538C17.1046 9.25948 17.2062 8.95472 17.3078 8.59917H22.5903C22.4887 8.24362 22.3363 7.88807 22.1839 7.58331H17.7141C17.8665 7.22776 18.0697 6.923 18.2729 6.56745H21.676C21.4728 6.21189 21.2189 5.85634 20.9141 5.55158H19.0347C19.3395 5.19603 19.6443 4.89128 19.9998 4.58652C18.3236 3.01193 16.038 2.09766 13.5491 2.09766H13.4983" fill="#E52836"/>
<path d="M13.5996 21.1958C16.0885 21.1958 18.3234 20.2308 20.0504 18.707C20.4059 18.4022 20.7107 18.0467 21.0154 17.6911H19.0345C18.7805 17.3864 18.5266 17.0308 18.3234 16.7261H21.7265C21.9297 16.4213 22.1329 16.0657 22.2852 15.7102H17.7647C17.6123 15.4054 17.4599 15.0499 17.3583 14.6943H22.6408C22.9456 13.7293 23.1487 12.7134 23.1487 11.6468C23.1487 10.9356 23.0471 10.2753 22.9456 9.61503H17.0536C17.1044 9.25948 17.2059 8.95472 17.3075 8.59917H22.59C22.4884 8.24362 22.336 7.88807 22.1837 7.58331H17.7139C17.8663 7.22776 18.0694 6.923 18.2726 6.56745H21.6757C21.4726 6.21189 21.2186 5.85634 20.9138 5.55158H19.0345C19.3393 5.19603 19.644 4.89128 19.9996 4.58652C18.3234 3.01193 16.0377 2.09766 13.5488 2.09766H13.498" fill="#CB2026"/>
<path d="M17.0023 14.0401L17.1547 13.1766C17.1039 13.1766 17.0023 13.2274 16.9007 13.2274C16.5452 13.2274 16.4944 13.0242 16.5452 12.9227L16.8499 11.1449H17.4086L17.561 10.1798H17.0531L17.1547 9.57031H16.1388C16.1388 9.57031 15.5293 12.9227 15.5293 13.329C15.5293 13.9385 15.8848 14.1925 16.342 14.1925C16.6467 14.1925 16.9007 14.0909 17.0023 14.0401Z" fill="white"/>
<path d="M17.3594 12.4132C17.3594 13.8354 18.3244 14.191 19.1371 14.191C19.899 14.191 20.2038 14.0386 20.2038 14.0386L20.407 13.0735C20.407 13.0735 19.8482 13.3275 19.3403 13.3275C18.2229 13.3275 18.426 12.5148 18.426 12.5148H20.5085C20.5085 12.5148 20.6609 11.8545 20.6609 11.6005C20.6609 10.9402 20.3054 10.1275 19.1879 10.1275C18.1213 10.0259 17.3594 11.1434 17.3594 12.4132ZM19.1371 10.9402C19.6959 10.9402 19.5943 11.6005 19.5943 11.6513H18.4768C18.4768 11.6005 18.5784 10.9402 19.1371 10.9402Z" fill="white"/>
<path d="M25.5866 14.0363L25.7898 12.9189C25.7898 12.9189 25.2818 13.1728 24.9263 13.1728C24.2152 13.1728 23.9104 12.6141 23.9104 12.0046C23.9104 10.7855 24.5199 10.1252 25.231 10.1252C25.739 10.1252 26.1453 10.43 26.1453 10.43L26.2977 9.36334C26.2977 9.36334 25.6882 9.10938 25.1294 9.10938C23.9612 9.10938 22.793 10.1252 22.793 12.0554C22.793 13.3252 23.4025 14.1887 24.6215 14.1887C25.0279 14.1887 25.5866 14.0363 25.5866 14.0363Z" fill="white"/>
<path d="M11.4165 10.0195C10.7054 10.0195 10.1974 10.2227 10.1974 10.2227L10.0451 11.0862C10.0451 11.0862 10.5022 10.883 11.1625 10.883C11.5181 10.883 11.8228 10.9338 11.8228 11.2386C11.8228 11.4417 11.772 11.4925 11.772 11.4925C11.772 11.4925 11.4673 11.4925 11.3149 11.4925C10.4514 11.4925 9.48633 11.8481 9.48633 13.0163C9.48633 13.9306 10.0958 14.1338 10.4514 14.1338C11.1625 14.1338 11.4673 13.6766 11.5181 13.6766L11.4673 14.083H12.3815L12.7879 11.2894C12.7879 10.0703 11.772 10.0195 11.4165 10.0195ZM11.6196 12.3052C11.6196 12.4576 11.5181 13.2703 10.9085 13.2703C10.6038 13.2703 10.5022 13.0163 10.5022 12.8639C10.5022 12.61 10.6546 12.2544 11.4165 12.2544C11.5688 12.3052 11.6196 12.3052 11.6196 12.3052Z" fill="white"/>
<path d="M13.7522 14.1377C14.0062 14.1377 15.276 14.1885 15.276 12.8171C15.276 11.5472 14.057 11.8012 14.057 11.2933C14.057 11.0393 14.2602 10.9377 14.6157 10.9377C14.7681 10.9377 15.3268 10.9885 15.3268 10.9885L15.4792 10.0742C15.4792 10.0742 15.1236 9.97266 14.5141 9.97266C13.7522 9.97266 12.9903 10.2774 12.9903 11.2933C12.9903 12.4615 14.2602 12.3599 14.2602 12.8171C14.2602 13.1218 13.9046 13.1726 13.6506 13.1726C13.1935 13.1726 12.7364 13.0202 12.7364 13.0202L12.584 13.9345C12.6348 14.0361 12.8887 14.1377 13.7522 14.1377Z" fill="white"/>
<path d="M34.0182 9.20703L33.8151 10.5784C33.8151 10.5784 33.4087 10.0705 32.85 10.0705C31.9357 10.0705 31.123 11.188 31.123 12.5086C31.123 13.3213 31.5294 14.1848 32.3929 14.1848C33.0024 14.1848 33.3579 13.7784 33.3579 13.7784L33.3071 14.134H34.323L35.0849 9.25782L34.0182 9.20703ZM33.5611 11.8991C33.5611 12.4578 33.3071 13.1689 32.7484 13.1689C32.3929 13.1689 32.1897 12.8641 32.1897 12.3562C32.1897 11.5435 32.5453 11.0356 33.0024 11.0356C33.3579 11.0356 33.5611 11.2895 33.5611 11.8991Z" fill="white"/>
<path d="M5.87913 14.0832L6.48865 10.4261L6.59023 14.0832H7.30134L8.62196 10.4261L8.06323 14.0832H9.12989L9.94258 9.20703H8.2664L7.25054 12.2038L7.19975 9.20703H5.72675L4.91406 14.0832H5.87913Z" fill="white"/>
<path d="M21.6253 14.0908C21.93 12.4146 21.9808 11.0432 22.6919 11.2971C22.7935 10.6368 22.9459 10.3829 23.0475 10.1289C23.0475 10.1289 22.9967 10.1289 22.8443 10.1289C22.3872 10.1289 22.0316 10.7384 22.0316 10.7384L22.1332 10.1797H21.1681L20.5078 14.1416H21.6253V14.0908Z" fill="white"/>
<path d="M27.9223 10.0195C27.2112 10.0195 26.7033 10.2227 26.7033 10.2227L26.5509 11.0862C26.5509 11.0862 27.008 10.883 27.6684 10.883C28.0239 10.883 28.3287 10.9338 28.3287 11.2386C28.3287 11.4417 28.2779 11.4925 28.2779 11.4925C28.2779 11.4925 27.9731 11.4925 27.8207 11.4925C26.9573 11.4925 25.9922 11.8481 25.9922 13.0163C25.9922 13.9306 26.6017 14.1338 26.9573 14.1338C27.6684 14.1338 27.9731 13.6766 28.0239 13.6766L27.9731 14.083H28.8874L29.2937 11.2894C29.3445 10.0703 28.2779 10.0195 27.9223 10.0195ZM28.1763 12.3052C28.1763 12.4576 28.0747 13.2703 27.4652 13.2703C27.1604 13.2703 27.0588 13.0163 27.0588 12.8639C27.0588 12.61 27.2112 12.2544 27.9731 12.2544C28.1255 12.3052 28.1255 12.3052 28.1763 12.3052Z" fill="white"/>
<path d="M30.1585 14.0908C30.4632 12.4146 30.514 11.0432 31.2251 11.2971C31.3267 10.6368 31.4791 10.3829 31.5807 10.1289C31.5807 10.1289 31.5299 10.1289 31.3775 10.1289C30.9204 10.1289 30.5648 10.7384 30.5648 10.7384L30.6664 10.1797H29.7013L29.041 14.1416H30.1585V14.0908Z" fill="white"/>
<path d="M15.4277 13.329C15.4277 13.9385 15.7833 14.1925 16.2404 14.1925C16.596 14.1925 16.9007 14.0909 17.0023 14.0401L17.1547 13.1766C17.1039 13.1766 17.0023 13.2274 16.9007 13.2274C16.5452 13.2274 16.4944 13.0242 16.5452 12.9227L16.8499 11.1449H17.4087L17.561 10.1798H17.0531L17.1547 9.57031" fill="#DCE5E5"/>
<path d="M17.8672 12.4132C17.8672 13.8354 18.3243 14.191 19.137 14.191C19.8989 14.191 20.2037 14.0386 20.2037 14.0386L20.4068 13.0735C20.4068 13.0735 19.8481 13.3275 19.3402 13.3275C18.2227 13.3275 18.4259 12.5148 18.4259 12.5148H20.5084C20.5084 12.5148 20.6608 11.8545 20.6608 11.6005C20.6608 10.9402 20.3053 10.1275 19.1878 10.1275C18.1212 10.0259 17.8672 11.1434 17.8672 12.4132ZM19.137 10.9402C19.6957 10.9402 19.7973 11.6005 19.7973 11.6513H18.4767C18.4767 11.6005 18.5783 10.9402 19.137 10.9402Z" fill="#DCE5E5"/>
<path d="M25.5865 14.0363L25.7896 12.9189C25.7896 12.9189 25.2817 13.1728 24.9262 13.1728C24.2151 13.1728 23.9103 12.6141 23.9103 12.0046C23.9103 10.7855 24.5198 10.1252 25.2309 10.1252C25.7388 10.1252 26.1452 10.43 26.1452 10.43L26.2976 9.36334C26.2976 9.36334 25.6881 9.10938 25.1293 9.10938C23.9611 9.10938 23.3008 10.1252 23.3008 12.0554C23.3008 13.3252 23.4024 14.1887 24.6214 14.1887C25.0277 14.1887 25.5865 14.0363 25.5865 14.0363Z" fill="#DCE5E5"/>
<path d="M10.0451 11.1448C10.0451 11.1448 10.5022 10.9416 11.1625 10.9416C11.5181 10.9416 11.8228 10.9924 11.8228 11.2971C11.8228 11.5003 11.772 11.5511 11.772 11.5511C11.772 11.5511 11.4673 11.5511 11.3149 11.5511C10.4514 11.5511 9.48633 11.9067 9.48633 13.0749C9.48633 13.9892 10.0958 14.1924 10.4514 14.1924C11.1625 14.1924 11.4673 13.7352 11.5181 13.7352L11.4673 14.1416H12.3815L12.7879 11.3479C12.7879 10.1797 11.772 10.1289 11.3657 10.1289L10.0451 11.1448ZM12.1276 12.313C12.1276 12.4654 11.5181 13.2781 10.9085 13.2781C10.6038 13.2781 10.5022 13.0241 10.5022 12.8717C10.5022 12.6178 10.6546 12.2622 11.4165 12.2622C11.5688 12.313 12.1276 12.313 12.1276 12.313Z" fill="#DCE5E5"/>
<path d="M12.6348 14.0361C12.6348 14.0361 12.9395 14.1377 13.803 14.1377C14.057 14.1377 15.3268 14.1885 15.3268 12.8171C15.3268 11.5472 14.1078 11.8012 14.1078 11.2933C14.1078 11.0393 14.3109 10.9377 14.6665 10.9377C14.8189 10.9377 15.3776 10.9885 15.3776 10.9885L15.53 10.0742C15.53 10.0742 15.1744 9.97266 14.5649 9.97266C13.803 9.97266 13.549 10.2774 13.549 11.2933C13.549 12.4615 14.3109 12.3599 14.3109 12.8171C14.3109 13.1218 13.9554 13.1726 13.7014 13.1726" fill="#DCE5E5"/>
<path d="M33.8147 10.5862C33.8147 10.5862 33.4084 10.0783 32.8497 10.0783C31.9354 10.0783 31.6306 11.1958 31.6306 12.5164C31.6306 13.3291 31.5291 14.1926 32.3925 14.1926C33.0021 14.1926 33.3576 13.7862 33.3576 13.7862L33.3068 14.1418H34.3227L35.0846 9.26562L33.8147 10.5862ZM33.7639 11.9069C33.7639 12.4656 33.3068 13.1767 32.7481 13.1767C32.3925 13.1767 32.1894 12.8719 32.1894 12.364C32.1894 11.5513 32.5449 11.0434 33.0021 11.0434C33.3576 11.0434 33.7639 11.2973 33.7639 11.9069Z" fill="#DCE5E5"/>
<path d="M5.87913 14.0832L6.48865 10.4261L6.59023 14.0832H7.30134L8.62196 10.4261L8.06323 14.0832H9.12989L9.94258 9.20703H8.67275L7.25054 12.2038L7.19975 9.20703H6.64103L4.91406 14.0832H5.87913Z" fill="#DCE5E5"/>
<path d="M20.5566 14.0908H21.6233C21.9281 12.4146 21.9788 11.0432 22.6899 11.2971C22.7915 10.6368 22.9439 10.3829 23.0455 10.1289C23.0455 10.1289 22.9947 10.1289 22.8423 10.1289C22.3852 10.1289 22.0296 10.7384 22.0296 10.7384L22.1312 10.1797" fill="#DCE5E5"/>
<path d="M26.5509 11.1448C26.5509 11.1448 27.008 10.9416 27.6684 10.9416C28.0239 10.9416 28.3287 10.9924 28.3287 11.2971C28.3287 11.5003 28.2779 11.5511 28.2779 11.5511C28.2779 11.5511 27.9731 11.5511 27.8207 11.5511C26.9573 11.5511 25.9922 11.9067 25.9922 13.0749C25.9922 13.9892 26.6017 14.1924 26.9573 14.1924C27.6684 14.1924 27.9731 13.7352 28.0239 13.7352L27.9731 14.1416H28.8874L29.2937 11.3479C29.2937 10.1797 28.2779 10.1289 27.8715 10.1289L26.5509 11.1448ZM28.6334 12.313C28.6334 12.4654 28.0239 13.2781 27.4144 13.2781C27.1096 13.2781 27.008 13.0241 27.008 12.8717C27.008 12.6178 27.1604 12.2622 27.9223 12.2622C28.1255 12.313 28.6334 12.313 28.6334 12.313Z" fill="#DCE5E5"/>
<path d="M29.0898 14.0908H30.1565C30.4613 12.4146 30.512 11.0432 31.2232 11.2971C31.3247 10.6368 31.4771 10.3829 31.5787 10.1289C31.5787 10.1289 31.5279 10.1289 31.3755 10.1289C30.9184 10.1289 30.5628 10.7384 30.5628 10.7384L30.6644 10.1797" fill="#DCE5E5"/>
</svg>
