<svg width="40" height="24" viewBox="0 0 40 24" fill="none" xmlns="http://www.w3.org/2000/svg">
<rect width="40" height="24" rx="2" fill="white"/>
<path d="M15.2012 17.6295L17.0297 7.34375H19.8869L18.1155 17.6295H15.2012Z" fill="#3C58BF"/>
<path d="M15.2012 17.6295L17.544 7.34375H19.8869L18.1155 17.6295H15.2012Z" fill="#293688"/>
<path d="M28.4577 7.45714C27.8863 7.22857 26.972 7 25.8291 7C22.972 7 20.9148 8.42857 20.9148 10.4857C20.9148 12.0286 22.3434 12.8286 23.4863 13.3429C24.6291 13.8571 24.972 14.2 24.972 14.6571C24.972 15.3428 24.0577 15.6857 23.2577 15.6857C22.1148 15.6857 21.4863 15.5143 20.5148 15.1143L20.1148 14.9428L19.7148 17.2857C20.4006 17.5714 21.6577 17.8571 22.972 17.8571C26.0006 17.8571 28.0006 16.4286 28.0006 14.2571C28.0006 13.0571 27.2577 12.1429 25.5434 11.4C24.5148 10.8857 23.8863 10.6 23.8863 10.0857C23.8863 9.62857 24.4006 9.17143 25.5434 9.17143C26.5148 9.17143 27.2006 9.34286 27.7148 9.57143L28.0006 9.68571L28.4577 7.45714Z" fill="#3C58BF"/>
<path d="M28.4577 7.45714C27.8863 7.22857 26.972 7 25.8291 7C22.972 7 21.4291 8.42857 21.4291 10.4857C21.4291 12.0286 22.3434 12.8286 23.4863 13.3429C24.6291 13.8571 24.972 14.2 24.972 14.6571C24.972 15.3428 24.0577 15.6857 23.2577 15.6857C22.1148 15.6857 21.4863 15.5143 20.5148 15.1143L20.1148 14.9428L19.7148 17.2857C20.4006 17.5714 21.6577 17.8571 22.972 17.8571C26.0006 17.8571 28.0006 16.4286 28.0006 14.2571C28.0006 13.0571 27.2577 12.1429 25.5434 11.4C24.5148 10.8857 23.8863 10.6 23.8863 10.0857C23.8863 9.62857 24.4006 9.17143 25.5434 9.17143C26.5148 9.17143 27.2006 9.34286 27.7148 9.57143L28.0006 9.68571L28.4577 7.45714Z" fill="#293688"/>
<path d="M33.371 7.34375C32.6853 7.34375 32.171 7.40089 31.8853 8.08661L27.5996 17.6295H30.6853L31.2568 15.9152H34.9139L35.2567 17.6295H37.9996L35.5996 7.34375H33.371ZM32.0567 14.2009C32.2282 13.6866 33.1996 11.1723 33.1996 11.1723C33.1996 11.1723 33.4282 10.5437 33.5996 10.1437L33.771 11.1152C33.771 11.1152 34.3425 13.6866 34.4567 14.258H32.0567V14.2009Z" fill="#3C58BF"/>
<path d="M34.0567 7.34375C33.371 7.34375 32.8567 7.40089 32.571 8.08661L27.5996 17.6295H30.6853L31.2568 15.9152H34.9139L35.2567 17.6295H37.9996L35.5996 7.34375H34.0567ZM32.0567 14.2009C32.2853 13.6295 33.1996 11.1723 33.1996 11.1723C33.1996 11.1723 33.4282 10.5437 33.5996 10.1437L33.771 11.1152C33.771 11.1152 34.3425 13.6866 34.4567 14.258H32.0567V14.2009Z" fill="#293688"/>
<path d="M9.94196 14.5413L9.65625 13.0556C9.14196 11.3413 7.48482 9.45558 5.65625 8.54129L8.22768 17.6841H11.3134L15.942 7.39844H12.8562L9.94196 14.5413Z" fill="#3C58BF"/>
<path d="M9.94196 14.5413L9.65625 13.0556C9.14196 11.3413 7.48482 9.45558 5.65625 8.54129L8.22768 17.6841H11.3134L15.942 7.39844H13.4277L9.94196 14.5413Z" fill="#293688"/>
<path d="M2 7.34375L2.51429 7.45804C6.17143 8.31518 8.68571 10.4866 9.65714 13.058L8.62857 8.20089C8.45714 7.51518 7.94285 7.34375 7.31428 7.34375H2Z" fill="#FFBC00"/>
<path d="M2 7.34375C5.65714 8.20089 8.68571 10.4295 9.65714 13.0009L8.68571 8.94375C8.51428 8.25804 7.94285 7.85804 7.31428 7.85804L2 7.34375Z" fill="#F7981D"/>
<path d="M2 7.34375C5.65714 8.20089 8.68571 10.4295 9.65714 13.0009L8.97142 10.7723C8.79999 10.0866 8.57142 9.40089 7.77142 9.11518L2 7.34375Z" fill="#ED7C00"/>
<path d="M12.7986 14.1987L10.8557 12.2558L9.94146 14.4272L9.71289 12.9987C9.1986 11.2844 7.54146 9.39866 5.71289 8.48438L8.28432 17.6272H11.37L12.7986 14.1987Z" fill="#051244"/>
<path d="M18.1155 17.6315L15.6583 15.1172L15.2012 17.6315H18.1155Z" fill="#051244"/>
<path d="M24.6863 14.0859C24.9148 14.3145 25.0291 14.4859 24.972 14.7145C24.972 15.4002 24.0577 15.7431 23.2577 15.7431C22.1148 15.7431 21.4863 15.5717 20.5148 15.1717L20.1148 15.0002L19.7148 17.3431C20.4006 17.6288 21.6577 17.9145 22.972 17.9145C24.8006 17.9145 26.2863 17.4002 27.1434 16.4859L24.6863 14.0859Z" fill="#051244"/>
<path d="M28 17.6263H30.6857L31.2571 15.912H34.9143L35.2571 17.6263H38L37.0286 13.4549L33.6 10.1406L33.7714 11.0549C33.7714 11.0549 34.3429 13.6263 34.4571 14.1978H32.0571C32.2857 13.6263 33.2 11.1692 33.2 11.1692C33.2 11.1692 33.4286 10.5406 33.6 10.1406" fill="#051244"/>
</svg>
