<svg width="143" height="61" viewBox="0 0 143 61" fill="none" xmlns="http://www.w3.org/2000/svg">
<path d="M95.5985 0.00457917H85.5809C85.2076 0.00456888 84.8438 0.114141 84.5411 0.317738C84.2385 0.521334 84.0124 0.808601 83.8949 1.13873L79.4432 13.6053C79.4133 13.6888 79.3562 13.7616 79.2799 13.8136C79.2036 13.8656 79.1117 13.8941 79.0172 13.8953C78.9227 13.8965 78.8301 13.8702 78.7523 13.8202C78.6745 13.7701 78.6153 13.6987 78.583 13.616L73.7365 1.13873C73.6122 0.818642 73.3851 0.54199 73.0861 0.346428C72.787 0.150867 72.4306 0.0458938 72.0652 0.0457917H60.4993C60.3494 0.0460036 60.2017 0.0794199 60.0684 0.143287C59.9351 0.207153 59.82 0.299638 59.7326 0.413108C59.6452 0.526578 59.588 0.657781 59.5658 0.795891C59.5435 0.934 59.5569 1.07506 59.6047 1.20742L71.5655 34.2673C71.6842 34.5954 71.6894 34.9499 71.5802 35.2809C71.0739 36.8211 68.7457 36.8485 68.1952 35.3221L55.8886 1.12957C55.7699 0.800549 55.5433 0.514539 55.2409 0.311877C54.9384 0.109216 54.5752 0.000130286 54.2026 0H42.6465C42.2715 1.9952e-05 41.906 0.110436 41.6024 0.315488C41.2987 0.520539 41.0724 0.809736 40.9556 1.14178L25.6671 44.722C25.5511 45.0542 25.3252 45.3436 25.0217 45.5487C24.7182 45.7538 24.3528 45.8641 23.9778 45.8638H20.3732C20.0918 45.8636 19.8144 45.8012 19.5639 45.6817C19.3134 45.5622 19.097 45.3889 18.9324 45.1763C18.7678 44.9636 18.6597 44.7176 18.6171 44.4584C18.5745 44.1992 18.5985 43.9344 18.6872 43.6855L33.4957 2.18282C33.5848 1.934 33.6091 1.669 33.5666 1.4097C33.5242 1.1504 33.4161 0.904209 33.2515 0.69145C33.0868 0.478691 32.8702 0.305453 32.6195 0.186027C32.3688 0.0666006 32.0913 0.00441049 31.8097 0.00457917H21.7938C21.4205 0.00456888 21.0566 0.114141 20.754 0.317738C20.4513 0.521334 20.2252 0.808601 20.1078 1.13873L0.0906245 57.2389C0.00182857 57.488 -0.0221618 57.7531 0.0206304 58.0125C0.0634226 58.2719 0.171771 58.5181 0.336748 58.7309C0.501725 58.9436 0.718606 59.1168 0.969516 59.2361C1.22042 59.3554 1.49818 59.4175 1.77988 59.4171H32.9943C33.3676 59.4172 33.7315 59.3076 34.0341 59.104C34.3368 58.9004 34.5629 58.6131 34.6803 58.283L38.6847 47.062C38.8024 46.732 39.0285 46.4449 39.3311 46.2413C39.6338 46.0378 39.9975 45.9281 40.3707 45.9279H49.6624C49.9421 45.9279 50.2178 45.8665 50.4672 45.7486C50.7165 45.6307 50.9325 45.4596 51.0976 45.2493C51.2626 45.039 51.3721 44.7954 51.4171 44.5383C51.4622 44.2811 51.4414 44.0177 51.3566 43.7695L49.2954 37.7354C49.1813 37.4006 48.9558 37.1083 48.6515 36.9008C48.3472 36.6933 47.98 36.5815 47.6029 36.5814H44.888C44.6064 36.5816 44.3288 36.5194 44.0782 36.4C43.8275 36.2806 43.6109 36.1073 43.4462 35.8946C43.2815 35.6818 43.1735 35.4356 43.131 35.1763C43.0886 34.917 43.1129 34.652 43.202 34.4032L46.8377 24.2034C46.9553 23.8747 47.1806 23.5886 47.482 23.3854C47.7833 23.1822 48.1454 23.0722 48.5174 23.0708C48.8893 23.0695 49.2524 23.1769 49.5554 23.3779C49.8584 23.5788 50.0861 23.8633 50.2064 24.1912L62.6866 58.2952C62.8065 58.6223 63.0332 58.9063 63.3349 59.1075C63.6366 59.3086 63.9983 59.4169 64.3693 59.4171H75.5781C75.9516 59.4172 76.3157 59.3077 76.6186 59.1041C76.9216 58.9006 77.148 58.6133 77.2657 58.283L97.2845 2.18282C97.3736 1.934 97.3979 1.669 97.3554 1.4097C97.313 1.1504 97.205 0.904209 97.0403 0.69145C96.8756 0.478691 96.659 0.305453 96.4083 0.186027C96.1576 0.0666006 95.8801 0.00441049 95.5985 0.00457917Z" fill="url(#paint0_linear)"/>
<path d="M122.652 1.14197C122.534 0.811963 122.307 0.524912 122.004 0.32139C121.701 0.117869 121.338 0.00817482 120.964 0.0078125H102.708C102.334 0.00792096 101.968 0.118397 101.665 0.323458C101.362 0.52852 101.136 0.81767 101.019 1.1496L97.5423 11.0715C97.4556 11.319 97.4326 11.5821 97.4753 11.8393C97.518 12.0966 97.6252 12.3409 97.7881 12.5524C97.951 12.764 98.1651 12.9368 98.413 13.0569C98.6609 13.1769 98.9357 13.241 99.2152 13.2437L103.11 13.2757C103.183 13.2763 103.256 13.2931 103.321 13.3248C103.387 13.3564 103.443 13.402 103.486 13.4578C103.529 13.5136 103.557 13.5781 103.568 13.6459C103.579 13.7138 103.572 13.7831 103.549 13.8481L100.677 21.891C100.559 22.2209 100.333 22.5078 100.03 22.7111C99.7275 22.9144 99.3638 23.0238 98.9907 23.0237H94.6373C94.2625 23.0238 93.8973 23.1342 93.5939 23.3393C93.2905 23.5444 93.0645 23.8335 92.948 24.1654L89.4712 34.0874C89.3844 34.3349 89.3614 34.598 89.4042 34.8553C89.447 35.1127 89.5543 35.357 89.7174 35.5684C89.8805 35.7799 90.0949 35.9525 90.3431 36.0723C90.5912 36.1922 90.8662 36.2558 91.1457 36.258L93.0988 36.2748C93.3789 36.2768 93.6545 36.3405 93.9031 36.4608C94.1517 36.581 94.3662 36.7544 94.529 36.9667C94.6919 37.1791 94.7984 37.4243 94.8401 37.6823C94.8817 37.9404 94.8571 38.204 94.7684 38.4515L92.4647 44.913C92.347 45.2428 92.1207 45.5298 91.8181 45.7331C91.5155 45.9364 91.1518 46.0457 90.7787 46.0456H86.5678C86.193 46.0457 85.8278 46.1562 85.5244 46.3612C85.2211 46.5663 84.995 46.8555 84.8786 47.1874L81.3477 57.262C81.2605 57.5106 81.2377 57.7749 81.2813 58.0333C81.3248 58.2917 81.4335 58.5368 81.5982 58.7486C81.763 58.9603 81.9793 59.1327 82.2294 59.2516C82.4795 59.3705 82.7562 59.4325 83.0369 59.4326H99.6166C99.989 59.4326 100.352 59.3235 100.654 59.1208C100.957 58.9181 101.183 58.632 101.301 58.303L105.59 46.4135C105.709 46.0849 105.936 45.7992 106.238 45.5968C106.54 45.3945 106.903 45.2855 107.275 45.2854H116.45C116.73 45.2855 117.006 45.2241 117.255 45.1062C117.504 44.9883 117.72 44.8172 117.885 44.6069C118.05 44.3965 118.159 44.1528 118.204 43.8957C118.249 43.6385 118.228 43.3752 118.143 43.127L116.08 37.093C115.966 36.758 115.74 36.4657 115.435 36.2582C115.131 36.0507 114.763 35.9389 114.386 35.939H111.84C111.558 35.9391 111.28 35.8767 111.029 35.757C110.778 35.6372 110.561 35.4634 110.396 35.2501C110.232 35.0368 110.124 34.7901 110.082 34.5303C110.04 34.2705 110.065 34.0051 110.155 33.7561L113.668 24.0128C113.786 23.6834 114.013 23.3969 114.315 23.194C114.618 22.991 114.981 22.8818 115.354 22.8818C115.727 22.8818 116.09 22.991 116.393 23.194C116.695 23.3969 116.922 23.6834 117.04 24.0128L129.468 58.8678C129.586 59.1979 129.812 59.4851 130.115 59.6887C130.418 59.8922 130.782 60.0018 131.155 60.002H141.175C141.457 60.0022 141.735 59.9398 141.987 59.8198C142.238 59.6999 142.455 59.5259 142.62 59.3122C142.785 59.0986 142.893 58.8514 142.934 58.5912C142.976 58.3311 142.951 58.0653 142.861 57.8161L122.652 1.14197Z" fill="white"/>
<defs>
<linearGradient id="paint0_linear" x1="124.021" y1="-20.2789" x2="7.83" y2="68.5538" gradientUnits="userSpaceOnUse">
<stop offset="1" stop-color="white"/>
</linearGradient>
</defs>
</svg>
