<svg width="100" height="48" viewBox="0 0 100 48" fill="none" xmlns="http://www.w3.org/2000/svg">
<path d="M66.8731 0.00366341H59.8656C59.6045 0.00365518 59.35 0.091315 59.1383 0.254196C58.9265 0.417076 58.7684 0.646895 58.6862 0.911005L55.5722 10.8844C55.5512 10.9513 55.5113 11.0096 55.4579 11.0511C55.4045 11.0927 55.3403 11.1156 55.2742 11.1165C55.208 11.1174 55.1433 11.0964 55.0888 11.0564C55.0344 11.0163 54.993 10.9592 54.9704 10.893L51.5802 0.911005C51.4932 0.654927 51.3344 0.433601 51.1252 0.277149C50.916 0.120696 50.6667 0.0367158 50.4111 0.0366342H42.3205C42.2156 0.0368037 42.1123 0.0635373 42.0191 0.114632C41.9258 0.165726 41.8453 0.239716 41.7842 0.330494C41.723 0.421272 41.683 0.526236 41.6675 0.636726C41.6519 0.747216 41.6613 0.860067 41.6947 0.96596L50.0615 27.4144C50.1446 27.6769 50.1482 27.9605 50.0718 28.2253C49.7177 29.4575 48.089 29.4795 47.7039 28.2583L39.0952 0.903678C39.0122 0.640453 38.8537 0.41164 38.6421 0.249507C38.4305 0.0873748 38.1765 0.000104231 37.9159 0H29.8321C29.5698 1.59619e-05 29.3141 0.0883511 29.1017 0.252396C28.8893 0.41644 28.731 0.647803 28.6493 0.913446L17.9547 35.7784C17.8735 36.0441 17.7155 36.2756 17.5032 36.4398C17.2909 36.6039 17.0353 36.6921 16.773 36.6918H14.2515C14.0546 36.6917 13.8606 36.6418 13.6854 36.5461C13.5102 36.4505 13.3587 36.3119 13.2436 36.1418C13.1285 35.9717 13.0529 35.7748 13.0231 35.5675C12.9932 35.3602 13.01 35.1482 13.0721 34.9492L23.4309 1.7463C23.4932 1.54723 23.5103 1.33523 23.4806 1.12778C23.4508 0.920336 23.3753 0.723383 23.2601 0.553172C23.1449 0.382961 22.9934 0.244368 22.818 0.148825C22.6427 0.0532816 22.4485 0.00352846 22.2515 0.00366341H15.2452C14.984 0.00365518 14.7295 0.091315 14.5178 0.254196C14.3061 0.417076 14.148 0.646895 14.0658 0.911005L0.0633937 45.7921C0.00127912 45.9914 -0.0155026 46.2035 0.0144314 46.411C0.0443654 46.6185 0.120158 46.8155 0.235562 46.9857C0.350967 47.1559 0.50268 47.2944 0.678196 47.3899C0.853712 47.4853 1.04801 47.535 1.24507 47.5347H23.0802C23.3413 47.5348 23.5958 47.4471 23.8076 47.2842C24.0193 47.1213 24.1774 46.8915 24.2596 46.6274L27.0608 37.6504C27.1431 37.3864 27.3013 37.1567 27.5129 36.9939C27.7246 36.831 27.979 36.7433 28.2401 36.7431H34.7399C34.9355 36.7431 35.1284 36.694 35.3028 36.5996C35.4773 36.5053 35.6283 36.3685 35.7438 36.2002C35.8593 36.032 35.9359 35.8371 35.9674 35.6314C35.9988 35.4257 35.9843 35.215 35.925 35.0163L34.4832 30.189C34.4034 29.9211 34.2456 29.6873 34.0327 29.5213C33.8199 29.3553 33.563 29.2658 33.2992 29.2658H31.4C31.2031 29.2659 31.0089 29.2162 30.8336 29.1206C30.6582 29.0251 30.5067 28.8865 30.3915 28.7163C30.2763 28.5461 30.2007 28.3491 30.171 28.1416C30.1413 27.9342 30.1583 27.7222 30.2207 27.5231L32.764 19.3632C32.8462 19.1001 33.0038 18.8712 33.2146 18.7087C33.4254 18.5462 33.6787 18.4581 33.9389 18.4571C34.1991 18.456 34.453 18.5419 34.665 18.7027C34.877 18.8635 35.0362 19.0911 35.1204 19.3534L43.8506 46.6372C43.9345 46.8989 44.093 47.1261 44.3041 47.287C44.5151 47.4479 44.7681 47.5346 45.0277 47.5347H52.8684C53.1297 47.5348 53.3844 47.4472 53.5963 47.2843C53.8082 47.1215 53.9666 46.8916 54.049 46.6274L68.0525 1.7463C68.1148 1.54723 68.1318 1.33523 68.1021 1.12778C68.0724 0.920336 67.9969 0.723383 67.8817 0.553172C67.7665 0.382961 67.6149 0.244368 67.4396 0.148825C67.2642 0.0532816 67.0701 0.00352846 66.8731 0.00366341Z" fill="url(#paint0_linear)"/>
<path d="M85.7983 0.911248C85.7157 0.647241 85.5572 0.417594 85.3454 0.254774C85.1335 0.0919531 84.879 0.00419611 84.6178 0.00390625H71.8475C71.5853 0.00399302 71.3298 0.0923758 71.1176 0.256428C70.9054 0.420481 70.7473 0.651806 70.6658 0.917352L68.2337 8.85507C68.173 9.05306 68.157 9.2635 68.1869 9.46933C68.2167 9.67516 68.2917 9.8706 68.4056 10.0398C68.5196 10.209 68.6694 10.3473 68.8428 10.4434C69.0162 10.5394 69.2085 10.5906 69.4039 10.5928L72.1283 10.6185C72.1798 10.6189 72.2305 10.6324 72.2762 10.6577C72.3219 10.683 72.3613 10.7195 72.3913 10.7641C72.4212 10.8088 72.4409 10.8604 72.4485 10.9146C72.4562 10.9689 72.4517 11.0243 72.4355 11.0764L70.4263 17.5109C70.3439 17.7747 70.1857 18.0043 69.974 18.1669C69.7623 18.3296 69.5079 18.4171 69.2469 18.417H66.2016C65.9394 18.4171 65.6839 18.5054 65.4717 18.6695C65.2595 18.8336 65.1014 19.0649 65.0199 19.3304L62.5878 27.2681C62.5271 27.4662 62.511 27.6767 62.541 27.8825C62.5709 28.0884 62.6459 28.2839 62.7601 28.453C62.8742 28.6222 63.0241 28.7603 63.1977 28.8562C63.3713 28.952 63.5637 29.0029 63.7592 29.0047L65.1254 29.0181C65.3213 29.0197 65.5141 29.0707 65.688 29.1669C65.8619 29.2631 66.0119 29.4018 66.1259 29.5717C66.2398 29.7416 66.3143 29.9377 66.3434 30.1442C66.3725 30.3506 66.3554 30.5615 66.2933 30.7595L64.6818 35.9288C64.5995 36.1927 64.4412 36.4222 64.2295 36.5849C64.0178 36.7475 63.7634 36.835 63.5024 36.8349H60.5569C60.2947 36.835 60.0392 36.9234 59.827 37.0875C59.6148 37.2515 59.4566 37.4828 59.3752 37.7484L56.9053 45.8082C56.8443 46.0071 56.8283 46.2186 56.8588 46.4253C56.8893 46.632 56.9652 46.8281 57.0805 46.9975C57.1958 47.1669 57.3471 47.3048 57.522 47.3999C57.697 47.4951 57.8905 47.5447 58.0869 47.5448H69.6847C69.9452 47.5448 70.1992 47.4575 70.4106 47.2953C70.622 47.1332 70.7803 46.9043 70.863 46.6411L73.8636 37.1292C73.9466 36.8663 74.1049 36.6378 74.3163 36.4759C74.5277 36.314 74.7815 36.2269 75.0418 36.2268H81.4602C81.6558 36.2269 81.8487 36.1777 82.0231 36.0834C82.1975 35.9891 82.3485 35.8522 82.4639 35.6839C82.5793 35.5156 82.6558 35.3207 82.6871 35.115C82.7184 34.9092 82.7037 34.6985 82.6442 34.5L81.2012 29.6727C81.1211 29.4047 80.9632 29.1708 80.7501 29.0048C80.5371 28.8389 80.28 28.7494 80.0161 28.7494H78.2349C78.0377 28.7496 77.8432 28.6997 77.6677 28.6038C77.4921 28.508 77.3405 28.369 77.2253 28.1984C77.1102 28.0277 77.0349 27.8303 77.0055 27.6225C76.9762 27.4146 76.9937 27.2023 77.0567 27.0032L79.514 19.2083C79.5967 18.9448 79.7551 18.7156 79.9668 18.5532C80.1784 18.3909 80.4326 18.3035 80.6934 18.3035C80.9542 18.3035 81.2084 18.3909 81.4201 18.5532C81.6317 18.7156 81.7901 18.9448 81.8728 19.2083L90.5663 47.0929C90.6488 47.357 90.8072 47.5868 91.0191 47.7496C91.231 47.9125 91.4856 48.0002 91.7468 48.0003H98.7555C98.953 48.0005 99.1477 47.9505 99.3236 47.8545C99.4994 47.7586 99.6512 47.6194 99.7665 47.4485C99.8817 47.2775 99.9571 47.0798 99.9864 46.8717C100.016 46.6635 99.998 46.4509 99.9348 46.2515L85.7983 0.911248Z" fill="white"/>
<defs>
<linearGradient id="paint0_linear" x1="86.7553" y1="-16.2235" x2="-2.25398" y2="43.2792" gradientUnits="userSpaceOnUse">
<stop offset="1" stop-color="white"/>
</linearGradient>
</defs>
</svg>
