<svg width="76" height="76" viewBox="0 0 76 76" fill="none" xmlns="http://www.w3.org/2000/svg">
<circle cx="38" cy="38" r="38" transform="rotate(-90 38 38)" fill="url(#paint0_linear)"/>
<path d="M49.0925 21.3801C48.7118 20.9983 48.0934 20.9983 47.7116 21.3801C47.3305 21.7612 47.3305 22.3796 47.7116 22.7614C47.7223 22.7721 47.7341 22.7828 47.7448 22.7935C48.1285 23.1433 48.7225 23.1326 49.0925 22.7614C49.4561 22.3979 49.4736 21.82 49.1444 21.437C49.1288 21.4175 49.1112 21.3988 49.0925 21.3801Z" fill="white"/>
<path d="M60.1439 15.8564C56.3353 12.0479 50.1391 12.0479 46.3305 15.8564L38.6905 23.4961C35.9343 26.2526 35.0963 30.3835 36.5039 33.9713L33.9717 36.5038C30.3836 35.0962 26.2527 35.9343 23.4966 38.6904L15.8561 46.3305C12.048 50.1387 12.048 56.3353 15.8561 60.1438C19.6647 63.9521 25.8609 63.9521 29.6695 60.1438L37.3095 52.5038C40.066 49.7473 40.9037 45.6164 39.4961 42.0286L42.0283 39.4965C45.645 40.9151 49.7675 40.0458 52.5034 37.3095L60.1439 29.6694C63.952 25.8612 63.952 19.6646 60.1439 15.8564ZM35.9282 51.1225L28.2882 58.7622C25.2345 61.8162 20.2919 61.8166 17.2378 58.7622C14.1838 55.7085 14.1834 50.7662 17.2378 47.7118L24.8779 40.0717C26.8726 38.0766 29.7675 37.3385 32.4264 38.0492L29.7103 40.7652C28.6678 40.9136 27.6988 41.3943 26.9492 42.1442L19.3103 49.7839C17.4038 51.6894 17.4034 54.7842 19.31 56.6896C21.2154 58.5962 24.3102 58.597 26.2161 56.69L33.8561 49.0511C34.6057 48.3011 35.0867 47.3322 35.2347 46.29L37.9512 43.574C38.6615 46.2328 37.9233 49.1274 35.9282 51.1225ZM28.3309 47.6683C29.1148 48.453 30.1883 48.8749 31.3407 48.8035L24.8344 55.3087C23.6923 56.4516 21.8341 56.452 20.6913 55.3083C19.5488 54.1666 19.548 52.3085 20.6916 51.1656L27.1968 44.6593C27.1247 45.8201 27.5531 46.8912 28.3309 47.6683ZM33.6097 45.1525L32.4744 46.2874C31.7145 47.0476 30.4759 47.0514 29.7122 46.287C28.9504 45.5263 28.9504 44.2873 29.7126 43.5255L43.5256 29.7125C44.2855 28.9527 45.5241 28.9485 46.2878 29.7129C47.0496 30.474 47.0496 31.7126 46.2874 32.4744L33.6097 45.1525ZM51.1225 35.9282C49.1274 37.9229 46.2328 38.6614 43.574 37.9507L46.2901 35.2347C47.3319 35.0867 48.3004 34.606 49.05 33.8568C49.0504 33.8564 49.0508 33.8561 49.0508 33.8557L56.6897 26.216C58.5959 24.3109 58.597 21.2161 56.69 19.3103C55.115 17.734 52.6739 17.4243 50.754 18.5569C50.2894 18.8308 50.1353 19.4297 50.4092 19.8943C50.6834 20.3589 51.2823 20.5134 51.7466 20.2395C52.8986 19.5597 54.3635 19.7455 55.3087 20.6916C56.4516 21.8337 56.452 23.6918 55.3087 24.8347L48.8036 31.3406C48.8753 30.1802 48.4473 29.1091 47.6691 28.3316C46.9325 27.5942 45.9517 27.188 44.9069 27.188C44.8241 27.188 44.7417 27.1918 44.6597 27.1968L46.3309 25.5255C46.7124 25.1441 46.7124 24.5257 46.3309 24.1442C45.9494 23.7628 45.3311 23.7628 44.9496 24.1442L42.1443 26.9492C41.3943 27.6991 40.9137 28.6681 40.7653 29.7102L38.0492 32.4263C37.3385 29.7675 38.0771 26.8725 40.0718 24.8778L47.7118 17.2377C50.7655 14.1841 55.7081 14.1833 58.7626 17.2377C61.8162 20.2918 61.8166 25.2341 58.7626 28.2885L51.1225 35.9282Z" fill="white"/>
<path d="M29.023 29.0226C29.4041 28.6415 29.4041 28.0228 29.023 27.6413L24.8787 23.497C24.4972 23.1156 23.8785 23.1156 23.497 23.497C23.1156 23.8785 23.1156 24.4969 23.497 24.8783L27.6413 29.0226C28.0228 29.4041 28.6415 29.4045 29.023 29.0226Z" fill="white"/>
<path d="M18.2109 33.2152C18.2109 33.7546 18.6481 34.1918 19.1875 34.1918H25.048C25.5874 34.1918 26.0246 33.7546 26.0246 33.2152C26.0246 32.6758 25.5874 32.2383 25.048 32.2383H19.1875C18.6481 32.2383 18.2109 32.6758 18.2109 33.2152Z" fill="white"/>
<path d="M34.1918 25.0445V19.184C34.1918 18.6446 33.7546 18.207 33.2152 18.207C32.6758 18.207 32.2383 18.6446 32.2383 19.184V25.0445C32.2383 25.5839 32.6758 26.021 33.2152 26.021C33.7546 26.021 34.1918 25.5839 34.1918 25.0445Z" fill="white"/>
<path d="M46.9814 46.9772C46.5999 47.3587 46.5999 47.9774 46.9814 48.3589L51.1257 52.5032C51.5072 52.8847 52.1255 52.8847 52.507 52.5032C52.8884 52.1217 52.8884 51.5034 52.507 51.1219L48.3627 46.9772C47.9812 46.5961 47.3625 46.5961 46.9814 46.9772Z" fill="white"/>
<path d="M41.9062 50.9531V56.8136C41.9062 57.353 42.3434 57.7906 42.8828 57.7906C43.4226 57.7906 43.8597 57.353 43.8597 56.8136V50.9531C43.8597 50.4137 43.4226 49.9766 42.8828 49.9766C42.3434 49.9766 41.9062 50.4137 41.9062 50.9531Z" fill="white"/>
<path d="M57.7906 42.8828C57.7906 42.3434 57.353 41.9062 56.8136 41.9062H50.9535C50.4137 41.9062 49.9766 42.3434 49.9766 42.8828C49.9766 43.4222 50.4137 43.8598 50.9535 43.8598H56.8136C57.353 43.8598 57.7906 43.4222 57.7906 42.8828Z" fill="white"/>
<defs>
<linearGradient id="paint0_linear" x1="0" y1="0" x2="76" y2="76" gradientUnits="userSpaceOnUse">
<stop stop-color="#D23E30"/>
<stop offset="1" stop-color="#E16B60"/>
</linearGradient>
</defs>
</svg>
