<svg width="76" height="76" viewBox="0 0 76 76" fill="none" xmlns="http://www.w3.org/2000/svg">
<circle cx="38" cy="38" r="38" transform="rotate(-90 38 38)" fill="url(#paint0_linear)"/>
<path d="M55.9179 20.8084C55.8544 20.8084 55.7899 20.8015 55.7274 20.7888C55.6649 20.7771 55.6034 20.7576 55.5448 20.7332C55.4853 20.7087 55.4287 20.6785 55.376 20.6433C55.3222 20.6082 55.2724 20.5671 55.2274 20.5222C55.1825 20.4773 55.1415 20.4275 55.1063 20.3738C55.0713 20.321 55.0409 20.2644 55.0165 20.2048C54.9921 20.1462 54.9726 20.0847 54.9609 20.0222C54.9481 19.9597 54.9414 19.8953 54.9414 19.8318C54.9414 19.7683 54.9481 19.7039 54.9609 19.6414C54.9726 19.5789 54.9921 19.5173 55.0165 19.4578C55.0409 19.3992 55.0712 19.3425 55.1063 19.2898C55.1415 19.2361 55.1825 19.1863 55.2274 19.1414C55.2724 19.0964 55.3222 19.0554 55.376 19.0193C55.4287 18.9841 55.4853 18.9539 55.5448 18.9304C55.6034 18.906 55.6649 18.8865 55.7274 18.8738C55.8534 18.8494 55.9823 18.8494 56.1083 18.8738C56.1708 18.8865 56.2323 18.906 56.2908 18.9304C56.3504 18.9548 56.407 18.9841 56.4598 19.0193C56.5135 19.0554 56.5633 19.0964 56.6082 19.1414C56.6531 19.1863 56.6942 19.2361 56.7303 19.2898C56.7654 19.3425 56.7947 19.3992 56.8191 19.4578C56.8446 19.5173 56.8631 19.5789 56.8758 19.6414C56.8885 19.7039 56.8943 19.7683 56.8943 19.8318C56.8943 19.8953 56.8885 19.9597 56.8758 20.0222C56.8631 20.0847 56.8446 20.1462 56.8191 20.2048C56.7947 20.2644 56.7654 20.321 56.7303 20.3738C56.6942 20.4275 56.6531 20.4773 56.6082 20.5222C56.5633 20.5671 56.5135 20.6082 56.4598 20.6433C56.407 20.6785 56.3504 20.7087 56.2908 20.7332C56.2322 20.7576 56.1707 20.7771 56.1083 20.7888C56.0457 20.8016 55.9813 20.8084 55.9179 20.8084Z" fill="white"/>
<path d="M60.647 24.627C60.4008 24.147 59.8124 23.9574 59.3325 24.2034C58.8526 24.4494 58.6628 25.0379 58.9088 25.5179C62.7667 33.0449 61.337 42.1239 55.3515 48.1099C51.6832 51.7784 46.8061 53.7987 41.6184 53.7987C36.4307 53.7987 31.5536 51.7783 27.8853 48.1099C20.3128 40.5369 20.3128 28.2148 27.8853 20.6417C34.0972 14.4293 43.7399 13.159 51.3341 17.5522C51.8011 17.8223 52.3984 17.6626 52.6685 17.1958C52.9386 16.7289 52.779 16.1316 52.3122 15.8615C43.9532 11.026 33.3408 12.4238 26.5042 19.2608C22.4671 23.2981 20.2437 28.6661 20.2437 34.3758C20.2437 39.7593 22.2203 44.839 25.8301 48.786L24.467 50.1491L22.8569 48.5388C22.6737 48.3557 22.4253 48.2528 22.1663 48.2528C21.9073 48.2528 21.6589 48.3557 21.4758 48.5388L14.237 55.7781C12.5877 57.4275 12.5877 60.1114 14.237 61.7608C15.036 62.5599 16.0983 63 17.2283 63C18.3582 63 19.4205 62.56 20.2195 61.7608L27.4583 54.5217C27.8397 54.1403 27.8397 53.522 27.4583 53.1406L25.8482 51.5302L27.2114 50.167C31.1578 53.7758 36.2363 55.7517 41.6185 55.7517C47.328 55.7517 52.6957 53.5282 56.7329 49.4908C59.9952 46.2283 62.0786 42.0986 62.7579 37.5483C63.4235 33.0885 62.6936 28.6203 60.647 24.627ZM25.3866 53.8311L18.8384 60.3799C18.4083 60.81 17.8365 61.0469 17.2283 61.0469C16.62 61.0469 16.0482 60.81 15.6181 60.3799C14.7303 59.492 14.7303 58.0472 15.6181 57.1593L22.1664 50.6106L23.0861 51.5304L21.2668 53.3499C20.8855 53.7312 20.8855 54.3496 21.2668 54.7309C21.4575 54.9217 21.7074 55.017 21.9573 55.017C22.2072 55.017 22.4572 54.9216 22.6479 54.7309L24.4671 52.9116L25.3866 53.8311Z" fill="white"/>
<path d="M25.3672 34.3763C25.3672 37.2391 26.1223 40.0545 27.5509 42.5178C28.936 44.9063 30.9209 46.9174 33.2911 48.3343C33.2919 48.3348 33.2926 48.3352 33.2934 48.3357C35.8016 49.8351 38.6801 50.6277 41.6175 50.6277C44.5548 50.6277 47.4333 49.8351 49.9415 48.3357C50.2365 48.1593 50.417 47.841 50.417 47.4975V39.8703C50.417 37.9578 48.8617 36.4018 46.9501 36.4018H46.5919C48.0361 35.0632 48.9413 33.1507 48.9413 31.0308C48.9413 26.9922 45.6558 23.7065 41.6174 23.7065C37.5789 23.7065 34.2934 26.9922 34.2934 31.0308C34.2934 33.1507 35.1987 35.0632 36.6428 36.4018H36.2848C34.3731 36.4018 32.8178 37.9578 32.8178 39.8703V45.6439C29.3897 42.9538 27.3202 38.7808 27.3202 34.3763C27.3202 26.4923 33.7339 20.0781 41.6174 20.0781C49.5009 20.0781 55.9145 26.4923 55.9145 34.3763C55.9145 36.0904 55.6146 37.7664 55.0231 39.3577C54.8351 39.8633 55.0926 40.4255 55.5982 40.6134C56.1038 40.8012 56.6659 40.5437 56.8538 40.0383C57.5266 38.2284 57.8677 36.3235 57.8677 34.3763C57.8677 25.4154 50.5778 18.125 41.6175 18.125C32.657 18.125 25.3672 25.4153 25.3672 34.3763ZM36.2466 31.0307C36.2466 28.069 38.656 25.6595 41.6175 25.6595C44.5789 25.6595 46.9883 28.069 46.9883 31.0307C46.9883 33.9763 44.6051 36.3758 41.6657 36.4017H41.5691C38.6299 36.3758 36.2466 33.9763 36.2466 31.0307ZM34.771 39.8702C34.771 39.0347 35.4501 38.3549 36.2849 38.3549H41.5609C41.5798 38.355 41.5986 38.3551 41.6175 38.3551C41.6364 38.3551 41.6553 38.355 41.6741 38.3549H46.9502C47.7849 38.3549 48.464 39.0347 48.464 39.8702V46.931C46.3734 48.0732 44.0183 48.6744 41.6175 48.6744C39.2168 48.6744 36.8617 48.0733 34.7711 46.931V39.8702H34.771Z" fill="white"/>
<defs>
<linearGradient id="paint0_linear" x1="0" y1="0" x2="76" y2="76" gradientUnits="userSpaceOnUse">
<stop stop-color="#0047F2"/>
<stop offset="1" stop-color="#006AFD"/>
</linearGradient>
</defs>
</svg>
