<svg width="76" height="76" viewBox="0 0 76 76" fill="none" xmlns="http://www.w3.org/2000/svg">
<circle cx="38" cy="38" r="38" transform="rotate(-90 38 38)" fill="url(#paint0_linear)"/>
<path d="M23.2326 21.3684V18.3787C23.2326 16.8977 23.8361 15.5523 24.8105 14.5807C25.785 13.6063 27.1304 13 28.6085 13H47.3022C48.7832 13 50.1258 13.6063 51.1002 14.5808C52.0746 15.5523 52.6809 16.8978 52.6809 18.3788V23.8267C52.6809 24.2309 52.3515 24.5603 51.9473 24.5603C51.5431 24.5603 51.2164 24.2309 51.2164 23.8267V18.3787C51.2164 17.302 50.7735 16.3246 50.0648 15.616C49.3562 14.9046 48.379 14.4644 47.3022 14.4644H46.9341V16.5793C46.9341 17.9469 45.8185 19.0652 44.4481 19.0652H31.4625C30.0923 19.0652 28.9767 17.9469 28.9767 16.5793V14.4644H28.6085C27.5344 14.4644 26.5545 14.9046 25.8458 15.616C25.1371 16.3246 24.697 17.302 24.697 18.3787V21.3684H34.4605C35.1498 21.3684 35.7754 21.6508 36.2294 22.1047C36.6806 22.5587 36.963 23.1844 36.963 23.8708V26.6197C36.963 27.0267 36.6335 27.3533 36.2294 27.3533C35.8252 27.3533 35.4985 27.0267 35.4985 26.6197V23.8708C35.4985 23.5885 35.3795 23.3282 35.1913 23.14C35.0031 22.9518 34.7457 22.8355 34.4605 22.8355H17.5024C17.2174 22.8355 16.9599 22.9519 16.7717 23.14C16.5835 23.3283 16.4645 23.5886 16.4645 23.8708V32.6877C16.4645 32.9728 16.5835 33.2303 16.7717 33.4185C16.96 33.6066 17.2174 33.7257 17.5024 33.7257H27.5013C27.9054 33.7257 28.232 34.0524 28.232 34.4565V37.1029L31.3905 33.9417C31.5233 33.8089 31.7089 33.7257 31.9137 33.7257H34.4605C34.7456 33.7257 35.003 33.6065 35.1912 33.4185C35.3795 33.2302 35.4984 32.9728 35.4984 32.6877V29.9389C35.4984 29.5347 35.8251 29.2053 36.2293 29.2053C36.6334 29.2053 36.9629 29.5347 36.9629 29.9389V32.6877C36.9629 33.377 36.6805 34.0026 36.2293 34.4566C35.7753 34.9078 35.1497 35.1902 34.4604 35.1902H32.2153L28.0188 39.3868C27.7336 39.6747 27.2686 39.6747 26.9835 39.3868C26.8396 39.2457 26.7676 39.0574 26.7676 38.8691V35.1902H24.697V42.4817C24.697 42.8859 24.3676 43.2153 23.9634 43.2153C23.5592 43.2153 23.2326 42.8859 23.2326 42.4817V35.1902H17.5024C16.8132 35.1902 16.1876 34.9078 15.7336 34.4566C15.2823 34.0026 15 33.3769 15 32.6877V23.8708C15 23.1844 15.2823 22.5587 15.7336 22.1047C16.1876 21.6508 16.8132 21.3684 17.5024 21.3684H23.2326ZM43.197 39.3536C42.7928 39.3536 42.4662 39.027 42.4662 38.6229C42.4662 38.2187 42.7929 37.8893 43.197 37.8893H55.0283C55.4325 37.8893 55.7619 38.2187 55.7619 38.6229C55.7619 39.0271 55.4325 39.3536 55.0283 39.3536H43.197ZM43.197 43.1379C42.7928 43.1379 42.4662 42.8111 42.4662 42.4071C42.4662 42.0028 42.7929 41.6733 43.197 41.6733H49.1127C49.5168 41.6733 49.8463 42.0028 49.8463 42.4071C49.8463 42.8112 49.5168 43.1379 49.1127 43.1379H43.197ZM20.0658 27.1209C19.6616 27.1209 19.3322 26.7914 19.3322 26.3873C19.3322 25.9831 19.6616 25.6565 20.0658 25.6565H31.8972C32.3014 25.6565 32.6308 25.9832 32.6308 26.3873C32.6308 26.7914 32.3014 27.1209 31.8972 27.1209H20.0658ZM20.0658 30.905C19.6616 30.905 19.3322 30.5756 19.3322 30.1714C19.3322 29.7672 19.6616 29.4406 20.0658 29.4406H31.8972C32.3014 29.4406 32.6308 29.7673 32.6308 30.1714C32.6308 30.5756 32.3014 30.905 31.8972 30.905H20.0658ZM39.5956 38.8554C39.5956 39.2596 39.2689 39.589 38.8647 39.589C38.4606 39.589 38.1312 39.2596 38.1312 38.8554V36.1066C38.1312 35.4173 38.4136 34.7917 38.8675 34.3378C39.3188 33.8865 39.9443 33.6041 40.6336 33.6041H51.2164V27.1458C51.2164 26.7389 51.5431 26.4122 51.9473 26.4122C52.3514 26.4122 52.6809 26.7389 52.6809 27.1458V33.6041H57.5917C58.281 33.6041 58.9065 33.8865 59.3605 34.3378C59.8118 34.7917 60.0941 35.4174 60.0941 36.1066V44.9207C60.0941 45.61 59.8118 46.2356 59.3605 46.6895C58.9065 47.1435 58.281 47.4231 57.5917 47.4231H52.6809V54.6399V57.6241C52.6809 59.1024 52.0746 60.4478 51.1002 61.4223C50.1258 62.3965 48.7832 63 47.3022 63H28.6085C27.1303 63 25.785 62.3965 24.8105 61.4222C23.8361 60.4477 23.2326 59.1023 23.2326 57.624V54.6398V45.8008C23.2326 45.3967 23.5593 45.0672 23.9634 45.0672C24.3676 45.0672 24.697 45.3967 24.697 45.8008V53.9062H51.2164V47.4229H49.1541V51.1048C49.1541 51.509 48.8246 51.8355 48.4205 51.8355C48.2185 51.8355 48.033 51.7524 47.9001 51.6196L43.7062 47.4228H40.6336C39.9443 47.4228 39.3187 47.1433 38.8675 46.6893C38.4136 46.2354 38.1312 45.6096 38.1312 44.9204V42.1742C38.1312 41.7673 38.4606 41.4406 38.8647 41.4406C39.2689 41.4406 39.5956 41.7673 39.5956 42.1742V44.9204C39.5956 45.2056 39.7146 45.4657 39.9028 45.654C40.091 45.8423 40.3484 45.9585 40.6336 45.9585H44.008C44.1963 45.9585 44.3845 46.0305 44.5257 46.1744L47.6897 49.3357V46.6921C47.6897 46.2879 48.0164 45.9585 48.4205 45.9585H57.5916C57.8767 45.9585 58.1342 45.8423 58.3252 45.654C58.5134 45.4657 58.6297 45.2056 58.6297 44.9204V36.1063C58.6297 35.8212 58.5134 35.5637 58.3252 35.3756C58.1342 35.1846 57.8768 35.0684 57.5916 35.0684H40.6336C40.3484 35.0684 40.091 35.1847 39.9028 35.3756C39.7146 35.5638 39.5956 35.8213 39.5956 36.1063V38.8554ZM34.7124 59.1854C34.3082 59.1854 33.9816 58.8588 33.9816 58.4546C33.9816 58.0504 34.3083 57.721 34.7124 57.721H41.1983C41.6024 57.721 41.9291 58.0504 41.9291 58.4546C41.9291 58.8589 41.6024 59.1854 41.1983 59.1854H34.7124ZM45.4696 14.4644H30.4411V16.5793C30.4411 17.1385 30.9033 17.6009 31.4625 17.6009H44.4481C45.0101 17.6009 45.4696 17.1385 45.4696 16.5793V14.4644ZM51.2165 55.3707H24.6971V57.624C24.6971 58.698 25.1372 59.6754 25.8459 60.3868C26.5545 61.0954 27.5345 61.5356 28.6086 61.5356H47.3023C48.3791 61.5356 49.3563 61.0954 50.0649 60.3868C50.7736 59.6754 51.2165 58.698 51.2165 57.624V55.3707Z" fill="white" stroke="white" stroke-width="0.5"/>
<defs>
<linearGradient id="paint0_linear" x1="0" y1="0" x2="76" y2="76" gradientUnits="userSpaceOnUse">
<stop stop-color="#D23E30"/>
<stop offset="1" stop-color="#E16B60"/>
</linearGradient>
</defs>
</svg>
