<svg width="519" height="529" viewBox="0 0 519 529" fill="none" xmlns="http://www.w3.org/2000/svg">
<g filter="url(#filter0_d)">
<path d="M266.255 506.187C401.153 506.187 510.509 443.049 510.509 365.166C510.509 287.282 401.153 224.145 266.255 224.145C131.357 224.145 22 287.282 22 365.166C22 443.049 131.357 506.187 266.255 506.187Z" fill="white"/>
</g>
<path d="M396.681 472.877C423.647 472.877 445.507 459.17 445.507 442.263C445.507 425.355 423.647 411.648 396.681 411.648C369.716 411.648 347.855 425.355 347.855 442.263C347.855 459.17 369.716 472.877 396.681 472.877Z" fill="#E6E6E6"/>
<path d="M303.395 247.633L296.813 243.87C296.522 243.652 296.292 243.363 296.145 243.031C295.998 242.698 295.938 242.334 295.972 241.972V198.114C296.037 196.938 296.431 195.803 297.109 194.84L303.657 198.614C303.001 199.575 302.631 200.703 302.588 201.865V245.757C302.547 246.113 302.6 246.474 302.741 246.803C302.883 247.132 303.108 247.419 303.395 247.633Z" fill="#005FFA"/>
<path opacity="0.55" d="M303.395 247.633L296.813 243.87C296.522 243.652 296.292 243.363 296.145 243.031C295.998 242.698 295.938 242.334 295.972 241.972V198.114C296.037 196.938 296.431 195.803 297.109 194.84L303.657 198.614C303.001 199.575 302.631 200.703 302.588 201.865V245.757C302.547 246.113 302.6 246.474 302.741 246.803C302.883 247.132 303.108 247.419 303.395 247.633Z" fill="white"/>
<path d="M305.486 196.7L397.318 143.691C398.966 142.736 400.296 143.509 400.296 145.407V189.356C400.241 190.389 399.943 191.394 399.425 192.289C398.908 193.184 398.185 193.944 397.318 194.506L305.486 247.436C303.849 248.379 302.508 247.606 302.508 245.708V201.861C302.566 200.828 302.866 199.823 303.383 198.926C303.9 198.03 304.621 197.268 305.486 196.7Z" fill="#005FFA"/>
<path opacity="0.7" d="M305.486 196.7L397.318 143.691C398.966 142.736 400.296 143.509 400.296 145.407V189.356C400.241 190.389 399.943 191.394 399.425 192.289C398.908 193.184 398.185 193.944 397.318 194.506L305.486 247.436C303.849 248.379 302.508 247.606 302.508 245.708V201.861C302.566 200.828 302.866 199.823 303.383 198.926C303.9 198.03 304.621 197.268 305.486 196.7Z" fill="white"/>
<path d="M392.838 139.725L399.317 143.419C398.988 143.297 398.633 143.256 398.285 143.302C397.936 143.347 397.604 143.478 397.317 143.681L305.485 196.701C304.709 197.181 304.055 197.835 303.575 198.611L297.027 194.837C297.494 194.068 298.137 193.422 298.903 192.95L390.734 139.929C391.135 139.682 391.594 139.545 392.065 139.531C392.334 139.529 392.6 139.596 392.838 139.725Z" fill="#005FFA"/>
<path opacity="0.85" d="M392.838 139.725L399.317 143.419C398.988 143.297 398.633 143.256 398.285 143.302C397.936 143.347 397.604 143.478 397.317 143.681L305.485 196.701C304.709 197.181 304.055 197.835 303.575 198.611L297.027 194.837C297.494 194.068 298.137 193.422 298.903 192.95L390.734 139.929C391.135 139.682 391.594 139.545 392.065 139.531C392.334 139.529 392.6 139.596 392.838 139.725Z" fill="white"/>
<path d="M312.671 200.758L390.133 155.945C390.929 155.491 391.565 155.809 391.565 156.662C391.531 157.143 391.383 157.608 391.134 158.021C390.885 158.434 390.542 158.782 390.133 159.038L312.671 203.828C311.886 204.283 311.238 203.964 311.238 203.112C311.277 202.635 311.427 202.174 311.676 201.765C311.924 201.357 312.265 201.012 312.671 200.758Z" fill="#005FFA"/>
<path d="M312.671 232.114L390.133 187.324C390.929 186.869 391.565 187.188 391.565 188.052C391.531 188.531 391.383 188.995 391.134 189.406C390.885 189.817 390.542 190.164 390.133 190.416L312.671 235.161C311.886 235.616 311.238 235.286 311.238 234.433C311.284 233.963 311.437 233.509 311.685 233.107C311.933 232.705 312.271 232.366 312.671 232.114Z" fill="#005FFA"/>
<path d="M312.671 216.416L390.133 171.615C390.929 171.16 391.565 171.49 391.565 172.342C391.529 172.823 391.38 173.288 391.132 173.701C390.883 174.113 390.541 174.462 390.133 174.718L312.671 219.508C311.886 219.963 311.238 219.634 311.238 218.781C311.275 218.302 311.424 217.839 311.673 217.428C311.922 217.018 312.264 216.671 312.671 216.416Z" fill="#005FFA"/>
<path d="M312.671 224.236L390.133 179.445C390.929 178.991 391.565 179.309 391.565 180.162C391.531 180.643 391.383 181.108 391.134 181.521C390.885 181.934 390.542 182.282 390.133 182.538L312.671 227.328C311.886 227.783 311.238 227.464 311.238 226.612C311.274 226.131 311.422 225.665 311.671 225.253C311.92 224.84 312.262 224.491 312.671 224.236Z" fill="#005FFA"/>
<path d="M312.671 208.583L390.133 163.793C390.929 163.338 391.565 163.656 391.565 164.52C391.531 165 391.383 165.464 391.134 165.875C390.885 166.286 390.542 166.632 390.133 166.885L312.671 211.652C311.886 212.107 311.238 211.777 311.238 210.925C311.281 210.451 311.432 209.992 311.68 209.586C311.929 209.18 312.268 208.837 312.671 208.583Z" fill="#005FFA"/>
<path d="M302.894 180.695L296.642 177.136C296.35 176.919 296.12 176.63 295.972 176.298C295.825 175.965 295.766 175.6 295.801 175.238V58.5787C295.862 57.4017 296.256 56.2662 296.938 55.3047L303.031 58.8288C302.411 59.7699 302.061 60.863 302.019 61.9891V178.773C301.977 179.143 302.036 179.517 302.19 179.856C302.344 180.194 302.588 180.484 302.894 180.695Z" fill="#263238"/>
<path d="M398.386 3.42185C397.834 3.3727 397.282 3.5087 396.817 3.80836L304.985 56.8291C304.182 57.332 303.508 58.0175 303.019 58.8299L296.914 55.3058C297.389 54.5431 298.03 53.8979 298.79 53.4187L390.621 0.409303C391.02 0.155758 391.479 0.0143757 391.951 5.15009e-05C392.221 -0.00211955 392.487 0.064384 392.724 0.193309L398.386 3.42185Z" fill="#37474F"/>
<path d="M304.986 56.8291L396.818 3.81967C398.466 2.86476 399.796 3.63778 399.796 5.53625V122.423C399.741 123.455 399.443 124.46 398.925 125.356C398.408 126.251 397.685 127.01 396.818 127.573L304.998 180.502C303.349 181.446 302.008 180.673 302.008 178.775V61.9902C302.066 60.9569 302.366 59.9517 302.883 59.0553C303.4 58.159 304.121 57.3964 304.986 56.8291Z" fill="#455A64"/>
<path d="M310.08 60.639L392.498 13.0522C393.976 12.1996 395.17 12.8931 395.17 14.5983V119.571C395.12 120.498 394.852 121.4 394.388 122.204C393.924 123.008 393.276 123.691 392.498 124.198L310.08 171.694C308.602 172.546 307.408 171.853 307.408 170.148V65.2659C307.458 64.3388 307.726 63.4367 308.19 62.6327C308.654 61.8288 309.302 61.1457 310.08 60.639Z" fill="#F0F0F0"/>
<path d="M378.594 103.66C377.147 101.131 374.847 99.1989 372.107 98.2097C369.366 97.2205 366.363 97.2382 363.634 98.2598C363.634 98.2598 363.156 107.047 367.658 119.666C367.658 119.666 387.268 148.245 391.179 150.905L396.601 132.921C396.601 132.921 382.289 109.446 378.594 103.66Z" fill="#B16668"/>
<path d="M330.542 109.767C325.915 111.529 326.609 116.587 326.757 121.078C326.836 123.84 327.291 128.524 327.586 134.947L328.905 155.625L328.61 200.484C343.65 205.611 362.782 201.098 378.834 183.261C378.834 183.261 377.936 125.852 377.936 116.428C377.936 115.996 377.936 115.576 377.936 115.144C377.367 102.252 370.967 96.7387 363.657 98.2848C361.316 98.785 356.245 100.399 352.892 101.445L343.684 104.424C343.684 104.424 335.158 108.004 330.542 109.767Z" fill="#005FFA"/>
<path opacity="0.2" d="M330.542 109.767C325.915 111.529 326.609 116.587 326.757 121.078C326.836 123.84 327.291 128.524 327.586 134.947L328.905 155.625L328.61 200.484C343.65 205.611 362.782 201.098 378.834 183.261C378.834 183.261 377.936 125.852 377.936 116.428C377.936 115.996 377.936 115.576 377.936 115.144C377.367 102.252 370.967 96.7387 363.657 98.2848C361.316 98.785 356.245 100.399 352.892 101.445L343.684 104.424C343.684 104.424 335.158 108.004 330.542 109.767Z" fill="black"/>
<path d="M365.372 65.0964C365.372 60.9471 366.02 55.5018 370.237 53.5124C372.375 52.5006 375.421 52.08 377.456 53.3987C379.491 54.7174 380.787 56.5817 380.423 59.1737C380.067 61.1088 379.099 62.8784 377.661 64.2211C377.412 64.4126 377.226 64.6738 377.126 64.9714C377.088 65.2112 377.108 65.4567 377.183 65.6876C377.729 68.2454 377.695 71.1784 375.955 73.1337C375.357 73.7987 374.601 74.3024 373.756 74.5985C372.912 74.8945 372.007 74.9732 371.124 74.8275C370.132 74.593 369.207 74.1352 368.419 73.4891C367.631 72.8429 367.001 72.0254 366.577 71.0988C365.71 69.2201 365.297 67.164 365.372 65.0964Z" fill="#263238"/>
<path d="M337.568 79.6719C337.568 79.6719 339.91 91.7334 340.842 93.5637C341.123 94.0965 341.534 94.5498 342.037 94.8816C342.54 95.2135 343.118 95.4132 343.718 95.4621L343.559 86.595L337.568 79.6719Z" fill="#263238"/>
<path d="M340.444 60.7188C340.444 60.7188 338.273 61.253 338.17 61.3099C337.169 61.6834 336.269 62.287 335.544 63.0719C334.981 63.6708 334.571 64.3972 334.349 65.1891C334.127 65.9809 334.1 66.8147 334.271 67.6192C334.636 68.7911 335.297 69.8485 336.192 70.6886C335.504 71.3909 334.966 72.2265 334.612 73.1441C334.265 74.0714 334.265 75.0929 334.612 76.0202C334.854 76.5598 335.168 77.0645 335.544 77.5208C336.374 78.578 337.352 79.6125 338.784 79.4534C339.83 79.3397 340.887 79.1691 341.933 79.0327L340.444 60.7188Z" fill="#263238"/>
<path d="M343.251 78.7271C342.376 79.5797 341.114 77.954 340.023 76.9309C338.931 75.9078 335.385 75.0665 333.611 79.8525C331.838 84.6385 335.18 89.6291 337.976 89.9019C342.797 90.3566 343.524 86.5938 343.524 86.5938L343.683 106.397C348.947 117.413 370.637 113.218 359.599 101.782V95.6996C361.809 95.507 363.989 95.049 366.09 94.3354C369.637 92.7553 371.876 88.9242 372.911 84.2065C374.639 76.624 374.491 72.1336 373.911 58.4578C373.513 49.0677 356.768 46.1689 348.424 54.4676C340.08 62.7663 343.251 78.7271 343.251 78.7271Z" fill="#B16668"/>
<path d="M340 76.9323C339.431 76.4889 339.488 75.193 339.454 74.5677C339.395 73.0517 339.422 71.5335 339.534 70.0205C339.682 67.6332 340.341 65.1322 339.795 62.7904C339.524 61.9391 339.443 61.039 339.556 60.153C339.621 59.7094 339.826 59.2981 340.141 58.979C340.456 58.66 340.864 58.45 341.307 58.3795C340.784 57.0117 340.64 55.5282 340.889 54.0852C341.139 52.6422 341.773 51.2933 342.725 50.1806C343.677 49.068 344.912 48.2328 346.299 47.763C347.686 47.2933 349.174 47.2065 350.606 47.5117C350.99 46.2017 351.721 45.0199 352.722 44.0913C353.722 43.1628 354.955 42.522 356.29 42.2369C357.819 41.9143 359.403 41.9689 360.906 42.396C361.671 42.6031 362.382 42.9762 362.987 43.4891C363.592 44.0019 364.077 44.6417 364.407 45.3631C365.351 43.3396 368.613 41.5207 371.592 41.8617C374.093 42.1573 376.662 43.7033 377.515 45.7269C378.096 47.0409 378.396 48.462 378.396 49.899C378.396 51.3359 378.096 52.757 377.515 54.071C377.049 54.9845 376.391 55.7866 375.587 56.4223C374.782 57.058 373.85 57.5124 372.854 57.7543C370.823 58.2458 368.68 57.9105 366.897 56.8221C366.892 57.8971 366.541 58.942 365.896 59.802C365.251 60.662 364.346 61.2913 363.316 61.5967C361.883 62.0594 360.353 62.134 358.882 61.8127C357.5 61.2842 356.242 60.4753 355.188 59.4368C355.096 60.4081 354.739 61.3354 354.155 62.1173C353.572 62.8992 352.784 63.5057 351.879 63.8703C350.971 64.2113 349.999 64.3503 349.031 64.2777C348.063 64.205 347.123 63.9225 346.275 63.4497C346.698 64.8021 346.935 66.2056 346.98 67.6218C347.043 68.3577 346.93 69.0982 346.65 69.7817C346.498 70.1146 346.256 70.3979 345.95 70.599C345.644 70.8001 345.288 70.9109 344.922 70.9185C345.742 72.9896 346.035 75.2317 345.775 77.4438C345.75 78.3286 345.402 79.1736 344.797 79.8198C342.83 81.6387 341.216 77.8872 340 76.9323Z" fill="#263238"/>
<path d="M340.454 61.8483L335.111 59.9726C335.873 58.0059 337.681 56.835 339.158 57.3465C340.636 57.8581 341.205 59.8816 340.454 61.8483Z" fill="#263238"/>
<path d="M359.542 95.7001C359.542 95.7001 351.585 95.9729 348.856 95.018C347.196 94.4393 345.824 93.2419 345.025 91.6758C345.415 93.3317 346.16 94.8833 347.208 96.223C349.232 98.6672 359.542 98.1101 359.542 98.1101V95.7001Z" fill="#9A4A4D"/>
<path d="M357.498 74.2058C357.496 74.7019 357.342 75.1855 357.058 75.5918C356.773 75.9982 356.371 76.3079 355.906 76.4794C355.031 76.7182 354.314 76.0475 354.314 75.0016C354.318 74.5059 354.472 74.023 354.756 73.617C355.04 73.2109 355.441 72.9009 355.906 72.728C356.781 72.4892 357.498 73.16 357.498 74.2058Z" fill="#263238"/>
<path d="M356.291 68.9995L352.426 71.455C352.258 70.8705 352.277 70.2481 352.481 69.6752C352.685 69.1022 353.063 68.6075 353.563 68.2606C353.782 68.0999 354.034 67.9906 354.301 67.9408C354.568 67.891 354.843 67.902 355.105 67.973C355.367 68.044 355.61 68.1732 355.815 68.3509C356.02 68.5286 356.183 68.7503 356.291 68.9995Z" fill="#263238"/>
<path d="M358.825 84.9258L362.44 85.5169C362.338 86.0929 362.035 86.6143 361.586 86.9888C361.137 87.3633 360.569 87.5668 359.984 87.5632C358.984 87.404 358.461 86.2217 358.825 84.9258Z" fill="#9A4A4D"/>
<path d="M371.864 68.2329L368.771 66.3117C369.397 65.1181 370.602 64.5838 371.454 65.1067C371.891 65.4891 372.173 66.0173 372.248 66.5927C372.324 67.168 372.187 67.7511 371.864 68.2329Z" fill="#263238"/>
<path d="M371.058 71.0072C371.057 71.5018 370.906 71.9845 370.623 72.3907C370.341 72.7969 369.942 73.1074 369.478 73.2808C368.603 73.5195 367.887 72.8488 367.887 71.8029C367.892 71.3077 368.046 70.8255 368.33 70.4197C368.614 70.0139 369.015 69.7036 369.478 69.5293C370.354 69.2906 371.058 69.9499 371.058 71.0072Z" fill="#263238"/>
<path d="M362.439 71.4531L362.621 82.5029L368.305 79.5358L362.439 71.4531Z" fill="#9A4A4D"/>
<path d="M327.666 204.378C327.925 207.363 328.787 210.263 330.201 212.904C331.767 215.362 333.682 217.579 335.885 219.486C336.12 219.667 336.292 219.918 336.374 220.203C336.453 220.794 335.783 221.203 335.237 221.339C333.994 221.524 332.726 221.275 331.645 220.635C330.834 220.161 330.089 219.584 329.428 218.918C329.2 218.713 327.791 217.713 327.791 217.486C328.237 219.88 329.074 222.184 330.269 224.307C331.444 226.133 332.504 228.031 333.441 229.991C333.975 231.275 334.225 232.935 333.236 233.913C332.818 234.266 332.324 234.519 331.792 234.652C329.992 235.159 328.089 235.18 326.278 234.713C324.467 234.245 322.812 233.306 321.482 231.991C320.316 230.724 319.343 229.291 318.594 227.74C318.139 226.886 317.729 226.01 317.366 225.114C316.761 223.551 316.293 221.938 315.968 220.294C315.093 216.349 314.763 212.336 314.161 208.38C312.371 195.78 311.656 183.052 312.023 170.331C314.07 128.201 316.946 113.957 330.565 109.762C334.418 112.626 336.146 124.893 332.088 135.829C330.074 148.044 328.753 160.364 328.132 172.73C327.882 178.573 326.938 190.35 327.211 196.193C327.336 198.808 327.336 201.423 327.666 204.378Z" fill="#B16668"/>
<path d="M54.3544 391.325L47.7723 387.562C47.4815 387.344 47.2514 387.055 47.1041 386.723C46.9569 386.39 46.8973 386.026 46.9311 385.664V341.817C46.9964 340.641 47.3902 339.507 48.0679 338.543L54.5022 342.317C53.8467 343.279 53.4763 344.406 53.4336 345.568V389.404C53.3959 389.778 53.4619 390.155 53.6243 390.494C53.7867 390.833 54.0393 391.12 54.3544 391.325Z" fill="#005FFA"/>
<path opacity="0.55" d="M54.3544 391.325L47.7723 387.562C47.4815 387.344 47.2514 387.055 47.1041 386.723C46.9569 386.39 46.8973 386.026 46.9311 385.664V341.817C46.9964 340.641 47.3902 339.507 48.0679 338.543L54.5022 342.317C53.8467 343.279 53.4763 344.406 53.4336 345.568V389.404C53.3959 389.778 53.4619 390.155 53.6243 390.494C53.7867 390.833 54.0393 391.12 54.3544 391.325Z" fill="white"/>
<path d="M56.4452 340.407L148.277 287.386C149.914 286.431 151.255 287.204 151.255 289.103V333.052C151.196 334.086 150.895 335.092 150.376 335.989C149.857 336.886 149.134 337.647 148.265 338.213L56.4452 391.131C54.7969 392.075 53.4668 391.302 53.4668 389.403V345.557C53.5214 344.524 53.8197 343.519 54.3374 342.624C54.8551 341.729 55.5774 340.969 56.4452 340.407Z" fill="#005FFA"/>
<path opacity="0.7" d="M56.4452 340.407L148.277 287.386C149.914 286.431 151.255 287.204 151.255 289.103V333.052C151.196 334.086 150.895 335.092 150.376 335.989C149.857 336.886 149.134 337.647 148.265 338.213L56.4452 391.131C54.7969 392.075 53.4668 391.302 53.4668 389.403V345.557C53.5214 344.524 53.8197 343.519 54.3374 342.624C54.8551 341.729 55.5774 340.969 56.4452 340.407Z" fill="white"/>
<path d="M143.797 283.428L150.277 287.123C149.948 287 149.593 286.96 149.244 287.005C148.896 287.051 148.564 287.181 148.276 287.384L56.4451 340.405C55.6567 340.881 54.9909 341.535 54.5011 342.315L47.9531 338.541C48.4355 337.785 49.09 337.154 49.863 336.699L141.694 283.678C142.095 283.431 142.554 283.294 143.024 283.28C143.29 283.264 143.556 283.315 143.797 283.428Z" fill="#005FFA"/>
<path opacity="0.85" d="M143.797 283.428L150.277 287.123C149.948 287 149.593 286.96 149.244 287.005C148.896 287.051 148.564 287.181 148.276 287.384L56.4451 340.405C55.6567 340.881 54.9909 341.535 54.5011 342.315L47.9531 338.541C48.4355 337.785 49.09 337.154 49.863 336.699L141.694 283.678C142.095 283.431 142.554 283.294 143.024 283.28C143.29 283.264 143.556 283.315 143.797 283.428Z" fill="white"/>
<path d="M63.5964 344.454L141.059 299.664C141.843 299.209 142.491 299.527 142.491 300.391C142.454 300.87 142.305 301.333 142.056 301.744C141.807 302.155 141.466 302.501 141.059 302.756L63.5964 347.546C62.8007 348.001 62.1641 347.683 62.1641 346.83C62.1986 346.349 62.3464 345.883 62.5953 345.47C62.8443 345.057 63.1873 344.709 63.5964 344.454Z" fill="#005FFA"/>
<path d="M63.5964 375.762L141.093 331.017C141.877 330.562 142.525 330.892 142.525 331.745C142.488 332.223 142.339 332.687 142.09 333.097C141.841 333.508 141.5 333.855 141.093 334.109L63.5964 378.854C62.8007 379.309 62.1641 378.979 62.1641 378.126C62.1986 377.647 62.3464 377.183 62.5954 376.772C62.8444 376.361 63.1875 376.014 63.5964 375.762Z" fill="#005FFA"/>
<path d="M63.5964 360.107L141.059 315.317C141.843 314.862 142.491 315.18 142.491 316.033C142.454 316.513 142.305 316.978 142.056 317.39C141.808 317.803 141.466 318.152 141.059 318.409L63.5964 363.199C62.8007 363.654 62.1641 363.335 62.1641 362.483C62.1968 362.001 62.3438 361.535 62.5929 361.121C62.842 360.708 63.186 360.36 63.5964 360.107Z" fill="#005FFA"/>
<path d="M63.5964 367.927L141.059 323.137C141.843 322.682 142.491 323 142.491 323.853C142.456 324.334 142.307 324.799 142.059 325.212C141.81 325.625 141.467 325.973 141.059 326.229L63.5964 371.019C62.8007 371.474 62.1641 371.156 62.1641 370.303C62.1986 369.822 62.3464 369.356 62.5953 368.943C62.8443 368.53 63.1873 368.182 63.5964 367.927Z" fill="#005FFA"/>
<path d="M63.5964 352.287L141.059 307.486C141.843 307.031 142.491 307.361 142.491 308.213C142.454 308.692 142.305 309.155 142.056 309.566C141.807 309.977 141.466 310.323 141.059 310.578L63.5964 355.38C62.8007 355.834 62.1641 355.505 62.1641 354.652C62.1986 354.173 62.3464 353.708 62.5954 353.297C62.8444 352.886 63.1875 352.54 63.5964 352.287Z" fill="#005FFA"/>
<path d="M53.9676 324.196L47.6811 320.683C47.3894 320.466 47.1587 320.177 47.0114 319.844C46.864 319.512 46.8049 319.147 46.8398 318.785V202.126C46.9009 200.949 47.2951 199.813 47.9767 198.852L54.0699 202.376C53.45 203.317 53.1001 204.41 53.0582 205.536V322.32C53.0278 322.686 53.0962 323.053 53.2562 323.383C53.4161 323.713 53.6619 323.994 53.9676 324.196Z" fill="#263238"/>
<path d="M149.46 146.965C148.908 146.916 148.356 147.052 147.891 147.351L56.0596 200.372C55.2558 200.875 54.5819 201.56 54.0929 202.373L47.9883 198.849C48.4629 198.086 49.1042 197.441 49.864 196.962L141.695 143.952C142.094 143.699 142.553 143.557 143.025 143.543C143.295 143.541 143.561 143.607 143.799 143.736L149.46 146.965Z" fill="#37474F"/>
<path d="M56.0585 200.364L147.89 147.355C149.527 146.4 150.868 147.173 150.868 149.071V265.958C150.81 266.991 150.51 267.997 149.993 268.893C149.476 269.789 148.755 270.552 147.89 271.119L56.0585 324.038C54.4101 324.981 53.0801 324.22 53.0801 322.321V205.525C53.1365 204.492 53.4356 203.486 53.953 202.589C54.4704 201.692 55.1917 200.93 56.0585 200.364Z" fill="#455A64"/>
<path d="M60.7652 203.987L143.173 156.4C144.65 155.547 145.844 156.241 145.844 157.946V262.805C145.796 263.733 145.529 264.635 145.064 265.44C144.6 266.244 143.952 266.927 143.173 267.432L60.7652 314.985C59.2874 315.837 58.0938 315.144 58.0938 313.439V208.614C58.1436 207.687 58.4116 206.784 58.8758 205.98C59.34 205.176 59.9873 204.493 60.7652 203.987Z" fill="#F0F0F0"/>
<path d="M126.939 247.742C120.505 239.387 109.887 240.569 109.887 240.569C110.823 247.833 112.589 254.966 115.15 261.828C115.15 261.828 134.771 290.396 138.682 293.067L144.105 275.071C144.105 275.071 131.111 253.176 126.939 247.742Z" fill="#FFBDA7"/>
<path d="M107.59 240.982C110.371 240.089 113.29 239.704 116.207 239.845C120.834 240.141 126.529 245.381 129.928 250.838C134.475 258.136 137.499 263.343 137.499 263.343C137.499 263.343 135.987 271.914 124.29 275.609L113.467 261.49L107.59 240.982Z" fill="#005FFA"/>
<path opacity="0.5" d="M107.59 240.982C110.371 240.089 113.29 239.704 116.207 239.845C120.834 240.141 126.529 245.381 129.928 250.838C134.475 258.136 137.499 263.343 137.499 263.343C137.499 263.343 135.987 271.914 124.29 275.609L113.467 261.49L107.59 240.982Z" fill="black"/>
<path d="M77.7385 274.47L76.2266 298.343L77.4429 343.009C92.4829 348.136 111.615 343.622 127.667 325.786C127.667 325.786 127.008 266.467 124.916 256.338C122.404 244.14 116.413 237.467 104.272 241.81L92.3692 246.562L80.1258 251.439C80.1258 251.439 77.7385 269.855 77.7385 274.47Z" fill="#005FFA"/>
<path opacity="0.4" d="M77.7385 274.47L76.2266 298.343L77.4429 343.009C92.4829 348.136 111.615 343.622 127.667 325.786C127.667 325.786 127.008 266.467 124.916 256.338C122.404 244.14 116.413 237.467 104.272 241.81L92.3692 246.562L80.1258 251.439C80.1258 251.439 77.7385 269.855 77.7385 274.47Z" fill="black"/>
<path d="M93.4492 207.901C93.4492 218.019 100.554 224.317 109.365 221.964C118.175 219.611 125.28 209.516 125.28 199.398C125.28 189.281 117.72 189.281 108.955 191.634C100.19 193.987 93.4492 197.784 93.4492 207.901Z" fill="#263238"/>
<path d="M90.8786 229.069L88.2185 225.988L89.2985 221.555L87.0248 204.036C86.1005 203.882 85.1509 204.028 84.316 204.454C83.481 204.88 82.8047 205.562 82.3867 206.401C78.5784 213.313 87.4568 234.56 88.2185 236.038C88.4989 236.572 88.9094 237.027 89.4121 237.361C89.9148 237.694 90.4934 237.896 91.0946 237.947L90.8786 229.069Z" fill="#263238"/>
<path d="M90.5727 221.201C89.6973 222.054 88.4355 220.428 87.3441 219.405C86.2528 218.382 82.706 217.541 80.9325 222.326C79.1591 227.112 82.49 232.114 85.2865 232.376C90.118 232.831 90.8341 229.068 90.8341 229.068L91.0047 249.644C99.0874 258.227 117.708 254.032 106.92 244.312V238.208C109.133 238.016 111.316 237.561 113.423 236.855C116.969 235.263 119.198 231.444 120.243 226.715C121.971 219.143 122.631 213.221 121.164 199.613C119.55 184.698 104.112 188.677 95.7452 196.976C87.3782 205.274 90.5727 221.201 90.5727 221.201Z" fill="#FFBDA7"/>
<path d="M90.4138 222.644C88.9359 222.258 87.9696 219.893 87.3444 219.404C86.7191 218.915 86.8215 217.665 86.7987 217.04C86.8524 215.504 86.8144 213.967 86.685 212.436C86.3688 210.824 86.1938 209.189 86.1621 207.547C86.1621 204.137 86.2417 199.385 87.64 196.236C90.2205 190.427 94.2448 188.96 99.099 187.403C102.828 186.266 106.909 186.38 110.569 184.993C113.564 183.652 116.305 181.806 118.675 179.536C119.573 178.775 120.823 177.979 121.812 178.604C122.281 178.969 122.603 179.489 122.722 180.071C123.264 181.82 123.43 183.664 123.211 185.482C123.634 185.513 124.058 185.447 124.452 185.289C124.846 185.132 125.199 184.887 125.484 184.572C125.655 184.368 125.837 184.129 126.098 184.129C126.36 184.129 126.644 184.55 126.701 184.902C126.915 186.428 126.779 187.983 126.303 189.449C124.211 196.77 116.936 201.204 109.512 202.909C105.357 204.046 100.994 204.202 96.7685 203.364C96.2607 203.256 95.7307 203.35 95.2907 203.625C94.9134 203.912 94.6352 204.31 94.4949 204.762C93.6878 206.842 94.4949 211.094 94.2903 213.959C93.9834 217.449 93.4491 220.405 92.1304 222.053C91.9508 222.328 91.6845 222.536 91.3735 222.643C91.0626 222.75 90.7249 222.751 90.4138 222.644Z" fill="#263238"/>
<path d="M86.5601 204.329L81.2285 202.442C81.9788 200.476 83.7863 199.305 85.2642 199.828C86.742 200.351 87.3218 202.351 86.5601 204.329Z" fill="#263238"/>
<path d="M106.873 238.208C106.873 238.208 98.9152 238.492 96.1982 237.526C94.5382 236.947 93.1658 235.75 92.3672 234.184C92.7554 235.838 93.4961 237.389 94.5385 238.731C96.562 241.175 106.873 240.618 106.873 240.618V238.208Z" fill="#F0997A"/>
<path d="M104.976 216.604C104.975 217.099 104.824 217.582 104.541 217.988C104.259 218.394 103.86 218.705 103.396 218.878C102.51 219.105 101.805 218.446 101.805 217.389C101.808 216.893 101.962 216.41 102.246 216.004C102.531 215.598 102.932 215.288 103.396 215.115C104.272 214.888 104.976 215.547 104.976 216.604Z" fill="#263238"/>
<path d="M102.429 209.708L99.0185 212.777C98.7956 212.207 98.7524 211.582 98.8946 210.987C99.0369 210.392 99.3578 209.854 99.8143 209.446C99.9762 209.24 100.188 209.078 100.429 208.976C100.67 208.873 100.933 208.833 101.193 208.859C101.454 208.885 101.704 208.977 101.92 209.125C102.136 209.273 102.311 209.474 102.429 209.708Z" fill="#263238"/>
<path d="M106.157 227.336L109.783 227.938C109.674 228.512 109.368 229.03 108.918 229.402C108.467 229.773 107.901 229.976 107.316 229.973C106.327 229.837 105.804 228.632 106.157 227.336Z" fill="#F0997A"/>
<path d="M119.526 206.729L116.434 204.831C117.059 203.694 118.264 203.103 119.116 203.694C119.534 204.069 119.804 204.58 119.879 205.136C119.954 205.692 119.829 206.257 119.526 206.729Z" fill="#263238"/>
<path d="M118.856 212.358C118.852 212.853 118.698 213.336 118.414 213.742C118.13 214.148 117.729 214.458 117.264 214.631C116.389 214.87 115.684 214.199 115.684 213.154C115.675 212.65 115.822 212.155 116.105 211.738C116.388 211.321 116.793 211.001 117.264 210.823C118.162 210.641 118.856 211.3 118.856 212.358Z" fill="#263238"/>
<path d="M110.33 212.449L110.512 223.51L116.196 220.532L110.33 212.449Z" fill="#F0997A"/>
<path d="M58.9119 320.637C63.9138 267.275 70.712 254.236 80.5113 252.895C84.3537 255.759 85.5701 268.014 82.8531 280.724C82.8531 280.724 77.3055 309.496 76.8166 319.853C76.3846 328.947 73.8723 340.088 74.9864 347.25C75.191 348.512 75.8503 352.195 76.5324 353.047C78.806 355.844 78.249 357.14 79.9429 359.323C81.307 361.028 83.5693 362.051 83.3533 362.733C83.0236 363.551 81.5344 364.609 79.1698 363.517C77.7947 362.78 76.6231 361.714 75.7594 360.414C75.7594 360.414 76.0095 363.824 79.1698 369.008C82.1369 373.976 83.0122 379.16 74.7476 378.205C70.0754 377.671 66.6422 376.352 63.6183 364.302C62.777 360.971 62.095 354.923 61.4356 350.569C59.4917 338.007 58.2184 327.981 58.9119 320.637Z" fill="#FFBDA7"/>
<path d="M80.6475 251.27C80.6475 251.27 70.7459 253.213 67.9834 262.422C65.7098 270.197 63.8227 277.2 61.3672 293.525C63.9456 295.883 67.1445 297.455 70.5866 298.055C74.0288 298.655 77.5709 298.259 80.7952 296.912C80.7952 296.912 86.0246 275.62 86.5475 266.048C87.1159 255.567 80.6475 251.27 80.6475 251.27Z" fill="#005FFA"/>
<path opacity="0.5" d="M80.6475 251.27C80.6475 251.27 70.7459 253.213 67.9834 262.422C65.7098 270.197 63.8227 277.2 61.3672 293.525C63.9456 295.883 67.1445 297.455 70.5866 298.055C74.0288 298.655 77.5709 298.259 80.7952 296.912C80.7952 296.912 86.0246 275.62 86.5475 266.048C87.1159 255.567 80.6475 251.27 80.6475 251.27Z" fill="black"/>
<path d="M178.982 318.388L172.4 314.625C172.111 314.405 171.882 314.116 171.735 313.784C171.588 313.452 171.527 313.088 171.559 312.726V268.879C171.624 267.703 172.018 266.569 172.696 265.605L179.244 269.38C178.592 270.342 178.225 271.469 178.187 272.631V316.466C178.135 316.828 178.182 317.198 178.322 317.536C178.462 317.873 178.69 318.168 178.982 318.388Z" fill="#005FFA"/>
<path opacity="0.55" d="M178.982 318.388L172.4 314.625C172.111 314.405 171.882 314.116 171.735 313.784C171.588 313.452 171.527 313.088 171.559 312.726V268.879C171.624 267.703 172.018 266.569 172.696 265.605L179.244 269.38C178.592 270.342 178.225 271.469 178.187 272.631V316.466C178.135 316.828 178.182 317.198 178.322 317.536C178.462 317.873 178.69 318.168 178.982 318.388Z" fill="white"/>
<path d="M181.086 267.469L272.906 214.449C274.554 213.494 275.884 214.267 275.884 216.165V260.114C275.83 261.147 275.531 262.152 275.014 263.047C274.496 263.942 273.774 264.702 272.906 265.264L181.086 318.194C179.437 319.137 178.107 318.364 178.107 316.466V272.619C178.162 271.587 178.46 270.582 178.978 269.686C179.496 268.791 180.218 268.032 181.086 267.469Z" fill="#005FFA"/>
<path opacity="0.7" d="M181.086 267.469L272.906 214.449C274.554 213.494 275.884 214.267 275.884 216.165V260.114C275.83 261.147 275.531 262.152 275.014 263.047C274.496 263.942 273.774 264.702 272.906 265.264L181.086 318.194C179.437 319.137 178.107 318.364 178.107 316.466V272.619C178.162 271.587 178.46 270.582 178.978 269.686C179.496 268.791 180.218 268.032 181.086 267.469Z" fill="white"/>
<path d="M268.425 210.513L274.905 214.207C274.576 214.085 274.221 214.045 273.872 214.09C273.524 214.136 273.192 214.266 272.904 214.469L181.073 267.467C180.297 267.947 179.643 268.601 179.163 269.377L172.615 265.603C173.082 264.834 173.725 264.187 174.491 263.715L266.322 210.695C266.727 210.448 267.19 210.311 267.664 210.297C267.932 210.3 268.195 210.375 268.425 210.513Z" fill="#005FFA"/>
<path opacity="0.85" d="M268.425 210.513L274.905 214.207C274.576 214.085 274.221 214.045 273.872 214.09C273.524 214.136 273.192 214.266 272.904 214.469L181.073 267.467C180.297 267.947 179.643 268.601 179.163 269.377L172.615 265.603C173.082 264.834 173.725 264.187 174.491 263.715L266.322 210.695C266.727 210.448 267.19 210.311 267.664 210.297C267.932 210.3 268.195 210.375 268.425 210.513Z" fill="white"/>
<path d="M188.259 271.517L265.732 226.727C266.517 226.272 267.153 226.59 267.153 227.443C267.12 227.923 266.974 228.388 266.727 228.801C266.48 229.214 266.139 229.562 265.732 229.819L188.259 274.609C187.475 275.064 186.838 274.745 186.838 273.893C186.873 273.413 187.02 272.949 187.266 272.536C187.513 272.124 187.853 271.775 188.259 271.517Z" fill="#005FFA"/>
<path d="M188.259 302.823L265.732 258.021C266.517 257.566 267.153 257.896 267.153 258.749C267.118 259.226 266.972 259.689 266.725 260.1C266.478 260.511 266.138 260.858 265.732 261.113L188.259 305.915C187.475 306.369 186.838 306.04 186.838 305.187C186.873 304.709 187.02 304.246 187.267 303.836C187.513 303.425 187.853 303.078 188.259 302.823Z" fill="#005FFA"/>
<path d="M188.259 287.168L265.732 242.344C266.517 241.889 267.153 242.207 267.153 243.06C267.118 243.539 266.972 244.004 266.725 244.417C266.478 244.829 266.138 245.178 265.732 245.436L188.259 290.226C187.475 290.681 186.838 290.363 186.838 289.499C186.878 289.027 187.027 288.571 187.274 288.166C187.521 287.762 187.858 287.42 188.259 287.168Z" fill="#005FFA"/>
<path d="M188.259 294.99L265.732 250.199C266.517 249.745 267.153 250.063 267.153 250.916C267.12 251.395 266.974 251.861 266.727 252.274C266.48 252.686 266.139 253.035 265.732 253.291L188.259 298.048C187.475 298.502 186.838 298.184 186.838 297.331C186.878 296.858 187.027 296.4 187.274 295.994C187.52 295.588 187.857 295.244 188.259 294.99Z" fill="#005FFA"/>
<path d="M188.259 279.35L265.732 234.548C266.517 234.094 267.153 234.423 267.153 235.276C267.118 235.754 266.972 236.217 266.725 236.628C266.478 237.038 266.138 237.385 265.732 237.64L188.259 282.442C187.475 282.897 186.838 282.567 186.838 281.715C186.873 281.237 187.02 280.774 187.267 280.363C187.513 279.952 187.853 279.605 188.259 279.35Z" fill="#005FFA"/>
<path d="M178.858 252.691L172.617 249.167C172.325 248.949 172.094 248.66 171.947 248.328C171.8 247.995 171.74 247.63 171.775 247.268V130.575C171.836 129.398 172.231 128.262 172.912 127.301L179.005 130.825C178.386 131.766 178.036 132.859 177.994 133.985V250.77C177.95 251.138 178.007 251.511 178.159 251.85C178.312 252.188 178.553 252.479 178.858 252.691Z" fill="#263238"/>
<path d="M274.35 75.414C273.799 75.3649 273.247 75.5009 272.782 75.8005L180.95 128.821C180.146 129.324 179.473 130.01 178.984 130.822L172.879 127.298C173.354 126.535 173.995 125.89 174.755 125.411L266.586 72.4015C266.985 72.1479 267.444 72.0066 267.916 71.9922C268.186 71.9901 268.452 72.0566 268.689 72.1855L274.35 75.414Z" fill="#37474F"/>
<path d="M180.949 128.823L272.769 75.8027C274.417 74.8591 275.747 75.6208 275.747 77.5306V194.417C275.693 195.45 275.394 196.455 274.877 197.35C274.359 198.245 273.637 199.005 272.769 199.567L180.937 252.485C179.3 253.44 177.959 252.667 177.959 250.769V133.985C178.018 132.95 178.319 131.944 178.838 131.047C179.357 130.151 180.081 129.389 180.949 128.823Z" fill="#455A64"/>
<path d="M185.668 132.44L268.086 84.853C269.564 84.0004 270.758 84.6939 270.758 86.3991V191.315C270.708 192.242 270.44 193.144 269.976 193.948C269.511 194.752 268.864 195.435 268.086 195.942L185.668 243.483C184.19 244.336 182.996 243.642 182.996 241.937V137.078C183.046 136.149 183.314 135.246 183.778 134.44C184.242 133.634 184.889 132.949 185.668 132.44Z" fill="#F0F0F0"/>
<path d="M254.716 226.029C242.518 183.024 242.382 176.01 243.11 170.939C254.182 168.268 259.025 175.862 261.981 188.662C263.402 194.812 267.494 218.219 270.029 228.007C272.303 236.59 275.054 245.798 278.396 251.88C278.667 252.395 279.057 252.838 279.534 253.172C280.01 253.506 280.559 253.722 281.136 253.801C284.239 254.245 285.16 255.984 287.684 257.28C289.662 258.28 291.094 258.03 291.037 258.724C290.891 259.495 290.513 260.204 289.955 260.756C289.397 261.308 288.684 261.678 287.911 261.816C286.668 261.95 285.41 261.869 284.194 261.577C285.69 263.536 287.522 265.215 289.605 266.534C294.471 269.683 295.983 274.491 287.559 276.867C284.251 277.788 278.089 276.742 270.757 266.841C268.315 263.295 266.289 259.481 264.72 255.472C260.548 244.912 257.149 234.623 254.716 226.029Z" fill="#FFA8A7"/>
<path d="M225.102 175.887C225.102 175.887 213.029 180.172 209.915 181.639C217.872 191.188 208.346 217.244 208.346 217.244L213.427 234.796L251.624 221.416C257.945 205.5 259.184 198.282 258.627 193.916C257.365 184.026 251.453 177.535 243.109 170.941L225.102 175.887Z" fill="#005FFA"/>
<path d="M253.783 165.291L233.866 171.543C230.83 172.497 227.611 172.724 224.471 172.204C221.331 171.684 218.358 170.433 215.79 168.552C213.223 166.671 211.134 164.212 209.693 161.375C208.251 158.537 207.497 155.4 207.492 152.218V147.989C207.492 133.71 217.519 119.455 229.887 116.158L231.558 115.715C243.927 112.395 253.954 121.285 253.954 135.563V139.553C253.954 152.331 253.783 165.291 253.783 165.291Z" fill="#37474F"/>
<path d="M215.202 122.08C213.974 120.875 211.917 121.33 210.598 123.092L213.054 125.525C212.472 125.456 211.884 125.571 211.371 125.855C210.482 126.354 209.764 127.111 209.314 128.026C208.863 128.942 208.701 129.972 208.847 130.982L215.225 127.719C215.192 127.573 215.15 127.428 215.1 127.287C216.305 125.536 216.384 123.251 215.202 122.08Z" fill="#37474F"/>
<path d="M245.236 126.844C247.51 128.333 250.693 131.004 250.397 146.022C250.147 158.743 246.589 162.824 244.804 164.211C243.019 165.598 239.575 165.961 236.232 166.211V174.237C236.232 174.237 242.019 179.717 241.723 183.332C241.428 186.947 236.232 189.914 228.389 185.105C225.627 183.264 223.299 180.843 221.568 178.012L221.636 160.846C221.636 160.846 219.669 163.574 216.338 161.096C214.932 159.982 213.993 158.381 213.707 156.61C213.421 154.839 213.808 153.024 214.792 151.524C215.223 150.856 215.792 150.288 216.46 149.859C217.129 149.429 217.882 149.148 218.669 149.034C219.13 149.013 219.591 149.085 220.023 149.247C220.455 149.408 220.85 149.656 221.184 149.975C221.518 150.294 221.783 150.677 221.964 151.102C222.146 151.526 222.239 151.983 222.238 152.445V153.388C222.238 153.388 224.671 153.763 224.83 149.012C224.921 146.374 228.07 142.191 231.151 139.553C236.392 135.04 243.065 134.983 245.236 126.844Z" fill="#FFA8A7"/>
<path d="M236.765 145.237C236.785 145.675 236.671 146.108 236.437 146.478C236.203 146.848 235.861 147.137 235.458 147.306C234.696 147.556 234.048 147.022 234.014 146.17C233.993 145.731 234.107 145.296 234.341 144.924C234.575 144.552 234.917 144.261 235.321 144.089C236.072 143.805 236.731 144.328 236.765 145.237Z" fill="#263238"/>
<path d="M237.688 156.141L241.746 156.55C241.645 157.191 241.327 157.778 240.845 158.213C240.363 158.648 239.746 158.903 239.097 158.937C237.983 158.824 237.347 157.573 237.688 156.141Z" fill="#F28F8F"/>
<path d="M248.703 138.323L245.918 136.834C246.418 135.777 247.464 135.254 248.192 135.697C248.588 135.993 248.86 136.426 248.955 136.911C249.049 137.397 248.96 137.9 248.703 138.323Z" fill="#263238"/>
<path d="M232.821 142.454L235.606 139.464C235.095 138.691 234.06 138.714 233.333 139.544C232.952 139.914 232.698 140.394 232.606 140.916C232.515 141.439 232.59 141.977 232.821 142.454Z" fill="#263238"/>
<path d="M248.375 142.859C248.399 143.299 248.286 143.735 248.052 144.107C247.818 144.48 247.474 144.771 247.068 144.94C246.306 145.19 245.658 144.655 245.624 143.803C245.601 143.364 245.715 142.928 245.949 142.556C246.183 142.184 246.526 141.893 246.931 141.722C247.682 141.427 248.341 141.961 248.375 142.859Z" fill="#263238"/>
<path d="M241.746 143.316L241.962 152.843L246.327 150.115L241.746 143.316Z" fill="#F28F8F"/>
<path d="M236.232 166.179C232.708 166.588 225.455 166.179 224.318 163.121C224.716 164.57 225.619 165.828 226.865 166.668C229.036 168.225 236.232 168.714 236.232 168.714V166.179Z" fill="#F28F8F"/>
<path d="M189.111 250.368C192.874 209.273 195.023 186.116 209.915 181.637C212.132 182.444 214.189 187.321 214.576 190.856C215.247 196.836 214.44 207.158 210.734 212.456C210.734 212.456 206.061 237.079 204.254 251.255C203.003 261.066 200.309 275.196 200.934 283.154C201.23 284.591 201.861 285.939 202.776 287.087L205.3 291.282C205.797 292.162 206.367 292.999 207.005 293.783C207.585 294.454 208.255 295.033 208.881 295.659C209.347 296.113 209.801 296.795 209.415 297.341C209.265 297.518 209.068 297.648 208.846 297.716C208.106 297.996 207.311 298.103 206.523 298.028C205.734 297.953 204.974 297.699 204.299 297.284C203.458 296.761 202.776 296 201.901 295.545C201.973 297.012 202.39 298.441 203.117 299.717C203.617 300.752 204.117 301.797 204.674 302.821C205.275 303.845 205.807 304.908 206.266 306.004C206.738 307.1 206.854 308.317 206.596 309.482C206.306 310.372 205.774 311.162 205.059 311.765C204.344 312.368 203.474 312.758 202.549 312.893C200.689 313.131 198.802 312.76 197.171 311.835C191.567 308.937 189.691 303.116 188.986 297.273C188.302 292.413 187.922 287.515 187.85 282.608C188.066 269.626 188.384 258.371 189.111 250.368Z" fill="#FFA8A7"/>
<path d="M221.612 176.828C219.186 177.347 216.875 178.302 214.791 179.647C214.791 179.647 220.157 190.015 229.365 191.516C238.573 193.016 239.232 186.821 239.232 186.821C233.469 187.059 227.648 184.558 221.612 176.828Z" fill="#455A64"/>
<path d="M236.232 172.668V174.236C240.143 179.329 241.337 183.729 239.177 186.821C239.177 186.821 245.622 189.015 246.759 184.286C247.896 179.557 239.711 171.895 239.711 171.895C238.52 171.981 237.348 172.241 236.232 172.668Z" fill="#455A64"/>
<path d="M152.266 49.3325L145.445 53.2772C145.481 52.9753 145.5 52.6717 145.502 52.3678V50.4011C145.502 46.877 143.035 45.456 139.989 47.2067C138.673 48.0121 137.548 49.0944 136.692 50.3784C136.203 45.9448 132.724 44.3078 128.518 46.7406C126.113 48.3031 124.112 50.4122 122.678 52.8956C121.244 55.379 120.417 58.1664 120.265 61.0303V63.986C120.236 65.1605 120.473 66.3263 120.959 67.3964L115.274 70.6704C114.385 71.2532 113.645 72.0357 113.112 72.9554C112.579 73.8752 112.269 74.9068 112.205 75.9679C112.205 77.9232 113.581 78.719 115.274 77.7413L152.266 56.4035C153.153 55.8194 153.891 55.0364 154.422 54.1167C154.953 53.197 155.262 52.166 155.324 51.1059C155.336 49.1506 153.971 48.3662 152.266 49.3325Z" fill="#EBEBEB"/>
<path d="M107.18 31.2158L103.384 32.6595V24.3722C103.384 17.8015 98.1428 16.2213 92.4588 19.5067C86.7747 22.8034 82.1479 30.7952 82.1479 37.3659V38.571C81.3468 38.32 80.4988 38.2562 79.6691 38.3843C78.8394 38.5124 78.0501 38.829 77.362 39.3099C75.2032 40.7172 73.4069 42.6139 72.119 44.846C70.8311 47.0781 70.088 49.5825 69.95 52.1558V52.7015L64.732 55.7254C63.3099 56.6519 62.1262 57.9005 61.2769 59.37C60.4276 60.8395 59.9366 62.4885 59.8438 64.1833C59.8438 67.2981 62.0378 68.56 64.732 67.0025L107.18 42.4929C108.601 41.5659 109.783 40.3168 110.63 38.8473C111.478 37.3777 111.967 35.729 112.057 34.0351C112.057 30.8975 109.875 29.6584 107.18 31.2158Z" fill="#EBEBEB"/>
<path d="M344.033 268.495C342.431 267.176 339.964 266.904 337.008 268.006C331.085 270.2 325.424 277.032 324.355 283.251C323.821 286.366 324.549 288.742 326.14 290.072L434.762 387.405C436.968 389.486 440.537 389.997 444.88 388.394C453.156 385.325 461.079 375.787 462.557 367.079C463.342 362.532 462.182 359.121 459.715 357.314L344.033 268.495Z" fill="#005FFA"/>
<path opacity="0.15" d="M341.309 284.42C346.248 278.467 347.463 271.328 344.023 268.473C340.582 265.619 333.789 268.131 328.851 274.084C323.912 280.037 322.697 287.177 326.138 290.031C329.578 292.886 336.371 290.373 341.309 284.42Z" fill="black"/>
<path d="M303.13 244.975C301.22 245.8 299.532 247.065 298.204 248.668C296.876 250.27 295.947 252.164 295.491 254.195C295.287 254.914 295.279 255.674 295.467 256.397C295.655 257.12 296.032 257.781 296.56 258.31L329.675 285.786C330.29 286.211 331.008 286.463 331.753 286.517C332.499 286.571 333.245 286.425 333.915 286.093C335.826 285.268 337.515 284.002 338.845 282.4C340.174 280.798 341.107 278.904 341.566 276.874C341.77 276.152 341.778 275.389 341.588 274.663C341.398 273.938 341.017 273.276 340.486 272.747L307.382 245.282C306.765 244.857 306.045 244.604 305.298 244.55C304.55 244.496 303.802 244.643 303.13 244.975Z" fill="#263238"/>
<path opacity="0.1" d="M338.418 287.332L450.553 385.211C448.807 386.507 446.895 387.562 444.869 388.349C440.526 389.952 436.911 389.486 434.74 387.348L326.197 290.094C327.812 291.425 330.256 291.675 333.223 290.583C335.126 289.801 336.883 288.702 338.418 287.332Z" fill="black"/>
<path d="M361.199 138.899C361.199 137.762 361.108 136.625 361.018 135.488C360.927 134.352 360.881 133.272 360.767 132.18C360.767 131.441 360.631 130.725 360.54 129.986C360.347 128.088 360.074 126.201 359.756 124.416C359.619 123.597 359.471 122.768 359.312 121.949C359.153 121.131 358.994 120.403 358.835 119.675C358.357 117.606 357.846 115.583 357.266 113.639C356.959 112.718 356.675 111.797 356.368 110.899C356.307 110.764 356.261 110.623 356.232 110.479C355.902 109.581 355.584 108.717 355.243 107.864C354.901 107.011 354.47 105.909 354.015 104.976C353.696 104.283 353.401 103.612 353.037 102.942C352.831 102.439 352.588 101.953 352.31 101.486C352.028 100.888 351.717 100.303 351.377 99.7358C351.311 99.6017 351.235 99.4726 351.15 99.3493C350.877 98.8491 350.559 98.3375 350.263 97.8373C349.968 97.3371 349.843 97.2007 349.649 96.8824C348.218 94.616 346.602 92.4715 344.818 90.4708C344.511 90.1298 344.204 89.7887 343.931 89.4591L343.17 88.6633C342.863 88.3336 342.522 88.0267 342.181 87.6856C341.264 86.7567 340.292 85.8836 339.27 85.071C338.793 84.6617 338.293 84.2752 337.781 83.9342C337.27 83.5931 336.781 83.1839 336.246 82.7974C335.445 82.2082 334.61 81.6654 333.746 81.1717L333.075 80.7511L332.938 80.6374L317.262 71.4293L317.034 71.2928C309.391 67.0355 300.761 64.8672 292.013 65.0063C278.997 65.0063 264.321 69.2693 248.758 78.2274C195.328 109.092 152.004 184.132 152.004 245.85C152.004 276.635 162.769 298.279 180.174 308.374L180.333 308.454L196.033 317.639L196.214 317.742L196.442 317.867L196.692 318.003C197.442 318.435 198.192 318.833 198.965 319.208C199.738 319.583 200.898 320.106 201.876 320.481C202.746 320.863 203.638 321.193 204.547 321.47C205.009 321.637 205.48 321.777 205.957 321.891C206.46 322.082 206.977 322.234 207.503 322.346C208.019 322.501 208.543 322.63 209.072 322.732C209.444 322.842 209.824 322.925 210.209 322.982C210.879 323.119 211.607 323.266 212.312 323.357C212.466 323.406 212.627 323.433 212.789 323.437C213.619 323.573 214.472 323.698 215.301 323.778C229.716 325.29 246.473 321.22 264.412 310.875C317.842 280.022 361.211 204.947 361.211 143.253C361.279 141.82 361.245 140.365 361.199 138.899ZM184.858 284.524C182.62 276.269 181.519 267.748 181.584 259.196C181.584 200.719 224.373 126.587 275.018 97.3485C282.413 92.9694 290.394 89.666 298.72 87.5378C302.712 86.5506 306.806 86.0355 310.918 86.0032C312.989 85.9936 315.058 86.1533 317.103 86.4806H317.273C327.641 98.7468 329.164 118.391 329.164 128.895C329.164 187.372 286.42 261.504 235.753 290.731C222.861 298.166 210.47 302.099 199.841 302.099C197.635 302.114 195.437 301.835 193.304 301.269C189.373 296.324 186.498 290.625 184.858 284.524Z" fill="#005FFA"/>
<path opacity="0.15" d="M347.363 139.161C347.363 170.23 335.29 205.699 316.374 236.529C315.487 237.995 314.578 239.428 313.646 240.872C312.861 242.111 312.054 243.35 311.213 244.578C309.439 247.215 307.643 249.818 305.756 252.365C304.869 253.581 303.971 254.786 303.051 255.968C302.13 257.151 301.05 258.572 300.027 259.856C298.083 262.312 296.071 264.699 294.024 267.029C292.683 268.587 291.307 270.11 289.92 271.577C278.78 283.559 266.605 293.676 253.94 300.975C251.519 302.373 249.132 303.646 246.756 304.794C239.053 308.707 230.708 311.199 222.121 312.149C220.734 312.286 219.37 312.343 218.051 312.343C217.347 312.343 216.676 312.343 216.005 312.286H215.926C214.638 312.231 213.355 312.098 212.083 311.888C211.458 311.797 210.844 311.695 210.253 311.558C209.659 311.444 209.071 311.3 208.491 311.126C202.493 309.603 197.161 306.152 193.314 301.304C195.443 301.87 197.637 302.149 199.84 302.134C210.469 302.134 222.86 298.212 235.752 290.766C286.419 261.539 329.163 187.407 329.163 128.93C329.163 118.426 327.64 98.7818 317.272 86.5156H317.102C330.311 88.6301 337.826 97.6109 342.055 107.99C343.254 110.941 344.219 113.982 344.942 117.084C344.942 117.255 345.022 117.425 345.056 117.596C345.192 118.153 345.329 118.733 345.431 119.278C345.533 119.824 345.647 120.415 345.749 120.915C345.783 121.054 345.81 121.195 345.829 121.336C345.942 121.927 346.045 122.507 346.136 123.075C346.465 125.247 346.738 127.361 346.92 129.385C346.92 129.976 347.022 130.521 347.056 131.09C347.091 131.658 347.125 131.943 347.147 132.352C347.147 132.522 347.147 132.704 347.147 132.875C347.147 133.329 347.204 133.773 347.227 134.216C347.227 134.341 347.227 134.455 347.227 134.591C347.227 135.148 347.227 135.728 347.284 136.24C347.352 137.217 347.363 138.218 347.363 139.161Z" fill="black"/>
<path opacity="0.1" d="M194.691 316.92L180.162 308.383C162.758 298.208 151.992 276.552 151.992 245.858C151.992 218.325 160.621 188.165 174.899 160.473L191.439 169.988C177.15 197.68 167.68 227.533 167.68 255.055C167.68 285.146 177.923 306.496 194.691 316.92Z" fill="black"/>
<path opacity="0.4" d="M333.084 80.7506L332.948 80.6369L317.283 71.4288H317.226L317.01 71.2924C309.373 67.0404 300.751 64.8723 292.011 65.0058C279.006 65.0058 264.319 69.2575 248.756 78.2269C219.199 95.279 192.632 125.973 174.863 160.486L191.324 170.172L190.972 170.854C208.763 136.75 235.148 105.908 264.444 87.4464C290.966 70.7353 316.134 70.508 333.71 81.194L333.084 80.7506Z" fill="white"/>
<path opacity="0.3" d="M338.94 134.199C338.94 192.677 296.15 266.808 245.506 296.047C238.111 300.426 230.13 303.729 221.803 305.858C217.811 306.845 213.717 307.361 209.605 307.392C205.381 307.446 201.182 306.729 197.214 305.278C190.927 300.003 187.13 292.364 184.857 284.52C182.619 276.265 181.518 267.744 181.583 259.192C181.583 200.714 224.372 126.583 275.017 97.3442C282.412 92.9651 290.393 89.6617 298.72 87.5335C302.711 86.5463 306.805 86.0312 310.918 85.9988C315.141 85.9462 319.339 86.6587 323.309 88.1019C329.607 93.3767 333.404 101.027 335.677 108.871C337.906 117.127 339.004 125.648 338.94 134.199Z" fill="white"/>
<path d="M174.672 309.916L165.509 304.675C165.08 304.355 164.74 303.929 164.523 303.439C164.306 302.95 164.219 302.412 164.27 301.879V130.527C164.348 128.802 164.916 127.134 165.907 125.719L174.854 130.891C173.949 132.274 173.438 133.878 173.376 135.529V307.142C173.327 307.678 173.421 308.217 173.649 308.704C173.876 309.192 174.23 309.61 174.672 309.916Z" fill="#263238"/>
<path d="M314.955 49.4974C314.156 49.4343 313.357 49.6339 312.682 50.0658L177.742 127.96C176.564 128.699 175.575 129.703 174.855 130.893L165.908 125.72C166.599 124.596 167.54 123.646 168.659 122.947L303.553 45.0752C304.139 44.7024 304.814 44.4943 305.508 44.4727C305.905 44.4696 306.296 44.5674 306.645 44.7569L314.955 49.4974Z" fill="#37474F"/>
<path d="M177.754 127.949L312.647 50.0771C315.057 48.6789 317.024 49.8043 317.024 52.6008V224.259C316.94 225.776 316.5 227.252 315.74 228.567C314.98 229.883 313.92 231 312.647 231.83L177.754 309.622C175.332 311.009 173.377 309.883 173.377 307.087V135.486C173.465 133.974 173.907 132.505 174.667 131.196C175.428 129.886 176.485 128.774 177.754 127.949Z" fill="#455A64"/>
<path d="M184.675 133.27L305.734 63.3678C307.894 62.1173 309.656 63.129 309.656 65.6414V219.747C309.586 221.113 309.194 222.443 308.513 223.628C307.831 224.813 306.879 225.821 305.734 226.568L184.664 296.345C182.493 297.596 180.73 296.584 180.73 294.072V140.034C180.813 138.677 181.213 137.358 181.899 136.183C182.584 135.008 183.535 134.011 184.675 133.27Z" fill="#F0F0F0"/>
<path d="M286.102 270.767C268.186 207.595 267.992 197.25 269.05 189.849C285.317 185.927 292.4 197.068 296.765 215.882C298.868 224.977 304.87 259.331 308.599 273.678C311.873 286.285 315.977 299.824 320.877 308.828C321.277 309.581 321.851 310.228 322.551 310.716C323.25 311.205 324.056 311.52 324.901 311.636C329.448 312.284 330.812 314.853 334.53 316.74C337.44 318.229 339.589 317.877 339.452 318.877C339.238 320.013 338.683 321.058 337.86 321.87C337.038 322.682 335.987 323.225 334.848 323.424C333.291 323.697 332.086 323.424 329.403 323.061C331.599 325.948 334.294 328.42 337.36 330.359C344.5 334.986 346.728 342.102 334.348 345.535C329.494 346.877 320.433 345.342 309.679 330.814C306.094 325.609 303.118 320.01 300.812 314.125C294.673 298.494 289.694 283.386 286.102 270.767Z" fill="#FFA8A7"/>
<path d="M242.618 197.088C242.618 197.088 224.884 203.386 220.291 205.546C231.909 219.563 218.018 257.839 218.018 257.839L225.486 283.634C217.449 297.662 280.451 271.618 281.599 263.967C290.876 240.514 292.683 229.988 291.831 223.576C289.989 209.048 281.304 199.51 269.094 189.824L242.618 197.088Z" fill="#005FFA"/>
<path d="M225.463 283.636C240.605 283.238 274.744 270.165 281.576 263.969C290.852 240.517 292.66 229.99 291.807 223.578" fill="#005FFA"/>
<path d="M284.737 181.514L255.487 190.699C251.024 192.102 246.293 192.434 241.678 191.669C237.063 190.904 232.693 189.064 228.921 186.297C225.149 183.53 222.081 179.914 219.966 175.742C217.85 171.569 216.747 166.957 216.744 162.279V156.175C216.744 135.2 231.466 114.249 249.632 109.384L252.088 108.724C270.276 103.847 284.987 116.909 284.987 137.895V143.749C284.987 162.484 284.737 181.514 284.737 181.514Z" fill="#37474F"/>
<path d="M228.055 118.047C226.27 116.285 223.235 116.91 221.291 119.536L224.906 123.105C224.05 123.014 223.186 123.185 222.428 123.594C221.12 124.327 220.067 125.441 219.407 126.787C218.747 128.133 218.512 129.648 218.733 131.131L228.101 126.345C228.052 126.125 227.987 125.908 227.907 125.697C229.692 123.128 229.795 119.763 228.055 118.047Z" fill="#37474F"/>
<path d="M272.175 125.062C275.586 127.234 280.201 131.156 279.758 153.221C279.394 171.91 274.165 177.913 271.55 179.936C268.935 181.96 263.865 182.505 258.954 182.881V194.669C258.954 194.669 267.446 202.729 267.025 207.959C266.605 213.188 258.954 217.621 247.438 210.562C243.395 207.852 239.987 204.3 237.446 200.149L237.548 174.923C237.548 174.923 234.661 178.947 229.761 175.309C227.695 173.67 226.316 171.317 225.895 168.713C225.474 166.11 226.042 163.442 227.487 161.236C228.117 160.255 228.951 159.422 229.932 158.792C230.912 158.162 232.017 157.751 233.171 157.587C233.852 157.546 234.535 157.646 235.175 157.882C235.815 158.118 236.399 158.484 236.891 158.958C237.382 159.431 237.77 160.001 238.03 160.632C238.29 161.263 238.416 161.941 238.401 162.623V164.01C238.401 164.01 241.982 164.567 242.22 157.587C242.357 153.71 246.984 147.583 251.508 143.695C259.216 137.09 268.992 137.01 272.175 125.062Z" fill="#FFA8A7"/>
<path d="M259.738 152.059C259.77 152.704 259.603 153.344 259.259 153.891C258.915 154.438 258.412 154.866 257.816 155.117C256.68 155.481 255.747 154.696 255.691 153.366C255.662 152.723 255.831 152.087 256.175 151.542C256.518 150.998 257.019 150.571 257.612 150.32C258.726 149.956 259.681 150.74 259.738 152.059Z" fill="#263238"/>
<path d="M261.09 168.086L267.047 168.688C266.547 170.792 264.774 172.36 263.171 172.19C261.568 172.019 260.59 170.189 261.09 168.086Z" fill="#F28F8F"/>
<path d="M277.313 141.919L273.221 139.736C273.971 138.179 275.494 137.463 276.631 138.02C277.768 138.577 278.018 140.361 277.313 141.919Z" fill="#263238"/>
<path d="M253.939 147.986L258.032 143.61C257.281 142.473 255.758 142.473 254.621 143.712C254.074 144.263 253.714 144.972 253.591 145.739C253.469 146.506 253.591 147.292 253.939 147.986Z" fill="#263238"/>
<path d="M276.79 148.582C276.822 149.228 276.655 149.867 276.312 150.414C275.968 150.961 275.464 151.389 274.869 151.64C273.732 151.993 272.8 151.22 272.743 149.89C272.715 149.247 272.884 148.61 273.227 148.066C273.571 147.521 274.072 147.095 274.664 146.843C275.779 146.479 276.733 147.264 276.79 148.582Z" fill="#263238"/>
<path d="M267.047 149.25L267.377 163.244L273.788 159.231L267.047 149.25Z" fill="#F28F8F"/>
<path d="M258.953 182.881C253.769 183.484 243.117 182.801 241.457 178.391C242.044 180.516 243.37 182.363 245.197 183.597C248.38 185.871 258.953 186.61 258.953 186.61V182.881Z" fill="#F28F8F"/>
<path d="M189.779 306.503C195.315 246.127 198.464 212.148 220.336 205.543C223.599 206.68 226.623 213.933 227.157 219.082C228.135 227.859 226.952 243.035 221.473 250.845C221.473 250.845 214.652 287.018 211.958 307.833C210.116 322.248 206.16 343.017 207.081 354.704C207.263 356.909 208.673 358.626 209.787 360.479L213.493 366.629C214.224 367.925 215.065 369.158 216.005 370.312C216.846 371.301 217.835 372.154 218.756 373.063C219.438 373.734 220.109 374.78 219.54 375.541C219.322 375.8 219.034 375.989 218.711 376.087C217.616 376.506 216.44 376.668 215.273 376.559C214.106 376.451 212.979 376.075 211.981 375.462C210.742 374.689 209.707 373.563 208.445 372.904C208.553 375.056 209.168 377.152 210.241 379.02C210.969 380.555 211.696 382.089 212.515 383.567C213.417 385.058 214.219 386.607 214.914 388.205C215.605 389.822 215.776 391.614 215.402 393.332C214.968 394.633 214.181 395.787 213.129 396.666C212.078 397.545 210.802 398.115 209.446 398.312C206.712 398.653 203.941 398.103 201.545 396.743C193.326 392.491 190.575 383.942 189.529 375.359C188.543 368.219 188.008 361.024 187.926 353.817C188.199 334.821 188.642 318.246 189.779 306.503Z" fill="#FFA8A7"/>
<path d="M237.445 198.477C233.865 199.235 230.452 200.637 227.373 202.615C227.373 202.615 235.262 217.848 248.791 220.053C262.319 222.259 263.273 213.153 263.273 213.153C254.895 213.505 246.335 209.845 237.445 198.477Z" fill="#455A64"/>
<path d="M258.955 192.328V194.601C264.696 202.082 266.458 208.539 263.275 213.086C263.275 213.086 272.756 216.303 274.416 209.369C276.075 202.434 264.071 191.18 264.071 191.18C262.319 191.31 260.595 191.697 258.955 192.328Z" fill="#455A64"/>
<path d="M415.539 246.893C423.417 246.017 426.441 248.325 429.374 254.85C432.171 261.08 440.742 279.86 440.31 284.237C439.878 288.614 421.962 307.246 421.962 307.246L416.858 301.039L427.93 282.418L419.12 263.627L415.539 246.893Z" fill="#FFA8A7"/>
<path d="M399.715 240.777L401.193 256.238L415.005 255.374L413.902 238.23L399.715 240.777Z" fill="#FFA8A7"/>
<path d="M382.017 211.061C381.898 210.335 381.898 209.594 382.017 208.867C382.19 207.927 382.565 207.036 383.117 206.255C383.668 205.474 384.383 204.822 385.211 204.345C386.039 203.867 386.96 203.575 387.912 203.488C388.864 203.401 389.824 203.522 390.724 203.842C390.458 202.423 390.674 200.955 391.34 199.673C392.005 198.391 393.082 197.37 394.396 196.771C395.418 196.384 396.507 196.206 397.599 196.249C398.691 196.292 399.763 196.555 400.751 197.021C401.938 197.438 402.924 198.286 403.514 199.397C404.213 198.226 405.24 197.286 406.469 196.693C407.697 196.1 409.073 195.88 410.425 196.062C411.777 196.244 413.046 196.818 414.075 197.714C415.103 198.61 415.846 199.788 416.212 201.103C418.315 200.637 421.282 201.569 422.225 203.66C423.294 206.036 421.987 208.981 422.476 211.47C422.794 213.085 423.487 214.597 423.783 216.234C424.084 218.057 424.255 219.899 424.294 221.747C424.601 229.375 406.879 234.332 407.242 239.572L397.818 228.079C397.818 227.602 396.477 226.408 396.181 226.01C395.613 225.248 395.113 224.441 394.59 223.646C392.966 221.322 390.709 219.515 388.087 218.439C386.235 217.586 384.631 216.276 383.426 214.631C382.692 213.563 382.21 212.342 382.017 211.061Z" fill="#263238"/>
<path d="M389.461 223.816C389.461 223.816 386.403 228.364 386.801 228.841C387.517 229.31 388.31 229.649 389.143 229.841L389.461 223.816Z" fill="#F28F8F"/>
<path d="M398.805 209.378C395.838 210.89 390.699 213.676 389.369 224.453C388.017 235.502 390.506 239.345 392.052 240.788C393.087 241.766 398.43 242.119 401.215 241.277C404.694 240.209 412.253 236.548 415.789 230.841C419.95 224.123 420.813 215.176 416.005 211.675C409.241 206.775 401.329 208.139 398.805 209.378Z" fill="#FFA8A7"/>
<path d="M392.338 241.027C393.588 241.709 397.147 241.993 399.795 241.607L399.704 239.629C398.568 240.117 397.388 240.498 396.18 240.766C394.92 241.044 393.625 241.132 392.338 241.027Z" fill="#F28F8F"/>
<path d="M397.511 209.082C396.248 209.543 395.075 210.22 394.043 211.083C393.527 211.512 393.108 212.047 392.816 212.652C392.591 213.214 392.505 213.822 392.566 214.425C392.654 215.254 392.957 216.046 393.446 216.722C393.934 217.398 394.591 217.935 395.351 218.279C394.947 218.823 394.671 219.45 394.541 220.115C394.411 220.78 394.431 221.465 394.6 222.121C395.144 223.648 396.086 225.002 397.329 226.043C397.391 226.116 397.469 226.174 397.556 226.214C397.643 226.228 397.733 226.222 397.818 226.197C397.902 226.171 397.98 226.126 398.045 226.066C399.909 224.815 401.069 222.655 403.729 223.531C407.196 224.668 407.026 228.942 404.309 231.602C403.339 232.583 402.055 233.191 400.682 233.319C399.985 233.335 399.306 233.097 398.772 232.648C398.772 232.648 398.875 238.218 403.718 240.435C407.094 241.418 410.675 241.462 414.074 240.56C415.904 238.23 418.974 235.263 421.497 232.603C429.807 223.86 430.285 211.162 418.019 207.149C417.598 207.013 417.177 206.888 416.745 206.774C412.801 205.745 408.67 205.655 404.684 206.513C402.72 206.936 400.812 207.589 399 208.457L397.511 209.082Z" fill="#263238"/>
<path d="M397.112 229.941C396.79 229.833 396.493 229.661 396.239 229.436C395.985 229.211 395.779 228.937 395.632 228.631C395.486 228.324 395.403 227.992 395.387 227.652C395.372 227.313 395.425 226.974 395.543 226.656C395.784 226.01 396.27 225.484 396.896 225.195C397.522 224.905 398.237 224.875 398.886 225.11L397.112 229.941Z" fill="#263238"/>
<path d="M398.477 441.961C398.973 443.477 399.39 445.017 399.727 446.576C400.08 448.293 400.58 451.124 399.977 452.442C399.375 453.761 397.033 454.568 393.407 454.534C391.065 454.534 387.404 456.114 384.892 457.512C382.38 458.911 376.934 459.536 374.183 459.206C370.955 458.831 367.612 456.933 367.09 455.625C366.567 454.318 366.135 452.454 374.865 449.657C374.945 449.657 385.438 446.247 389.121 442.154L398.477 441.961Z" fill="#263238"/>
<path d="M398.476 442.197L396.805 441.992L389.12 442.151C385.436 446.21 374.944 449.632 374.864 449.654L373.466 450.12C371.954 451.348 373.239 453.428 376.876 453.747C380.514 454.065 391.712 450.336 394.201 449.097C395.505 448.484 396.603 447.505 397.361 446.281C398.12 445.056 398.507 443.637 398.476 442.197Z" fill="#FFA8A7"/>
<path d="M398.477 438.898C398.477 438.898 398.477 441.002 398.477 442.195C398.477 443.389 397.068 445.185 393.396 445.06C390.815 444.969 389.019 444.276 389.121 442.15V439.092L398.477 438.898Z" fill="#FFA8A7"/>
<path d="M423.145 428.147C423.805 428.419 423.941 429.693 423.975 432.228C423.975 434.138 424.316 437.491 422.054 438.094C419.792 438.696 416.529 438.276 415.131 436.434C413.403 434.16 412.243 432.114 409.765 429.306C407.605 426.862 405.218 424.577 404.456 421.201C403.729 418.165 404.456 416.869 406.525 416.051C408.594 415.232 410.493 415.903 413.346 418.325C414.153 418.863 415.014 419.317 415.915 419.677C417.837 420.246 422.486 427.874 423.145 428.147Z" fill="#263238"/>
<path d="M423.202 425.803L423.123 428.907C423.123 428.907 421.042 432.977 415.267 428.907C415.142 428.611 414.631 422.598 414.631 422.598L423.202 425.803Z" fill="#FFA8A7"/>
<path d="M415.939 419.69C415.038 419.33 414.177 418.876 413.37 418.337C411.096 417.587 406.14 418.451 408.356 421.827C410.188 424.613 412.534 427.024 415.268 428.932C417.883 430.217 418.804 428.625 418.804 428.625L417.872 421.338C417.362 420.649 416.701 420.085 415.939 419.69Z" fill="#FFA8A7"/>
<path d="M427.374 382.833C426.838 377.369 425.694 371.981 423.963 366.77C423.963 366.77 425.919 353.06 427.453 339.896C431.068 309.02 428.658 308.531 424.293 297.834C424.293 297.834 384.709 292.741 383.061 309.202C380.992 329.665 381.924 369.453 382.276 376.729C382.629 384.004 383.209 387.289 385.369 402.523C387.017 414.118 388.574 439.458 388.574 439.458C393.758 442.447 398.806 438.946 398.806 438.946C398.806 438.946 403.762 407.775 403.648 399.385C403.568 393.181 402.685 387.014 401.022 381.037C401.022 381.037 404.433 347.626 405.24 342.317C405.24 342.317 406.195 352.969 406.547 360.245C406.9 367.52 408.821 374.5 410.606 388.04C412.106 399.783 414.607 424.293 414.607 424.293C419.802 427.282 423.429 425.93 423.429 425.93C423.429 425.93 428.567 393.019 427.374 382.833Z" fill="#005FFA"/>
<g opacity="0.4">
<path opacity="0.4" d="M427.374 382.833C426.838 377.369 425.694 371.981 423.963 366.77C423.963 366.77 425.919 353.06 427.453 339.896C431.068 309.02 428.658 308.531 424.293 297.834C424.293 297.834 384.709 292.741 383.061 309.202C380.992 329.665 381.924 369.453 382.276 376.729C382.629 384.004 383.209 387.289 385.369 402.523C387.017 414.118 388.574 439.458 388.574 439.458C393.758 442.447 398.806 438.946 398.806 438.946C398.806 438.946 403.762 407.775 403.648 399.385C403.568 393.181 402.685 387.014 401.022 381.037C401.022 381.037 404.433 347.626 405.24 342.317C405.24 342.317 406.195 352.969 406.547 360.245C406.9 367.52 408.821 374.5 410.606 388.04C412.106 399.783 414.607 424.293 414.607 424.293C419.802 427.282 423.429 425.93 423.429 425.93C423.429 425.93 428.567 393.019 427.374 382.833Z" fill="black"/>
</g>
<path opacity="0.15" d="M405.24 342.261L407.15 327.823C412.729 327.812 418.142 325.927 422.52 322.469C422.52 322.469 419.928 327.744 409.412 330.051L407.355 344.909L406.616 361.279C406.267 354.883 405.809 348.543 405.24 342.261Z" fill="black"/>
<path d="M425.679 253.326C424.337 249.348 421.597 247.006 415.538 246.938H414.47C414.038 249.211 406.933 251.189 400.487 248.916C399.6 249.075 396.531 249.416 395.121 249.609L392.04 250.052C387.357 251.587 385.288 259.738 384.833 272.641C384.378 285.544 382.457 313.157 382.457 313.157C382.457 313.157 392.541 318.568 408.444 316.476C422.689 314.6 429.009 306.245 428.521 307.291C426.364 300.177 423.642 293.247 420.381 286.567C427.884 268.184 427.679 259.249 425.679 253.326Z" fill="#455A64"/>
<path d="M400.566 316.974C403.2 317.006 405.833 316.851 408.444 316.508C421.438 314.803 427.963 307.687 428.509 307.255C426.381 300.155 423.662 293.245 420.381 286.599C424.178 277.288 425.997 270.411 426.611 265.113C425.997 268.978 420.29 283.939 412.821 288.418C412.821 288.418 417.027 289.077 420.631 294.022C424.235 298.967 421.279 315.917 400.566 316.974Z" fill="#37474F"/>
<path d="M395.123 249.645C388.916 250.429 384.005 251.725 381.288 257.602C376.74 267.64 371.727 275.882 368.112 279.759C364.247 283.897 348.4 291.127 344.83 290.592C341.261 290.058 337.702 285.909 335.861 286.966C334.019 288.023 337.43 292.013 337.202 292.911C336.975 293.81 330.506 293.332 327.448 291.172C324.39 289.012 323.254 293.446 327.21 298.107C331.166 302.768 338.578 303.109 346.683 301.517C354.789 299.926 370.011 295.64 376.24 290.536C383.755 284.351 386.312 279.668 389.507 274.12C401.045 262.206 395.123 249.645 395.123 249.645Z" fill="#FFA8A7"/>
<defs>
<filter id="filter0_d" x="0" y="216.145" width="518.509" height="312.042" filterUnits="userSpaceOnUse" color-interpolation-filters="sRGB">
<feFlood flood-opacity="0" result="BackgroundImageFix"/>
<feColorMatrix in="SourceAlpha" type="matrix" values="0 0 0 0 0 0 0 0 0 0 0 0 0 0 0 0 0 0 127 0"/>
<feOffset dx="-7" dy="7"/>
<feGaussianBlur stdDeviation="7.5"/>
<feColorMatrix type="matrix" values="0 0 0 0 0 0 0 0 0 0 0 0 0 0 0 0 0 0 0.2 0"/>
<feBlend mode="normal" in2="BackgroundImageFix" result="effect1_dropShadow"/>
<feBlend mode="normal" in="SourceGraphic" in2="effect1_dropShadow" result="shape"/>
</filter>
</defs>
</svg>
