<svg width="76" height="76" viewBox="0 0 76 76" fill="none" xmlns="http://www.w3.org/2000/svg">
<circle cx="38" cy="38" r="38" transform="rotate(-90 38 38)" fill="url(#paint0_linear)"/>
<path d="M62.8263 37.8475C62.3294 36.23 60.8139 35.15 59.1385 35.2179L58.7812 35.2327C57.7329 35.2758 56.7469 35.7125 56.0083 36.4588L50.4837 41.9831C50.3528 41.7811 50.2027 41.589 50.0318 41.4098C49.3055 40.6471 48.288 40.2101 47.2407 40.2101H39.448C37.9777 40.2101 36.5439 40.0174 35.1859 39.6378C31.6489 38.6484 28.274 39.3627 25.4258 41.7031C24.2243 42.6909 23.3607 43.7687 22.8309 44.5304C22.2309 44.1089 21.5171 43.8877 20.7768 43.9004C19.8377 43.9167 18.9619 44.3016 18.3109 44.9853L13.274 50.269C12.902 50.6591 12.9096 51.2793 13.2917 51.6602L17.3423 55.6977C17.7271 56.081 18.3476 56.077 18.7275 55.6878C19.1068 55.2986 19.1029 54.6723 18.7177 54.2883L15.3562 50.9379L19.7215 46.3583C20.0086 46.057 20.3953 45.8867 20.8094 45.88C21.2275 45.8723 21.6154 46.0295 21.9129 46.321L29.7013 53.9586C29.9982 54.2501 30.1652 54.6405 30.171 55.0587C30.1768 55.4772 30.0208 55.8722 29.7318 56.172L25.4423 60.6196L24.3385 59.5572C23.9466 59.1801 23.3268 59.1955 22.9536 59.5915C22.5809 59.9874 22.5962 60.6138 22.9881 60.9903L24.7926 62.7275C24.9824 62.9098 25.2253 63.0004 25.4679 63.0004C25.723 63.0004 25.9776 62.9002 26.1695 62.7016L31.1347 57.5533C31.7893 56.8748 32.1424 55.9789 32.1296 55.0315C32.1235 54.5982 32.0405 54.1779 31.8885 53.7862L33.6375 53.5806C34.4489 53.4853 35.2744 53.4365 36.0914 53.4365H47.9484C48.1299 53.4365 48.3136 53.4288 48.4946 53.4134L49.6308 53.3178C50.7825 53.2213 51.8924 52.8173 52.8412 52.1505C53.3069 51.823 53.7293 51.4357 54.0967 50.9987L62.0865 41.4995C62.9404 40.4846 63.2166 39.1197 62.8263 37.8475ZM60.5942 40.2175L52.6041 49.7167C52.3462 50.0232 52.0496 50.2952 51.7225 50.5253C51.0563 50.9937 50.2765 51.2772 49.4684 51.3453L48.3317 51.4409C48.205 51.4517 48.0756 51.4573 47.9484 51.4573H36.0914C35.199 51.4573 34.2972 51.51 33.4113 51.6139L30.5793 51.947L24.314 45.842C24.7407 45.203 25.5247 44.173 26.6618 43.2389C29.0305 41.2926 31.7225 40.7227 34.6635 41.5452C36.1915 41.9726 37.8013 42.1891 39.448 42.1891H47.2407C47.7585 42.1891 48.2618 42.4056 48.6213 42.7825C48.884 43.0582 49.0506 43.3962 49.1193 43.7505C49.1181 43.8399 49.1291 43.9291 49.152 44.0157C49.1779 44.4799 49.0403 44.9529 48.7345 45.3375L48.7043 45.3757C48.339 45.8359 47.7942 46.1002 47.2101 46.1002H40.4261C39.885 46.1002 39.4468 46.543 39.4468 47.0895C39.4468 47.6363 39.885 48.0794 40.4261 48.0794H47.2101C48.3915 48.0794 49.4928 47.5453 50.2323 46.6136L50.2625 46.5757C50.8289 45.8627 51.1097 44.9998 51.1124 44.1388L57.3893 37.862C57.7829 37.4645 58.3054 37.2329 58.8611 37.2101L59.2188 37.1956C60.0086 37.1617 60.7218 37.6721 60.9555 38.4341C61.1463 39.0552 61.0111 39.722 60.5942 40.2175Z" fill="white"/>
<path d="M20.7887 47.9688C19.3263 47.9688 18.1367 49.1712 18.1367 50.6487C18.1367 52.1268 19.3263 53.3293 20.7887 53.3293C22.2511 53.3293 23.441 52.1268 23.441 50.6487C23.441 49.1712 22.2511 47.9688 20.7887 47.9688ZM20.7887 51.3497C20.4063 51.3497 20.095 51.0354 20.095 50.6487C20.095 50.2626 20.4063 49.9483 20.7887 49.9483C21.1708 49.9483 21.4821 50.2626 21.4821 50.6487C21.4821 51.0354 21.1708 51.3497 20.7887 51.3497Z" fill="white"/>
<path d="M36.2631 46.245L36.2127 46.257C35.6863 46.3819 35.3592 46.9148 35.4834 47.4468C35.589 47.9026 35.9915 48.2103 36.4358 48.2103C36.5097 48.2103 36.5853 48.2014 36.6604 48.1835L36.7111 48.1718C37.2375 48.0469 37.564 47.514 37.4404 46.982C37.3168 46.4501 36.7898 46.1207 36.2631 46.245Z" fill="white"/>
<path d="M20.6616 56.7216L20.611 56.7337C20.0846 56.8589 19.758 57.3912 19.8816 57.9231C19.9875 58.3792 20.3897 58.6867 20.8341 58.6867C20.9085 58.6867 20.9836 58.6784 21.0593 58.6605L21.1096 58.6488C21.6361 58.5239 21.9629 57.991 21.839 57.459C21.7154 56.9267 21.1881 56.597 20.6616 56.7216Z" fill="white"/>
<path d="M44.7515 20.1487L44.7515 20.1487C45.0005 20.3487 45.2109 20.5728 45.3814 20.8128C44.8582 20.152 44.0499 19.6993 43.2567 19.4916L42.0478 19.175V19.1735L42.8341 19.3085C43.5664 19.4343 44.2267 19.7271 44.7515 20.1487ZM42.0034 19.1735V19.1751L40.7946 19.4916C40.0013 19.6992 39.1932 20.1519 38.67 20.8127C38.8404 20.5727 39.0508 20.3487 39.2997 20.1487L39.2997 20.1487C39.8244 19.7271 40.4848 19.4343 41.2171 19.3085L42.0034 19.1735ZM39.2997 24.709C39.0509 24.5091 38.8406 24.2852 38.6702 24.0453C39.1934 24.7059 40.0014 25.1585 40.7946 25.3661L42.0034 25.6825V25.6843L41.2171 25.5492C40.4848 25.4235 39.8245 25.1306 39.2997 24.709ZM40.7946 31.6504L42.0034 31.9669V31.9685L41.2171 31.8335C40.4848 31.7077 39.8245 31.4149 39.2997 30.9933C39.0509 30.7934 38.8406 30.5695 38.6702 30.3296C39.1934 30.9902 40.0014 31.4428 40.7946 31.6504ZM42.0478 31.9685V31.9669L43.2566 31.6504C44.0499 31.4428 44.8581 30.9901 45.3813 30.3293C45.2108 30.5693 45.0004 30.7933 44.7515 30.9933L44.7515 30.9933C44.2268 31.4149 43.5664 31.7077 42.8341 31.8335L42.0478 31.9685ZM44.7515 26.433C45.0005 26.633 45.2109 26.8571 45.3814 27.0971C44.8582 26.4363 44.0499 25.9836 43.2566 25.7759L42.0478 25.4594V25.4577L42.8341 25.5928C43.5664 25.7185 44.2267 26.0114 44.7515 26.433L44.7515 26.433Z" stroke="white" stroke-width="2"/>
<path d="M53.0256 25.5757C53.0256 31.9786 47.8919 37.1513 41.5811 37.1513C35.2704 37.1513 30.1367 31.9786 30.1367 25.5757C30.1367 19.1727 35.2704 14 41.5811 14C47.8919 14 53.0256 19.1727 53.0256 25.5757Z" stroke="white" stroke-width="2"/>
<defs>
<linearGradient id="paint0_linear" x1="0" y1="0" x2="76" y2="76" gradientUnits="userSpaceOnUse">
<stop stop-color="#0053F7"/>
<stop offset="1" stop-color="#0060FA"/>
</linearGradient>
</defs>
</svg>
