<svg width="76" height="76" viewBox="0 0 76 76" fill="none" xmlns="http://www.w3.org/2000/svg">
<circle cx="38" cy="38" r="38" transform="rotate(-90 38 38)" fill="url(#paint0_linear)"/>
<path d="M61.8056 56.7138C56.8728 55.1337 51.8691 54.478 46.9333 54.7633C44.1821 54.9228 41.9429 55.3519 40.3598 55.7544L43.0327 51.0054C43.0331 51.0051 43.0331 51.0043 43.0335 51.0039C43.0484 50.9772 43.0617 50.9494 43.0732 50.9204C43.0747 50.9173 43.0755 50.9143 43.0766 50.9112C43.0861 50.8872 43.0941 50.8624 43.101 50.8372C43.1025 50.8307 43.1044 50.8242 43.106 50.8178C43.1117 50.7945 43.1159 50.7708 43.1193 50.7468C43.1201 50.7411 43.1212 50.7354 43.122 50.7296C43.125 50.7022 43.127 50.6747 43.127 50.6465V23.3516C43.127 22.9468 42.7989 22.6191 42.3945 22.6191C41.9902 22.6191 41.6621 22.9468 41.6621 23.3516V49.9137H40.1973V19.1523H41.6621V20.2102C41.6621 20.6149 41.9902 20.9426 42.3945 20.9426C42.7989 20.9426 43.127 20.6149 43.127 20.2102V15.2984C43.127 14.0311 42.0958 13 40.8286 13H35.1714C33.9042 13 32.873 14.0311 32.873 15.2984V50.6465C32.873 50.6747 32.875 50.7026 32.878 50.73C32.8788 50.7354 32.8799 50.7411 32.8807 50.7468C32.8841 50.7708 32.8883 50.7945 32.894 50.8178C32.8956 50.8242 32.8975 50.8307 32.899 50.8372C32.9059 50.8624 32.9139 50.8872 32.9234 50.9112C32.9245 50.9143 32.9253 50.9173 32.9268 50.9208C32.9383 50.9494 32.9516 50.9772 32.9665 51.0039C32.9669 51.0043 32.9669 51.0051 32.9673 51.0054L35.641 55.7559C32.9852 55.0822 28.432 54.32 22.7145 54.9136C22.3121 54.9552 22.0199 55.3153 22.0614 55.7177C22.103 56.1202 22.4627 56.412 22.8656 56.3704C29.5699 55.6746 34.5801 56.9079 36.6599 57.566L37.1287 58.3991C37.1306 58.4025 37.1325 58.406 37.1344 58.4094C37.1768 58.4819 37.2264 58.5467 37.2805 58.6055H14.7189C14.5785 58.6055 14.4648 58.4918 14.4648 58.3514C14.4648 58.2827 14.4915 58.2316 14.5125 58.203C14.5354 58.1714 14.5766 58.1294 14.6415 58.1084C16.3424 57.5637 18.077 57.1273 19.7974 56.8114C20.1953 56.7382 20.4585 56.3567 20.3853 55.9588C20.3124 55.561 19.9305 55.2977 19.5327 55.3706C17.7512 55.6979 15.9552 56.1499 14.194 56.7138C13.8469 56.8255 13.5486 57.0407 13.33 57.3386C13.1141 57.635 13 57.9852 13 58.3514C13 58.789 13.1656 59.1872 13.4356 59.4909C13.1621 59.8575 13 60.3114 13 60.8027C13 62.0143 13.9857 63 15.1973 63H60.8027C62.0143 63 63 62.0143 63 60.8027C63 60.3114 62.8379 59.8575 62.5644 59.4909C62.8344 59.1872 63 58.789 63 58.3514C63 57.6011 62.5201 56.943 61.8056 56.7138ZM61.3582 58.1084C61.4642 58.1424 61.5352 58.24 61.5352 58.3514C61.5352 58.4918 61.4211 58.6055 61.2811 58.6055H38.7191C38.7225 58.602 38.7252 58.5982 38.7286 58.5948C38.7786 58.5387 38.8255 58.4777 38.8652 58.4094C38.8663 58.4075 38.8675 58.4056 38.8686 58.4037C38.8694 58.4021 38.8705 58.4006 38.8713 58.3991L39.2226 57.7746L39.3401 57.5656C42.073 56.7031 50.5679 54.6527 61.3582 58.1084ZM35.8027 49.9137H34.3379V19.1523H35.8027V49.9137ZM41.1418 51.3789L39.3714 54.5241H36.6286L34.8582 51.3789H41.1418ZM37.4534 55.989H38.5466L38 56.9602L37.4534 55.989ZM38.7324 49.9137H37.2676V19.1523H38.7324V49.9137ZM34.3379 15.2984C34.3379 14.8387 34.7117 14.4648 35.1714 14.4648H40.8286C41.2883 14.4648 41.6621 14.8387 41.6621 15.2984V17.6875H34.3379V15.2984ZM60.8027 61.5352H15.1973C14.7933 61.5352 14.4648 61.2067 14.4648 60.8027C14.4648 60.3988 14.7933 60.0703 15.1973 60.0703H60.8027C61.2067 60.0703 61.5352 60.3988 61.5352 60.8027C61.5352 61.2067 61.2067 61.5352 60.8027 61.5352Z" fill="white"/>
<path d="M17.0661 30.6961H19.6521C19.8504 32.1537 20.3944 33.2283 21.2741 33.8951C22.0302 34.4685 22.8923 34.6306 23.6266 34.6306C24.0806 34.6306 24.4857 34.5684 24.7859 34.5032C25.1666 34.4204 25.4378 34.0775 25.4306 33.688C25.4233 33.2985 25.1399 32.9659 24.7561 32.8972C24.4586 32.8438 24.2572 32.7179 24.1225 32.5005C23.8349 32.037 23.8738 31.2523 23.9619 30.6957H27.3421C29.584 30.6957 31.4082 28.8719 31.4082 26.6297V18.6012C31.4082 16.3593 29.5844 14.5352 27.3421 14.5352H17.0661C14.8242 14.5355 13 16.3593 13 18.6012V26.63C13 28.8719 14.8242 30.6961 17.0661 30.6961ZM14.4648 18.6012C14.4648 17.1669 15.6318 16 17.0661 16H27.3421C28.7764 16 29.9434 17.1669 29.9434 18.6012V26.63C29.9434 28.0644 28.7764 29.2313 27.3421 29.2313H23.371C23.0464 29.2313 22.7607 29.4449 22.6687 29.7566C22.6073 29.9637 22.119 31.7246 22.7469 33.0341C22.5428 32.9662 22.3433 32.8671 22.1591 32.7278C21.5026 32.23 21.1287 31.2855 21.0479 29.9202C21.025 29.5334 20.7045 29.2309 20.317 29.2309H17.0661C15.6318 29.2313 14.4648 28.0644 14.4648 26.63V18.6012Z" fill="white"/>
<path d="M58.9359 32.832H56.7642C56.3598 32.832 56.0317 33.1601 56.0317 33.5645C56.0317 33.9692 56.3598 34.2969 56.7642 34.2969H58.9359C60.3702 34.2969 61.5371 35.4638 61.5371 36.8981V44.9265C61.5371 46.3609 60.3702 47.5282 58.9359 47.5282H55.685C55.2974 47.5282 54.977 47.8303 54.9541 48.2171C54.8732 49.5824 54.499 50.5269 53.8429 51.0247C53.6586 51.1639 53.4591 51.2631 53.2546 51.331C53.8829 50.0214 53.3943 48.2606 53.3332 48.0534C53.2413 47.7418 52.9552 47.5282 52.6309 47.5282H48.6598C47.2255 47.5282 46.0586 46.3612 46.0586 44.9265V36.8981C46.0586 35.4638 47.2255 34.2969 48.6598 34.2969H53.6392C54.0435 34.2969 54.3716 33.9692 54.3716 33.5645C54.3716 33.1601 54.0435 32.832 53.6392 32.832H48.6598C46.4179 32.832 44.5938 34.6562 44.5938 36.8981V44.9265C44.5938 47.1688 46.4176 48.993 48.6598 48.993H52.04C52.1282 49.5496 52.1671 50.3342 51.8794 50.7973C51.7448 51.0148 51.5434 51.1411 51.2458 51.1941C50.8621 51.2631 50.5782 51.5958 50.5714 51.9856C50.5641 52.3751 50.8357 52.7177 51.2161 52.8001C51.5163 52.8653 51.9214 52.9275 52.3754 52.9275C53.1093 52.9275 53.9718 52.7654 54.7275 52.192C55.6072 51.5252 56.1515 50.451 56.3499 48.993H58.9359C61.1778 48.993 63.002 47.1688 63.002 44.9269V36.8985C63.002 34.6562 61.1778 32.832 58.9359 32.832Z" fill="white"/>
<path d="M50.3691 40C51.6349 40 52.6641 38.9704 52.6641 37.7051C52.6641 36.4394 51.6349 35.4102 50.3691 35.4102C49.1038 35.4102 48.0742 36.4394 48.0742 37.7051C48.0742 38.9704 49.1038 40 50.3691 40ZM50.3691 36.875C50.8269 36.875 51.1992 37.2473 51.1992 37.7051C51.1992 38.1625 50.8269 38.5352 50.3691 38.5352C49.9118 38.5352 49.5391 38.1625 49.5391 37.7051C49.5391 37.2473 49.9118 36.875 50.3691 36.875Z" fill="white"/>
<path d="M57.0098 41.9531C55.7444 41.9531 54.7148 42.9823 54.7148 44.248C54.7148 45.5134 55.7444 46.543 57.0098 46.543C58.2755 46.543 59.3047 45.5134 59.3047 44.248C59.3047 42.9823 58.2755 41.9531 57.0098 41.9531ZM57.0098 45.0781C56.5524 45.0781 56.1797 44.7054 56.1797 44.248C56.1797 43.7903 56.5524 43.418 57.0098 43.418C57.4675 43.418 57.8398 43.7903 57.8398 44.248C57.8398 44.7054 57.4675 45.0781 57.0098 45.0781Z" fill="white"/>
<path d="M57.6638 35.9646L48.6794 44.949C48.3933 45.2351 48.3933 45.6985 48.6794 45.9846C48.8225 46.1277 49.0098 46.199 49.1971 46.199C49.3848 46.199 49.5721 46.1277 49.7151 45.9846L58.6995 37.0003C58.9856 36.7142 58.9856 36.2507 58.6995 35.9646C58.4134 35.6785 57.9499 35.6785 57.6638 35.9646Z" fill="white"/>
<path d="M16.5156 18.8477C16.2395 18.8477 16.0156 19.0715 16.0156 19.3477C16.0156 19.6238 16.2395 19.8477 16.5156 19.8477V18.8477ZM27.6484 19.8477C27.9246 19.8477 28.1484 19.6238 28.1484 19.3477C28.1484 19.0715 27.9246 18.8477 27.6484 18.8477V19.8477ZM16.5156 20.8008C16.2395 20.8008 16.0156 21.0246 16.0156 21.3008C16.0156 21.5769 16.2395 21.8008 16.5156 21.8008V20.8008ZM27.6484 21.8008C27.9246 21.8008 28.1484 21.5769 28.1484 21.3008C28.1484 21.0246 27.9246 20.8008 27.6484 20.8008V21.8008ZM16.5156 22.5586C16.2395 22.5586 16.0156 22.7825 16.0156 23.0586C16.0156 23.3347 16.2395 23.5586 16.5156 23.5586V22.5586ZM27.6484 23.5586C27.9246 23.5586 28.1484 23.3347 28.1484 23.0586C28.1484 22.7825 27.9246 22.5586 27.6484 22.5586V23.5586ZM16.5156 24.3164C16.2395 24.3164 16.0156 24.5403 16.0156 24.8164C16.0156 25.0925 16.2395 25.3164 16.5156 25.3164V24.3164ZM27.6484 25.3164C27.9246 25.3164 28.1484 25.0925 28.1484 24.8164C28.1484 24.5403 27.9246 24.3164 27.6484 24.3164V25.3164ZM16.5156 19.8477H27.6484V18.8477H16.5156V19.8477ZM16.5156 21.8008H27.6484V20.8008H16.5156V21.8008ZM16.5156 23.5586H27.6484V22.5586H16.5156V23.5586ZM16.5156 25.3164H27.6484V24.3164H16.5156V25.3164Z" fill="white"/>
<defs>
<linearGradient id="paint0_linear" x1="0" y1="0" x2="76" y2="76" gradientUnits="userSpaceOnUse">
<stop stop-color="#004FF5"/>
<stop offset="1" stop-color="#0063FB"/>
</linearGradient>
</defs>
</svg>
