<svg width="76" height="76" viewBox="0 0 76 76" fill="none" xmlns="http://www.w3.org/2000/svg">
<circle cx="38" cy="38" r="38" transform="rotate(-90 38 38)" fill="url(#paint0_linear)"/>
<path d="M63 38.3991C63 26.0199 52.9819 16 40.6009 16H35.3991C23.0199 16 13 26.018 13 38.3991C13 40.9456 13.4257 43.4468 14.2652 45.8334C14.3995 46.2148 14.8177 46.4149 15.1992 46.2812C15.5809 46.147 15.7813 45.7289 15.6471 45.3473C14.8626 43.1174 14.4648 40.7796 14.4648 38.3991C14.4648 26.8293 23.8277 17.4648 35.3991 17.4648C46.9689 17.4648 56.3334 26.8277 56.3334 38.3991C56.3334 49.9688 46.9705 59.3334 35.3991 59.3334C27.429 59.3334 20.3072 54.8464 16.7649 47.9484C16.5802 47.5885 16.1388 47.4467 15.7788 47.6314C15.4189 47.8163 15.2771 48.2577 15.4618 48.6176C19.2575 56.0089 26.885 60.7982 35.3991 60.7982H40.6009C52.8937 60.7982 63 50.8583 63 38.3991ZM54.6506 53.9168H51.5509C52.7201 52.7011 53.7366 51.3761 54.5905 49.9649H58.0523C57.0909 51.4132 55.951 52.7391 54.6506 53.9168ZM55.4035 48.5001C56.0435 47.2358 56.5595 45.9135 56.9469 44.5482H60.6217C60.2021 45.9204 59.6406 47.2434 58.9463 48.5001H55.4035ZM61.0092 43.0834H57.3089C57.5817 41.7943 57.7423 40.4731 57.7851 39.1315H61.5211C61.4761 40.452 61.3081 41.7747 61.0092 43.0834ZM61.5212 37.6667H57.7852C57.7423 36.325 57.5818 35.0039 57.309 33.7148H61.0115C61.304 35.001 61.4753 36.3229 61.5212 37.6667ZM60.6177 32.25H56.9469C56.5595 30.8849 56.0436 29.5624 55.4035 28.2981H58.9409C59.6354 29.5564 60.1974 30.881 60.6177 32.25ZM58.0574 26.8334H54.5906C53.7367 25.4223 52.7202 24.0974 51.551 22.8815H54.6533C55.9329 24.0431 57.0807 25.3657 58.0574 26.8334ZM52.8475 21.4167H50.0066C48.2301 19.8838 46.2494 18.6568 44.1302 17.7601C47.2849 18.2927 50.2544 19.5384 52.8475 21.4167ZM50.0065 55.3816H52.8474C50.2544 57.2599 47.2849 58.5057 44.1302 59.0383C46.2493 58.1414 48.23 56.9145 50.0065 55.3816Z" fill="white"/>
<path d="M47.4727 26.837C47.7522 27.1291 48.2161 27.1391 48.5082 26.8592C48.8003 26.5794 48.8103 26.1157 48.5304 25.8236C45.0672 22.2093 40.4044 20.2188 35.4009 20.2188C25.3752 20.2188 17.2188 28.3753 17.2188 38.4009C17.2188 48.4265 25.3752 56.5829 35.4009 56.5829C45.4266 56.5829 53.5828 48.4265 53.5828 38.4009C53.5828 34.7467 52.5027 31.2223 50.4594 28.209C50.2324 27.8742 49.777 27.7866 49.4422 28.0139C49.1073 28.2408 49.02 28.6963 49.2471 29.0311C51.1252 31.8009 52.118 35.0409 52.118 38.4009C52.118 47.6187 44.6187 55.1181 35.4008 55.1181C26.1828 55.1181 18.6835 47.6187 18.6835 38.4009C18.6835 29.1829 26.1828 21.6836 35.4008 21.6836C40.0011 21.6837 44.2883 23.5139 47.4727 26.837Z" fill="white"/>
<path d="M46.5617 35.8747C46.418 35.4329 46.0645 35.0971 45.616 34.9765L39.8209 33.4171L36.5469 28.3873C36.2935 27.998 35.8649 27.7656 35.4005 27.7656C34.9359 27.7656 34.5073 27.998 34.2539 28.3873L30.98 33.4171L25.185 34.9765C24.7364 35.0971 24.3829 35.4329 24.2393 35.8746C24.0958 36.3164 24.1844 36.7959 24.4763 37.1573L28.2481 41.8252L27.9404 47.8184C27.9166 48.2824 28.1267 48.7224 28.5025 48.9955C28.8784 49.2683 29.3616 49.3324 29.7956 49.1665L35.4005 47.0217L36.7167 47.5254C37.0944 47.6696 37.5179 47.4808 37.6626 47.1031C37.8071 46.7253 37.618 46.3018 37.2403 46.1572L35.8895 45.6403C35.5743 45.5199 35.227 45.5199 34.9117 45.6403L29.411 47.7452L29.7131 41.8633C29.7303 41.526 29.6229 41.1957 29.4108 40.9334L25.7093 36.3524L31.397 34.822C31.7229 34.734 32.0038 34.5299 32.1877 34.2473L35.4006 29.3111L38.6134 34.2472C38.7974 34.5299 39.0782 34.734 39.4046 34.8221L45.0919 36.3524L41.3904 40.9334C41.1782 41.1959 41.071 41.5261 41.0882 41.8634L41.3901 47.7452L39.9857 47.2077C39.6079 47.0633 39.1845 47.2523 39.0398 47.63C38.8953 48.0078 39.0843 48.4312 39.4621 48.5759L41.0055 49.1665C41.4384 49.3321 41.922 49.2691 42.2986 48.9954C42.6745 48.7223 42.8844 48.2823 42.8606 47.8184L42.553 41.8252L46.3248 37.1573C46.6166 36.7959 46.7051 36.3164 46.5617 35.8747Z" fill="white"/>
<defs>
<linearGradient id="paint0_linear" x1="0" y1="0" x2="76" y2="76" gradientUnits="userSpaceOnUse">
<stop stop-color="#D23E30"/>
<stop offset="1" stop-color="#E16B60"/>
</linearGradient>
</defs>
</svg>
