<svg width="76" height="76" viewBox="0 0 76 76" fill="none" xmlns="http://www.w3.org/2000/svg">
<circle cx="38" cy="38" r="38" transform="rotate(-90 38 38)" fill="url(#paint0_linear)"/>
<path d="M44.1657 19.5932C44.5636 19.5932 44.8861 19.2706 44.8861 18.8728C44.8861 18.4749 44.5636 18.1523 44.1657 18.1523C43.7679 18.1523 43.4453 18.4749 43.4453 18.8728C43.4453 19.2706 43.7679 19.5932 44.1657 19.5932Z" fill="white"/>
<path d="M47.0524 19.5932C47.4503 19.5932 47.7729 19.2706 47.7729 18.8728C47.7729 18.4749 47.4503 18.1523 47.0524 18.1523C46.6546 18.1523 46.332 18.4749 46.332 18.8728C46.332 19.2706 46.6546 19.5932 47.0524 19.5932Z" fill="white"/>
<path d="M28.0879 43.1406H47.9107C48.3153 43.1406 48.6432 42.8127 48.6432 42.4082C48.6432 42.0037 48.3153 41.6758 47.9107 41.6758H28.0879C27.6833 41.6758 27.3555 42.0037 27.3555 42.4082C27.3555 42.8127 27.6833 43.1406 28.0879 43.1406Z" fill="white"/>
<path d="M28.0879 46.7617H47.9107C48.3153 46.7617 48.6432 46.4338 48.6432 46.0293C48.6432 45.6248 48.3153 45.2969 47.9107 45.2969H28.0879C27.6833 45.2969 27.3555 45.6248 27.3555 46.0293C27.3555 46.4338 27.6833 46.7617 28.0879 46.7617Z" fill="white"/>
<path d="M28.0879 50.3828H47.9107C48.3153 50.3828 48.6432 50.0549 48.6432 49.6504C48.6432 49.2459 48.3153 48.918 47.9107 48.918H28.0879C27.6833 48.918 27.3555 49.2459 27.3555 49.6504C27.3555 50.0549 27.6833 50.3828 28.0879 50.3828Z" fill="white"/>
<path d="M42.7871 34.2773H47.911C48.3156 34.2773 48.6435 33.9494 48.6435 33.5449C48.6435 33.1404 48.3156 32.8125 47.911 32.8125H42.7871C42.3825 32.8125 42.0547 33.1404 42.0547 33.5449C42.0547 33.9494 42.3826 34.2773 42.7871 34.2773Z" fill="white"/>
<path d="M42.7871 30.5039H47.911C48.3156 30.5039 48.6435 30.176 48.6435 29.7715C48.6435 29.367 48.3156 29.0391 47.911 29.0391H42.7871C42.3825 29.0391 42.0547 29.367 42.0547 29.7715C42.0547 30.176 42.3826 30.5039 42.7871 30.5039Z" fill="white"/>
<path d="M29.6195 38.7683H37.4337C38.682 38.7683 39.6977 37.7526 39.6977 36.5042V26.8148C39.6977 25.5664 38.6821 24.5508 37.4337 24.5508H29.6195C28.3712 24.5508 27.3555 25.5664 27.3555 26.8148V36.5042C27.3556 37.7526 28.3712 38.7683 29.6195 38.7683ZM37.4337 37.3034H29.6195C29.3303 37.3034 29.0771 37.1484 28.9369 36.9177C29.5125 35.555 30.6552 34.5242 32.0675 34.0938C32.5047 34.3213 33.0007 34.4507 33.5267 34.4507C34.0526 34.4507 34.5486 34.3213 34.9858 34.0937C36.398 34.524 37.5407 35.5549 38.1164 36.9176C37.976 37.1484 37.7229 37.3034 37.4337 37.3034ZM33.5266 32.9858C32.5852 32.9858 31.8195 32.22 31.8195 31.2787C31.8195 30.3374 32.5853 29.5716 33.5266 29.5716C34.468 29.5716 35.2337 30.3374 35.2337 31.2787C35.2337 32.22 34.468 32.9858 33.5266 32.9858ZM29.6195 26.0157H37.4337C37.8744 26.0157 38.2329 26.3742 38.2329 26.8149V34.447C37.6596 33.8348 36.9694 33.3374 36.197 32.9873C36.5139 32.4938 36.6986 31.9075 36.6986 31.2787C36.6986 29.5297 35.2757 28.1067 33.5267 28.1067C31.7776 28.1067 30.3548 29.5297 30.3548 31.2787C30.3548 31.9075 30.5395 32.4938 30.8563 32.9873C30.0839 33.3374 29.3937 33.8347 28.8205 34.4469V26.8149C28.8204 26.3741 29.1789 26.0157 29.6195 26.0157Z" fill="white"/>
<path d="M61.0551 53.25H59.6621V30.2126C59.6621 28.6943 58.427 27.4592 56.9087 27.4592H55.1371C54.7325 27.4592 54.4047 27.7871 54.4047 28.1916C54.4047 28.5961 54.7325 28.924 55.1371 28.924H56.9087C57.6192 28.924 58.1973 29.5021 58.1973 30.2126V53.25H55.7558V33.4395C55.7558 32.2959 54.8254 31.3655 53.6818 31.3655H52.4381V17.7475C52.4381 16.6288 51.528 15.7188 50.4095 15.7188H25.5906C24.4721 15.7188 23.562 16.6288 23.562 17.7475V31.3654H22.3182C21.1746 31.3654 20.2442 32.2958 20.2442 33.4394V53.2499H17.8028V30.2126C17.8028 29.5021 18.3809 28.924 19.0913 28.924H20.8703C21.2749 28.924 21.6027 28.5961 21.6027 28.1916C21.6027 27.7871 21.2749 27.4592 20.8703 27.4592H19.0913C17.573 27.4592 16.338 28.6943 16.338 30.2126V53.25H14.9449C13.8726 53.25 13 54.1226 13 55.195C13 58.0004 15.2822 60.2826 18.0876 60.2826H57.9125C60.7179 60.2826 63.0001 58.0003 63.0001 55.195C63 54.1226 62.1274 53.25 61.0551 53.25ZM53.6818 32.8303C54.0177 32.8303 54.2909 33.1035 54.2909 33.4394V53.2499H52.438V32.8303H53.6818ZM25.5906 17.1836H50.4095C50.7204 17.1836 50.9732 17.4365 50.9732 17.7475V20.5602H29.8601C29.4555 20.5602 29.1276 20.8881 29.1276 21.2926C29.1276 21.6971 29.4555 22.025 29.8601 22.025H50.9731V53.25H25.0268V22.025H26.3952C26.7998 22.025 27.1276 21.6971 27.1276 21.2926C27.1276 20.8881 26.7998 20.5602 26.3952 20.5602H25.0268V17.7475C25.0268 17.4366 25.2797 17.1836 25.5906 17.1836ZM44.5251 54.7148C44.2293 55.4849 43.4841 56.0339 42.6111 56.0339H33.3887C32.5158 56.0339 31.7705 55.4849 31.4747 54.7148H44.5251ZM21.7091 33.4395C21.7091 33.1036 21.9823 32.8304 22.3182 32.8304H23.5619V53.2501H21.7091V33.4395ZM57.9124 58.8178H18.0876C16.09 58.8178 14.4648 57.1926 14.4648 55.195C14.4648 54.9303 14.6802 54.7148 14.9449 54.7148H29.9498C30.2878 56.3033 31.7011 57.4987 33.3889 57.4987H42.6113C44.2991 57.4987 45.7124 56.3033 46.0504 54.7148H61.0553C61.32 54.7148 61.5354 54.9303 61.5354 55.195C61.5352 57.1926 59.91 58.8178 57.9124 58.8178Z" fill="white"/>
<defs>
<linearGradient id="paint0_linear" x1="0" y1="0" x2="76" y2="76" gradientUnits="userSpaceOnUse">
<stop stop-color="#003CEF"/>
<stop offset="1" stop-color="#0074FF"/>
</linearGradient>
</defs>
</svg>
