<svg width="30" height="34" viewBox="0 0 30 34" fill="none" xmlns="http://www.w3.org/2000/svg">
<path d="M10.1486 17.623C7.44313 17.623 5.25743 19.8087 5.29741 22.4875C5.32407 24.2067 6.27031 25.6994 7.66303 26.5323C7.18991 25.806 6.91003 24.9464 6.8967 24.0201C6.85672 21.3413 9.04241 19.1556 11.7479 19.1556C12.281 19.1556 12.7941 19.2423 13.2739 19.3955V14.0313C12.7741 13.958 12.261 13.918 11.7479 13.918C11.7212 13.918 11.7012 13.918 11.6746 13.918V17.8629C11.1948 17.7096 10.6817 17.623 10.1486 17.623Z" fill="#F00044"/>
<path d="M21.844 1.53516H21.804H20.418C20.8178 3.54093 21.944 5.28682 23.5166 6.47296C22.4837 5.1069 21.8573 3.40099 21.844 1.53516Z" fill="#F00044"/>
<path d="M30 9.69738C29.4736 9.69738 28.9672 9.64407 28.4674 9.55078V13.3957C26.6549 13.3957 24.8956 13.0426 23.243 12.3362C22.1768 11.8831 21.184 11.3033 20.271 10.6036L20.2977 22.4584C20.2844 25.1238 19.2315 27.6227 17.3257 29.5086C15.773 31.0412 13.8072 32.0208 11.6749 32.334C11.1751 32.4073 10.662 32.4472 10.1489 32.4472C7.86989 32.4472 5.69752 31.7076 3.93164 30.3415C4.13155 30.5814 4.34479 30.8146 4.57802 31.0412C6.49716 32.9337 9.0427 33.9799 11.7548 33.9799C12.2679 33.9799 12.781 33.9399 13.2808 33.8666C15.4132 33.5534 17.379 32.5739 18.9316 31.0412C20.8374 29.1554 21.8903 26.6565 21.9036 23.991L21.8037 12.1363C22.7099 12.836 23.7028 13.4224 24.7757 13.8689C26.4349 14.5685 28.1942 14.9284 30 14.9284" fill="#F00044"/>
<path d="M4.558 16.8675C6.45715 14.9817 8.98269 13.9355 11.6748 13.9155V12.4961C11.1751 12.4228 10.6619 12.3828 10.1488 12.3828C7.43005 12.3828 4.87786 13.429 2.95871 15.3348C1.07289 17.2073 -0.00663303 19.7662 3.06693e-05 22.425C3.06693e-05 25.1038 1.05956 27.616 2.97204 29.5152C3.27857 29.815 3.59176 30.0949 3.92495 30.3481C2.41895 28.5556 1.59932 26.3166 1.59265 23.9577C1.59932 21.2988 2.67217 18.74 4.558 16.8675Z" fill="#08FFF9"/>
<path d="M28.4679 9.54738V8.12135H28.4546C26.6021 8.12135 24.8962 7.50829 23.5234 6.46875C24.7162 8.04138 26.4621 9.16088 28.4679 9.54738Z" fill="#08FFF9"/>
<path d="M11.4757 28.7339C12.1087 28.7672 12.7151 28.6806 13.2749 28.5006C15.2074 27.8676 16.6001 26.0684 16.6001 23.9493L16.6067 16.0195V1.53265H20.4184C20.3184 1.03287 20.2651 0.526432 20.2585 0H15.0075V14.4802L15.0008 22.41C15.0008 24.5291 13.6081 26.3283 11.6756 26.9613C11.1159 27.1479 10.5095 27.2345 9.87641 27.1946C9.0701 27.1479 8.3171 26.908 7.66406 26.5215C8.4837 27.7876 9.88307 28.6472 11.4757 28.7339Z" fill="#08FFF9"/>
<path d="M11.6752 32.3309C13.8075 32.0177 15.7733 31.0381 17.326 29.5055C19.2318 27.6196 20.2846 25.1207 20.298 22.4553L20.2713 10.6005C21.1776 11.3002 22.1705 11.8866 23.2433 12.3331C24.9026 13.0328 26.6618 13.3926 28.4677 13.3926V9.54768C26.4619 9.16118 24.716 8.04168 23.5232 6.46905C21.9506 5.28291 20.8177 3.53702 20.4246 1.53125H16.6063V16.0115L16.5996 23.9413C16.5996 26.0603 15.2069 27.8595 13.2744 28.4926C12.7147 28.6792 12.1083 28.7658 11.4752 28.7258C9.87595 28.6392 8.48324 27.7796 7.66361 26.5201C6.27089 25.6938 5.32465 24.1945 5.29799 22.4753C5.25801 19.7964 7.4437 17.6108 10.1492 17.6108C10.6823 17.6108 11.1954 17.6974 11.6752 17.8506V13.9057C8.98302 13.9257 6.45748 14.9719 4.55832 16.8578C2.6725 18.7303 1.59298 21.2891 1.59964 23.9413C1.59964 26.3002 2.41928 28.5392 3.93193 30.3318C5.70448 31.6978 7.87018 32.4375 10.1492 32.4375C10.6623 32.4441 11.1754 32.4042 11.6752 32.3309Z" fill="black"/>
</svg>
