<svg width="76" height="74" viewBox="0 0 76 74" fill="none" xmlns="http://www.w3.org/2000/svg">
<path d="M16.055 24.0861C16.055 19.851 18.1329 15.8628 21.6135 13.4178C22.1073 13.0708 22.2267 12.3891 21.8795 11.8951C21.5325 11.4013 20.8509 11.2818 20.3568 11.6291C16.2942 14.4829 13.8688 19.1398 13.8688 24.0861V30.3319C13.8688 30.3319 7.39966 30.3435 7.18286 30.3615V24.0861C7.18286 12.0105 17.0071 2.18628 29.0829 2.18628H45.9303C48.1475 2.18628 50.336 2.51807 52.435 3.17212C53.0117 3.35156 53.6241 3.03018 53.8037 2.45376C53.9833 1.87749 53.6618 1.2646 53.0854 1.08501C50.7756 0.365186 48.3681 0 45.9302 0H29.083C15.8019 0 4.99688 10.805 4.99688 24.086V30.8676C2.07568 32.0087 0 34.8514 0 38.1716V50.615C0 54.9379 3.5168 58.4547 7.8397 58.4547H12.7774C14.5854 58.4547 16.0566 56.9836 16.0566 55.1755L16.055 24.0861ZM13.8705 55.1755C13.8705 55.7783 13.3802 56.2686 12.7774 56.2686H7.8397C4.72236 56.2686 2.18613 53.7324 2.18613 50.615V38.1716C2.18613 35.0543 4.72236 32.5181 7.8397 32.5181H13.8705V55.1755Z" fill="url(#paint0_linear)"/>
<path d="M70.0187 30.8735V24.0866C70.0187 15.4686 65.3554 7.45009 57.8488 3.15971C57.3248 2.86044 56.6571 3.04238 56.3574 3.56635C56.0579 4.09047 56.2399 4.75815 56.7641 5.05771C63.5914 8.95976 67.8327 16.2512 67.8327 24.0866V30.363C67.6117 30.3443 61.1469 30.3324 61.1469 30.3324V24.0866C61.1469 15.6975 54.3219 8.8726 45.9329 8.8726H29.0853C27.7716 8.8726 26.4661 9.0412 25.2052 9.37402C24.6213 9.52797 24.2731 10.1261 24.427 10.7098C24.581 11.2937 25.18 11.6414 25.7628 11.4879C26.842 11.2032 27.9598 11.0589 29.0853 11.0589H45.9327C53.1163 11.0589 58.9606 16.9032 58.9606 24.0868L58.9457 48.2879C58.9457 48.8917 59.4349 49.3809 60.0387 49.3809C60.6425 49.3809 61.1318 48.8917 61.1318 48.2879V32.5185H67.1626C70.2799 32.5185 72.8161 35.0548 72.8161 38.1721V50.6155C72.8161 53.7328 70.2799 56.2691 67.1626 56.2691H62.2249C61.6221 56.2691 61.1318 55.7788 61.1318 55.176V53.439C61.1318 52.8352 60.6425 52.3459 60.0387 52.3459C59.4349 52.3459 58.9457 52.8352 58.9457 53.439V55.176C58.9457 56.9841 60.4168 58.4552 62.2249 58.4552H63.661C63.4566 62.3545 60.7076 65.7134 56.9204 66.6794C56.5345 64.5372 54.6579 62.9064 52.4063 62.9064H46.0524C43.5225 62.9064 41.4642 64.9645 41.4642 67.4945V69.1065C41.4642 71.6363 43.5223 73.6946 46.0524 73.6946H52.4063C54.9361 73.6946 56.9943 71.6365 56.9943 69.1065V68.9057C61.981 67.8602 65.6375 63.5121 65.8503 58.4552H67.1627C71.4856 58.4552 75.0024 54.9384 75.0024 50.6155V38.1721C75.0022 34.8569 72.9329 32.0179 70.0187 30.8735ZM54.8081 69.1065C54.8081 70.4309 53.7305 71.5084 52.4062 71.5084H46.0522C44.7277 71.5084 43.6502 70.4309 43.6502 69.1065V67.4945C43.6502 66.1701 44.7277 65.0926 46.0522 65.0926H52.4062C53.7305 65.0926 54.8081 66.1701 54.8081 67.4945V69.1065Z" fill="url(#paint1_linear)"/>
<path d="M46.1471 53.0845L49.8223 56.9607C50.2575 57.4211 50.9218 57.5612 51.4994 57.3294C52.0847 57.0962 52.4631 56.5381 52.4631 55.908V51.3275C55.1985 49.5042 56.8255 46.4745 56.8255 43.1826V42.0426C56.8255 36.6454 52.4345 32.2544 47.0373 32.2544H43.7695C43.7873 32.0134 43.7985 30.3898 43.7985 30.3898C43.7985 24.9926 39.4075 20.6016 34.0103 20.6016H28.1162C22.719 20.6016 18.3281 24.9926 18.3281 30.3898V31.5299C18.3281 34.8217 19.955 37.8513 22.6904 39.6746V44.8125C22.6904 45.4427 23.0688 46.0008 23.6542 46.234C24.2316 46.4657 24.8962 46.3257 25.3311 45.8654L29.5349 41.4316C29.6032 41.3594 29.6996 41.3181 29.7992 41.3181H31.3846C31.367 41.5576 31.3548 41.7987 31.3548 42.0426V43.1826C31.3548 48.5798 35.7458 52.9708 41.1431 52.9708H45.8827C45.9822 52.9708 46.0786 53.0121 46.1471 53.0845ZM29.799 39.1318C29.1021 39.1318 28.4275 39.4219 27.9482 39.9274L24.8763 43.1675V39.4758C24.8763 38.8512 24.5621 38.2778 24.0357 37.9421C21.8306 36.5358 20.5141 34.1386 20.5141 31.5296V30.3896C20.5141 26.1977 23.9244 22.7874 28.1162 22.7874H34.0103C38.2022 22.7874 41.6126 26.1977 41.6126 30.3896C41.6126 30.3896 41.6007 32.0139 41.578 32.2542H41.1432C39.0103 32.2542 37.0359 32.9421 35.4261 34.1048L34.8787 33.5574C35.1917 33.0599 35.4179 32.5028 35.5352 31.9069H36.5026C37.1064 31.9069 37.5957 31.4177 37.5957 30.8139C37.5957 30.2101 37.1064 29.7208 36.5026 29.7208H35.4688C35.3414 29.2342 35.14 28.7773 34.8787 28.3619L35.4832 27.7573C35.9101 27.3303 35.9101 26.6383 35.4832 26.2113C35.0562 25.7846 34.3642 25.7846 33.9372 26.2113L33.3327 26.8159C32.8761 26.5286 32.3691 26.315 31.828 26.191V25.3377C31.828 24.7339 31.3387 24.2446 30.7349 24.2446C30.1311 24.2446 29.6418 24.7339 29.6418 25.3377V26.191C29.1007 26.315 28.5938 26.5285 28.1372 26.8159L27.5326 26.2113C27.1056 25.7846 26.4136 25.7846 25.9866 26.2113C25.5598 26.6383 25.5598 27.3303 25.9866 27.7573L26.5912 28.3619C26.3039 28.8185 26.0903 29.3254 25.9663 29.8666H25.113C24.5092 29.8666 24.0199 30.3558 24.0199 30.9596C24.0199 31.5634 24.5092 32.0527 25.113 32.0527H25.9663C26.0903 32.5938 26.3038 33.1008 26.5912 33.5574L25.9866 34.1619C25.5598 34.5889 25.5598 35.2809 25.9866 35.7079C26.4136 36.1346 27.1055 36.1346 27.5326 35.7079L28.1372 35.1034C28.5938 35.3906 29.1007 35.6042 29.6418 35.7283V36.5815C29.6418 37.1853 30.1311 37.6746 30.7349 37.6746C31.3387 37.6746 31.828 37.1853 31.828 36.5815V35.7283C32.3691 35.6042 32.8761 35.3908 33.3327 35.1034L33.8046 35.5753C32.9046 36.5955 32.2116 37.8025 31.7968 39.1318H29.799ZM30.7349 33.6666C29.2422 33.6666 28.0279 32.4523 28.0279 30.9596C28.0279 29.4669 29.2422 28.2526 30.7349 28.2526C32.2276 28.2526 33.4419 29.4669 33.4419 30.9596C33.4419 32.4523 32.2276 33.6666 30.7349 33.6666ZM33.541 43.1824V42.0425C33.541 37.8505 36.9513 34.4402 41.1432 34.4402H47.0373C51.2292 34.4402 54.6396 37.8505 54.6396 42.0425V43.1824C54.6396 45.7916 53.3231 48.1887 51.1178 49.5951C50.5913 49.9308 50.2771 50.5043 50.2771 51.1288V54.2631L47.7338 51.5807C47.2545 51.0747 46.5798 50.7847 45.8827 50.7847H41.1431C36.9511 50.7847 33.541 47.3744 33.541 43.1824Z" fill="url(#paint2_linear)"/>
<path d="M43.79 49.5995C44.3622 49.5995 44.8261 49.1356 44.8261 48.5634C44.8261 47.9912 44.3622 47.5273 43.79 47.5273C43.2178 47.5273 42.7539 47.9912 42.7539 48.5634C42.7539 49.1356 43.2178 49.5995 43.79 49.5995Z" fill="url(#paint3_linear)"/>
<path d="M47.3593 39.773C47.2626 37.9122 45.7269 36.4252 43.8626 36.3876C43.8383 36.387 43.8143 36.3867 43.7899 36.3867C42.0113 36.3867 40.4959 37.6979 40.2493 39.4642C40.2264 39.6277 40.2148 39.7951 40.2148 39.9615C40.2148 40.5653 40.7041 41.0546 41.3079 41.0546C41.9117 41.0546 42.401 40.5653 42.401 39.9615C42.401 39.8959 42.4055 39.8303 42.4143 39.7666C42.5113 39.0722 43.1189 38.5645 43.8187 38.5731C44.5426 38.5878 45.1388 39.1645 45.1761 39.8862C45.1962 40.2721 45.0614 40.6381 44.7964 40.917C44.5313 41.1962 44.1737 41.3502 43.7895 41.3502C43.1857 41.3502 42.6964 41.8395 42.6964 42.4433V45.0382C42.6964 45.642 43.1857 46.1313 43.7895 46.1313C44.3933 46.1313 44.8826 45.642 44.8826 45.0382V43.3636C45.4481 43.1811 45.9671 42.8593 46.3818 42.4223C47.0636 41.7044 47.4107 40.7634 47.3593 39.773Z" fill="url(#paint4_linear)"/>
<defs>
<linearGradient id="paint0_linear" x1="-3.5" y1="68" x2="69.5" y2="-2.23293e-06" gradientUnits="userSpaceOnUse">
<stop stop-color="#041C6D"/>
<stop offset="0.0001" stop-color="#041C6D"/>
<stop offset="1" stop-color="#0075FF"/>
</linearGradient>
<linearGradient id="paint1_linear" x1="2.5" y1="74" x2="75" y2="3" gradientUnits="userSpaceOnUse">
<stop stop-color="#041C6D"/>
<stop offset="0.0001" stop-color="#041C6D"/>
<stop offset="1" stop-color="#0075FF"/>
</linearGradient>
<linearGradient id="paint2_linear" x1="-5.5" y1="63.5" x2="74" y2="-0.5" gradientUnits="userSpaceOnUse">
<stop stop-color="#041C6D"/>
<stop offset="0.0001" stop-color="#041C6D"/>
<stop offset="1" stop-color="#0075FF"/>
</linearGradient>
<linearGradient id="paint3_linear" x1="43.79" y1="47.5273" x2="43.79" y2="49.5995" gradientUnits="userSpaceOnUse">
<stop stop-color="#041C6D"/>
<stop offset="0.0001" stop-color="#041C6D"/>
<stop offset="1" stop-color="#0075FF"/>
</linearGradient>
<linearGradient id="paint4_linear" x1="-1" y1="75" x2="70" y2="-2.13642e-07" gradientUnits="userSpaceOnUse">
<stop offset="0.0001" stop-color="#041C6D"/>
<stop offset="1" stop-color="#0075FF"/>
</linearGradient>
</defs>
</svg>
