<svg width="75" height="75" viewBox="0 0 75 75" fill="none" xmlns="http://www.w3.org/2000/svg">
<path d="M20.7812 56.9002C20.7812 57.7093 21.437 58.365 22.2461 58.365C23.0552 58.365 23.7109 57.7093 23.7109 56.9002V46.2148C23.7109 45.4057 23.0552 44.75 22.2461 44.75C21.437 44.75 20.7812 45.4057 20.7812 46.2148V56.9002Z" fill="#042F8C"/>
<path d="M20.7812 38.9861C20.7812 39.7952 21.437 40.451 22.2461 40.451C23.0552 40.451 23.7109 39.7952 23.7109 38.9861V28.3008C23.7109 27.4917 23.0552 26.8359 22.2461 26.8359C21.437 26.8359 20.7812 27.4917 20.7812 28.3008V38.9861Z" fill="#0251C4"/>
<path d="M27.832 39.4023V56.8986C27.832 57.7077 28.4878 58.3635 29.2969 58.3635C30.106 58.3635 30.7617 57.7077 30.7617 56.8986V39.4023C30.7617 38.5932 30.106 37.9375 29.2969 37.9375C28.4878 37.9375 27.832 38.5932 27.832 39.4023Z" fill="#033494"/>
<path d="M30.3326 32.5073C30.0602 32.2349 29.682 32.0781 29.2969 32.0781C28.9118 32.0781 28.5336 32.2349 28.2612 32.5073C27.9888 32.7796 27.832 33.1579 27.832 33.543C27.832 33.9281 27.9888 34.3063 28.2612 34.5787C28.5336 34.851 28.9118 35.0078 29.2969 35.0078C29.682 35.0078 30.0602 34.851 30.3326 34.5787C30.6049 34.3063 30.7617 33.9281 30.7617 33.543C30.7617 33.1579 30.6049 32.7796 30.3326 32.5073Z" fill="#0251C4"/>
<path d="M22.2461 22.2875C23.0552 22.2875 23.7109 21.6312 23.7109 20.8226V10.1367C23.7109 9.32762 23.0552 8.67188 22.2461 8.67188C21.437 8.67188 20.7812 9.32762 20.7812 10.1367V20.8226C20.7812 21.6312 21.437 22.2875 22.2461 22.2875Z" fill="#0253C7"/>
<path d="M33.0121 28.5421C36.9711 28.5421 40.1921 25.3212 40.1921 21.3627C40.1921 20.066 39.8447 18.8495 39.2411 17.7984C39.8447 16.7473 40.1921 15.5313 40.1921 14.2347C40.1921 10.2756 36.9711 7.05469 33.0121 7.05469C29.053 7.05469 25.832 10.2756 25.832 14.2347C25.832 15.5308 26.1794 16.7473 26.783 17.7984C26.1794 18.8495 25.832 20.0655 25.832 21.3627C25.832 25.3212 29.053 28.5421 33.0121 28.5421ZM33.0121 25.6124C30.6683 25.6124 28.7617 23.7058 28.7617 21.3627C28.7617 20.9392 28.8247 20.5301 28.9402 20.1439C30.0984 20.9444 31.5009 21.4147 33.0121 21.4147C34.5227 21.4147 35.9257 20.9444 37.0833 20.1439C37.1989 20.5301 37.2624 20.9392 37.2624 21.3627C37.2624 23.7058 35.3558 25.6124 33.0121 25.6124ZM30.7003 17.7984C31.3664 17.3652 32.16 17.1123 33.0121 17.1123C33.8641 17.1123 34.6577 17.3652 35.3238 17.7984C34.6577 18.2321 33.8641 18.485 33.0121 18.485C32.16 18.485 31.3664 18.2321 30.7003 17.7984ZM33.0121 9.98438C35.3558 9.98438 37.2624 11.891 37.2624 14.2347C37.2624 14.6581 37.1994 15.0667 37.0833 15.4529C35.9257 14.6524 34.5232 14.1826 33.0121 14.1826C31.5009 14.1826 30.0984 14.6524 28.9402 15.4529C28.8247 15.0667 28.7617 14.6581 28.7617 14.2347C28.7617 11.891 30.6683 9.98438 33.0121 9.98438Z" fill="url(#paint0_linear)"/>
<path d="M15.4364 58.3648C16.2449 58.3648 16.9012 57.709 16.9012 56.8999V44.332C16.9012 43.5229 16.2449 42.8672 15.4364 42.8672H7.41406C6.60497 42.8672 5.94922 43.5229 5.94922 44.332V56.8999C5.94922 57.709 6.60497 58.3648 7.41406 58.3648H15.4364ZM8.87891 45.7969H13.9715V55.4357H8.87891V45.7969Z" fill="url(#paint1_linear)"/>
<path d="M1.46484 15.5C1.84994 15.5 2.22816 15.3438 2.50053 15.0708C2.7729 14.7985 2.92969 14.4208 2.92969 14.0352C2.92969 13.6501 2.7729 13.2724 2.50053 13C2.22816 12.7271 1.84994 12.5703 1.46484 12.5703C1.07975 12.5703 0.701523 12.7271 0.429154 13C0.156784 13.2724 0 13.6501 0 14.0352C0 14.4208 0.156784 14.7985 0.429154 15.0708C0.701523 15.3438 1.07975 15.5 1.46484 15.5Z" fill="#033EA5"/>
<path d="M74.283 39.7802L56.2746 29.0806C55.8134 28.8065 55.2389 28.8065 54.7777 29.0806L46.051 34.2653V4.95586C46.0516 2.22301 43.828 0 41.0952 0H4.95586C2.22301 0 0 2.22301 0 4.95586V8.17795C0 8.98705 0.655746 9.64279 1.46484 9.64279C2.27337 9.64279 2.92969 8.98705 2.92969 8.17795V4.95586C2.92969 3.83835 3.83835 2.92969 4.95586 2.92969H41.0952C42.2127 2.92969 43.1219 3.83835 43.1219 4.95586V36.0065L36.7699 39.7802C36.3258 40.044 36.0535 40.523 36.0535 41.0397V48.6259C36.0535 54.3148 37.7781 59.6861 40.8079 64.1602H4.95586C3.83835 64.1602 2.92969 63.2515 2.92969 62.134V19.8967C2.92969 19.0876 2.27337 18.4319 1.46484 18.4319C0.655746 18.4319 0 19.0876 0 19.8967V62.134C0 64.8663 2.22301 67.0898 4.95586 67.0898H42.7729C42.873 67.0898 42.9714 67.0795 43.0658 67.0607C46.2278 70.6066 50.322 73.3601 55.0672 74.9262C55.216 74.9754 55.3711 75 55.5262 75C55.6812 75 55.8363 74.9754 55.9856 74.9262C67.3582 71.1714 74.9994 60.6028 74.9994 48.6259V41.0397C74.9994 40.523 74.7271 40.044 74.283 39.7802ZM72.0697 48.6259C72.0697 59.1734 65.4419 68.5003 55.5262 71.9873C45.6104 68.5003 38.9826 59.1734 38.9826 48.6259V41.8728L55.5262 32.0435L72.0697 41.8734V48.6259Z" fill="url(#paint2_linear)"/>
<path d="M54.7795 35.897L42.631 43.1153C42.1864 43.3791 41.9141 43.8575 41.9141 44.3748V48.6268C41.9141 57.2843 47.0261 65.1269 54.938 68.6076C55.1257 68.69 55.3271 68.7318 55.528 68.7318C55.7288 68.7318 55.9296 68.6906 56.1179 68.6076C64.0298 65.1269 69.1418 57.2843 69.1418 48.6268V44.3748C69.1418 43.8581 68.8695 43.3791 68.4254 43.1153L56.2764 35.897C55.8152 35.6229 55.2413 35.6229 54.7795 35.897ZM66.2122 45.2079V48.6268C66.2122 55.9052 62.0402 62.5182 55.528 65.6545C49.0163 62.5182 44.8437 55.9052 44.8437 48.6268V45.2079L55.528 38.8598L66.2122 45.2079Z" fill="url(#paint3_linear)"/>
<path d="M53.7194 51.1763C53.1472 50.6041 52.2203 50.6041 51.6475 51.1763C51.0758 51.748 51.0758 52.6755 51.6475 53.2477L54.0336 55.6338C54.3197 55.9193 54.6945 56.063 55.0693 56.063C55.4441 56.063 55.8188 55.9193 56.1049 55.6338L61.91 49.8288C62.4822 49.2566 62.4822 48.3291 61.91 47.7568C61.3378 47.1852 60.4102 47.1852 59.838 47.7568L55.0693 52.5262L53.7194 51.1763Z" fill="url(#paint4_linear)"/>
<defs>
<linearGradient id="paint0_linear" x1="-7.5" y1="73.5" x2="68.5" y2="-2.50001" gradientUnits="userSpaceOnUse">
<stop stop-color="#041C6D"/>
<stop offset="1" stop-color="#0075FF"/>
</linearGradient>
<linearGradient id="paint1_linear" x1="1.5" y1="66" x2="74" y2="-5" gradientUnits="userSpaceOnUse">
<stop stop-color="#041C6D"/>
<stop offset="1" stop-color="#0075FF"/>
</linearGradient>
<linearGradient id="paint2_linear" x1="-1.58399e-06" y1="75" x2="75" y2="-2.89527e-06" gradientUnits="userSpaceOnUse">
<stop stop-color="#041C6D"/>
<stop offset="1" stop-color="#0075FF"/>
</linearGradient>
<linearGradient id="paint3_linear" x1="2.4428e-06" y1="69" x2="71" y2="-4" gradientUnits="userSpaceOnUse">
<stop stop-color="#041C6D"/>
<stop offset="1" stop-color="#0075FF"/>
</linearGradient>
<linearGradient id="paint4_linear" x1="-9" y1="73" x2="72.5" y2="-3.5" gradientUnits="userSpaceOnUse">
<stop stop-color="#041C6D"/>
<stop offset="1" stop-color="#0075FF"/>
</linearGradient>
</defs>
</svg>
