<svg width="62" height="82" viewBox="0 0 62 82" fill="none" xmlns="http://www.w3.org/2000/svg">
<path d="M13.0853 39.6895H6.07233C5.08763 39.6895 4.28662 38.8885 4.28662 37.9038V32.0957C4.28662 31.3912 4.85773 30.8201 5.56222 30.8201C6.26672 30.8201 6.83783 31.391 6.83783 32.0957V37.1385H12.3202V24.0766C12.3202 23.1857 13.0451 22.461 13.9358 22.461H16.6068V16.9783H13.9358C13.0449 16.9783 12.3202 16.2534 12.3202 15.3626V13.5727C12.3202 10.5183 14.805 8.03357 17.8593 8.03357H19.068V2.55104H17.8595C11.782 2.55104 6.83783 7.49525 6.83783 13.5728V15.3626C6.83783 16.2535 6.11294 16.9783 5.22221 16.9783H2.55121V22.4606H5.22221C6.11311 22.4606 6.83783 23.1855 6.83783 24.0762V25.6723C6.83783 26.3768 6.26672 26.9479 5.56222 26.9479C4.85773 26.9479 4.28662 26.377 4.28662 25.6723V25.0117H1.78571C0.801012 25.0117 0 24.2106 0 23.2259V16.2129C0 15.2282 0.801182 14.4272 1.78571 14.4272H4.28662V13.5728C4.28662 6.08881 10.3753 0 17.8593 0H19.8331C20.8178 0 21.6188 0.801012 21.6188 1.78571V8.79872C21.6188 9.78342 20.8176 10.5844 19.8331 10.5844H17.8591C16.2114 10.5844 14.8711 11.9249 14.8711 13.5725V14.427H17.372C18.3567 14.427 19.1577 15.2281 19.1577 16.2128V23.2258C19.1577 24.2105 18.3565 25.0115 17.372 25.0115H14.8711V37.9033C14.8711 38.8885 14.0699 39.6895 13.0853 39.6895Z" fill="url(#paint0_linear)"/>
<path d="M54.5637 42.7067H35.1274C31.193 42.7067 27.9922 39.5059 27.9922 35.5715V16.1354C27.9922 12.201 31.193 9 35.1274 9H37.2604C37.9649 9 38.536 9.57094 38.536 10.2756C38.536 10.9803 37.9649 11.5512 37.2604 11.5512H35.1274C32.5996 11.5512 30.5432 13.6078 30.5432 16.1354V35.5715C30.5432 38.0993 32.5996 40.1555 35.1274 40.1555H54.5635C57.0913 40.1555 59.1477 38.0991 59.1477 35.5715V16.1354C59.1477 13.6076 57.0913 11.5512 54.5635 11.5512H43.6982C42.9937 11.5512 42.4226 10.9803 42.4226 10.2756C42.4226 9.57094 42.9937 9 43.6982 9H54.5635C58.4979 9 61.6987 12.2008 61.6987 16.1354V35.5715C61.6989 39.5059 58.4981 42.7067 54.5637 42.7067Z" fill="url(#paint1_linear)"/>
<path d="M44.8483 33.3176C40.7318 33.3176 37.3828 29.9686 37.3828 25.8522C37.3828 21.7357 40.7318 18.3867 44.8483 18.3867C48.9649 18.3867 52.3138 21.7357 52.3138 25.8522C52.3138 29.9686 48.9649 33.3176 44.8483 33.3176ZM44.8483 20.9379C42.1386 20.9379 39.934 23.1425 39.934 25.8522C39.934 28.562 42.1386 30.7664 44.8483 30.7664C47.5581 30.7664 49.7626 28.562 49.7626 25.8522C49.7626 23.1425 47.5581 20.9379 44.8483 20.9379Z" fill="url(#paint2_linear)"/>
<path d="M53.5998 18.9026C54.5955 18.9026 55.4026 18.0954 55.4026 17.0997C55.4026 16.104 54.5955 15.2969 53.5998 15.2969C52.6041 15.2969 51.7969 16.104 51.7969 17.0997C51.7969 18.0954 52.6041 18.9026 53.5998 18.9026Z" fill="#016FF4"/>
<path d="M29.7568 47.5197L29.8232 47.5195C29.8241 47.5195 29.8248 47.5195 29.8258 47.5195C30.3307 47.5195 30.7408 47.9282 30.7422 48.4335C30.7422 48.4342 30.7422 48.435 30.7422 48.4357C30.7424 48.9408 30.3336 49.351 29.8282 49.3524L29.7618 49.3526C29.761 49.3526 29.7601 49.3526 29.7593 49.3526C29.2544 49.3526 28.8443 48.9439 28.8429 48.4386C28.8429 48.4379 28.8429 48.4372 28.8429 48.4364C28.8427 47.9313 29.2514 47.5211 29.7568 47.5197Z" fill="url(#paint3_linear)"/>
<path d="M7.50011 53.2099C8.10184 50.922 9.87688 49.1202 12.1319 48.5077C14.4574 47.8743 20.9407 47.6411 25.9701 47.557C26.4732 47.5502 26.8933 47.952 26.9017 48.4581C26.9102 48.9641 26.5067 49.3813 26.0007 49.3897C19.0395 49.5061 14.2852 49.8209 12.613 50.2763C10.9881 50.7176 9.70817 52.0203 9.27259 53.6766C8.37173 57.0934 8.36074 64.3986 8.36074 64.4719C8.36074 64.5453 8.37173 71.8506 9.27267 75.2679C9.70816 76.9236 10.9881 78.2263 12.6135 78.6678C15.9721 79.5824 29.8488 79.5931 29.9885 79.5931C30.1283 79.5931 44.005 79.5823 47.3641 78.6676C48.9889 78.2263 50.2689 76.9236 50.7045 75.2673C51.6054 71.8506 51.6164 64.5453 51.6164 64.472C51.6164 64.3986 51.6054 57.0934 50.7044 53.6762C50.2689 52.0204 48.9889 50.7177 47.3636 50.2762C45.6547 49.8108 40.7598 49.4938 33.5805 49.3834C33.0744 49.3757 32.6706 48.9591 32.6783 48.453C32.6861 47.947 33.104 47.5464 33.6087 47.5508C38.7929 47.6305 45.4709 47.8612 47.8446 48.5076C50.1002 49.1202 51.8752 50.9221 52.4768 53.2094C53.4381 56.8557 53.4492 64.1627 53.4492 64.472C53.4492 64.7813 53.4381 72.0883 52.477 75.734C51.8752 78.0219 50.1002 79.8237 47.8451 80.4363C44.252 81.4147 30.5692 81.426 29.9885 81.426C29.4079 81.426 15.7251 81.4147 12.1325 80.4364C9.87688 79.8238 8.10184 78.0219 7.5003 75.7346C6.53896 72.0883 6.52787 64.7813 6.52787 64.472C6.52787 64.1627 6.53896 56.8557 7.50011 53.2099Z" fill="url(#paint4_linear)"/>
<path d="M48.1343 62.0469C48.6405 62.0469 49.0508 62.4572 49.0508 62.9633V70.4322C49.0508 70.9384 48.6405 71.3487 48.1343 71.3487C47.6282 71.3487 47.2179 70.9384 47.2179 70.4322V62.9633C47.2179 62.4572 47.6282 62.0469 48.1343 62.0469Z" fill="#0248B5"/>
<path d="M48.1343 57.875C48.6405 57.875 49.0508 58.2853 49.0508 58.7914V58.8022C49.0508 59.3084 48.6405 59.7187 48.1343 59.7187C47.6282 59.7187 47.2179 59.3084 47.2179 58.8022V58.7914C47.2179 58.2853 47.6282 57.875 48.1343 57.875Z" fill="url(#paint5_linear)"/>
<path d="M34.84 65.4066L23.4763 72.0049C23.1927 72.1696 22.8429 72.1703 22.5588 72.0067C22.2747 71.8431 22.0996 71.5402 22.0996 71.2124L22.0996 58.0158C22.0996 57.6879 22.2747 57.3851 22.5588 57.2215C22.7003 57.14 22.8581 57.0993 23.016 57.0993C23.175 57.0993 23.334 57.1406 23.4763 57.2232L34.84 63.8216C35.1226 63.9856 35.2963 64.2875 35.2963 64.6141C35.2963 64.9407 35.1225 65.2426 34.84 65.4066ZM23.9325 59.6076L23.9325 69.6206L32.5547 64.6141L23.9325 59.6076Z" fill="url(#paint6_linear)"/>
<defs>
<linearGradient id="paint0_linear" x1="-9" y1="79" x2="62.5" y2="-5.83718e-06" gradientUnits="userSpaceOnUse">
<stop stop-color="#041C6E"/>
<stop offset="1" stop-color="#0075FF"/>
</linearGradient>
<linearGradient id="paint1_linear" x1="-10.5" y1="82" x2="62" y2="9" gradientUnits="userSpaceOnUse">
<stop stop-color="#041C6E"/>
<stop offset="1" stop-color="#0075FF"/>
</linearGradient>
<linearGradient id="paint2_linear" x1="-3" y1="79.5" x2="68.5" y2="3" gradientUnits="userSpaceOnUse">
<stop stop-color="#041C6E"/>
<stop offset="1" stop-color="#0075FF"/>
</linearGradient>
<linearGradient id="paint3_linear" x1="29.7925" y1="47.5195" x2="29.7925" y2="49.3526" gradientUnits="userSpaceOnUse">
<stop stop-color="#041C6E"/>
<stop offset="1" stop-color="#0075FF"/>
</linearGradient>
<linearGradient id="paint4_linear" x1="-7" y1="81" x2="64.5" y2="4" gradientUnits="userSpaceOnUse">
<stop stop-color="#041C6E"/>
<stop offset="1" stop-color="#0075FF"/>
</linearGradient>
<linearGradient id="paint5_linear" x1="48.1343" y1="57.875" x2="48.1343" y2="59.7187" gradientUnits="userSpaceOnUse">
<stop stop-color="#041C6E"/>
<stop offset="1" stop-color="#0075FF"/>
</linearGradient>
<linearGradient id="paint6_linear" x1="3" y1="81.5" x2="63.5" y2="5" gradientUnits="userSpaceOnUse">
<stop stop-color="#041C6E"/>
<stop offset="1" stop-color="#0075FF"/>
</linearGradient>
</defs>
</svg>
