<svg width="75" height="75" viewBox="0 0 75 75" fill="none" xmlns="http://www.w3.org/2000/svg">
<path d="M55.3753 10.9297C56.1842 10.9297 56.8402 10.2737 56.8402 9.46485C56.8402 8.65596 56.1842 8 55.3753 8H55.367C54.5581 8 53.9062 8.65596 53.9062 9.46485C53.9062 10.2737 54.5665 10.9297 55.3753 10.9297Z" fill="#016EF2"/>
<path d="M63.2816 10.9297C64.0905 10.9297 64.7464 10.2737 64.7464 9.46485C64.7464 8.65596 64.0905 8 63.2816 8H63.2732C62.4644 8 61.8125 8.65596 61.8125 9.46485C61.8125 10.2737 62.4727 10.9297 63.2816 10.9297Z" fill="#016EF2"/>
<path d="M47.4691 10.9297C48.278 10.9297 48.9339 10.2737 48.9339 9.46485C48.9339 8.65596 48.278 8 47.4691 8H47.4607C46.6519 8 46 8.65596 46 9.46485C46 10.2737 46.6601 10.9297 47.4691 10.9297Z" fill="#016EF2"/>
<path d="M10.293 10.6406H32.304C33.113 10.6406 33.7688 9.98467 33.7688 9.17578C33.7688 8.3669 33.113 7.71094 32.304 7.71094H10.293C9.48394 7.71094 8.82812 8.3669 8.82812 9.17578C8.82812 9.98467 9.48394 10.6406 10.293 10.6406Z" fill="#033B9F"/>
<path d="M70.3006 0H4.69951C2.1082 0 0 2.10806 0 4.69937V58.94C0 61.5312 2.1082 63.6394 4.69951 63.6394H16.4232C17.3581 65.0547 18.4431 66.3844 19.6705 67.6118C24.4336 72.3748 30.7655 74.9979 37.5 74.9979C44.2346 74.9979 50.5666 72.3748 55.3296 67.6118C56.5645 66.3768 57.6441 65.0445 58.5687 63.6394H70.3006C72.8918 63.6394 75 61.5312 75 58.94V4.69937C75 2.10806 72.8918 0 70.3006 0ZM4.69951 2.92969H70.3006C71.2764 2.92969 72.0703 3.72363 72.0703 4.69937V15.4255H2.92969V4.69937C2.92969 3.72363 3.72363 2.92969 4.69951 2.92969ZM70.3006 60.7097H60.2235C64.7234 51.3293 63.0933 39.7207 55.3296 31.9569C51.3825 28.0099 46.3787 25.5334 40.8592 24.7954C35.5172 24.0814 29.9916 25.1171 25.2998 27.7122C24.5918 28.1039 24.3353 28.9951 24.7269 29.7031C25.1184 30.411 26.0099 30.6674 26.7176 30.276C35.3565 25.4975 46.2702 27.0407 53.2579 34.0285C61.9458 42.7163 61.9458 56.8525 53.2579 65.54C49.0482 69.7497 43.452 72.0681 37.5 72.0681C31.548 72.0681 25.9518 69.7497 21.7421 65.54C14.7554 58.5535 13.2123 47.6414 17.9895 39.0041C18.381 38.2961 18.1245 37.4049 17.4166 37.0132C16.7089 36.6217 15.8174 36.8782 15.4258 37.5861C12.8307 42.2779 11.7949 47.803 12.509 53.1435C12.8651 55.8059 13.627 58.3478 14.7624 60.7096H4.69951C3.72363 60.7096 2.92969 59.9156 2.92969 58.9399V18.3549H72.0703V58.9399C72.0703 59.9158 71.2764 60.7097 70.3006 60.7097Z" fill="url(#paint0_linear)"/>
<path d="M37.4961 51.7968C36.6871 51.7968 36.0313 52.4528 36.0313 53.2617L36.0313 56.7578C36.0313 57.5667 36.6872 58.2227 37.4961 58.2227C38.305 58.2227 38.9609 57.5667 38.9609 56.7578L38.9609 53.2617C38.9609 52.4526 38.3051 51.7968 37.4961 51.7968Z" fill="url(#paint1_linear)"/>
<path d="M37.4965 66.5742C44.4173 66.5742 50.0477 60.9437 50.0477 54.0229V48.4214C50.0477 46.5262 48.685 44.9442 46.8881 44.6014V40.7606C46.8881 36.4362 43.3698 32.918 39.0453 32.918H35.9477C31.6234 32.918 28.1051 36.4362 28.1051 40.7606V44.602C26.3079 44.9459 24.9453 46.5274 24.9453 48.4214V54.0229C24.9452 60.9438 30.5757 66.5742 37.4965 66.5742ZM31.0348 40.7606C31.0348 38.0517 33.2387 35.8477 35.9477 35.8477H39.0453C41.7544 35.8477 43.9584 38.0517 43.9584 40.7606V44.5317H31.0348V40.7606ZM27.8749 48.4214C27.8749 47.901 28.3165 47.4614 28.8392 47.4614H46.158C46.6785 47.4614 47.1181 47.901 47.1181 48.4214V54.0229C47.1181 59.3282 42.8019 63.6445 37.4965 63.6445C32.1912 63.6445 27.8749 59.3282 27.8749 54.0229V48.4214Z" fill="url(#paint2_linear)"/>
<path d="M19.6712 31.9573C19.0992 32.5293 19.0992 33.4569 19.6712 34.029C19.9573 34.315 20.3321 34.4581 20.707 34.4581C21.0819 34.4581 21.4569 34.315 21.7428 34.029L21.7469 34.0249C22.3189 33.4529 22.3169 32.5274 21.7448 31.9554C21.1728 31.3834 20.2434 31.3853 19.6712 31.9573Z" fill="#0341A9"/>
<defs>
<linearGradient id="paint0_linear" x1="4.68925e-07" y1="60" x2="75" y2="3.28663e-06" gradientUnits="userSpaceOnUse">
<stop stop-color="#041C6E"/>
<stop offset="1" stop-color="#0074FC"/>
</linearGradient>
<linearGradient id="paint1_linear" x1="33.5" y1="58.5" x2="37.4961" y2="51.7968" gradientUnits="userSpaceOnUse">
<stop stop-color="#041C6E"/>
<stop offset="1" stop-color="#0074FC"/>
</linearGradient>
<linearGradient id="paint2_linear" x1="25" y1="67" x2="50" y2="33" gradientUnits="userSpaceOnUse">
<stop stop-color="#041C6E"/>
<stop offset="1" stop-color="#0074FC"/>
</linearGradient>
</defs>
</svg>
