<svg width="75" height="75" viewBox="0 0 75 75" fill="none" xmlns="http://www.w3.org/2000/svg">
<path d="M45.7543 53.3239C45.691 52.2758 45.2315 51.2739 44.4603 50.5029L38.8959 44.938C39.7948 44.6535 40.606 44.1641 41.2667 43.5036L41.4082 43.3619C43.8604 40.91 43.6636 36.7239 40.9697 34.03C39.6879 32.7484 38.0298 31.9853 36.3008 31.8808C34.5042 31.7723 32.8488 32.38 31.6371 33.5918L31.4956 33.7333C30.8346 34.394 30.345 35.2054 30.0607 36.1045L24.4955 30.5398C22.8556 28.9 20.2864 28.801 18.7678 30.319L13.7241 35.3625C13.1069 35.9796 12.8502 36.8767 13.0374 37.7619C13.2411 38.7244 13.9124 39.5115 14.8335 39.8673C15.4149 40.092 15.9422 40.4381 16.4003 40.8962L16.5601 41.056C17.3351 41.8309 17.7956 42.8159 17.8567 43.8295C17.914 44.7764 17.6092 45.6342 16.9986 46.2448C16.388 46.8553 15.5298 47.1609 14.5831 47.1027C13.5694 47.0416 12.5842 46.5811 11.8093 45.8062L11.6495 45.6464C11.1914 45.1883 10.8452 44.6611 10.6205 44.0799C10.2647 43.1588 9.47754 42.4874 8.51476 42.2838C7.62948 42.0966 6.73234 42.3533 6.115 42.9704L1.07696 48.0083C-0.441184 49.5264 -0.342298 52.0955 1.29774 53.7354L6.86286 59.3002C5.96367 59.5846 5.15222 60.0742 4.49137 60.7348L4.34971 60.8765C1.89764 63.3285 2.09439 67.5145 4.78832 70.2084C6.21857 71.6384 8.06883 72.3648 9.85741 72.3645C11.4381 72.3645 12.9706 71.797 14.1209 70.6467L14.2626 70.5052C14.9234 69.8444 15.4129 69.0331 15.6974 68.1337L21.2625 73.6985C22.0337 74.4696 23.0357 74.929 24.0839 74.9924C24.1642 74.9972 24.2443 74.9997 24.3241 74.9997C25.3358 74.9997 26.2967 74.6129 26.9904 73.9193L31.7877 69.1224C32.1604 70.0285 32.7089 70.8471 33.4193 71.5577L33.5791 71.7175C36.273 74.411 40.4596 74.6077 42.9118 72.1559C45.364 69.7039 45.1673 65.5177 42.4734 62.824L42.3135 62.6642C41.603 61.9537 40.7844 61.4054 39.878 61.0328L44.6811 56.2301C45.4295 55.4816 45.8207 54.4225 45.7543 53.3239ZM42.6095 54.1586L37.5657 59.2019C36.9487 59.819 36.6919 60.7159 36.8791 61.6011C37.0826 62.5638 37.754 63.3509 38.6751 63.7068C39.2566 63.9315 39.7838 64.2777 40.2419 64.7359L40.4017 64.8957C41.9533 66.4471 42.15 68.7746 40.8402 70.0843C39.5305 71.394 37.2024 71.1973 35.6511 69.6459L35.4913 69.4861C35.0332 69.028 34.6869 68.5008 34.4622 67.9196C34.1063 66.9985 33.319 66.3271 32.3563 66.1237C31.4708 65.9365 30.5738 66.1933 29.9568 66.8102L24.9188 71.848C24.716 72.0507 24.4491 72.0803 24.2607 72.0683C23.9327 72.0485 23.5952 71.8877 23.3345 71.6272L21.1021 69.395L25.9637 64.5337C26.5358 63.9617 26.5358 63.0342 25.9637 62.462C25.3917 61.8898 24.464 61.89 23.8918 62.462L19.0302 67.3232L17.5132 65.8064C16.9584 65.2517 16.2277 64.9515 15.4912 64.9515C15.2366 64.9515 14.9811 64.9875 14.7321 65.0612C13.8314 65.328 13.1767 66.0368 12.9809 66.9575C12.8578 67.5356 12.5919 68.0322 12.1905 68.4336L12.0489 68.5751C10.7392 69.8848 8.41105 69.6881 6.85979 68.1367C5.30824 66.5852 5.11149 64.2578 6.42118 62.948L6.56284 62.8064C6.96424 62.405 7.46087 62.1392 8.03909 62.0161C8.95997 61.8203 9.66887 61.1655 9.93564 60.2648C10.2225 59.2961 9.93681 58.2307 9.19041 57.4843L3.3695 51.6635C3.10888 51.403 2.94817 51.0654 2.92825 50.7374C2.91682 50.5492 2.94597 50.2823 3.14858 50.0794L7.94592 45.2825C8.31861 46.1887 8.86709 47.0072 9.57745 47.7178L9.73728 47.8776C12.4314 50.5713 16.6178 50.7679 19.0702 48.316C21.5222 45.864 21.3256 41.678 18.6316 38.9841L18.4717 38.8243C17.7612 38.1139 16.9426 37.5656 16.0362 37.1929L20.8393 32.3903C21.209 32.0209 21.9345 32.1219 22.4235 32.611L28.2447 38.4316C28.9911 39.1781 30.0566 39.4636 31.0255 39.1768C31.9262 38.9102 32.5809 38.2012 32.7769 37.2804C32.8998 36.7023 33.1657 36.2058 33.5672 35.8044L33.7089 35.6627C34.3195 35.0523 35.1771 34.7477 36.1243 34.8048C37.1381 34.8659 38.1233 35.3264 38.8981 36.1013C40.4496 37.6529 40.6464 39.9805 39.3366 41.2899L39.195 41.4316C38.7936 41.833 38.297 42.0988 37.7189 42.2219C36.7981 42.4177 36.089 43.0723 35.8222 43.9731C35.5354 44.9418 35.8209 46.0073 36.5675 46.7538L42.3887 52.5745C42.6492 52.8349 42.81 53.1724 42.8298 53.5004C42.8412 53.6888 42.8122 53.9557 42.6095 54.1586Z" fill="url(#paint0_linear)"/>
<path d="M29.7192 58.7026C29.4468 58.4302 29.0688 58.2734 28.6836 58.2734C28.2983 58.2734 27.9204 58.4302 27.6479 58.7026C27.3755 58.9751 27.2188 59.353 27.2188 59.7383C27.2188 60.1235 27.3755 60.5015 27.6479 60.7739C27.9204 61.0464 28.2969 61.2031 28.6836 61.2031C29.0688 61.2031 29.4468 61.0464 29.7192 60.7739C29.9917 60.5015 30.1484 60.1235 30.1484 59.7383C30.1484 59.353 29.9917 58.9751 29.7192 58.7026Z" fill="#0340A9"/>
<path d="M58.7058 18.6595C58.4486 18.9464 58.3128 19.3324 58.3339 19.717C58.355 20.1017 58.5322 20.4705 58.8191 20.7276C59.1061 20.9848 59.492 21.1206 59.8767 21.0995C60.2614 21.0784 60.6302 20.9012 60.8873 20.6143C61.1444 20.3273 61.2803 19.9414 61.2592 19.5567C61.2381 19.172 61.0609 18.8032 60.7739 18.5461C60.487 18.289 60.101 18.1531 59.7164 18.1742C59.3317 18.1953 58.9629 18.3725 58.7058 18.6595Z" fill="#0166E5"/>
<path d="M71.8022 33.6666C71.0063 32.8707 70.0433 32.2619 69.0082 31.8986L73.9194 26.9879C74.6678 26.2397 75.059 25.1803 74.9926 24.0817C74.9293 23.0336 74.4698 22.0316 73.6986 21.2605L68.2433 15.8049C69.0124 15.5112 69.7118 15.0606 70.2887 14.4836L70.4304 14.3419C72.8825 11.8899 72.6859 7.70387 69.9918 5.01003C67.298 2.31648 63.1114 2.11975 60.659 4.5716L60.5174 4.71325C59.9403 5.2904 59.4896 5.98986 59.1958 6.75919L53.7337 1.29768C52.0936 -0.34221 49.5244 -0.441234 48.0059 1.07693L43.0948 5.98766C42.7315 4.9526 42.1226 3.98976 41.3267 3.19392L41.1669 3.0341C38.4729 0.340405 34.2864 0.143824 31.8341 2.59567C29.3821 5.04767 29.5787 9.23389 32.2725 11.9273L32.4326 12.0874C33.2284 12.8831 34.1913 13.4919 35.2266 13.8553L30.3153 18.7661C28.797 20.2842 28.896 22.8533 30.5365 24.4936L36.3628 30.315C37.1095 31.0615 38.1754 31.3468 39.1438 31.0602C40.0444 30.7934 40.6991 30.0844 40.8951 29.1638C41.018 28.5858 41.2839 28.0892 41.6855 27.6878L41.8271 27.5462C42.4377 26.9356 43.2971 26.6305 44.2426 26.6881C45.2563 26.7493 46.2414 27.2098 47.0164 27.9847C47.7913 28.7596 48.2518 29.7446 48.313 30.7583C48.3703 31.7053 48.0654 32.5631 47.4548 33.1736L47.3133 33.3151C46.9119 33.7165 46.4153 33.9824 45.8372 34.1054C44.9163 34.3013 44.2074 34.9559 43.9407 35.8565C43.6538 36.825 43.9392 37.8903 44.6854 38.6368L50.5012 44.4566C51.3628 45.3181 52.4807 45.7543 53.5681 45.7543C54.5507 45.7543 55.5083 45.398 56.2291 44.6773L61.1403 39.7666C61.5036 40.8015 62.1124 41.7645 62.9082 42.5602L63.0682 42.7202C65.7623 45.4138 69.9487 45.6104 72.4009 43.1586C74.853 40.7066 74.6564 36.5204 71.9625 33.8267L71.8022 33.6666ZM70.3286 41.0866C69.0189 42.3963 66.6909 42.1996 65.1395 40.6481L64.9797 40.4883C64.4693 39.9781 64.0868 39.3613 63.8736 38.7046C63.5638 37.7507 62.7651 37.0125 61.7891 36.7782C60.878 36.5595 59.9531 36.8097 59.3149 37.4478L54.1569 42.6053C53.954 42.808 53.6868 42.8373 53.4988 42.8256C53.1708 42.8058 52.8333 42.645 52.5731 42.3848L47.013 36.8209C47.9123 36.5365 48.7238 36.0469 49.3846 35.3863L49.5261 35.2446C50.738 34.0329 51.3456 32.3766 51.2372 30.5813C51.1328 28.8524 50.3695 27.1943 49.0878 25.9129C47.8061 24.6314 46.1481 23.8679 44.419 23.7635C42.6226 23.6557 40.9669 24.2627 39.7552 25.4743L39.6136 25.6159C38.9527 26.2769 38.4631 27.0883 38.1788 27.9874L32.6081 22.4214C32.3475 22.161 32.1868 21.8233 32.1668 21.4953C32.1554 21.3071 32.1846 21.0401 32.3872 20.8373L37.5453 15.6798C38.1835 15.0417 38.4337 14.1168 38.215 13.2057C37.9804 12.2298 37.2422 11.4312 36.2884 11.1215C35.6318 10.9082 35.0149 10.5257 34.5048 10.0157L34.3447 9.85557C32.7931 8.30416 32.5964 5.97667 33.9062 4.66696C35.2157 3.35725 37.5439 3.55383 39.0953 5.10539L39.2551 5.2652C39.7655 5.7754 40.148 6.39225 40.3613 7.04894C40.6711 8.00284 41.4698 8.74097 42.4458 8.9752C43.3569 9.1939 44.2818 8.94356 44.92 8.30562L50.0779 3.14807C50.4476 2.77878 51.1729 2.87971 51.6621 3.36882L57.3541 9.06046C58.0756 9.78189 59.1113 10.0762 60.0566 9.82774C60.934 9.59747 61.6032 8.93931 61.8464 8.06729C61.9851 7.57042 62.2351 7.13888 62.5893 6.78468L62.7309 6.64303C64.0405 5.33331 66.3686 5.5299 67.92 7.08146C69.4716 8.63287 69.6683 10.9604 68.3585 12.2701L68.2168 12.4117C67.8626 12.7661 67.431 13.016 66.9342 13.1545C66.0621 13.3979 65.4039 14.0668 65.1736 14.9441C64.9255 15.8895 65.2195 16.925 65.941 17.6466L71.6267 23.3318C71.8873 23.5923 72.048 23.9299 72.0679 24.2579C72.0794 24.4461 72.0502 24.7132 71.8475 24.9159L69.4965 27.2667L64.6416 22.412C64.0693 21.84 63.1419 21.84 62.5698 22.412C61.9977 22.9841 61.9976 23.9116 62.5698 24.4836L67.4247 29.3382L66.6893 30.0736C66.0513 30.7117 65.8009 31.6366 66.0197 32.5476C66.2541 33.5234 66.9923 34.3221 67.9461 34.6319C68.6028 34.8452 69.2196 35.2276 69.73 35.738L69.8898 35.8978C71.4418 37.4494 71.6384 39.7771 70.3286 41.0866Z" fill="url(#paint1_linear)"/>
<defs>
<linearGradient id="paint0_linear" x1="1.83271e-06" y1="75" x2="46" y2="29" gradientUnits="userSpaceOnUse">
<stop stop-color="#041C6E"/>
<stop offset="1" stop-color="#0075FE"/>
</linearGradient>
<linearGradient id="paint1_linear" x1="9" y1="70" x2="52" y2="3.46636e-06" gradientUnits="userSpaceOnUse">
<stop stop-color="#041C6E"/>
<stop offset="1" stop-color="#0075FE"/>
</linearGradient>
</defs>
</svg>
