<svg width="72" height="62" viewBox="0 0 72 62" fill="none" xmlns="http://www.w3.org/2000/svg">
<path d="M68.1021 14.6157H59.0502V3.46469C59.0502 1.55434 57.496 0 55.5855 0H3.46455C1.5542 0 0 1.5542 0 3.46469V44.6439C0 45.5599 0.546814 46.3781 1.39303 46.7287C1.67385 46.845 1.96766 46.9016 2.25882 46.9016C2.84477 46.9016 3.4194 46.6722 3.85202 46.2396L11.0277 39.0639H12.5165V50.2151C12.5165 52.1254 14.0707 53.6797 15.9812 53.6797H37.8049C38.3839 53.6797 38.8533 53.2104 38.8533 52.6314C38.8533 52.0524 38.3839 51.5831 37.8049 51.5831H15.9812C15.2269 51.5831 14.6132 50.9694 14.6132 50.2151V39.0639H55.5855C57.4958 39.0639 59.0502 37.5097 59.0502 35.5992V28.1499C59.0502 27.5709 58.5808 27.1015 58.0018 27.1015C57.4229 27.1015 56.9535 27.5709 56.9535 28.1499V35.5992C56.9535 36.3535 56.3399 36.9673 55.5855 36.9673H10.5935C10.3155 36.9673 10.0488 37.0777 9.8523 37.2743L2.36953 44.7571C2.34688 44.7796 2.29377 44.8326 2.19536 44.7918C2.09668 44.7505 2.09668 44.6758 2.09668 44.6438V3.46469C2.09668 2.71045 2.71031 2.09668 3.46455 2.09668H55.5855C56.3397 2.09668 56.9535 2.71031 56.9535 3.46469V23.5383C56.9535 24.1173 57.4229 24.5866 58.0018 24.5866C58.5808 24.5866 59.0502 24.1173 59.0502 23.5383V16.7125H68.1021C68.8563 16.7125 69.47 17.3261 69.47 18.0804V59.2596C69.47 59.2916 69.47 59.3664 69.3713 59.4072C69.2727 59.4481 69.2199 59.3952 69.1971 59.3725L61.7144 51.8897C61.5178 51.6931 61.2511 51.5826 60.9731 51.5826H42.4162C41.8373 51.5826 41.3679 52.052 41.3679 52.631C41.3679 53.2099 41.8373 53.6793 42.4162 53.6793H60.539L67.7146 60.855C68.1474 61.2878 68.7219 61.517 69.3078 61.517C69.5988 61.517 69.8928 61.4604 70.1736 61.3441C71.0198 60.9935 71.5665 60.1753 71.5665 59.2593V18.0804C71.5666 16.17 70.0125 14.6157 68.1021 14.6157Z" fill="url(#paint0_linear)"/>
<path d="M31.0214 30.3145C30.5349 30.5644 30.0323 30.8048 29.5267 31.0292C29.0211 30.8048 28.5185 30.5644 28.0321 30.3145C25.5782 29.0533 23.3998 27.4848 21.557 25.6525C21.1464 25.2443 20.4826 25.2461 20.0745 25.6567C19.6663 26.0672 19.6681 26.731 20.0787 27.1391C22.0746 29.1236 24.428 30.8192 27.0736 32.1791C27.6105 32.4551 28.1654 32.7199 28.7227 32.9661C28.9782 33.079 29.2525 33.1355 29.5267 33.1355C29.8008 33.1355 30.0751 33.079 30.3304 32.9662C30.8882 32.7198 31.4429 32.4551 31.9798 32.1791C40.4082 27.8466 44.8179 20.5736 44.8179 15.6284C44.8179 10.2783 40.7103 5.92578 35.6612 5.92578C33.3792 5.92578 31.1997 6.82442 29.5267 8.42502C27.8537 6.82442 25.6741 5.92578 23.3921 5.92578C18.3426 5.92578 14.2344 10.2783 14.2344 15.6284C14.2344 17.9261 15.2493 20.7718 17.0189 23.436C17.3393 23.9184 17.9901 24.0496 18.4722 23.7292C18.9546 23.4089 19.0858 22.7582 18.7654 22.276C17.2184 19.9467 16.3309 17.5236 16.3309 15.6282C16.3309 11.4343 19.4984 8.02232 23.392 8.02232C25.4304 8.02232 27.3694 8.97268 28.7121 10.6298C28.9111 10.8755 29.2104 11.0182 29.5266 11.0182C29.8428 11.0182 30.142 10.8755 30.3412 10.6298C31.6838 8.97268 33.6228 8.02232 35.6612 8.02232C39.5542 8.02232 42.7213 11.4343 42.7213 15.6282C42.7213 18.9812 39.5449 25.9331 31.0214 30.3145Z" fill="url(#paint1_linear)"/>
<path d="M62.2645 43.5342C62.8435 43.5342 63.3129 43.0648 63.3129 42.4858C63.3129 41.9069 62.8435 41.4375 62.2645 41.4375H49.7124C49.1334 41.4375 48.6641 41.9069 48.6641 42.4858C48.6641 43.0648 49.1334 43.5342 49.7124 43.5342H62.2645Z" fill="url(#paint2_linear)"/>
<path d="M45.0778 42.4858C45.0778 41.9069 44.6084 41.4375 44.0295 41.4375H19.6147C19.0358 41.4375 18.5664 41.9069 18.5664 42.4858C18.5664 43.0648 19.0358 43.5342 19.6147 43.5342H44.0295C44.6084 43.5342 45.0778 43.0648 45.0778 42.4858Z" fill="url(#paint3_linear)"/>
<path d="M32.8022 47.6943H62.2638C62.8428 47.6943 63.3121 47.225 63.3121 46.646C63.3121 46.067 62.8428 45.5977 62.2638 45.5977H32.8022C32.2233 45.5977 31.7539 46.067 31.7539 46.646C31.7539 47.225 32.2231 47.6943 32.8022 47.6943Z" fill="url(#paint4_linear)"/>
<path d="M19.6147 45.5977C19.0358 45.5977 18.5664 46.067 18.5664 46.646C18.5664 47.225 19.0358 47.6943 19.6147 47.6943H27.082C27.661 47.6943 28.1303 47.225 28.1303 46.646C28.1303 46.067 27.661 45.5977 27.082 45.5977H19.6147Z" fill="url(#paint5_linear)"/>
<path d="M43.1694 33.1357H44.8933C45.4723 33.1357 45.9417 32.6664 45.9417 32.0874C45.9417 31.5084 45.4723 31.0391 44.8933 31.0391H43.1694C42.5905 31.0391 42.1211 31.5084 42.1211 32.0874C42.1211 32.6664 42.5905 33.1357 43.1694 33.1357Z" fill="url(#paint6_linear)"/>
<defs>
<linearGradient id="paint0_linear" x1="-1.28829e-06" y1="62" x2="72" y2="2.07865e-06" gradientUnits="userSpaceOnUse">
<stop stop-color="#041C6D"/>
<stop offset="1" stop-color="#0075FF"/>
</linearGradient>
<linearGradient id="paint1_linear" x1="-2" y1="55.5" x2="74" y2="-0.500003" gradientUnits="userSpaceOnUse">
<stop stop-color="#041C6D"/>
<stop offset="1" stop-color="#0075FF"/>
</linearGradient>
<linearGradient id="paint2_linear" x1="55.9885" y1="41.4375" x2="55.9885" y2="43.5342" gradientUnits="userSpaceOnUse">
<stop stop-color="#041C6D"/>
<stop offset="1" stop-color="#0075FF"/>
</linearGradient>
<linearGradient id="paint3_linear" x1="31.8221" y1="41.4375" x2="31.8221" y2="43.5342" gradientUnits="userSpaceOnUse">
<stop stop-color="#041C6D"/>
<stop offset="1" stop-color="#0075FF"/>
</linearGradient>
<linearGradient id="paint4_linear" x1="47.533" y1="45.5977" x2="47.533" y2="47.6943" gradientUnits="userSpaceOnUse">
<stop stop-color="#041C6D"/>
<stop offset="1" stop-color="#0075FF"/>
</linearGradient>
<linearGradient id="paint5_linear" x1="23.3484" y1="45.5977" x2="23.3484" y2="47.6943" gradientUnits="userSpaceOnUse">
<stop stop-color="#041C6D"/>
<stop offset="1" stop-color="#0075FF"/>
</linearGradient>
<linearGradient id="paint6_linear" x1="44.0314" y1="31.0391" x2="44.0314" y2="33.1357" gradientUnits="userSpaceOnUse">
<stop stop-color="#041C6D"/>
<stop offset="1" stop-color="#0075FF"/>
</linearGradient>
</defs>
</svg>
