<svg width="76" height="76" viewBox="0 0 76 76" fill="none" xmlns="http://www.w3.org/2000/svg">
<circle cx="38" cy="38" r="38" fill="url(#paint0_linear)"/>
<path d="M20.0174 54.8465L24.7188 57.3535V62.9596C24.7188 63.5349 25.1561 64.0013 25.6953 64.0013H36.0469C36.5861 64.0013 37.0234 63.5349 37.0234 62.9596V49.7076C37.0234 46.3968 34.7332 43.5406 31.8095 43.2052C31.7318 43.1895 28.0352 42.8957 26.2481 40.9908L23.5743 38.1388C22.8364 37.3515 21.8556 36.918 20.8125 36.918V28.5846C20.8125 26.2871 19.0602 24.418 16.9062 24.418C14.7523 24.418 13 26.2871 13 28.5846V42.7346C13 47.8609 15.7146 52.5512 20.0174 54.8465ZM14.9531 28.5846C14.9531 27.4359 15.8293 26.5013 16.9062 26.5013C17.9832 26.5013 18.8594 27.4359 18.8594 28.5846V37.4764C17.6684 38.211 16.9062 39.5806 16.9062 41.0846C16.9062 42.1971 17.3127 43.2433 18.0507 44.0305L23.0517 49.3659C23.4328 49.7727 24.0513 49.7729 24.4327 49.366C24.8141 48.9592 24.8142 48.2997 24.4328 47.8929L19.4318 42.5573C19.0627 42.1637 18.8594 41.6407 18.8594 41.0846C18.8594 40.203 19.3825 39.4134 20.1613 39.1199C20.1616 39.1198 20.1619 39.1196 20.1622 39.1195H20.1623C20.8342 38.8655 21.6336 39.0148 22.1933 39.6118L24.8674 42.4642C26.6887 44.4056 29.3431 44.9516 31.5896 45.2753C31.5933 45.2757 31.597 45.2762 31.6007 45.2766C33.5463 45.4997 35.0703 47.4461 35.0703 49.7076V61.918H26.6719V56.7096C26.6719 56.3151 26.4628 55.9543 26.132 55.778L20.8909 52.9832C17.2284 51.0293 14.9531 47.1023 14.9531 42.7346V28.5846Z" fill="white"/>
<path d="M57.8242 53.3763C58.3636 53.3763 58.8008 52.9099 58.8008 52.3346C58.8008 51.7593 58.3636 51.293 57.8242 51.293C57.2849 51.293 56.8477 51.7593 56.8477 52.3346C56.8477 52.9099 57.2849 53.3763 57.8242 53.3763Z" fill="white"/>
<path d="M59.0938 24.418C56.9398 24.418 55.1875 26.2871 55.1875 28.5846V36.918C54.1444 36.918 53.1636 37.3515 52.4257 38.1387L49.7521 40.9905C48.1936 42.6518 45.6654 42.9288 44.1905 43.2053C41.2668 43.5407 38.9766 46.3968 38.9766 49.7076V62.9596C38.9766 63.5349 39.4139 64.0013 39.9531 64.0013H50.3047C50.8439 64.0013 51.2812 63.5349 51.2812 62.9596V57.3535L54.4775 55.6491C54.9599 55.3918 55.1555 54.7662 54.9144 54.2515C54.6732 53.737 54.0868 53.5284 53.6042 53.7856L49.868 55.7778C49.5372 55.9543 49.3281 56.3151 49.3281 56.7096V61.918H40.9297V49.7076C40.9297 47.4461 42.4537 45.4997 44.3993 45.2765C44.403 45.2761 44.4067 45.2757 44.4104 45.2752C46.6917 44.9465 49.3133 44.4035 51.1329 42.4639L53.8067 39.6118C54.3657 39.0156 55.1654 38.8654 55.8377 39.1195H55.8378C55.8381 39.1196 55.8384 39.1198 55.8387 39.1199C56.6175 39.4134 57.1406 40.203 57.1406 41.0846C57.1406 41.6407 56.9373 42.1637 56.5683 42.5576L51.5673 47.893C51.1859 48.2998 51.186 48.9593 51.5674 49.3661C51.9486 49.7728 52.5671 49.7729 52.9484 49.366L57.9494 44.0306C58.6873 43.2433 59.0938 42.1971 59.0938 41.0846C59.0938 39.5806 58.3316 38.211 57.1406 37.4764V28.5846C57.1406 27.4359 58.0168 26.5013 59.0938 26.5013C60.1707 26.5013 61.0469 27.4359 61.0469 28.5846V42.7346C61.0469 44.6405 60.596 46.5326 59.7429 48.2063C59.4852 48.7117 59.6604 49.3442 60.1344 49.619C60.6081 49.8937 61.2012 49.7068 61.4588 49.2014C62.4671 47.2233 63 44.987 63 42.7346V28.5846C63 26.2871 61.2477 24.418 59.0938 24.418Z" fill="white"/>
<path d="M38.4356 23.4025C41.5793 23.4025 44.1368 20.845 44.1368 17.7012C44.1368 14.5576 41.5793 12 38.4356 12C35.2919 12 32.7344 14.5576 32.7344 17.7012C32.7344 20.845 35.2919 23.4025 38.4356 23.4025ZM38.4356 13.1556C40.9421 13.1556 42.9812 15.1947 42.9812 17.7012C42.9812 20.2077 40.9421 22.2469 38.4356 22.2469C35.9291 22.2469 33.89 20.2077 33.89 17.7012C33.89 15.1947 35.9291 13.1556 38.4356 13.1556Z" fill="white" stroke="white" stroke-width="0.5"/>
<path d="M38.4344 26.7142C43.0423 26.7142 46.8257 30.3112 47.124 34.8449H34.5788C34.2597 34.8449 34.001 35.1035 34.001 35.4227C34.001 35.7418 34.2597 36.0004 34.5788 36.0004H47.7208C48.0399 36.0004 48.2986 35.7418 48.2986 35.4227C48.2986 29.9836 43.8736 25.5586 38.4344 25.5586C32.9953 25.5586 28.5703 29.9836 28.5703 35.4227C28.5703 35.7418 28.829 36.0004 29.1481 36.0004H31.4593C31.7784 36.0004 32.0371 35.7418 32.0371 35.4227C32.0371 35.1035 31.7784 34.8449 31.4593 34.8449H29.7449C30.0432 30.3112 33.8266 26.7142 38.4344 26.7142Z" fill="white" stroke="white" stroke-width="0.5"/>
<defs>
<linearGradient id="paint0_linear" x1="9.5" y1="61.5" x2="68.5" y2="13" gradientUnits="userSpaceOnUse">
<stop stop-color="#003CEF"/>
<stop offset="1" stop-color="#0074FF"/>
</linearGradient>
</defs>
</svg>
