<svg width="76" height="76" viewBox="0 0 76 76" fill="none" xmlns="http://www.w3.org/2000/svg">
<circle cx="38" cy="38" r="38" fill="url(#paint0_linear)"/>
<path d="M55.9853 53.207C54.5503 53.207 53.3828 54.3668 53.3828 55.7925C53.3828 57.2181 54.5502 58.3778 55.9853 58.3778C57.4202 58.3778 58.5876 57.2181 58.5876 55.7925C58.5876 54.3669 57.4202 53.207 55.9853 53.207ZM55.9852 56.8456C55.4007 56.8456 54.9251 56.3731 54.9251 55.7925C54.9251 55.2118 55.4007 54.7394 55.9852 54.7394C56.5696 54.7394 57.0452 55.2118 57.0452 55.7925C57.0452 56.3731 56.5696 56.8456 55.9852 56.8456Z" fill="white"/>
<path d="M62.9976 55.6582C62.9485 53.7653 62.1421 52.0243 60.7267 50.7561L45.2003 36.8435L58.9285 23.205C59.0187 23.1782 59.1079 23.1449 59.1939 23.0998L62.1667 21.541C62.5774 21.3256 62.8528 20.9402 62.9221 20.4841C62.9916 20.0278 62.843 19.579 62.5146 19.2524L59.1673 15.9271C58.8388 15.6009 58.3873 15.4533 57.9277 15.5223C57.4685 15.5911 57.0808 15.8647 56.8638 16.2728L55.2947 19.2261C55.2489 19.3123 55.2137 19.4015 55.1866 19.492L48.7068 25.9295C48.4056 26.2288 48.4056 26.7138 48.7068 27.0131C49.0081 27.3121 49.4962 27.3121 49.7975 27.0131L55.7438 21.1056L57.3021 22.6537L42.0953 37.7611L40.537 36.213L44.9155 31.8779C45.2167 31.5786 45.2167 31.0936 44.9155 30.7943C44.6142 30.4953 44.1261 30.4953 43.8248 30.7943L41.2678 33.3198L36.0264 28.6231C37.5124 24.3735 36.4363 19.6455 33.2126 16.443C29.9106 13.1626 24.9571 12.1172 20.5929 13.78C20.349 13.8729 20.169 14.0821 20.1147 14.3359C20.0605 14.5897 20.139 14.8536 20.3237 15.0371L26.3781 21.052C26.5572 21.23 26.656 21.4666 26.656 21.7183C26.656 21.9699 26.5573 22.2065 26.3781 22.3846L22.4463 26.2907C22.2672 26.4687 22.029 26.5668 21.7757 26.5668C21.5224 26.5668 21.2842 26.4688 21.105 26.2907L15.0505 20.2758C14.8657 20.0923 14.6003 20.0142 14.3447 20.0682C14.0892 20.1222 13.8787 20.3009 13.7851 20.5432C12.1114 24.8787 13.1637 29.7998 16.4657 33.0804C19.6104 36.2044 24.2773 37.3043 28.4875 35.9528L32.5401 40.3555C32.3454 40.7335 32.0921 41.086 31.7798 41.3963C30.6117 42.5568 28.8609 42.9225 27.3191 42.3279C27.0341 42.2178 26.7108 42.2855 26.4945 42.5003L17.0521 51.8811C14.4959 54.4206 14.4959 58.5526 17.0521 61.092C18.2905 62.3226 19.9369 63 21.6881 63C23.4392 63 25.0857 62.3226 26.324 61.0924L35.7665 51.7117C35.9825 51.497 36.0506 51.1757 35.9399 50.8926C35.3414 49.3609 35.7094 47.6214 36.8775 46.4608C38.0459 45.3003 39.7968 44.9347 41.3385 45.5292C41.6237 45.6394 41.9468 45.5714 42.163 45.3568L43.9442 43.5873C44.4805 43.0545 44.7758 42.346 44.7758 41.5926C44.7758 40.8392 44.4805 40.1307 43.9442 39.5978L43.186 38.8446L44.1084 37.9283L59.6938 51.8938C60.792 52.8779 61.4179 54.2289 61.4559 55.6977C61.494 57.1664 60.939 58.5476 59.8932 59.5864C58.8524 60.6206 57.4657 61.171 55.997 61.1395C54.5254 61.1068 53.1679 60.4945 52.1746 59.4153L40.5862 46.826C40.2985 46.5136 39.811 46.4921 39.4967 46.7776C39.1824 47.0633 39.1606 47.5479 39.448 47.8601L51.0363 60.4494C52.3165 61.8401 54.066 62.6292 55.9625 62.6713C56.0156 62.6725 56.0686 62.673 56.1216 62.673C57.9586 62.673 59.6799 61.9651 60.9838 60.6699C62.3315 59.331 63.0466 57.5511 62.9976 55.6582ZM56.6914 19.8799L58.1677 17.1012L61.3329 20.2456L58.5359 21.7123L56.6914 19.8799ZM29.2833 34.5468C29.0709 34.3163 28.7393 34.2368 28.4446 34.346C24.6735 35.7435 20.3993 34.8214 17.5562 31.9972C14.9747 29.4324 13.9744 25.7143 14.8559 22.2496L20.0143 27.3743C20.4848 27.8417 21.1103 28.099 21.7756 28.099C22.4409 28.099 23.0664 27.8417 23.5368 27.3743L27.4687 23.4682C27.9391 23.0007 28.1981 22.3793 28.1981 21.7184C28.1981 21.0574 27.9391 20.436 27.4687 19.9686L22.3103 14.8437C25.7975 13.9677 29.5405 14.9617 32.1219 17.5265C35.0374 20.4226 35.9333 24.7533 34.4046 28.5595C34.285 28.8572 34.3646 29.1975 34.6044 29.4123L40.1758 34.4047L39.4463 35.1295L38.6881 34.3763C38.1518 33.8435 37.4386 33.5501 36.6802 33.5501C35.9219 33.5501 35.2087 33.8435 34.6724 34.3763L32.8912 36.1458C32.6752 36.3605 32.607 36.6818 32.7177 36.9649C32.9229 37.4898 33.0118 38.0389 32.9966 38.581L29.2833 34.5468ZM42.8534 42.5038L41.4102 43.9377C39.4253 43.3692 37.2655 43.9085 35.787 45.3772C34.3086 46.8461 33.7656 48.9915 34.338 50.9638L25.2334 60.0087C24.2863 60.9495 23.0273 61.4677 21.6882 61.4677C20.3491 61.4677 19.0899 60.9495 18.1431 60.0087C16.1882 58.0667 16.1882 54.9067 18.1431 52.9646L27.2476 43.9196C29.2326 44.4884 31.3922 43.9487 32.8708 42.48C34.3492 41.0111 34.8922 38.8657 34.3198 36.8935L35.7631 35.4598C36.2688 34.9572 37.0918 34.9572 37.5975 35.4598L38.901 36.7548L41.5499 39.3863L42.8534 40.6813C43.3592 41.1839 43.3592 42.0015 42.8534 42.5038Z" fill="white" stroke="white" stroke-width="0.2"/>
<path d="M28.7938 46.8142C28.4925 46.5151 28.0044 46.5151 27.7031 46.8142L20.3978 54.0718C20.0966 54.3711 20.0966 54.856 20.3978 55.1554C20.5484 55.3049 20.7458 55.3797 20.9431 55.3797C21.1404 55.3797 21.3379 55.3049 21.4885 55.1554L28.7938 47.8978C29.0949 47.5985 29.0949 47.1134 28.7938 46.8142Z" fill="white"/>
<path d="M31.4892 49.4978C31.188 49.1987 30.6997 49.1987 30.3985 49.4978L23.0931 56.7553C22.7919 57.0547 22.7919 57.5396 23.0931 57.839C23.2437 57.9885 23.4411 58.0633 23.6384 58.0633C23.8357 58.0633 24.0332 57.9885 24.1838 57.839L31.4892 50.5814C31.7904 50.2821 31.7904 49.7971 31.4892 49.4978Z" fill="white"/>
<ellipse cx="46.8387" cy="28.7528" rx="1.16684" ry="1.16684" fill="white"/>
<defs>
<linearGradient id="paint0_linear" x1="9.5" y1="61.5" x2="68.5" y2="13" gradientUnits="userSpaceOnUse">
<stop stop-color="#003CEF"/>
<stop offset="1" stop-color="#0074FF"/>
</linearGradient>
</defs>
</svg>
