<svg width="76" height="76" viewBox="0 0 76 76" fill="none" xmlns="http://www.w3.org/2000/svg">
<circle cx="38" cy="38" r="38" fill="url(#paint0_linear)"/>
<g clip-path="url(#clip0)">
<path d="M57.6651 22.5641H59.21C59.7489 22.5641 60.1859 22.1271 60.1859 21.5882C60.1859 21.0493 59.7489 20.6123 59.21 20.6123H55.5015C54.9626 20.6123 54.5256 21.0493 54.5256 21.5882V25.2967C54.5256 25.8356 54.9626 26.2726 55.5015 26.2726C56.0404 26.2726 56.4774 25.8356 56.4774 25.2967V24.2229C59.4386 28.1872 61.0482 32.9972 61.0482 38C61.0482 50.7088 50.7088 61.0482 38 61.0482C25.2912 61.0482 14.9518 50.7088 14.9518 38C14.9518 25.2912 25.2912 14.9518 38 14.9518C38.9399 14.9518 39.8859 15.0089 40.8118 15.1215C41.3461 15.1861 41.8334 14.8056 41.8984 14.2705C41.9635 13.7355 41.5825 13.2489 41.0474 13.1839C40.0436 13.0619 39.0184 13 38 13C31.3223 13 25.0441 15.6004 20.3223 20.3223C15.6004 25.0441 13 31.3223 13 38C13 44.6777 15.6004 50.9559 20.3223 55.6777C25.0441 60.3996 31.3223 63 38 63C44.6777 63 50.9559 60.3996 55.6777 55.6777C60.3996 50.9559 63 44.6777 63 38C63 32.3649 61.1174 26.9552 57.6651 22.5641Z" fill="white" stroke="white" stroke-width="0.2"/>
<path d="M23.5845 27.736C23.129 27.4478 22.5262 27.5834 22.2378 28.0386C20.0099 31.5574 19.0236 35.7892 19.4607 39.9545C19.9043 44.1816 21.8068 48.1678 24.8179 51.1791C28.4518 54.8129 33.2251 56.6299 37.9986 56.6299C42.772 56.6299 47.5452 54.813 51.1792 51.1791C58.4469 43.9113 58.4469 32.0856 51.1792 24.8179C48.1726 21.8115 44.1929 19.9096 39.9728 19.4627C35.8152 19.022 31.588 20.0006 28.0707 22.2176C27.6146 22.505 27.4781 23.1076 27.7654 23.5636C28.0528 24.0196 28.6555 24.1562 29.1114 23.8689C35.7416 19.69 44.2485 20.6476 49.7989 26.1981C56.3057 32.7049 56.3057 43.292 49.7989 49.7988C43.2922 56.3057 32.7049 56.3057 26.1982 49.7988C20.7244 44.3251 19.7524 35.6127 23.887 29.0828C24.1752 28.6274 24.0398 28.0244 23.5845 27.736Z" fill="white" stroke="white" stroke-width="0.2"/>
<path d="M50.6869 38.9909H51.8904C52.4293 38.9909 52.8663 38.5539 52.8663 38.015C52.8663 37.4761 52.4293 37.0391 51.8904 37.0391H50.6869C50.148 37.0391 49.7109 37.4761 49.7109 38.015C49.7109 38.5539 50.1479 38.9909 50.6869 38.9909Z" fill="white" stroke="white" stroke-width="0.2"/>
<path d="M23.1328 37.9837C23.1328 38.5226 23.5698 38.9597 24.1087 38.9597H25.3122C25.8511 38.9597 26.2882 38.5226 26.2882 37.9837C26.2882 37.4448 25.8511 37.0078 25.3122 37.0078H24.1087C23.5698 37.0078 23.1328 37.4447 23.1328 37.9837Z" fill="white" stroke="white" stroke-width="0.2"/>
<path d="M38.9909 25.3122V24.1087C38.9909 23.5698 38.5539 23.1328 38.015 23.1328C37.4761 23.1328 37.0391 23.5698 37.0391 24.1087V25.3122C37.0391 25.8511 37.4761 26.2882 38.015 26.2882C38.5539 26.2882 38.9909 25.8511 38.9909 25.3122Z" fill="white" stroke="white" stroke-width="0.2"/>
<path d="M37.0078 50.6869V51.8904C37.0078 52.4293 37.4448 52.8663 37.9837 52.8663C38.5226 52.8663 38.9597 52.4293 38.9597 51.8904V50.6869C38.9597 50.148 38.5226 49.7109 37.9837 49.7109C37.4448 49.7109 37.0078 50.1479 37.0078 50.6869Z" fill="white" stroke="white" stroke-width="0.2"/>
<path d="M33.1075 31.7261C32.7263 31.3451 32.1085 31.3451 31.7272 31.7261C31.3461 32.1072 31.3461 32.7252 31.7272 33.1064L35.0347 36.4139C34.7813 36.8862 34.6371 37.4256 34.6371 37.9981C34.6371 39.8519 36.1453 41.3601 37.9992 41.3601C39.853 41.3601 41.3612 39.8519 41.3612 37.9981C41.3612 37.4256 41.217 36.8862 40.9636 36.4139L47.6373 29.7402C48.0184 29.3591 48.0184 28.7412 47.6373 28.36C47.2561 27.979 46.6383 27.979 46.257 28.36L39.5834 35.0336C39.1111 34.7802 38.5717 34.636 37.9992 34.636C37.4267 34.636 36.8873 34.7803 36.415 35.0336L33.1075 31.7261ZM39.4094 37.9981C39.4094 38.7757 38.7768 39.4083 37.9992 39.4083C37.2216 39.4083 36.589 38.7757 36.589 37.9981C36.589 37.2205 37.2216 36.5879 37.9992 36.5879C38.7768 36.5879 39.4094 37.2205 39.4094 37.9981Z" fill="white" stroke="white" stroke-width="0.2"/>
<path d="M26.2011 26.2011C26.3835 26.0195 26.4879 25.7677 26.4879 25.5111C26.4879 25.2544 26.3835 25.0036 26.2011 24.8211C26.0195 24.6397 25.7686 24.5352 25.5111 24.5352C25.2544 24.5352 25.0026 24.6396 24.8211 24.8211C24.6397 25.0026 24.5352 25.2544 24.5352 25.5111C24.5352 25.7687 24.6396 26.0195 24.8211 26.2011C25.0026 26.3825 25.2544 26.487 25.5111 26.487C25.7686 26.487 26.0195 26.3825 26.2011 26.2011Z" fill="white" stroke="white" stroke-width="0.2"/>
<path d="M44.7611 15.9167C45.0188 15.9167 45.2706 15.8131 45.452 15.6307C45.6336 15.4492 45.7381 15.1983 45.7381 14.9408C45.7381 14.6841 45.6337 14.4323 45.452 14.2508C45.2706 14.0694 45.0188 13.9648 44.7611 13.9648C44.5044 13.9648 44.2526 14.0693 44.0712 14.2508C43.8897 14.4323 43.7852 14.6841 43.7852 14.9408C43.7852 15.1984 43.8896 15.4492 44.0712 15.6307C44.2526 15.8131 44.5044 15.9167 44.7611 15.9167Z" fill="white" stroke="white" stroke-width="0.2"/>
</g>
<defs>
<linearGradient id="paint0_linear" x1="9.5" y1="61.5" x2="68.5" y2="13" gradientUnits="userSpaceOnUse">
<stop stop-color="#003CEF"/>
<stop offset="1" stop-color="#0074FF"/>
</linearGradient>
<clipPath id="clip0">
<rect width="50" height="50" fill="white" transform="translate(13 13)"/>
</clipPath>
</defs>
</svg>
