<svg width="76" height="76" viewBox="0 0 76 76" fill="none" xmlns="http://www.w3.org/2000/svg">
<circle cx="38" cy="38" r="38" fill="url(#paint0_linear)"/>
<path d="M59.07 16H26.6334C26.1844 16 25.8203 16.4178 25.8203 16.9331C25.8203 17.4484 26.1844 17.8663 26.6334 17.8663H59.0698C60.3397 17.8663 61.3727 19.052 61.3727 20.5092V55.1271C61.3727 56.5846 60.3395 57.7701 59.0698 57.7701H33.3374C32.8883 57.7701 32.5243 58.1879 32.5243 58.7032C32.5243 59.2185 32.8883 59.6363 33.3374 59.6363H59.0698C61.2364 59.6363 62.9988 57.6136 62.9989 55.1271V20.5092C62.999 18.0227 61.2364 16 59.07 16Z" fill="white"/>
<path d="M30.0859 57.7701H16.9291C15.6592 57.7701 14.6262 56.5843 14.6262 55.1272V20.5091C14.6262 19.0518 15.6592 17.8663 16.9291 17.8663H23.3819C23.8309 17.8663 24.195 17.4484 24.195 16.9331C24.195 16.4178 23.8309 16 23.3819 16H16.9291C14.7625 16 13 18.0227 13 20.5091V55.1272C13 57.6135 14.7625 59.6362 16.9291 59.6362H30.0858C30.5349 59.6362 30.8989 59.2184 30.8989 58.7031C30.8989 58.1878 30.535 57.7701 30.0859 57.7701Z" fill="white"/>
<path d="M57.5461 28.0312H18.4576C18.0086 28.0312 17.6445 28.4491 17.6445 28.9644V53.2315C17.6445 53.7468 18.0086 54.1647 18.4576 54.1647H47.3889C47.8379 54.1647 48.202 53.7468 48.202 53.2315C48.202 52.7162 47.8379 52.2984 47.3889 52.2984H19.2707V29.8975H56.733V52.2984H50.6412C50.1922 52.2984 49.8282 52.7162 49.8282 53.2315C49.8282 53.7468 50.1922 54.1647 50.6412 54.1647H57.5461C57.9951 54.1647 58.3592 53.7468 58.3592 53.2315V28.9644C58.3592 28.4491 57.9951 28.0312 57.5461 28.0312Z" fill="white"/>
<path d="M57.4414 22.6283C57.4414 23.2544 56.8359 23.8737 55.9414 23.8737C55.0469 23.8737 54.4414 23.2544 54.4414 22.6283C54.4414 22.0022 55.0469 21.3828 55.9414 21.3828C56.8359 21.3828 57.4414 22.0022 57.4414 22.6283Z" fill="white" stroke="white"/>
<path d="M52.0234 22.6283C52.0234 23.2544 51.4179 23.8737 50.5234 23.8737C49.6289 23.8737 49.0234 23.2544 49.0234 22.6283C49.0234 22.0022 49.6289 21.3828 50.5234 21.3828C51.4179 21.3828 52.0234 22.0022 52.0234 22.6283Z" fill="white" stroke="white"/>
<path d="M46.5976 22.6283C46.5976 23.2544 45.9922 23.8737 45.0976 23.8737C44.2031 23.8737 43.5977 23.2544 43.5977 22.6283C43.5977 22.0022 44.2031 21.3828 45.0976 21.3828C45.9922 21.3828 46.5976 22.0022 46.5976 22.6283Z" fill="white" stroke="white"/>
<path d="M21.7617 34.3906C21.2094 34.3906 20.7617 34.8383 20.7617 35.3906C20.7617 35.9429 21.2094 36.3906 21.7617 36.3906V34.3906ZM37.0081 36.3906C37.5604 36.3906 38.0081 35.9429 38.0081 35.3906C38.0081 34.8383 37.5604 34.3906 37.0081 34.3906V36.3906ZM39.8388 34.3906C39.2866 34.3906 38.8388 34.8383 38.8388 35.3906C38.8388 35.9429 39.2866 36.3906 39.8388 36.3906V34.3906ZM47.8841 36.3906C48.4364 36.3906 48.8841 35.9429 48.8841 35.3906C48.8841 34.8383 48.4364 34.3906 47.8841 34.3906V36.3906ZM21.7617 38.1546C21.2094 38.1546 20.7617 38.6023 20.7617 39.1546C20.7617 39.7069 21.2094 40.1546 21.7617 40.1546V38.1546ZM31.8929 40.1546C32.4451 40.1546 32.8929 39.7069 32.8929 39.1546C32.8929 38.6023 32.4451 38.1546 31.8929 38.1546V40.1546ZM35.4189 38.1546C34.8666 38.1546 34.4189 38.6023 34.4189 39.1546C34.4189 39.7069 34.8666 40.1546 35.4189 40.1546V38.1546ZM37.9517 40.1546C38.504 40.1546 38.9517 39.7069 38.9517 39.1546C38.9517 38.6023 38.504 38.1546 37.9517 38.1546V40.1546ZM41.6267 38.1546C41.0744 38.1546 40.6267 38.6023 40.6267 39.1546C40.6267 39.7069 41.0744 40.1546 41.6267 40.1546V38.1546ZM51.6585 40.1546C52.2108 40.1546 52.6585 39.7069 52.6585 39.1546C52.6585 38.6023 52.2108 38.1546 51.6585 38.1546V40.1546ZM21.7617 42.4721C21.2094 42.4721 20.7617 42.9198 20.7617 43.4721C20.7617 44.0244 21.2094 44.4721 21.7617 44.4721V42.4721ZM39.4912 44.4721C40.0435 44.4721 40.4912 44.0244 40.4912 43.4721C40.4912 42.9198 40.0435 42.4721 39.4912 42.4721V44.4721ZM43.1662 42.4721C42.6139 42.4721 42.1662 42.9198 42.1662 43.4721C42.1662 44.0244 42.6139 44.4721 43.1662 44.4721V42.4721ZM47.8841 44.4721C48.4364 44.4721 48.8841 44.0244 48.8841 43.4721C48.8841 42.9198 48.4364 42.4721 47.8841 42.4721V44.4721ZM21.7617 46.9003C21.2094 46.9003 20.7617 47.348 20.7617 47.9003C20.7617 48.4526 21.2094 48.9003 21.7617 48.9003V46.9003ZM28.4661 48.9003C29.0184 48.9003 29.4661 48.4526 29.4661 47.9003C29.4661 47.348 29.0184 46.9003 28.4661 46.9003V48.9003ZM31.5452 46.9003C30.9929 46.9003 30.5452 47.348 30.5452 47.9003C30.5452 48.4526 30.9929 48.9003 31.5452 48.9003V46.9003ZM32.2902 48.9003C32.8424 48.9003 33.2902 48.4526 33.2902 47.9003C33.2902 47.348 32.8424 46.9003 32.2902 46.9003V48.9003ZM36.1638 46.9003C35.6115 46.9003 35.1638 47.348 35.1638 47.9003C35.1638 48.4526 35.6115 48.9003 36.1638 48.9003V46.9003ZM50.8639 48.9003C51.4162 48.9003 51.8639 48.4526 51.8639 47.9003C51.8639 47.348 51.4162 46.9003 50.8639 46.9003V48.9003ZM21.7617 36.3906H37.0081V34.3906H21.7617V36.3906ZM39.8388 36.3906H47.8841V34.3906H39.8388V36.3906ZM21.7617 40.1546H31.8929V38.1546H21.7617V40.1546ZM35.4189 40.1546H37.9517V38.1546H35.4189V40.1546ZM41.6267 40.1546H51.6585V38.1546H41.6267V40.1546ZM21.7617 44.4721H39.4912V42.4721H21.7617V44.4721ZM43.1662 44.4721H47.8841V42.4721H43.1662V44.4721ZM21.7617 48.9003H28.4661V46.9003H21.7617V48.9003ZM31.5452 48.9003H32.2902V46.9003H31.5452V48.9003ZM36.1638 48.9003H50.8639V46.9003H36.1638V48.9003Z" fill="white"/>
<defs>
<linearGradient id="paint0_linear" x1="9.5" y1="61.5" x2="68.5" y2="13" gradientUnits="userSpaceOnUse">
<stop stop-color="#003CEF"/>
<stop offset="1" stop-color="#0074FF"/>
</linearGradient>
</defs>
</svg>
