<svg width="76" height="76" viewBox="0 0 76 76" fill="none" xmlns="http://www.w3.org/2000/svg">
<circle cx="38" cy="38" r="38" fill="url(#paint0_linear)"/>
<path d="M59.5901 56.0178C61.4703 56.0178 63 54.4881 63 52.6078V17.8828C63 15.1904 60.8096 13 58.1172 13H17.8828C15.1904 13 13 15.1904 13 17.8828V52.6078C13 54.4881 14.5297 56.0178 16.4099 56.0178H17.4922V61.0469H13.9766C13.4372 61.0469 13 61.4842 13 62.0234C13 62.5627 13.4372 63 13.9766 63H62.0234C62.5628 63 63 62.5627 63 62.0234C63 61.4842 62.5628 61.0469 62.0234 61.0469H58.5078V56.0178H59.5901ZM14.9531 17.8828C14.9531 16.2674 16.2674 14.9531 17.8828 14.9531H58.1172C59.7326 14.9531 61.0469 16.2674 61.0469 17.8828V20.0312H15.0512C15.0181 20.0312 14.9854 20.033 14.9531 20.0362V17.8828ZM23.7422 61.0469H19.4453V52.2578H23.7422V61.0469ZM34.6797 61.0469H30.3828V41.4602H34.6797V61.0469ZM45.6172 61.0469H41.3203V49.7188H45.6172V61.0469ZM57.5312 38.0488H51.2812C50.7419 38.0488 50.3047 38.4861 50.3047 39.0254V43.9569C50.3047 44.4962 50.7419 44.9335 51.2812 44.9335C51.8206 44.9335 52.2578 44.4962 52.2578 43.9569V40.002H56.5547V61.0469H52.2578V50.5244C52.2578 49.9852 51.8206 49.5479 51.2812 49.5479C50.7419 49.5479 50.3047 49.9852 50.3047 50.5244V61.0469H47.5703V48.7422C47.5703 48.2029 47.1331 47.7656 46.5938 47.7656H40.3438C39.8044 47.7656 39.3672 48.2029 39.3672 48.7422V61.0469H36.6328V40.4836C36.6328 39.9443 36.1956 39.507 35.6562 39.507H29.4062C28.8669 39.507 28.4297 39.9443 28.4297 40.4836V61.0469H25.6953V51.2812C25.6953 50.742 25.2581 50.3047 24.7188 50.3047H18.4688C17.9294 50.3047 17.4922 50.742 17.4922 51.2812V54.0647H16.4099C15.6065 54.0647 14.9531 53.4111 14.9531 52.6078V21.9794C14.9854 21.9826 15.0181 21.9844 15.0512 21.9844H61.0469V52.6078C61.0469 53.4111 60.3934 54.0647 59.5901 54.0647H58.5078V39.0254C58.5078 38.4861 58.0706 38.0488 57.5312 38.0488Z" fill="white"/>
<path d="M56.7515 16.5156H34.6875C34.1481 16.5156 33.7109 16.9529 33.7109 17.4922C33.7109 18.0314 34.1481 18.4687 34.6875 18.4687H56.7515C57.2908 18.4687 57.728 18.0314 57.728 17.4922C57.728 16.9529 57.2908 16.5156 56.7515 16.5156Z" fill="white"/>
<path d="M23.8467 16.8018C23.665 16.6201 23.4131 16.5156 23.1562 16.5156C22.8994 16.5156 22.6475 16.62 22.4658 16.8018C22.2842 16.9834 22.1797 17.2354 22.1797 17.4922C22.1797 17.749 22.2842 18.001 22.4658 18.1825C22.6475 18.3643 22.8994 18.4687 23.1562 18.4687C23.4131 18.4687 23.665 18.3643 23.8467 18.1825C24.0283 18.001 24.1328 17.749 24.1328 17.4922C24.1328 17.2354 24.0283 16.9834 23.8467 16.8018Z" fill="white"/>
<path d="M19.9404 16.8018C19.7588 16.6201 19.5068 16.5156 19.25 16.5156C18.9932 16.5156 18.7412 16.62 18.5596 16.8018C18.3779 16.9834 18.2734 17.2354 18.2734 17.4922C18.2734 17.749 18.3779 18.001 18.5596 18.1825C18.7412 18.3643 18.9932 18.4687 19.25 18.4687C19.5068 18.4687 19.7588 18.3643 19.9404 18.1825C20.1221 18.001 20.2266 17.749 20.2266 17.4922C20.2266 17.2354 20.1221 16.9834 19.9404 16.8018Z" fill="white"/>
<path d="M27.7529 16.8018C27.5713 16.6201 27.3203 16.5156 27.0625 16.5156C26.8057 16.5156 26.5537 16.62 26.3721 16.8018C26.1904 16.9834 26.0859 17.2354 26.0859 17.4922C26.0859 17.749 26.1904 18.001 26.3721 18.1825C26.5537 18.3643 26.8057 18.4687 27.0625 18.4687C27.3193 18.4687 27.5713 18.3643 27.7529 18.1825C27.9346 18.001 28.0391 17.749 28.0391 17.4922C28.0391 17.2354 27.9346 16.9834 27.7529 16.8018Z" fill="white"/>
<path d="M51.9717 46.7471C51.79 46.5645 51.5381 46.4609 51.2812 46.4609C51.0244 46.4609 50.7725 46.5646 50.5908 46.7471C50.4092 46.9287 50.3047 47.1807 50.3047 47.4375C50.3047 47.6943 50.4092 47.9463 50.5908 48.1279C50.7725 48.3095 51.0244 48.4141 51.2812 48.4141C51.5381 48.4141 51.79 48.3096 51.9717 48.1279C52.1533 47.9463 52.2578 47.6943 52.2578 47.4375C52.2578 47.1797 52.1533 46.9287 51.9717 46.7471Z" fill="white"/>
<path d="M54.4086 26.2734C52.47 26.2734 50.893 27.8505 50.893 29.7891C50.893 30.5591 51.1425 31.2716 51.5639 31.8514L45.0771 38.3382C44.5737 38.0596 43.9954 37.9004 43.3804 37.9004C42.8262 37.9004 42.3017 38.0298 41.835 38.2592L35.0617 31.4858C35.3403 30.9824 35.4995 30.4041 35.4995 29.7891C35.4995 27.8505 33.9225 26.2734 31.9839 26.2734C30.0453 26.2734 28.4683 27.8505 28.4683 29.7891C28.4683 30.4666 28.6614 31.0996 28.9948 31.6369L23.2279 37.4037C22.7245 37.1251 22.1462 36.9659 21.5312 36.9659C19.5927 36.9659 18.0156 38.543 18.0156 40.4815C18.0156 42.4201 19.5927 43.9972 21.5312 43.9972C23.4698 43.9972 25.0469 42.4201 25.0469 40.4815C25.0469 39.8665 24.8877 39.2882 24.6091 38.7848L30.4448 32.949C30.91 33.1765 31.4322 33.3046 31.9839 33.3046C32.5988 33.3046 33.1771 33.1454 33.6806 32.8668L40.3876 39.5737C40.0564 40.1099 39.8647 40.7407 39.8647 41.4158C39.8647 43.3544 41.4418 44.9314 43.3804 44.9314C45.3189 44.9314 46.896 43.3544 46.896 41.4158C46.896 40.8008 46.7368 40.2225 46.4582 39.719L53.1188 33.0584C53.5185 33.2168 53.9534 33.3047 54.4086 33.3047C56.3471 33.3047 57.9242 31.7276 57.9242 29.7891C57.9242 27.8505 56.3471 26.2734 54.4086 26.2734ZM21.5313 42.0442C20.6698 42.0442 19.9688 41.3433 19.9688 40.4817C19.9688 39.6202 20.6698 38.9192 21.5313 38.9192C22.3929 38.9192 23.0938 39.6202 23.0938 40.4817C23.0938 41.3433 22.3929 42.0442 21.5313 42.0442ZM31.984 31.3516C31.1225 31.3516 30.4215 30.6506 30.4215 29.7891C30.4215 28.9275 31.1225 28.2266 31.984 28.2266C32.8455 28.2266 33.5465 28.9275 33.5465 29.7891C33.5465 30.6506 32.8455 31.3516 31.984 31.3516ZM43.3805 42.9785C42.5189 42.9785 41.818 42.2775 41.818 41.416C41.818 40.5545 42.5189 39.8535 43.3805 39.8535C44.242 39.8535 44.943 40.5545 44.943 41.416C44.943 42.2775 44.242 42.9785 43.3805 42.9785ZM54.4086 31.3516C53.5471 31.3516 52.8461 30.6506 52.8461 29.7891C52.8461 28.9275 53.5471 28.2266 54.4086 28.2266C55.2701 28.2266 55.9711 28.9275 55.9711 29.7891C55.9711 30.6506 55.2701 31.3516 54.4086 31.3516Z" fill="white"/>
<path d="M27.4873 25.5909C27.3047 25.4093 27.0537 25.3047 26.7969 25.3047C26.5391 25.3047 26.2871 25.4092 26.1055 25.5909C25.9238 25.7725 25.8203 26.0244 25.8203 26.2813C25.8203 26.5381 25.9238 26.79 26.1055 26.9717C26.2881 27.1533 26.5391 27.2578 26.7969 27.2578C27.0537 27.2578 27.3047 27.1534 27.4873 26.9717C27.6689 26.79 27.7734 26.5381 27.7734 26.2813C27.7734 26.0244 27.6689 25.7725 27.4873 25.5909Z" fill="white"/>
<path d="M23.1563 25.3086H18.4688C17.9294 25.3086 17.4922 25.7459 17.4922 26.2852C17.4922 26.8244 17.9294 27.2617 18.4688 27.2617H23.1563C23.6956 27.2617 24.1328 26.8244 24.1328 26.2852C24.1328 25.7459 23.6956 25.3086 23.1563 25.3086Z" fill="white"/>
<path d="M23.1563 29.9922H18.4688C17.9294 29.9922 17.4922 30.4295 17.4922 30.9688C17.4922 31.508 17.9294 31.9453 18.4688 31.9453H23.1563C23.6956 31.9453 24.1328 31.508 24.1328 30.9688C24.1328 30.4295 23.6956 29.9922 23.1563 29.9922Z" fill="white"/>
<defs>
<linearGradient id="paint0_linear" x1="9.5" y1="61.5" x2="68.5" y2="13" gradientUnits="userSpaceOnUse">
<stop stop-color="#003CEF"/>
<stop offset="1" stop-color="#0074FF"/>
</linearGradient>
</defs>
</svg>
