<svg width="76" height="76" viewBox="0 0 76 76" fill="none" xmlns="http://www.w3.org/2000/svg">
<circle cx="38" cy="38" r="38" fill="url(#paint0_linear)"/>
<path d="M32.1406 18.8594C31.6016 18.8594 31.1641 19.2969 31.1641 19.8359C31.1641 20.375 31.6016 20.8125 32.1406 20.8125C32.6797 20.8125 33.1172 20.375 33.1172 19.8359C33.1172 19.2969 32.6797 18.8594 32.1406 18.8594Z" fill="white"/>
<path d="M37.9999 26.6719C37.4615 26.6719 37.0234 26.2338 37.0234 25.6953C37.0234 25.1568 37.4615 24.7188 37.9999 24.7188C38.3458 24.7188 38.7111 24.8952 39.0561 25.2292C39.4439 25.6043 40.062 25.594 40.4371 25.2065C40.8121 24.819 40.8019 24.2007 40.4144 23.8256C39.9188 23.346 39.4229 23.0747 38.9765 22.9267V21.7891C38.9765 21.2497 38.5392 20.8125 37.9999 20.8125C37.4607 20.8125 37.0234 21.2497 37.0234 21.7891V22.9336C35.8868 23.3367 35.0702 24.4222 35.0702 25.6953C35.0702 27.3108 36.3845 28.625 37.9999 28.625C38.5384 28.625 38.9765 29.0631 38.9765 29.6016C38.9765 30.1401 38.5384 30.5781 37.9999 30.5781C37.5828 30.5781 37.1324 30.3157 36.7319 29.8394C36.3849 29.4265 35.7688 29.3733 35.356 29.7203C34.9431 30.0674 34.8899 30.6834 35.2368 31.0962C35.7589 31.7172 36.3728 32.1499 37.0234 32.3681V33.5078C37.0234 34.0472 37.4607 34.4844 37.9999 34.4844C38.5392 34.4844 38.9765 34.0472 38.9765 33.5078V32.3633C40.1131 31.9602 40.9296 30.8747 40.9296 29.6016C40.9296 27.9861 39.6154 26.6719 37.9999 26.6719Z" fill="white"/>
<path d="M59.0938 27.2578C56.9399 27.2578 55.1876 29.0102 55.1876 31.1641V38.124C53.8903 37.79 52.4587 38.135 51.4492 39.1444L44.8998 45.6938C43.977 46.6154 43.4688 47.8419 43.4688 49.1475V54.8946H42.4922C41.9529 54.8946 41.5156 55.3318 41.5156 55.8711V62.0235C41.5156 62.5628 41.9529 63 42.4922 63H56.1641C56.7034 63 57.1407 62.5628 57.1407 62.0235V55.8711C57.1407 55.3318 56.7034 54.8946 56.1641 54.8946H55.1876V54.4336C55.1876 54.1769 55.2919 53.9252 55.4739 53.7433L61.5696 47.6476C62.4921 46.725 63.0001 45.4987 63.0001 44.1944V31.1641C63.0001 29.0102 61.2478 27.2578 59.0938 27.2578ZM55.1876 61.0469H43.4688V56.8477H55.1876V61.0469ZM61.047 44.1944C61.047 44.977 60.7421 45.7129 60.1885 46.2665L54.0927 52.3622C53.5472 52.9077 53.2344 53.6627 53.2344 54.4336V54.8946H45.4219V49.1475C45.4219 48.3641 45.7266 47.6283 46.2804 47.0753L52.8302 40.5255C53.5632 39.7924 54.7408 39.7595 55.5109 40.4505C55.5165 40.4554 55.522 40.4604 55.5277 40.4652C55.55 40.4842 55.5709 40.5047 55.592 40.5258C55.9609 40.8945 56.1641 41.3847 56.1641 41.9063C56.1641 42.4279 55.9609 42.9181 55.5918 43.287L50.7392 48.1396C50.3579 48.5209 50.3579 49.1393 50.7392 49.5207C51.1207 49.9021 51.7388 49.9022 52.1204 49.5207L56.9727 44.6685C57.7107 43.9308 58.1173 42.9499 58.1173 41.9063C58.1173 40.9453 57.7718 40.0379 57.1407 39.3242V31.1641C57.1407 30.0871 58.0169 29.2109 59.0938 29.2109C60.1708 29.2109 61.047 30.0871 61.047 31.1641V44.1944Z" fill="white"/>
<path d="M33.5079 54.8946H32.5313V49.1475C32.5313 47.8419 32.0231 46.6154 31.1009 45.6943L24.551 39.1444C23.5414 38.1348 22.1098 37.7899 20.8125 38.124V31.1641C20.8125 29.0102 19.0602 27.2578 16.9063 27.2578C14.7524 27.2578 13 29.0102 13 31.1641V44.1944C13 45.4987 13.508 46.725 14.4305 47.6476L20.5262 53.7432C20.7082 53.9252 20.8125 54.1768 20.8125 54.4336V54.8946H19.836C19.2967 54.8946 18.8594 55.3318 18.8594 55.8711V62.0235C18.8594 62.5628 19.2967 63 19.836 63H33.5079C34.0472 63 34.4845 62.5628 34.4845 62.0235V55.8711C34.4845 55.3318 34.0472 54.8946 33.5079 54.8946ZM15.8116 46.2666C15.258 45.7129 14.9531 44.977 14.9531 44.1944V31.1641C14.9531 30.0871 15.8293 29.2109 16.9063 29.2109C17.9832 29.2109 18.8594 30.0871 18.8594 31.1641V39.3241C18.2283 40.0378 17.8828 40.9451 17.8828 41.9063C17.8828 42.9499 18.2894 43.9308 19.0273 44.6681L23.9101 49.5509C24.2916 49.9323 24.9097 49.9323 25.2913 49.5509C25.6726 49.1696 25.6726 48.5512 25.2913 48.1698L20.4081 43.2866C20.0392 42.9181 19.836 42.4279 19.836 41.9063C19.836 41.3847 20.0392 40.8945 20.4078 40.5259C20.4291 40.5047 20.4501 40.4842 20.4723 40.4652L20.4891 40.4505C21.2591 39.7595 22.4368 39.7925 23.1698 40.5255L29.7201 47.0757C30.2734 47.6283 30.5781 48.364 30.5781 49.1474V54.8946H22.7656V54.4336C22.7657 53.6627 22.4529 52.9077 21.9074 52.3622L15.8116 46.2666ZM32.5313 61.0469H20.8125V56.8477H32.5313V61.0469Z" fill="white"/>
<path d="M38.0001 13C29.9229 13 23.3516 19.5713 23.3516 27.6485C23.3516 35.7256 29.9229 42.2969 38.0001 42.2969C46.0773 42.2969 52.6486 35.7256 52.6486 27.6485C52.6486 19.5713 46.0773 13 38.0001 13ZM38.0001 40.3438C30.9997 40.3438 25.3047 34.6487 25.3047 27.6485C25.3047 20.6483 30.9997 14.9531 38.0001 14.9531C45.0004 14.9531 50.6954 20.6483 50.6954 27.6485C50.6954 34.6487 45.0004 40.3438 38.0001 40.3438Z" fill="white"/>
<path d="M44.7436 19.2869C42.2025 17.2351 38.8767 16.4613 35.6205 17.1634C35.0932 17.277 34.7579 17.7966 34.8716 18.3238C34.9853 18.8509 35.5049 19.1859 36.0321 19.0725C38.7087 18.4954 41.4369 19.1273 43.5168 20.8064C45.5964 22.4856 46.7892 24.9797 46.7892 27.6493C46.7892 32.4956 42.8464 36.4384 38.0001 36.4384C33.1537 36.4384 29.2109 32.4956 29.2109 27.6493C29.2109 26.2016 29.5703 24.7667 30.2502 23.4997C30.5052 23.0245 30.3267 22.4325 29.8515 22.1774C29.3762 21.9223 28.7841 22.101 28.5292 22.5761C27.6975 24.1262 27.2578 25.8804 27.2578 27.6493C27.2578 33.5725 32.0768 38.3915 38.0001 38.3915C43.9233 38.3915 48.7423 33.5725 48.7423 27.6493C48.7423 24.3865 47.2849 21.3385 44.7436 19.2869Z" fill="white"/>
<defs>
<linearGradient id="paint0_linear" x1="9.5" y1="61.5" x2="68.5" y2="13" gradientUnits="userSpaceOnUse">
<stop stop-color="#003CEF"/>
<stop offset="1" stop-color="#0074FF"/>
</linearGradient>
</defs>
</svg>
